/* XPM */
char *all_icon[] = {
/* width height num_colors chars_per_pixel */
"    11     8       44            1",
/* colors */
". c #1a1c10",
"# c #1d1f12",
"a c #232418",
"b c #2c2e22",
"c c #2d3022",
"d c #323426",
"e c #36382c",
"f c #3b3b2f",
"g c #424536",
"h c #47473c",
"i c #47493c",
"j c #48493e",
"k c #4d4d42",
"l c #4f4f43",
"m c #525247",
"n c #53554a",
"o c #616152",
"p c #676759",
"q c #67675d",
"r c #686a60",
"s c #6c6c60",
"t c #6c6d62",
"u c #707061",
"v c #707167",
"w c #727367",
"x c #74756b",
"y c #7d7f74",
"z c #828478",
"A c #88887e",
"B c #8a8a81",
"C c #8d8d84",
"D c #8e8f83",
"E c #909087",
"F c #96968c",
"G c #97978d",
"H c #9a9a8b",
"I c #9b9b91",
"J c #9fa193",
"K c #a1a197",
"L c #a4a499",
"M c #a5a599",
"N c #a5a59a",
"O c #abab9f",
"P c #b7b7aa",
/* pixels */
"JJJJJD#DD#D",
"HpouPLfNNfN",
"wtxigy.zz.z",
"MsmhlEfKKfK",
"cirnbv.zz.z",
"fAIqkBfKKfK",
"jadebv.zz.z",
"FBCBEGEOOEO"
};
