/* XPM */
static char *big_font256[] = {
/* width height num_colors chars_per_pixel */
"    12   1140       12            1",
/* colors */
". c #808080",
"# c #553f55",
"a c #555f55",
"b c #7f5f55",
"c c #7f7f55",
"d c #aa9faa",
"e c #d4bfaa",
"f c #2a1f00",
"g c #2a3f00",
"h c #2a3f55",
"i c #a0a0a4",
"j c #ffffff",
/* pixels */
"jjjjjjjjjjjj",
"jjjjjjjjjjjj",
"jjjjjjjjjjjj",
"jjjjjjjjjjjj",
"jjjjjjjjjjjj",
"jjjjjjjjjjjj",
"jjjjjjjjjjjj",
"jjjjjjjjjjjj",
"jjjjjjjjjjjj",
"jjjjjjjjjjjj",
"jjjjjjjjjjjj",
"jjjjjjjjjjjj",
"jjjjjjjjjjjj",
"jjjjjjjjjjjj",
"jjjjjjjjjjjj",
"jjjjjjjjjjjj",
"jjjjjjjjjjjj",
"jjjjjjjjjjjj",
"jjjjjjjjjjjj",
"jjjjjjjjjjjj",
"jjjjjjjjjjjj",
"jjjjjjjjjjjj",
"jjjjjjjjjjjj",
"jjjjjjjjjjjj",
"jjjjjjjjjjjj",
"jjjjjjjjjjjj",
"jjjjjjjjjjjj",
"jjjjjjjjjjjj",
"jjjjjjjjjjjj",
"jjjjjjjjjjjj",
"jjjjjjjjjjjj",
"jjjjjjjjjjjj",
"jjjjjjjjjjjj",
"jjjjjjjjjjjj",
"jjjjjjjjjjjj",
"jjjjjjjjjjjj",
"jjjjjjjjjjjj",
"jjjjjjjjjjjj",
"jjjjjjjjjjjj",
"jjjjjjjjjjjj",
"jjjjjjjjjjjj",
"jjjjjjjjjjjj",
"jjjjjjjjjjjj",
"jjjjjjjjjjjj",
"jjjjjjjjjjjj",
"jjjjjjjjjjjj",
"jjjjjjjjjjjj",
"jjjjjjjjjjjj",
"jjjjjjjjjjjj",
"jjjjjjjjjjjj",
"jjjjjjjjjjjj",
"jjjjjjjjjjjj",
"jjjjjjjjjjjj",
"jjjjjjjjjjjj",
"jjjjjjjjjjjj",
"jjjjjjjjjjjj",
"jjjjjjjjjjjj",
"jjjjjjjjjjjj",
"jjjjjjjjjjjj",
"jjjjjjjjjjjj",
"eafffaeef.ii",
"cheehae#beee",
"fgccf##fc.ii",
"haeehb#.eeee",
"ffffhg#aggai",
"eeeeb#ehaehe",
"cccafafhccf#",
"eeeaaehaebhe",
"iiafaafh#ffe",
"ee#beeahh#ee",
"i.cc..ccccc.",
"eeeeeeeeeeee",
"jjjjjjjjjjjj",
"jjjjjjjjjjjj",
"jjjjjjjjjjjj",
"jjjjjjjjjjjj",
"jjjjjjjjjjjj",
"jjjjjjjjjjjj",
"jjjjjjjjjjjj",
"jjjjjjjjjjjj",
"jjjjjjjjjjjj",
"jjjjjjjjjjjj",
"jjjjjjjjjjjj",
"jjjjjjjjjjjj",
"jjjjjjjjjjjj",
"jjjjjjjjjjjj",
"jjjjjjjjjjjj",
"jjjjjjjjjjjj",
"jjjjjjjjjjjj",
"jjjjjjjjjjjj",
"jjjjjjjjjjjj",
"jjjjjjjjjjjj",
"jjjjjjjjjjjj",
"jjjjjjjjjjjj",
"jjjjjjjjjjjj",
"jjjjjjjjjjjj",
"jjjjjjjjjjjj",
"jjjjjjjjjjjj",
"jjjjjjjjjjjj",
"jjjjjjjjjjjj",
"jjjjjjjjjjjj",
"jjjjjjjjjjjj",
"jjjjjjjjjjjj",
"jjjjjjjjjjjj",
"jjjjjjjjjjjj",
"jjjjjjjjjjjj",
"jjjjjjjjjjjj",
"jjjjjjjjjjjj",
"jjjjjjjjjjjj",
"jjjjjjjjjjjj",
"jjjjjjjjjjjj",
"jjjjjjjjjjjj",
"jjjjjjjjjjjj",
"jjjjjjjjjjjj",
"jjjjjjjjjjjj",
"jjjjjjjjjjjj",
"jjjjjjjjjjjj",
"jjjjjjjjjjjj",
"jjjjjjjjjjjj",
"jjjjjjjjjjjj",
"jjjjjjjjjjjj",
"jjjjjjjjjjjj",
"jjjjjjjjjjjj",
"jjjjjjjjjjjj",
"jjjjjjjjjjjj",
"jjjjjjjjjjjj",
"jjjjjjjjjjjj",
"jjjjjjjjjjjj",
"jjjjjjjjjjjj",
"jjjjjjjjjjjj",
"jjjjjjjjjjjj",
"jjjjjjjjjjjj",
"jjjjjjjjjjjj",
"jjjjjjjjjjjj",
"jjjjjjjjjjjj",
"jjjjjjjjjjjj",
"jjjjjjjjjjjj",
"jjjjjjjjjjjj",
"jjjjjjjjjjjj",
"jjjjjjjjjjjj",
"jjjjjjjjjjjj",
"jjjjjjjjjjjj",
"jjjjjjjjjjjj",
"jjjjjjjjjjjj",
"jjjjjjjjjjjj",
"jjjjjjjjjjjj",
"jjjjjjjjjjjj",
"jjjjjjjjjjjj",
"jjjjjjjjjjjj",
"jjjjjjjjjjjj",
"jjjjjjjjjjjj",
"jjjjjjjjjjjj",
"jjjjjjjjjjjj",
"jjjjjjjjjjjj",
"jjjjjjjjjjjj",
"jjjjjjjjjjjj",
"jjjjjjjjjjjj",
"jjjjjjjjjjjj",
"jjjjjjjjjjjj",
"jjjjjjjjjjjj",
"jjjjjjjjjjjj",
"jjjjjjjjjjjj",
"jjjjjjjjjjjj",
"jjjjjjjjjjjj",
"jjjjjjjjjjjj",
"jjjjjjjjjjjj",
"jjjjjjjjjjjj",
"jjjjjjjjjjjj",
"jjjjjjjjjjjj",
"jjjjjjjjjjjj",
"jjjjjjjjjjjj",
"jjjjjjjjjjjj",
"jjjjjjjjjjjj",
"jjjjjjjjjjjj",
"jjjjjjjjjjjj",
"jjjjjjjjjjjj",
"jjjjjjjjjjjj",
"jjjjjjjjjjjj",
"jjjjjjjjjjjj",
"jjjjjjjjjjjj",
"jjjjjjjjjjjj",
"jjjjjjjjjjjj",
"jjjjjjjjjjjj",
"jjjjjjjjjjjj",
"jjjjjjjjjjjj",
"jjjjjjjjjjjj",
"jjjjjjjjjjjj",
"jjjjjjjjjjjj",
"jjjjjjjjjjjj",
"jjjjjjjjjjjj",
"jjjjjjjjjjjj",
"jjjjjjjjjjjj",
"iiiagfffgaii",
"eeahh##hhh.e",
"ihffaccaffg.",
"ehh.eeeeah#e",
"hfhc.ii.gf#.",
"#hbeeeeihhbe",
"ffa.iii#ffa.",
"hhadee.hha.e",
"hfffgfff#c.i",
"ea#hh#ac.iee",
".ccccccc.iii",
"eeeeeeeeeeee",
"iii#f#ijjjjj",
"eee#hbejjjjj",
"iiaffa.jjjjj",
"eeah#eejjjjj",
"i.hfh.ijjjjj",
"ei#hbeejjjjj",
"iaffa.ijjjjj",
"eah#eeejjjjj",
".hfh.iijjjjj",
"e#hbeeejjjjj",
".ccc.iijjjjj",
"eeeeeeejjjjj",
"iiafffffffai",
"eea#####hh#e",
"i.cccccchff.",
"eeeeeeee#hae",
"iiafffffffa.",
"ebhh####a..e",
".ff#cccccc.i",
"ehh..eeeeeee",
"#fffggggg.ii",
"#hhhhhhhh.ee",
"ccccccccc.ii",
"eeeeeeeeeeee",
"iihffffffaij",
"eea####hhhej",
"i.ccccchff.j",
"eeeeee.#haej",
"i.ffffffhc.j",
"e.####hha.ej",
"i.cccchff.ij",
"eeeee.#h#.ej",
"#ggggfff#.ij",
"hhhhhh#b.eej",
"cccccccc.iij",
"eeeeeeeeeeej",
"iiiiii.hffaj",
"eeeeei#hhhej",
"iiiicfffffcj",
"eee.hheehaej",
"ii#ffacff#.j",
"eah#aeehh.ej",
"gffh##hff#.j",
"hhhhhhhhhhej",
"aaaaaaff#a.j",
"eeeeeehh..ej",
"i....cccc.ij",
"eeeeeeeeeeej",
"iihfffffffhj",
"eihh######aj",
"iaffaccccccj",
"eah#.eeeeeej",
".gffffffg.ij",
"ea####hhhaej",
".ccccccfff.j",
"eeeeee.hhaej",
"#gggggfffa.j",
"hhhhhh#a..ej",
"ccccccccc.ij",
"eeeeeeeeeeej",
"iiicaggfffaj",
"eeahh####eej",
"igfgaccccc.j",
"ehheeeeeeeej",
"hfffffff#iij",
"#h#####hheej",
"ffacccaffa.j",
"hhaeeeahheej",
"hfffgfff#cij",
"eahhh#a.eeej",
".ccccccc.iij",
"eeeeeeeeeeej",
"i.fffffffff.",
"ee######hh#e",
"i.ccccc#ffa.",
"eeeeeeahh.ee",
"iiiii#ffac.i",
"eeeeahh.eeee",
"iiihffac.iii",
"eeahh.eeeeee",
"ihffac.iiiii",
"ahh.eeeeeeee",
"cccc.iiiiiii",
"eeeeeeeeeeee",
"iibhffffffai",
"eehh####hh#e",
".hf#cccchff.",
"eaha.ee.#hbe",
".afffffff#c.",
"eah####hhaee",
"#ffacccfff.i",
"#ha.ee.hhaee",
"ffffggfffa.i",
"a#hhhh#a..ee",
"ccccccccc.ii",
"eeeeeeeeeeee",
"ii.afffffaii",
"ee#hh##hhhee",
"ihffaccaff#i",
"e#haeeee#hae",
".fffffffff#.",
"eea#####hh.e",
".ccccccfffci",
"eeeee.ahh.ee",
"aggggfff#c.i",
"#hh##aa.eeee",
"cccccccc.iii",
"eeeeeeeeeeee",
"iiiiijjjjjjj",
"eeeeejjjjjjj",
"iiiiijjjjjjj",
"eeeeejjjjjjj",
"iiahijjjjjjj",
"ee#aejjjjjjj",
"i.cc.jjjjjjj",
"eeeeejjjjjjj",
"iagiijjjjjjj",
"e##eejjjjjjj",
".cc.ijjjjjjj",
"eeeeejjjjjjj",
"jjjjjjjjjjjj",
"jjjjjjjjjjjj",
"jjjjjjjjjjjj",
"jjjjjjjjjjjj",
"jjjjjjjjjjjj",
"jjjjjjjjjjjj",
"jjjjjjjjjjjj",
"jjjjjjjjjjjj",
"jjjjjjjjjjjj",
"jjjjjjjjjjjj",
"jjjjjjjjjjjj",
"jjjjjjjjjjjj",
"jjjjjjjjjjjj",
"jjjjjjjjjjjj",
"jjjjjjjjjjjj",
"jjjjjjjjjjjj",
"jjjjjjjjjjjj",
"jjjjjjjjjjjj",
"jjjjjjjjjjjj",
"jjjjjjjjjjjj",
"jjjjjjjjjjjj",
"jjjjjjjjjjjj",
"jjjjjjjjjjjj",
"jjjjjjjjjjjj",
"jjjjjjjjjjjj",
"jjjjjjjjjjjj",
"jjjjjjjjjjjj",
"jjjjjjjjjjjj",
"jjjjjjjjjjjj",
"jjjjjjjjjjjj",
"jjjjjjjjjjjj",
"jjjjjjjjjjjj",
"jjjjjjjjjjjj",
"jjjjjjjjjjjj",
"jjjjjjjjjjjj",
"jjjjjjjjjjjj",
"jjjjjjjjjjjj",
"jjjjjjjjjjjj",
"jjjjjjjjjjjj",
"jjjjjjjjjjjj",
"jjjjjjjjjjjj",
"jjjjjjjjjjjj",
"jjjjjjjjjjjj",
"jjjjjjjjjjjj",
"jjjjjjjjjjjj",
"jjjjjjjjjjjj",
"jjjjjjjjjjjj",
"jjjjjjjjjjjj",
"jjjjjjjjjjjj",
"jjjjjjjjjjjj",
"jjjjjjjjjjjj",
"jjjjjjjjjjjj",
"jjjjjjjjjjjj",
"jjjjjjjjjjjj",
"jjjjjjjjjjjj",
"jjjjjjjjjjjj",
"jjjjjjjjjjjj",
"jjjjjjjjjjjj",
"jjjjjjjjjjjj",
"jjjjjjjjjjjj",
"jjjjjjjjjjjj",
"jjjjjjjjjjjj",
"jjjjjjjjjjjj",
"jjjjjjjjjjjj",
"jjjjjjjjjjjj",
"jjjjjjjjjjjj",
"jjjjjjjjjjjj",
"jjjjjjjjjjjj",
"jjjjjjjjjjjj",
"jjjjjjjjjjjj",
"jjjjjjjjjjjj",
"jjjjjjjjjjjj",
"jjjjjjjjjjjj",
"jjjjjjjjjjjj",
"jjjjjjjjjjjj",
"jjjjjjjjjjjj",
"jjjjjjjjjjjj",
"jjjjjjjjjjjj",
"jjjjjjjjjjjj",
"jjjjjjjjjjjj",
"jjjjjjjjjjjj",
"jjjjjjjjjjjj",
"jjjjjjjjjjjj",
"jjjjjjjjjjjj",
"jjjjjjjjjjjj",
"jjjjjjjjjjjj",
"jjjjjjjjjjjj",
"jjjjjjjjjjjj",
"jjjjjjjjjjjj",
"jjjjjjjjjjjj",
"jjjjjjjjjjjj",
"jjjjjjjjjjjj",
"jjjjjjjjjjjj",
"jjjjjjjjjjjj",
"jjjjjjjjjjjj",
"jjjjjjjjjjjj",
"jjjjjjjjjjjj",
"jjjjjjjjjjjj",
"jjjjjjjjjjjj",
"jjjjjjjjjjjj",
"jjjjjjjjjjjj",
"jjjjjjjjjjjj",
"jjjjjjjjjjjj",
"jjjjjjjjjjjj",
"jjjjjjjjjjjj",
"jjjjjjjjjjjj",
"jjjjjjjjjjjj",
"jjjjjjjjjjjj",
"jjjjjjjjjjjj",
"jjjjjjjjjjjj",
"jjjjjjjjjjjj",
"jjjjjjjjjjjj",
"jjjjjjjjjjjj",
"jjjjjjjjjjjj",
"jjjjjjjjjjjj",
"jjjjjjjjjjjj",
"jjjjjjjjjjjj",
"jjjjjjjjjjjj",
"jjjjjjjjjjjj",
"jjjjjjjjjjjj",
"jjjjjjjjjjjj",
"jjjjjjjjjjjj",
"jjjjjjjjjjjj",
"jjjjjjjjjjjj",
"jjjjjjjjjjjj",
"jjjjjjjjjjjj",
"jjjjjjjjjjjj",
"jjjjjjjjjjjj",
"jjjjjjjjjjjj",
"jjjjjjjjjjjj",
"jjjjjjjjjjjj",
"jjjjjjjjjjjj",
"jjjjjjjjjjjj",
"jjjjjjjjjjjj",
"jjjjjjjjjjjj",
"jjjjjjjjjjjj",
"jjjjjjjjjjjj",
"jjjjjjjjjjjj",
"jjjjjjjjjjjj",
"jjjjjjjjjjjj",
"jjjjjjjjjjjj",
"jjjjjjjjjjjj",
"jjjjjjjjjjjj",
"jjjjjjjjjjjj",
"jjjjjjjjjjjj",
"jjjjjjjjjjjj",
"jjjjjjjjjjjj",
"jjjjjjjjjjjj",
"jjjjjjjjjjjj",
"jjjjjjjjjjjj",
"jjjjjjjjjjjj",
"jjjjjjjjjjjj",
"jjjjjjjjjjjj",
"jjjjjjjjjjjj",
"jjjjjjjjjjjj",
"jjjjjjjjjjjj",
"jjjjjjjjjjjj",
"jjjjjjjjjjjj",
"jjjjjjjjjjjj",
"jjjjjjjjjjjj",
"jjjjjjjjjjjj",
"jjjjjjjjjjjj",
"jjjjjjjjjjjj",
"jjjjjjjjjjjj",
"jjjjjjjjjjjj",
"jjjjjjjjjjjj",
"jjjjjjjjjjjj",
"jjjjjjjjjjjj",
"jjjjjjjjjjjj",
"jjjjjjjjjjjj",
"jjjjjjjjjjjj",
"jjjjjjjjjjjj",
"jjjjjjjjjjjj",
"jjjjjjjjjjjj",
"jjjjjjjjjjjj",
"jjjjjjjjjjjj",
"jjjjjjjjjjjj",
"jjjjjjjjjjjj",
"jjjjjjjjjjjj",
"jjjjjjjjjjjj",
"jjjjjjjjjjjj",
"jjjjjjjjjjjj",
"jjjjjjjjjjjj",
"jjjjjjjjjjjj",
"jjjjjjjjjjjj",
"jjjjjjjjjjjj",
"jjjjjjjjjjjj",
"jjjjjjjjjjjj",
"jjjjjjjjjjjj",
"jjjjjjjjjjjj",
"jjjjjjjjjjjj",
"jjjjjjjjjjjj",
"jjjjjjjjjjjj",
"jjjjjjjjjjjj",
"jjjjjjjjjjjj",
"jjjjjjjjjjjj",
"jjjjjjjjjjjj",
"jjjjjjjjjjjj",
"jjjjjjjjjjjj",
"jjjjjjjjjjjj",
"jjjjjjjjjjjj",
"jjjjjjjjjjjj",
"jjjjjjjjjjjj",
"jjjjjjjjjjjj",
"jjjjjjjjjjjj",
"jjjjjjjjjjjj",
"jjjjjjjjjjjj",
"jjjjjjjjjjjj",
"jjjjjjjjjjjj",
"jjjjjjjjjjjj",
"jjjjjjjjjjjj",
"jjjjjjjjjjjj",
"jjjjjjjjjjjj",
"jjjjjjjjjjjj",
"jjjjjjjjjjjj",
"jjjjjjjjjjjj",
"jjjjjjjjjjjj",
"jjjjjjjjjjjj",
"jjjjjjjjjjjj",
"jjjjjjjjjjjj",
"jjjjjjjjjjjj",
"jjjjjjjjjjjj",
"jjjjjjjjjjjj",
"jjjjjjjjjjjj",
"jjjjjjjjjjjj",
"jjjjjjjjjjjj",
"jjjjjjjjjjjj",
"jjjjjjjjjjjj",
"jjjjjjjjjjjj",
"jjjjjjjjjjjj",
"jjjjjjjjjjjj",
"jjjjjjjjjjjj",
"jjjjjjjjjjjj",
"jjjjjjjjjjjj",
"jjjjjjjjjjjj",
"jjjjjjjjjjjj",
"jjjjjjjjjjjj",
"jjjjjjjjjjjj",
"jjjjjjjjjjjj",
"jjjjjjjjjjjj",
"jjjjjjjjjjjj",
"jjjjjjjjjjjj",
"jjjjjjjjjjjj",
"jjjjjjjjjjjj",
"jjjjjjjjjjjj",
"jjjjjjjjjjjj",
"jjjjjjjjjjjj",
"jjjjjjjjjjjj",
"jjjjjjjjjjjj",
"jjjjjjjjjjjj",
"jjjjjjjjjjjj",
"jjjjjjjjjjjj",
"jjjjjjjjjjjj",
"jjjjjjjjjjjj",
"jjjjjjjjjjjj",
"jjjjjjjjjjjj",
"jjjjjjjjjjjj",
"jjjjjjjjjjjj",
"jjjjjjjjjjjj",
"jjjjjjjjjjjj",
"jjjjjjjjjjjj",
"jjjjjjjjjjjj",
"jjjjjjjjjjjj",
"jjjjjjjjjjjj",
"jjjjjjjjjjjj",
"jjjjjjjjjjjj",
"jjjjjjjjjjjj",
"jjjjjjjjjjjj",
"jjjjjjjjjjjj",
"jjjjjjjjjjjj",
"jjjjjjjjjjjj",
"jjjjjjjjjjjj",
"jjjjjjjjjjjj",
"jjjjjjjjjjjj",
"jjjjjjjjjjjj",
"jjjjjjjjjjjj",
"jjjjjjjjjjjj",
"jjjjjjjjjjjj",
"jjjjjjjjjjjj",
"jjjjjjjjjjjj",
"jjjjjjjjjjjj",
"jjjjjjjjjjjj",
"jjjjjjjjjjjj",
"jjjjjjjjjjjj",
"jjjjjjjjjjjj",
"jjjjjjjjjjjj",
"jjjjjjjjjjjj",
"jjjjjjjjjjjj",
"jjjjjjjjjjjj",
"jjjjjjjjjjjj",
"jjjjjjjjjjjj",
"jjjjjjjjjjjj",
"jjjjjjjjjjjj",
"jjjjjjjjjjjj",
"jjjjjjjjjjjj",
"jjjjjjjjjjjj",
"jjjjjjjjjjjj",
"jjjjjjjjjjjj",
"jjjjjjjjjjjj",
"jjjjjjjjjjjj",
"jjjjjjjjjjjj",
"jjjjjjjjjjjj",
"jjjjjjjjjjjj",
"jjjjjjjjjjjj",
"jjjjjjjjjjjj",
"jjjjjjjjjjjj",
"jjjjjjjjjjjj",
"jjjjjjjjjjjj",
"jjjjjjjjjjjj",
"jjjjjjjjjjjj",
"jjjjjjjjjjjj",
"jjjjjjjjjjjj",
"jjjjjjjjjjjj",
"jjjjjjjjjjjj",
"jjjjjjjjjjjj",
"jjjjjjjjjjjj",
"jjjjjjjjjjjj",
"jjjjjjjjjjjj",
"jjjjjjjjjjjj",
"jjjjjjjjjjjj",
"jjjjjjjjjjjj",
"jjjjjjjjjjjj",
"jjjjjjjjjjjj",
"jjjjjjjjjjjj",
"jjjjjjjjjjjj",
"jjjjjjjjjjjj",
"jjjjjjjjjjjj",
"jjjjjjjjjjjj",
"jjjjjjjjjjjj",
"jjjjjjjjjjjj",
"jjjjjjjjjjjj",
"jjjjjjjjjjjj",
"jjjjjjjjjjjj",
"jjjjjjjjjjjj",
"jjjjjjjjjjjj",
"jjjjjjjjjjjj",
"jjjjjjjjjjjj",
"jjjjjjjjjjjj",
"jjjjjjjjjjjj",
"jjjjjjjjjjjj",
"jjjjjjjjjjjj",
"jjjjjjjjjjjj",
"jjjjjjjjjjjj",
"jjjjjjjjjjjj",
"jjjjjjjjjjjj",
"jjjjjjjjjjjj",
"jjjjjjjjjjjj",
"jjjjjjjjjjjj",
"jjjjjjjjjjjj",
"jjjjjjjjjjjj",
"jjjjjjjjjjjj",
"jjjjjjjjjjjj",
"jjjjjjjjjjjj",
"jjjjjjjjjjjj",
"jjjjjjjjjjjj",
"jjjjjjjjjjjj",
"jjjjjjjjjjjj",
"jjjjjjjjjjjj",
"jjjjjjjjjjjj",
"jjjjjjjjjjjj",
"jjjjjjjjjjjj",
"jjjjjjjjjjjj",
"jjjjjjjjjjjj",
"jjjjjjjjjjjj",
"jjjjjjjjjjjj",
"jjjjjjjjjjjj",
"jjjjjjjjjjjj",
"jjjjjjjjjjjj",
"jjjjjjjjjjjj",
"jjjjjjjjjjjj",
"jjjjjjjjjjjj",
"jjjjjjjjjjjj",
"jjjjjjjjjjjj",
"jjjjjjjjjjjj",
"jjjjjjjjjjjj",
"jjjjjjjjjjjj",
"jjjjjjjjjjjj",
"jjjjjjjjjjjj",
"jjjjjjjjjjjj",
"jjjjjjjjjjjj",
"jjjjjjjjjjjj",
"jjjjjjjjjjjj",
"jjjjjjjjjjjj",
"jjjjjjjjjjjj",
"jjjjjjjjjjjj",
"jjjjjjjjjjjj",
"jjjjjjjjjjjj",
"jjjjjjjjjjjj",
"jjjjjjjjjjjj",
"jjjjjjjjjjjj",
"jjjjjjjjjjjj",
"jjjjjjjjjjjj",
"jjjjjjjjjjjj",
"jjjjjjjjjjjj",
"jjjjjjjjjjjj",
"jjjjjjjjjjjj",
"jjjjjjjjjjjj",
"jjjjjjjjjjjj",
"jjjjjjjjjjjj",
"jjjjjjjjjjjj",
"jjjjjjjjjjjj",
"jjjjjjjjjjjj",
"jjjjjjjjjjjj",
"jjjjjjjjjjjj",
"jjjjjjjjjjjj",
"jjjjjjjjjjjj",
"jjjjjjjjjjjj",
"jjjjjjjjjjjj",
"jjjjjjjjjjjj",
"jjjjjjjjjjjj",
"jjjjjjjjjjjj",
"jjjjjjjjjjjj",
"jjjjjjjjjjjj",
"jjjjjjjjjjjj",
"jjjjjjjjjjjj",
"jjjjjjjjjjjj",
"jjjjjjjjjjjj",
"jjjjjjjjjjjj",
"jjjjjjjjjjjj",
"jjjjjjjjjjjj",
"jjjjjjjjjjjj",
"jjjjjjjjjjjj",
"jjjjjjjjjjjj",
"jjjjjjjjjjjj",
"jjjjjjjjjjjj",
"jjjjjjjjjjjj",
"jjjjjjjjjjjj",
"jjjjjjjjjjjj",
"jjjjjjjjjjjj",
"jjjjjjjjjjjj",
"jjjjjjjjjjjj",
"jjjjjjjjjjjj",
"jjjjjjjjjjjj",
"jjjjjjjjjjjj",
"jjjjjjjjjjjj",
"jjjjjjjjjjjj",
"jjjjjjjjjjjj",
"jjjjjjjjjjjj",
"jjjjjjjjjjjj",
"jjjjjjjjjjjj",
"jjjjjjjjjjjj",
"jjjjjjjjjjjj",
"jjjjjjjjjjjj",
"jjjjjjjjjjjj",
"jjjjjjjjjjjj",
"jjjjjjjjjjjj",
"jjjjjjjjjjjj",
"jjjjjjjjjjjj",
"jjjjjjjjjjjj",
"jjjjjjjjjjjj",
"jjjjjjjjjjjj",
"jjjjjjjjjjjj",
"jjjjjjjjjjjj",
"jjjjjjjjjjjj",
"jjjjjjjjjjjj",
"jjjjjjjjjjjj",
"jjjjjjjjjjjj",
"jjjjjjjjjjjj",
"jjjjjjjjjjjj",
"jjjjjjjjjjjj",
"jjjjjjjjjjjj",
"jjjjjjjjjjjj",
"jjjjjjjjjjjj",
"jjjjjjjjjjjj",
"jjjjjjjjjjjj",
"jjjjjjjjjjjj",
"jjjjjjjjjjjj",
"jjjjjjjjjjjj",
"jjjjjjjjjjjj",
"jjjjjjjjjjjj",
"jjjjjjjjjjjj",
"jjjjjjjjjjjj",
"jjjjjjjjjjjj",
"jjjjjjjjjjjj",
"jjjjjjjjjjjj",
"jjjjjjjjjjjj",
"jjjjjjjjjjjj",
"jjjjjjjjjjjj",
"jjjjjjjjjjjj",
"jjjjjjjjjjjj",
"jjjjjjjjjjjj",
"jjjjjjjjjjjj",
"jjjjjjjjjjjj",
"jjjjjjjjjjjj",
"jjjjjjjjjjjj",
"jjjjjjjjjjjj",
"jjjjjjjjjjjj",
"jjjjjjjjjjjj",
"jjjjjjjjjjjj",
"jjjjjjjjjjjj",
"jjjjjjjjjjjj",
"jjjjjjjjjjjj",
"jjjjjjjjjjjj",
"jjjjjjjjjjjj",
"jjjjjjjjjjjj",
"jjjjjjjjjjjj",
"jjjjjjjjjjjj",
"jjjjjjjjjjjj",
"jjjjjjjjjjjj",
"jjjjjjjjjjjj",
"jjjjjjjjjjjj",
"jjjjjjjjjjjj",
"jjjjjjjjjjjj",
"jjjjjjjjjjjj",
"jjjjjjjjjjjj",
"jjjjjjjjjjjj",
"jjjjjjjjjjjj",
"jjjjjjjjjjjj",
"jjjjjjjjjjjj",
"jjjjjjjjjjjj",
"jjjjjjjjjjjj",
"jjjjjjjjjjjj",
"jjjjjjjjjjjj",
"jjjjjjjjjjjj",
"jjjjjjjjjjjj",
"jjjjjjjjjjjj",
"jjjjjjjjjjjj",
"jjjjjjjjjjjj",
"jjjjjjjjjjjj",
"jjjjjjjjjjjj",
"jjjjjjjjjjjj",
"jjjjjjjjjjjj",
"jjjjjjjjjjjj",
"jjjjjjjjjjjj",
"jjjjjjjjjjjj",
"jjjjjjjjjjjj",
"jjjjjjjjjjjj",
"jjjjjjjjjjjj",
"jjjjjjjjjjjj",
"jjjjjjjjjjjj",
"jjjjjjjjjjjj",
"jjjjjjjjjjjj",
"jjjjjjjjjjjj",
"jjjjjjjjjjjj",
"jjjjjjjjjjjj",
"jjjjjjjjjjjj",
"jjjjjjjjjjjj",
"jjjjjjjjjjjj",
"jjjjjjjjjjjj",
"jjjjjjjjjjjj",
"jjjjjjjjjjjj",
"jjjjjjjjjjjj",
"jjjjjjjjjjjj",
"jjjjjjjjjjjj",
"jjjjjjjjjjjj",
"jjjjjjjjjjjj",
"jjjjjjjjjjjj",
"jjjjjjjjjjjj",
"jjjjjjjjjjjj",
"jjjjjjjjjjjj",
"jjjjjjjjjjjj",
"jjjjjjjjjjjj",
"jjjjjjjjjjjj",
"jjjjjjjjjjjj",
"jjjjjjjjjjjj",
"jjjjjjjjjjjj",
"jjjjjjjjjjjj",
"jjjjjjjjjjjj",
"jjjjjjjjjjjj",
"jjjjjjjjjjjj",
"jjjjjjjjjjjj",
"jjjjjjjjjjjj",
"jjjjjjjjjjjj",
"jjjjjjjjjjjj",
"jjjjjjjjjjjj",
"jjjjjjjjjjjj",
"jjjjjjjjjjjj",
"jjjjjjjjjjjj",
"jjjjjjjjjjjj",
"jjjjjjjjjjjj",
"jjjjjjjjjjjj",
"jjjjjjjjjjjj",
"jjjjjjjjjjjj",
"jjjjjjjjjjjj",
"jjjjjjjjjjjj",
"jjjjjjjjjjjj",
"jjjjjjjjjjjj",
"jjjjjjjjjjjj",
"jjjjjjjjjjjj",
"jjjjjjjjjjjj",
"jjjjjjjjjjjj",
"jjjjjjjjjjjj",
"jjjjjjjjjjjj",
"jjjjjjjjjjjj",
"jjjjjjjjjjjj",
"jjjjjjjjjjjj",
"jjjjjjjjjjjj",
"jjjjjjjjjjjj",
"jjjjjjjjjjjj",
"jjjjjjjjjjjj",
"jjjjjjjjjjjj",
"jjjjjjjjjjjj",
"jjjjjjjjjjjj",
"jjjjjjjjjjjj",
"jjjjjjjjjjjj",
"jjjjjjjjjjjj",
"jjjjjjjjjjjj",
"jjjjjjjjjjjj",
"jjjjjjjjjjjj",
"jjjjjjjjjjjj",
"jjjjjjjjjjjj",
"jjjjjjjjjjjj",
"jjjjjjjjjjjj",
"jjjjjjjjjjjj",
"jjjjjjjjjjjj",
"jjjjjjjjjjjj",
"jjjjjjjjjjjj",
"jjjjjjjjjjjj",
"jjjjjjjjjjjj",
"jjjjjjjjjjjj",
"jjjjjjjjjjjj",
"jjjjjjjjjjjj",
"jjjjjjjjjjjj",
"jjjjjjjjjjjj",
"jjjjjjjjjjjj",
"jjjjjjjjjjjj",
"jjjjjjjjjjjj",
"jjjjjjjjjjjj",
"jjjjjjjjjjjj",
"jjjjjjjjjjjj",
"jjjjjjjjjjjj",
"jjjjjjjjjjjj",
"jjjjjjjjjjjj",
"jjjjjjjjjjjj",
"jjjjjjjjjjjj",
"jjjjjjjjjjjj",
"jjjjjjjjjjjj",
"jjjjjjjjjjjj",
"jjjjjjjjjjjj",
"jjjjjjjjjjjj",
"jjjjjjjjjjjj",
"jjjjjjjjjjjj",
"jjjjjjjjjjjj",
"jjjjjjjjjjjj",
"jjjjjjjjjjjj",
"jjjjjjjjjjjj",
"jjjjjjjjjjjj",
"jjjjjjjjjjjj",
"jjjjjjjjjjjj",
"jjjjjjjjjjjj",
"jjjjjjjjjjjj",
"jjjjjjjjjjjj",
"jjjjjjjjjjjj",
"jjjjjjjjjjjj",
"jjjjjjjjjjjj",
"jjjjjjjjjjjj",
"jjjjjjjjjjjj",
"jjjjjjjjjjjj",
"jjjjjjjjjjjj",
"jjjjjjjjjjjj",
"jjjjjjjjjjjj",
"jjjjjjjjjjjj",
"jjjjjjjjjjjj",
"jjjjjjjjjjjj",
"jjjjjjjjjjjj",
"jjjjjjjjjjjj",
"jjjjjjjjjjjj",
"jjjjjjjjjjjj",
"jjjjjjjjjjjj",
"jjjjjjjjjjjj",
"jjjjjjjjjjjj",
"jjjjjjjjjjjj",
"jjjjjjjjjjjj",
"jjjjjjjjjjjj",
"jjjjjjjjjjjj",
"jjjjjjjjjjjj",
"jjjjjjjjjjjj",
"jjjjjjjjjjjj",
"jjjjjjjjjjjj",
"jjjjjjjjjjjj",
"jjjjjjjjjjjj",
"jjjjjjjjjjjj",
"jjjjjjjjjjjj",
"jjjjjjjjjjjj",
"jjjjjjjjjjjj",
"jjjjjjjjjjjj",
"jjjjjjjjjjjj",
"jjjjjjjjjjjj",
"jjjjjjjjjjjj",
"jjjjjjjjjjjj",
"jjjjjjjjjjjj",
"jjjjjjjjjjjj",
"jjjjjjjjjjjj",
"jjjjjjjjjjjj",
"jjjjjjjjjjjj",
"jjjjjjjjjjjj",
"jjjjjjjjjjjj",
"jjjjjjjjjjjj",
"jjjjjjjjjjjj",
"jjjjjjjjjjjj",
"jjjjjjjjjjjj",
"jjjjjjjjjjjj",
"jjjjjjjjjjjj",
"jjjjjjjjjjjj",
"jjjjjjjjjjjj",
"jjjjjjjjjjjj",
"jjjjjjjjjjjj",
"jjjjjjjjjjjj",
"jjjjjjjjjjjj",
"jjjjjjjjjjjj",
"jjjjjjjjjjjj",
"jjjjjjjjjjjj",
"jjjjjjjjjjjj",
"jjjjjjjjjjjj",
"jjjjjjjjjjjj",
"jjjjjjjjjjjj",
"jjjjjjjjjjjj",
"jjjjjjjjjjjj",
"jjjjjjjjjjjj",
"jjjjjjjjjjjj",
"jjjjjjjjjjjj",
"jjjjjjjjjjjj",
"jjjjjjjjjjjj",
"jjjjjjjjjjjj",
"jjjjjjjjjjjj",
"jjjjjjjjjjjj",
"jjjjjjjjjjjj",
"jjjjjjjjjjjj",
"jjjjjjjjjjjj",
"jjjjjjjjjjjj",
"jjjjjjjjjjjj",
"jjjjjjjjjjjj",
"jjjjjjjjjjjj",
"jjjjjjjjjjjj",
"jjjjjjjjjjjj",
"jjjjjjjjjjjj",
"jjjjjjjjjjjj",
"jjjjjjjjjjjj",
"jjjjjjjjjjjj",
"jjjjjjjjjjjj",
"jjjjjjjjjjjj",
"jjjjjjjjjjjj",
"jjjjjjjjjjjj",
"jjjjjjjjjjjj",
"jjjjjjjjjjjj",
"jjjjjjjjjjjj",
"jjjjjjjjjjjj",
"jjjjjjjjjjjj",
"jjjjjjjjjjjj",
"jjjjjjjjjjjj",
"jjjjjjjjjjjj",
"jjjjjjjjjjjj",
"jjjjjjjjjjjj",
"jjjjjjjjjjjj",
"jjjjjjjjjjjj",
"jjjjjjjjjjjj",
"jjjjjjjjjjjj",
"jjjjjjjjjjjj",
"jjjjjjjjjjjj",
"jjjjjjjjjjjj",
"jjjjjjjjjjjj",
"jjjjjjjjjjjj",
"jjjjjjjjjjjj",
"jjjjjjjjjjjj",
"jjjjjjjjjjjj",
"jjjjjjjjjjjj",
"jjjjjjjjjjjj",
"jjjjjjjjjjjj",
"jjjjjjjjjjjj",
"jjjjjjjjjjjj",
"jjjjjjjjjjjj",
"jjjjjjjjjjjj",
"jjjjjjjjjjjj",
"jjjjjjjjjjjj",
"jjjjjjjjjjjj",
"jjjjjjjjjjjj",
"jjjjjjjjjjjj",
"jjjjjjjjjjjj",
"jjjjjjjjjjjj",
"jjjjjjjjjjjj",
"jjjjjjjjjjjj",
"jjjjjjjjjjjj",
"jjjjjjjjjjjj",
"jjjjjjjjjjjj",
"jjjjjjjjjjjj",
"jjjjjjjjjjjj",
"jjjjjjjjjjjj",
"jjjjjjjjjjjj",
"jjjjjjjjjjjj",
"jjjjjjjjjjjj",
"jjjjjjjjjjjj",
"jjjjjjjjjjjj",
"jjjjjjjjjjjj",
"jjjjjjjjjjjj",
"jjjjjjjjjjjj",
"jjjjjjjjjjjj",
"jjjjjjjjjjjj",
"jjjjjjjjjjjj",
"jjjjjjjjjjjj",
"jjjjjjjjjjjj",
"jjjjjjjjjjjj",
"jjjjjjjjjjjj",
"jjjjjjjjjjjj",
"jjjjjjjjjjjj",
"jjjjjjjjjjjj",
"jjjjjjjjjjjj",
"jjjjjjjjjjjj",
"jjjjjjjjjjjj",
"jjjjjjjjjjjj",
"jjjjjjjjjjjj",
"jjjjjjjjjjjj",
"jjjjjjjjjjjj",
"jjjjjjjjjjjj",
"jjjjjjjjjjjj",
"jjjjjjjjjjjj",
"jjjjjjjjjjjj",
"jjjjjjjjjjjj",
"jjjjjjjjjjjj",
"jjjjjjjjjjjj",
"jjjjjjjjjjjj",
"jjjjjjjjjjjj",
"jjjjjjjjjjjj",
"jjjjjjjjjjjj",
"jjjjjjjjjjjj",
"jjjjjjjjjjjj",
"jjjjjjjjjjjj"
};
