/* XPM */
static char *close_buttons256[] = {
/* width height num_colors chars_per_pixel */
"    13    39       17            1",
/* colors */
". c #000000",
"# c #808080",
"a c #a6caf0",
"b c #553f55",
"c c #555f55",
"d c #555faa",
"e c #557faa",
"f c #7f7faa",
"g c #7f9faa",
"h c #aa9faa",
"i c #aadfff",
"j c #2a1f00",
"k c #2a1f55",
"l c #2a3f55",
"m c #fffbf0",
"n c #a0a0a4",
"o c #ffffff",
/* pixels */
"cclkj...jl##d",
"clj.......kc#",
"lj.........l#",
"k...........c",
"j...ob.bo...l",
"....cocob...j",
".....bmc.....",
"....bobob...j",
"k...oc.co...l",
"l...........#",
"#l.........cn",
"#cb......jchg",
"ce#cckjlcfhg#",
"cblkj...jl#d#",
"clj.......kc#",
"lj.........lf",
"k...........c",
"j...al.li...l",
"....lilil...j",
".....lil.....",
"....lilil...j",
"k...il.li...l",
"b...........#",
"cl.........ch",
"#cl......jchg",
"d###bljlcfhg#",
"cblkj...jlcd#",
"clj.......k##",
"lj.........l#",
"k...........c",
"j...........l",
".....il.la..j",
".....lilil...",
"......lil...j",
"k....lilil..l",
"b....il.li..#",
"#l.........ch",
"c#l......jchg",
"d##cbljlcfhf#"
};
