/* XPM */
static char *close_buttons[] = {
/* width height num_colors chars_per_pixel */
"    13    39       73            2",
/* colors */
".. c #000000",
".# c #010101",
".a c #010202",
".b c #020202",
".c c #030303",
".d c #040404",
".e c #050505",
".f c #060606",
".g c #070707",
".h c #0a0a0a",
".i c #0a0a0c",
".j c #0b0b0b",
".k c #0b0c0e",
".l c #0c0c0d",
".m c #0c0c0e",
".n c #0c0d10",
".o c #141414",
".p c #16181b",
".q c #181a1e",
".r c #181a1f",
".s c #184766",
".t c #191b1f",
".u c #1a1b1e",
".v c #1d1d1d",
".w c #1d2025",
".x c #21242c",
".y c #25272e",
".z c #282c33",
".A c #2c2d2f",
".B c #2d3139",
".C c #2e323b",
".D c #313234",
".E c #34373f",
".F c #343742",
".G c #363943",
".H c #393c46",
".I c #393e49",
".J c #3d424c",
".K c #3e434f",
".L c #404551",
".M c #42444a",
".N c #44474c",
".O c #4c525f",
".P c #4d4d4d",
".Q c #4d5462",
".R c #53565a",
".S c #545a69",
".T c #57595e",
".U c #596173",
".V c #5c5d63",
".W c #5c6578",
".X c #5e636e",
".Y c #5f6779",
".Z c #61687a",
".0 c #626b7e",
".1 c #666e83",
".2 c #687084",
".3 c #687085",
".4 c #687186",
".5 c #697081",
".6 c #6b7385",
".7 c #6b7589",
".8 c #717a90",
".9 c #737780",
"#. c #737b8c",
"## c #7e8188",
"#a c #8d92a0",
"#b c #8d93a1",
"#c c #979ba7",
"#d c #9ea4b1",
"#e c #a1a5b1",
"#f c #b2d5ed",
"#g c #ffffff",
/* pixels */
".U.Q.J.y.p.i.a.m.w.I.Y.2.1",
".O.G.q.#...........#.B.4.7",
".K.t...................F.8",
".z.#...................a.S",
".r......#g.P...P#g.......E",
".k.......P#g.P#g.P.......p",
".a.........P#g.P.........c",
".n.......P#g.P#g.P...#.#.u",
".x...#..#g.P...P#g...#.c.M",
".L.b.#.#...........#.c.h.9",
".0.C.d.b.#.....#.b.d.j.T#d",
".3.Z.H.l.g.e.d.f.j.o.V#c#b",
".W.6#..X.N.A.v.D.R###e#a.5",
".U.Q.J.y.p.i.a.m.w.I.Y.2.1",
".O.G.q.#...........#.B.4.7",
".K.t...................F.8",
".z.#...................a.S",
".r......#f.s...s#f.......E",
".k.......s#f.s#f.s.......p",
".a.........s#f.s.........c",
".n.......s#f.s#f.s...#.#.u",
".x...#..#f.s...s#f...#.c.M",
".L.b.#.#...........#.c.h.9",
".0.C.d.b.#.....#.b.d.j.T#d",
".3.Z.H.l.g.e.d.f.j.o.V#c#b",
".W.6#..X.N.A.v.D.R###e#a.5",
".U.Q.J.y.p.i.a.m.w.I.Y.2.1",
".O.G.q.#...........#.B.4.7",
".K.t...................F.8",
".z.#...................a.S",
".r.......................E",
".k........#f.s...s#f.....p",
".a.........s#f.s#f.s.....c",
".n...........s#f.s...#.#.u",
".x...#.....s#f.s#f.s.#.c.M",
".L.b.#.#..#f.s...s#f.c.h.9",
".0.C.d.b.#.....#.b.d.j.T#d",
".3.Z.H.l.g.e.d.f.j.o.V#c#b",
".W.6#..X.N.A.v.D.R###e#a.5"
};
