/* XPM */
char *dials256[] = {
/* width height num_colors chars_per_pixel */
"    66    51       31            1",
/* colors */
". c #000000",
"# c #808080",
"a c #c0dcc0",
"b c #a6caf0",
"c c #2a5f00",
"d c #2a5f55",
"e c #553f00",
"f c #553f55",
"g c #555f00",
"h c #555f55",
"i c #557f55",
"j c #7f5f55",
"k c #7f7f55",
"l c #aa9faa",
"m c #aabfaa",
"n c #d49faa",
"o c #d4bfaa",
"p c #d4bfff",
"q c #d4dfaa",
"r c #d4dfff",
"s c #ffdfaa",
"t c #ffdfff",
"u c #ccccff",
"v c #ffccff",
"w c #2a1f00",
"x c #2a1f55",
"y c #2a3f00",
"z c #2a3f55",
"A c #fffbf0",
"B c #a0a0a4",
"C c #ffffff",
/* pixels */
"..................................................................",
"BlBBBBBBBBBBBBBBBBBBBBBBBBBBBBBBBBBBBBBBBBBBBBBBBBBBBBBBBBBBBBBBBB",
"mlmmlmlmlmlhhhhlmlmlmlaoaoaohmlmlmlmmlmlmlmlhhhhlmlmlmlaoaohmlmlml",
"oaojmlmlmllmmnmmlmlmllhhhhhhhlmlloaojmlmlmllmmnmmlmlmllhhhhhlmlmll",
"hhhhmolmlmlaoaaoajmlmlomnmlommlmlhhhhmolmlmlaoaajmnmlmlomnmomlolmm",
"omomomomommjhjhjhhomomaaujmmnmommoomommomommjhjhhmmomomaarhmommolm",
"arararhomolmaaoaamommljjjhaoaomolarau#omomolmaaoaomommljjhjaomommm",
"#jjjjjjmolmrtphanaomolaaaaaoamolm#jjjjmamolmrtphaoaomolaaaaoaoamol",
"aaaaaaaaoalkji#oaaoalatrtrjanaamoaaaaaaoaoalkji#opoaommtrtrrrjanmo",
"AtA#opoaanaaaaapopaoalkjkj#aaopmltAt#opaobomaaaaaaaapomjkjkjj#aaom",
"#j#jraapaaoCCAA#aopaaorarapapaaoak##jrqpaoaoCCCtAt#oaaorararaaopao",
"rArrAatqpoa####jArquoaCCA#AqtqpaaAraAatatapa#######auoaCCA#Aavraaa",
"AAAA#AArsratAAAArsAata####AtArsroCACCCC#atqatAAAAatAata####AtAqtap",
"#####rsrataCCA#AArAarsAAAArqAraAa#######AataCCA#AAatarsAAAArqArqtq",
"AAAAqArAtaa####raAataaCCCACCkAspaAAAAArAataa####arAqtaaCCCA#taAtaa",
"AAAjraoaoaotaraqroaaoa#####j#aaaoAAAjaaoaaopqraataouaoa#####aaaaoa",
"jh#haoaaoaoAAAAtAjaoaoaoaoaaaoaoa#h#haoapoaoAAAtjaaoaoaoaoaoaooaoa",
"aaoaoaooalahhjhhh#oomorrAhooanaloaoaaoaooanmjhjh#oaoomorta#oaaoomo",
"aravap#mmolaoaoaommmnmjjhjamommolrrap#namlalaaaaomnmmmmjhjhaonmmnm",
"jjjhhjhlmlmvauholmolmlmamamnmlmlmjhjjhmmlomlrophmlammnlaoamolmmlmm",
"mmmmomlmnmlhhjhmmllmlmaoaohmlmnmlmmmmlmlmllmjhhjlolllmlaaapaahloll",
"aoafllllBlBmllllllllllhhhhhlllllBoaohllllmlBlmlmlllmlllhfhhfhhlllB",
"hfhhBBBBBBBmomohBBBBBBlllllBBBBBBhfhhBBBBBBBmomommhBBBBllllllBBBBB",
"####BBBBB#BffffhBBBB#BB#BfBBBBB#B####BBBBB#BffffhhfBB#BB#BfBBBBB#B",
"lBlBh#B##B#B###B#B##B#hfhf#B###B#lBlBlBh##B#B###B#B##B#hhfh##B##B#",
"hfhfh##B###BBmf#B######B##B#B####hhfhfhf####BBmf#B#B#######B##B###",
"hhkhk######zyfzk######hk##kBh####fhkhk######zyfzk######h###f######",
"BBBf##################fffffff####BBBf##################fffhf######",
"fzfz######kB#B#B#f#######k#k####kfzfz######kB#B#f#####k##k#k######",
"hhjj##k#k#jxyfzffzk#jkhj#z##k#k#hhhjk#k#k#j#wzezfk#k#j#hj#z#k#k#j#",
"k#####zh#h#jhkjikj#h#jzzzfh#h#h#j####z#j#h#h#h#jk#h#h#jzzzy##h#h#j",
"zfyzzyf#h#h###zj#h#h#hkjkh#j#h#jhzfyzfh#h#hj###z#hj#h#hkjkj#hj#h#h",
"hhhhhffhjhhzzzyhhhhhhh#h#jzhhjhhhjhhjhhhhhhhzyxyhjhhhhhhh#hhhxhjhh",
"j#jzjhhjhhjhjhj#hjjhjhzzzyzjhhhjh#j#zjhjhjhjhjhjh#hjhjhfzxzzyzhhjh",
"zzwzhjhhhhh#j#hxhhhhhhhjhjhhhhhhhzzwzhhhhhhh#h###hzhhhhhhhjhjhjhhh",
"yfffhhhhhhhwwxwzhhhhhhffhxhhhhhhhyfffhhhhhhhwwxwxyxhhhhffhwhhhhhhh",
"hhhhxhhfhfhfhfhhhfhfhfwwxwhhfhfhfhhhhjhxhfhfhfhfhhhfhfhwwxwhhfhfhf",
"xwxywhfhfhfhhhwfhhfhfhhhhhfhhfhfhxwxyxyxhffhhhhyffhfhffhhhhfhfhfhf",
"yzyzzhfhfffwwxwzffhffffyzzfhwhfffyzyzzfhfhffwwxwzhfhfhfzyxhffhfhff",
"hhhwffffzhzhfhfhfhffhzxwxwwwxffdfhhhwfhffzfzhffhffhffzfhhhwfhfffzf",
"xwxxhhhfhffhhhhhhwzhzehhhhhhfhzffwxwxhfhfhfhfhhfhhfzhffwxwzhfdfdfh",
"zfezffhfzgfwwxwwxyffhfzffwffhfhfdzffzhfhffcfzffwffhffcfzffzfhfhfez",
"jhhhhhwhhfzhhhhhhfhhffzwyxhhhfhffhhhhfhfhhffywzyhhfhhffhhhhhhwhfhf",
"yxyxyxyffhfhhhwhfhffdfhhhhhffhfhfhhhwhfhhfffhhhfffhhfhfyzwzwxyfhff",
"zfffffzhhfhwxwxhhfhhffyzffhhhfhffwwxwhhfhfhdfzfhhfwhffhzeffffzhfhd",
"jikzhhhfhffhhhhhhhffhfjkhzhfhhfdfhhhhhhhfhffyzyxyzwhhffh#hzhhhfhff",
"zzxwfffzfyz#jhhffzfzyfzzzwfffzfyf##jhhfwfzezjjhhffzfzyzfzxyfffzfyf",
"fwezyzyzyzffzfwyzezyfzfwexyzyzyzzwwwxwwwzyzzhzfwyzezyzffwexyzyzyzz",
"hfzfffffffhiffwffzffzhhfzfffffffhzwxwxwxfffhjfzwffzfffhhfzfffffffh",
"zwwwywywwyxfwyxwyxywwzexwywywwywxfwxyxywywwzzwyxwyxwywzyxywywywwyx",
".................................................................."
};
