/* XPM */
char *dials[] = {
/* width height num_colors chars_per_pixel */
"    66    51      111            2",
/* colors */
".. c #040204",
".# c #84827c",
".a c #c4c2bc",
".b c #44423c",
".c c #64625c",
".d c #a4a29c",
".e c #e4e2dc",
".f c #24221c",
".g c #54524c",
".h c #74726c",
".i c #b4b2ac",
".j c #34322c",
".k c #d4d2cc",
".l c #94928c",
".m c #f4f2e4",
".n c #5c5a54",
".o c #cccac4",
".p c #4c4a44",
".q c #6c6a64",
".r c #acaaa4",
".s c #2c2a24",
".t c #7c7a74",
".u c #bcbab4",
".v c #3c3a34",
".w c #8c8a84",
".x c #eceae4",
".y c #dcdad4",
".z c #9c9a94",
".A c #fcfaf4",
".B c #5c5654",
".C c #1c1a1c",
".D c #8c8684",
".E c #ccc6c4",
".F c #4c4644",
".G c #6c6664",
".H c #aca6a4",
".I c #ece6dc",
".J c #2c2624",
".K c #54564c",
".L c #7c7674",
".M c #bcb6b4",
".N c #3c3634",
".O c #dcd6cc",
".P c #9c9694",
".Q c #645e5c",
".R c #d4cec4",
".S c #544e4c",
".T c #746e6c",
".U c #b4aeac",
".V c #342e2c",
".W c #847e7c",
".X c #c4bebc",
".Y c #443e3c",
".Z c #848684",
".0 c #c4c6bc",
".1 c #444644",
".2 c #646664",
".3 c #a4a69c",
".4 c #242624",
".5 c #747674",
".6 c #b4b6ac",
".7 c #343634",
".8 c #d4d6cc",
".9 c #94968c",
"#. c #f4f6ec",
"## c #5c5e5c",
"#a c #4c4e4c",
"#b c #6c6e6c",
"#c c #acaea4",
"#d c #2c2e2c",
"#e c #7c7e7c",
"#f c #bcbeb4",
"#g c #3c3e3c",
"#h c #948e8c",
"#i c #f4eee4",
"#j c #e4dedc",
"#k c #9c9e94",
"#l c #fcfef4",
"#m c #241e1c",
"#n c #848284",
"#o c #444244",
"#p c #646264",
"#q c #e4e6dc",
"#r c #242224",
"#s c #545254",
"#t c #747274",
"#u c #343234",
"#v c #f4f2ec",
"#w c #5c5a5c",
"#x c #cccec4",
"#y c #4c4a4c",
"#z c #6c6a6c",
"#A c #2c2a2c",
"#B c #7c7a7c",
"#C c #3c3a3c",
"#D c #8c8e8c",
"#E c #eceee4",
"#F c #dcded4",
"#G c #1c1e1c",
"#H c #ece6e4",
"#I c #545654",
"#J c #d4cecc",
"#K c #c4c6c4",
"#L c #a4a6a4",
"#M c #b4b6b4",
"#N c #d4d6d4",
"#O c #949694",
"#P c #acaeac",
"#Q c #bcbebc",
"#R c #9c9e9c",
"#S c #fcfefc",
/* pixels */
"....................................................................................................................................",
".3.3#L.3.3#L.3.3#L.3.3#L.3.3#L.3.3#L.3.3#L.3.3#L.3.3#L.3.3#L.3.3#L.3.3#L.3.3#L.3.3#L.3.3#L.3.3#L.3.3#L.3.3#L.3.3#L.3.3#L.3.3#L.3.3#L",
".U.r.U#P.U.r.r.r.r.r.r.Q#w.Q#w.U.r.r.r.r.r.r.E.0.E.0.E.a#w.r.r.r.r.U.r.U#P.U.r.r.r.r.r.r.Q#w.Q#w.U.r.r.r.r.r.r.E.0.E.0.Q.r.r.r.r.r.r",
".o.o.0.Q#P.U.i#P.U.r.r#P.i#c.i#P.U.i#P.U.r.r##.Q####.Q##.Q#P.U.r.r.o.o.E.Q#P.U.i#P.U.r.r#P.i#c.i#P.U.i#P.U.r.r.Q##.Q####.U.i#P.U.r.r",
".c.c.c.Q.6.i.i.i.i#P#P.R#x#x.o#x#x.Q.i.i#P#c.M.i.6.i.i.i.i.i.i#P#c.Q##.c##.6.i.i.i.i#P#P.R#x#x.o.c.i.i.i.i#P#c#M.i.6.i.i.i.i.i.i#P#P",
".u.u.u#M.u.M#M.M#M.i.i.c#p.G.2.c#p.c.M#M.i.i.k.k.k#p.u.u#M.M#M.i.i.u.u.u.u.u.M#M.M#M.i.i.c#p.2#p.2#M.u#M.M.i.i.k.k.k#p.u.u#M.M#M.i.i",
"#N.y#F.y#F.y.2#f.u.6.i#Q.a.X.X.a#Q#f.u.u#M.i.2.G.q.2.a#Q.X.u.u.6.i#N#F.y.y.2.a#f.u.u.6.i#Q.a.X.a.X.a#f.u.u.6.i.G.G.2.q.X#Q.X#f.u.6.i",
".q.q#z.q.q.q.2.X.u.u.i#j.e#F.q.0.a.a.a.u.u.i.0#K.0.E.0.a.0#f.u.u.i.q.q.q#z.q.a.a.a.u.u.i#j.e#j.q.0.a.a#Q.u.u.i.0#K.0#K.0.a.0#Q.u.u.i",
"#x.o.o#x.o.o.0.0.a.u.u#b#b#b.T.o.o.0.a.a.u.u#H.I#q.x.q.o.0.E.X#f.M#x.o#x#x.o.o.0.a.a.u.u#b#b#b#b.o.o.0.E.a.u.u.x.I.I.x.I#q.q.0.a.u.u",
"#v.m#v#b#J#x.o.o.E#Q.u.8.k.k#x#J#x#x.o.E#Q.u.h.h.h#b.T#x.o.o#K#Q.u#v#v#v#b#J#x#x.o.E#Q.u.8.k.k.R#J#x.o.o#K#Q.u#b#t#b.h#b.T#b.o.E#Q.u",
".5.5.5.L.y#N.O.k#x#K.a.A#l#l.A.5.O#N.k#x#K.a#F#F#F#F.y.y#N.k#x.E#Q.5.5.5.L.y.y.k.k#x#K.a.A#l#l.A.A#..h.k#x.E.a#F#j#F#F.y.y.k.k.o.E.a",
".x.x#H#q#q.e#F#F.8.k.o.W#e.W#e#B.e#F.y.8.k.o#S#S#S.W.e.e#F.y.8.k.o#E.x.I#q.e.e#F#F.8.k.o#e.W.t#e.t.t.L#F.8.k.o#S#S#S#e.e.e#F#F#N#x.o",
"#S#S#S#S#n.x#H#q#j.y.8#v#.#i#i#i.x.x.I#j.y.8#n.D#n.##E.x.x.I#j.y.8#S#S#S#S#S#S.W#q#j.y.8.A.m#v#i#E.x.x#q#j.y.8#n.D#n.##i.x.x#q.e#F.8",
".Z.D#n.Z.W.x#E.x#F#j#F#S#S#S.Z#E.x.x.x#F#j#F#.#.#v#v#E.x#E.x#F#j.y.Z.D#n.Z.W#e.W#q.e#j.y#S#S#S.Z#E.x.x.x#F#j#F#.#.#v#..x.x#E#H#j#j.y",
"#E.x.x.x#q.x.e.e#j.y.O#n#e.W#e#q.x.e.e#F.y.O#S#S#S#S#S#S#B.e#j.y.y#E.x.x.x#q.x.e#q#F.y.y.W#e.W#e#H.x.e.e#j.y.O#S#S#S#S#B.x.e.e#F.y.y",
".A.A.A.5.y.8.8#N#x#x.o.y#F#F.y.y.8#N#N#x#J#x.5.t.L.5.L#t.h.8.k#x.o.A.A.A.5.y.8#N.O#x#J.o.y#F#F.y.y.8.8.8#J#x#x.5.t.L.5.L.8.8#N#x#J.o",
".h#b.T#b.R.o.o.o.o#K#K#i#E.x.x.x#H.T.o.E#K.a.k#J#x#J#x#x.o.o.E.0.0.T.T#b.T.R.o.o.o.E#K.0#i#E.x.x.T.o.o.o.E#K.a.k#J#x#J#x.o.o.o.o.0.0",
".0.E.0.E#K.a.0.X.X.u.X#z#z.q#z.q.q.q#f.X#f.X.e#q.e.q.E.0.a#Q.X.u#f.o.0.E#K#K.0.a#Q.a.u#f#z#z.q.q#z.0.a.a#Q.u.X#q.e.e.q.E.a.0.X.X.u#Q",
"#F#j#F#F.y.y.G#f.u.u.6.a.0.a.a.a#Q.X#f.u.u.6.q.q.2.q.a#Q.X#f.u.u#M#F#j#F#F.G.X#Q#f.u.u#M.0.a.0.a.a.X#f.u#f.u.6.G.q.2.q.a#Q.X#f.u.u.6",
".G.2.2.c.2#p.c#M.i.i.i.y.O.O.2.u.u.M#M.i.i.i.X#Q#Q.u.u.u.M#M.i.i.i.G.2.2.2.c.u.M#M.i.i.i.y.O.O#p.u.u.M#M.i.i.i.X#Q#Q#f.u.u.M.6.i.i.i",
"#M.6.i.i.i.i.i#P.i#P.r.c#p##.c.i.i#P.U.i#P.r#x.R#x.o.c.i#c.i.i#P.r.6.6.i.i.i.i.i.U.i#P.r#p.c###p.i.i#P.i.i#P.r#x.R#x.o#x.o##.U.i#P.r",
".0.E.a###c.H.r.3.H#L.3#P#P#c#P.r.r.3.r.3#L.d.Q###w###w.r.r.3.H#L.d.0.E.a##.r.r#L.3.H#L.d#c#P#P#c.r.r.r.3.H#L.3.Q#######w#w.n#L.H#L.d",
".B#I.n.B.d.d#R.d#R.d.z.u.u#f.u#I.d.d#R.d#R#k#L.d.H.d.d#R.d#R.d#k.d.B#I.n.B.3.d.d#R.d#k.d.u.u#f.u.u.u#I.d#R.d.z#L.d.H.d.d.3.d#R.d#k#R",
"#D#e.w.Z.z.z#k.z#O.P#O.p.1#y.F#I.z.z.z.P.P.l.d.l#k.1.z.z#k.z#O.P.l#D#e.w.Z.z.z#k.z#O.P.l#y.1.p.1#s.g.g.z.P#O.l.d.l#k.1.z#O.z.z.z.P#O",
".r.d.d.d#s.9.l.l.l#h#D.l#D.l#D#O.9#O#h#D.l#D#a#y#a#a#O#O#O#h.l.l.w.r.d.d.d.r#L#s#h.l#D#D.9.w.l#D.9#O#O#h.l.l.w#a#y#a#a.P#O#O.l#D.l.w",
"#a#a#y#a#a#h#D.w.w.w.Z.H.d.d#a#D#h#D#D#D.Z.D.l.l#D.l#h#h#D#D.w.Z.w#a#a#y#a#a#a#y#D.w.w.D.H#L.d#a#h.l.w#D.w.Z.w.l.l#h.l#D#h#D#D.w.Z.w",
"#s.2.h.T#b.w.w.Z#n.#.Z#d.7#g.v.T.Z.w.Z.#.Z.###.h.##e#e#k.F.Z.#.Z.##s.2.h.T#b.w.w.Z.##n.Z.s.7#g#C#b.w.w.Z.#.Z.###.5#e#e#g.w.w.#.Z.#.#",
".z.P.z.1.##n.#.##e.W#e.Z.Z.D.#.Z.#.#.#.W.##e.1.F.1.F.1.F.1.#.#.W#e.P.z#O.F#n.#.W.##e.##e.Z.Z.D.##n.#.#.##e.W#e.p.1.p.F.1.#.#.#.W.##e",
".1.b.1#o#e#e#e.t.t.t.t.l.l.l#D#h#D.b#e.t.t.t.#.#.##e#e#e#e.t.t.t.5.1.1#o.1#e#e#e#e.t.t.t.l.l.l#D.b#e#e.t.t.t.t#e.##e#e#e#e#e.t.t#B.t",
"#s##.q.q.t.L.5.t.5.5.h#d.j.N#C.b#g.b.5.5.5.h###b.5.v.t.L.5.L.5.5.h#I##.q.q.t.5.L.L.5#t.h#d#u.7#C.b.L.5.t.5.5#t.Q.q.t.v.t.L.5.L.5.5.h",
".t.t.#.#.Z.##g.T#b.h#b.q#z#b.h.5.h.h.h.T#b#b.v#C#g#g.h.5.h.h#b.h#b.t.t.#.##g.h.h.h#b.h#b.q#b.h.h.5.h.h.h#b.T#b.7#C#g#C.5.h.h.h#b.T#b",
"#C#g#C#C.v#C.v#b#b.q#z.t.#.##g.T#b#b#b.q#b.q#z.h.h#b.T#b#b.q#b#z.q.v#g#C#C.v.T#b.q#b.q.q.t.#.W#C#b#b#b#b#z#b.q#b.h.h.h#b.T#b.q#b#b.q",
"#I.n###I#I.g#y.q.2.2.2#u.7.7#u.2.2.c#p.c#p.c#b.T#b.h.7.2.c.2.c.c#p.c.c.c.c.2.2.c.2.c#p.c#u.7.7.7.2.G.c#p.c.c.c#p.2.q.c.c##.s.2.G.2.2",
".T#b.T#u.2.2.c#p.c.c.c.c.c.c##.G#p.c.2#p.c.c.7.7.7#u.N.2.c#p.c#p.c#b#b#b.7.2.2.c.2.c#p##.c##.Q.c.2#p.c.c.2##.c#u.7.7#u.7.7.7.2.c.c.c",
".7#u.7#u.c.Q#######w#w#b#b.T#b.7.Q######.n##.c.c.c##.c##.Q####.n###u.7.7#u.Q.Q##########.T#b.h#b#b.q#u########.c.c.c##.c####.Q###w##",
".v#g.p#a.n#w.n.n.B.n#I#m.4.4.s.j.n.n.n#I.B#I#o.1.g#A.n#w.n.n#I.B#I.v.Y.F#a###w.n.n.B#I.B#G.4.4.s.j#u.j.n.B.B#I#o.1.g#A#w#w.n#I.n#I.B",
"##.n.B###d#I#I#s#I#s.g#s#a#a#s#I#I#I#s#I#s.K#A#A#A#A#I.n#I#s#I#s.K#w.n#I##.c.c#d#I#s.K#s.g#a#a.S#I#I#I#s#I.g#s#d#A#A#A#I.n#I#s#I.g#s",
".V#d#A#d#d#s#a.S#a#a#a.2.c###d.S#s.g#a.S#a#a.n#I.g#I#a.g#a.S#a#a#a.j#d#d#d#A#d#A#a.S#a#a.2#p###d.g#s#a.S#a#a#a.n#I.g#I#a.g.S#a.S#a#a",
".7#d.7.7.v.S#a#a.p#y.p#G.C.C.C.v#a#a#a.p#y.p#C.7#C#g.b#w#A#a#a.p#y.7#d#u.7.v#a#a.S#y.p#y#G.C.C#G.v#a.S#a#a.p#y.7#d.7#a.p#a#a#a#y.p#y",
"#I.n.n#A#a#a.p#a#y.F.1#a#a.g#a#a#a.p#a#y.F.1.s#A.s#A#A.s.s#y.p.1.F#I.n###A#a#a#y#a.p.1.F#a#a#a.S#a#a#a#y.p.1.F#I.n.n#A#a#a.p#y.p.F.1",
"#d#A#A#A#a#a#a.p.p.1.p##.n#w.n##.B#A.p.1#y.1#I.g#a#a#a#a#a.p#y.p.1#d#A.s#A.S#a#a.p.1#y.1.K.g.S#a.g#a#y.p#y.1.p#d#A#A#A.g#a#a#y.p.1.p",
".7#o.b.b.S#a.S#y#a#y.F#G#r.4#r#A.s#A#a#a.p.1#g.p#a#r.g#a.g#y#a.1.F.7.b#o#g.S#a.S#a#a.p.F#g#y#a#r.S#a.g#y#a#y.1.7.b.1#g.S#a.S#y#a#y.1",
"#p.c#p.c#####A#a#a.p.1.n#I#I.K#I#a.g#a#a#y.p.V#d#d.V#I.S#a#a#a#a.p#I#I#I.B#I.g#a.S#a.p.1.j#d#d#d#s.g#a.g#a.p.p#p.c.c.c#####A#a#a.p.p",
"#d#d#A#d#A#A#d.S.S#a.p.2.c.Q#A.g.g#I.S.S#a#y#I#I#I#s#a.g#I.g.S#y.p.2.c###d#a.g#s.g#a#a#y.B#I.g#s#a.g#I.S#a.p#y#d#d#A#d#A#A#d.S.S#a#y",
".N#g.1.F.1.b.Y#I#s#a#y#G#G.4.4.n#s#a#I#a.p#a.N.v.1.1.n#s.g#s#a#a#y#G.f.4.J#I#I.g#I#s#a.p#g#o.g.g#a#a#r#I#s#a#a.N#C.1.F.1.b.Y#I#s#a.p",
"#b.h#b.j###I#I#a.S#a#a.c.2.c###w#I#I.g.S#a#a#b#t.h.V###I#s.g.S#a#a.c.2.c#####I#s.g.S#a#a.7.7#u#u.V#d#A.g.S#a#y#b.5#b.j###I#I.g.S#a#a",
"#C.v#u#d#y.F.1.1.b.b.b#b.G#w.g#a.F.1#o.b.b.b#C.7.j#d#a.1.1.1.b.b.b#B.L.2.Q.n#a.4#o.b.b#o.q.q#w#s#a.1.1.1.b.b.b#C.v.V#d#a.1.1.1.b.b.b",
"#y#d.v#d.7#g.7.v.7.7#C#I.7.b.C.7#g.7.v.7.7#C.p.j#C#d.N#g#C.N.7.7#C.4.C#G.C#G#m#G#C.7.7.v#I.7.b.C.N#g#C.N.7.7#g.p#d#C#d.N#g.v.7.7.7#C",
".c#o#g#o.1.1.F.1.b#o.g#b.p.p#r.1.b.p#o#o#o#a.c#g#g#o.b#o.1.1.b#o.g.7.4.f#r#r.4.4#o.b#o.g#b#y.p#r.1.b.1.1#o#o#a.c#o#g#o.b#o.1.1#o#o.g",
"#g.4.s#A.s.s#d#A#A#d.j#g#A.4#A.s#A#d#A.s#d#u#g#A.4#A#d.s#d#A#A#d.j#g.4.s.4#A.s#d#A#A#d.j#g#A.4.4.s#A#d#A.s#d#u#g.s.4#A#d.s#d#A#A#d.j",
"...................................................................................................................................."
};
