/* XPM */
static char *last_buttons256[] = {
/* width height num_colors chars_per_pixel */
"    20    60       50            1",
/* colors */
". c #000000",
"# c #808080",
"a c #c0dcc0",
"b c #a6caf0",
"c c #2a5f55",
"d c #2a7f55",
"e c #2a7faa",
"f c #553f55",
"g c #555f55",
"h c #555faa",
"i c #557f55",
"j c #557faa",
"k c #559f55",
"l c #559faa",
"m c #55bfaa",
"n c #55bfff",
"o c #55dfaa",
"p c #55dfff",
"q c #7f5f55",
"r c #7f7f55",
"s c #7f7faa",
"t c #7f9faa",
"u c #7fbfaa",
"v c #7fbfff",
"w c #7fdfaa",
"x c #7fdfff",
"y c #7fffff",
"z c #aa9f55",
"A c #aa9faa",
"B c #aabfaa",
"C c #aadfaa",
"D c #aadfff",
"E c #aaffff",
"F c #d49faa",
"G c #d4bfaa",
"H c #d4bfff",
"I c #d4dfaa",
"J c #d4dfff",
"K c #d4ffff",
"L c #ffdfff",
"M c #ccccff",
"N c #99ffff",
"O c #ccffff",
"P c #2a1f00",
"Q c #2a1f55",
"R c #2a3f00",
"S c #2a3f55",
"T c #fffbf0",
"U c #a0a0a4",
"V c #ffffff",
/* pixels */
"gSPQ.Rg##UU##gPPSg##",
"fQ.P#AABABABABAgQSgh",
"P.f#UUUABABABUUUrfS#",
"QR#UABBGGGaGaGBBUrQg",
".gUUBB.aaaGaG.BAU#rQ",
"QUUBFaPHaLTLPPaGBBUR",
"g#UUBG.ITaT...GBUU#g",
"#BABGaPTLVPPPPLaGBU#",
"#UUABa.JI.....aGUU#r",
"UUUGGMPTPPQPQPTaGBUU",
"#zUUBG.aJ.....GBUz#r",
"UUUBGaPTTTPPPPTaGBU#",
"r#UUUB.aGaa...BU##rr",
"gUUUBGPaaLTJPPaGBUUg",
"Pr###U.AABUBA.U##rrS",
"QgUUUBABGBGGGBUUU#gg",
"gRr#r#########rrrrfA",
"gfS#UUUUUUUUUU###gUB",
"qgfRgrrrrrrrrrrggUGU",
"g##qSQg######gSqABU#",
"gSPQ.Pg##t###gPPSg#j",
"fQ.P#tUUUUBUUUtgQSg#",
"PPS#tUtUtUUtUttsrSSh",
".Q#tUABBaaaaaBBUt#Pg",
".gtUUU.BbAbBb.Att#gS",
"QtUUBaPMaJJJPPbBAttQ",
"g#ttUA.aaJa...BAts#g",
"#UUAabPJJVPPPPJbBUt#",
"#ttUUB.Ma.....bUtt##",
"tUUBbaPKPPQPQPJaBUts",
"##stAB.bM.....btts##",
"#tUABbPJJKPPPPabBtt#",
"###ttU.BBbb...tUs##g",
"fttUUBPbaaMJPQBUts#g",
"P###ts.tUtUtt.sj##gS",
"Qgs#ttUAABABBUUt#jgg",
"gPi####jsjss#j#g#gfU",
"gfS##st#t#t#s#s#jfUB",
"ggfQgig#g#g#ggggfUBU",
"gq#iSQS####j#fSgUBU#",
"gSPQ.RgllltljcSPSg##",
"fQ.RjuutuuuBuutiQQgh",
"PPSltttutuuuuutllSS#",
".QltuubBbabbBbuuuiSg",
".ittuu.ubwbwb.uutliQ",
"StuuBbPDaDODPPbbuutS",
"cttuuu.bDDE...xuullc",
"tuuuBbPaOOPPPPEbvuut",
"lttuvw.NE.....xwmmlj",
"ttuuBDPOPPPQPPNbbutl",
"lltuub.xN.....xpmllj",
"ttuuubPEDEPPPPbwbull",
"jlttuu.xbyy...xmllli",
"gttuubPCbbDDPPvuullc",
"S#llll.mmwoun.mlljjS",
"Pclttuuvuvuvuuutlldg",
"gSilllllllllllejeiSA",
"gfSlltlttltllllllcAB",
"gifScijejjjjjjjcfABU",
"g#rqSSc#lkllicSgABU#"
};
