/* XPM */
char *last_buttons[] = {
/* width height num_colors chars_per_pixel */
"    20    60      243            2",
/* colors */
".. c #040204",
".# c #3c8294",
".a c #a4a197",
".b c #6cbec0",
".c c #7c8272",
".d c #a6cecc",
".e c #2c4749",
".f c #74a4a2",
".g c #d4d3be",
".h c #3c646c",
".i c #b4b8a3",
".j c #54a2aa",
".k c #8c927f",
".l c #7ce2ec",
".m c #646463",
".n c #94a2a4",
".o c #bcbcb0",
".p c #a4ecee",
".q c #5c8d8e",
".r c #1c2228",
".s c #e4ead4",
".t c #949483",
".u c #6c7264",
".v c #1c3234",
".w c #4c4f4e",
".x c #a4aa97",
".y c #74b4b6",
".z c #848278",
".A c #cccfb9",
".B c #a4bacc",
".C c #4c94a0",
".D c #5cb2b4",
".E c #c4dbe4",
".F c #6ccad4",
".G c #747666",
".H c #a4acb0",
".I c #dcdec8",
".J c #bcc6c4",
".K c #8cd1d4",
".L c #44727c",
".M c #64a3a7",
".N c #8cb8b5",
".O c #bce8e8",
".P c #5c989c",
".Q c #ecedda",
".R c #949ea1",
".S c #343532",
".T c #4c838a",
".U c #bccfd9",
".V c #3c5458",
".W c #74aba8",
".X c #4c5a5c",
".Y c #a4c6c4",
".Z c #74828d",
".0 c #84949e",
".1 c #94a4af",
".2 c #242928",
".3 c #8ceef4",
".4 c #949b88",
".5 c #84b3af",
".6 c #848d96",
".7 c #64acb0",
".8 c #7cbfc4",
".9 c #6c999c",
"#. c #acb9ba",
"## c #646a5c",
"#a c #c1c2af",
"#b c #747d88",
"#c c #dce0e0",
"#d c #94aaac",
"#e c #242e30",
"#f c #acf8f8",
"#g c #b4b1a4",
"#h c #848a79",
"#i c #b4b1af",
"#j c #8cd8d8",
"#k c #ecfafc",
"#l c #ccd2d4",
"#m c #84aaac",
"#n c #7c8b93",
"#o c #849aa4",
"#p c #94e2e4",
"#q c #8cc6c4",
"#r c #64737c",
"#s c #243a3c",
"#t c #7cbab8",
"#u c #5c9ea6",
"#v c #4c8a94",
"#w c #c1d6e1",
"#x c #7caca9",
"#y c #a4a69f",
"#z c #3c424c",
"#A c #d4d7d7",
"#B c #acb29f",
"#C c #84cbcc",
"#D c #747a6c",
"#E c #cccac1",
"#F c #343e44",
"#G c #5c5d56",
"#H c #b4c3ce",
"#I c #646d79",
"#J c #6c7a7d",
"#K c #448b99",
"#L c #4c565c",
"#M c #7cb3b2",
"#N c #b4bec4",
"#O c #4c9aa4",
"#P c #a6b2b9",
"#Q c #3c7e8c",
"#R c #6ca3a3",
"#S c #eceaec",
"#T c #345c60",
"#U c #9c9c8e",
"#V c #81c6c8",
"#W c #d9dac9",
"#X c #bcbcc0",
"#Y c #a4f2f4",
"#Z c #dcecf0",
"#0 c #94958c",
"#1 c #2c3231",
"#2 c #acaca1",
"#3 c #c9cec9",
"#4 c #acbec8",
"#5 c #70d2d8",
"#6 c #14161c",
"#7 c #94eeec",
"#8 c #84e8e8",
"#9 c #6cb4b8",
"a. c #5caeb4",
"a# c #444b50",
"aa c #e4e5df",
"ab c #0c0e14",
"ac c #5c6b74",
"ad c #9ce7e9",
"ae c #ccdbe4",
"af c #9cb2b4",
"ag c #cce6ec",
"ah c #3c6e6c",
"ai c #bccad0",
"aj c #9ccac9",
"ak c #64bac9",
"al c #9cc2c4",
"am c #9cd9d9",
"an c #5c929c",
"ao c #e4e6d4",
"ap c #a4cacc",
"aq c #d8e6e8",
"ar c #fcfaf8",
"as c #e0f2f8",
"at c #9cf6fc",
"au c #748684",
"av c #5ca6b8",
"aw c #849294",
"ax c #142a2c",
"ay c #bce2dc",
"az c #bceeec",
"aA c #b4bebc",
"aB c #f2f2f2",
"aC c #1c1e1c",
"aD c #84f6f4",
"aE c #84babc",
"aF c #c3c2bd",
"aG c #b4cadc",
"aH c #448284",
"aI c #74c2c4",
"aJ c #54524c",
"aK c #549494",
"aL c #74ccd0",
"aM c #e4e2d0",
"aN c #c4c7ba",
"aO c #548284",
"aP c #545c60",
"aQ c #acc2ca",
"aR c #5c6473",
"aS c #6c6a5c",
"aT c #9cabb1",
"aU c #8c8c7e",
"aV c #8c9ba0",
"aW c #94c9c8",
"aX c #548e94",
"aY c #3c3c3c",
"aZ c #447b8c",
"a0 c #6c9e9c",
"a1 c #9ca29e",
"a2 c #9c9e9c",
"a3 c #2c2e34",
"a4 c #649ea0",
"a5 c #aca69c",
"a6 c #44423c",
"a7 c #545651",
"a8 c #7ca69c",
"a9 c #acecec",
"b. c #648e8c",
"b# c #94c0bc",
"ba c #243436",
"bb c #acb9c5",
"bc c #acacac",
"bd c #94d0d0",
"be c #4c7674",
"bf c #c4eaec",
"bg c #649997",
"bh c #7c868e",
"bi c #8c969c",
"bj c #9ca6ad",
"bk c #2c2a27",
"bl c #6cacaf",
"bm c #84c0c1",
"bn c #b4b8b6",
"bo c #b4f8f8",
"bp c #94d7d7",
"bq c #9cdedc",
"br c #6c757f",
"bs c #2c3e40",
"bt c #7c7c6f",
"bu c #549daa",
"bv c #3c5c60",
"bw c #acd8d8",
"bx c #9c9694",
"by c #7c827c",
"bz c #a4a2a4",
"bA c #6cc0cc",
"bB c #d4d2cc",
"bC c #44666c",
"bD c #b4b7ac",
"bE c #4c525c",
"bF c #848284",
"bG c #747374",
"bH c #eceae4",
"bI c #34363c",
"bJ c #4c8694",
"bK c #7c8d9c",
"bL c #6c7e8c",
"bM c #7cb6bc",
"bN c #6ca6ac",
"bO c #ccf6f4",
"bP c #446a6c",
"bQ c #8c9694",
"bR c #448394",
"bS c #c4c6c4",
"bT c #545c6c",
"bU c #6c6b6c",
"bV c #9caebc",
"bW c #8c9dac",
/* pixels */
"aR#z.raCabbk#Gbt#0bx.4#0bt#Ga3#6aYbT#I#b",
"#zaC#6.r.z#y#2bc#2#2#ibc#g#2#y.ma3#1bTbr",
".r#6aY.za2.aa5#2#2#i#g#g#2#2.a.4.za6#F#I",
"#6.r.z#2#2#i.oaFaFaNbS#EbSaF.o#g#y.za3bT",
"abaSbx.aa5bD..aF#E#3.g.g.A...ia5a2.t.m#1",
"bk.a#y#gbnaFaC#A.IaabH#SaCaCbB#a.o#2a2.S",
"#G#0.a#y#gaF..#WaobH.Q......aNbD#2#UaU#G",
"#0.a#2bD#XbBaCbHaBaraCaCaCaCaa.g#a.i#yaU",
"aUbxa2#2.o.A..ao.Q...........g#a#2#U.k.c",
"a2#y#2bDaFbBaCaBaCaCaCaCaCaC.Q#WaN.i.xbx",
".t.t#Ua5.iaN...I.s...........A.i.x#U#hbt",
"bx.a#y#i#a#3aCbHaBaBaCaCaCaCaM.g#a#g#U.t",
".GaU#0#U#y.i..#E.g.g.I.......i.x.4aU.c.G",
"#G#Ua1a5#i#aaC.A.I.IaoaoaCaC.A.o#2.x.ta7",
"a3.zaUaU.ta2..#2#B.i.i#g#B..#U.k#hbt.GaY",
".2.m#0a2.a#2#B.i.o.o.o#a.o.i#2.a#U.t#G.m",
"aJbk.G.z.z#h.kaU.k.k.t.k.k#h.cbt.G.u.w#2",
".ma6a6#h.t.t#U#U#U#U#U#U#U#U.taU#haJ#ybn",
"###I.w.S#G#Dbt#D#Dbt.G.G.G.u.u#G.w#y.obz",
".mbU.GbUaY.SaJ.zaU#h#h#h.caJaYaS#gbna1bF",
"aR#z.raCab.2#Lbrbhaw.6#n#D.X.2#6#FbT#I#b",
"#zaC#6.rbr.Ra1bja1bjaT.xaTbjaVaP.2bIbTbr",
".r#6bI#bbQaV.n.nbj#daT.1.naVbi.6br#F#F#I",
"#6.rbr.nbj.H#.bnaAaF.J.J.JaA#PaT.Rbr#ebT",
"ab#G.0.4.n.H..bbaQaQ#H#4aQ..aTaV.6bhbTa3",
".2aVa1bj#.aAaC#l#A#caqaqaCaCaibb#P.1.0a3",
"bEawaVbWaT#....U#w.Eae.......BaTaVbKaubE",
"bh.na1#Pbn#3aC#ZaB#kaCaCaCaCaeai.BaTaVbh",
"au.6aV.nbV#4...U.E..........aQbVaVbKbLbr",
"bi.Rbj#P#N#3aCasaCaCaCaCaCaCagaGbbaTaV#n",
"bh#nawaVbj#P...U.U...........B.1#obK#J#r",
".6.4.naT#.aiaCag#ZasaCaCaCaC#waQ#P.R.0bh",
"#I.Z.6.6aV.1...B#4aQap.......1#obKbL#raR",
"bEbQbQ.RaT#.aCai.U#w#w.EaCaCbbaTbW.0#na#",
".2#J#bau#n.0..bWbW.1.1.1bW..bK.Zbr#I#IbI",
".2aP.6.0bi.R#daTafbV#P#PbV.1bW.0bK.Z.X#G",
"aJ.2#Ibr#r#b.Z.Z.Z.Z.Z.Z.ZbL#r#IacaRa#bz",
".ma6#F#b#nbKbK.0.6.0.6bK.6bK.Z#b#ba#a2#i",
".m#I.wa3#L#I#Iac#IacacacaRaRaR#La#a2#ia2",
".m##bGaSaY#1a#br#J#b#b#bbra#bI.m#y#ia2by",
"aR#zaCaCab.v.h.qa0#R.fa0aXbC.v#6#zbT#I#b",
"#z.r#6axb.#x.NaE.N.N.N.N.N.N#x.L#e#1bTbr",
".r#6bs.q.f#m.5.5.5#taE#t#M#M.W#RaK.e#zaR",
"#6axb..5.Nb#b#aW.Y.d.d.d.dalb#aE.5aXbabT",
"abbe.f#x#M.N..bdbdbdbpbpbp..bm.ybl.M.La3",
".va8.5.Nb#apaCbway.O.OazaCaCamaWbmbMbl#s",
".h.f.W#MaE#q..#p.p#Y#f......#j#V.b.7#u.h",
".9.5.5b#.YbwaCbfbObOaCaCaCaC.pam#C.8#9.9",
"bg.f.W#Mbm.K..#7#f..........#8#5ak.7buaX",
"a8#m.5b#ajbwaCbOaCaCaCaCaCaC.pbq.K.8bl#R",
"a4a0bl#Mbm.K..#7at...........l.Fakavbu#v",
".f#x.5.NalbdaCa9azboaCaCaCaC#p#j#CbM.7a4",
"aObga0bl.ybm..#j#8.3aD......aLakavbu#vaH",
"bva8#x#xaE#qaCambqadadadaCaC.K#V.y.7.M#T",
".v.qanbgbN.D...bakaLaL.FbA..a.bu.C#K#Kbs",
"bkbP#R.W.W#M#t.8bm#Vbm#V#VaI#9#9.M#uah#G",
"aJba.TaX#vbu#ubu.jbu.j#ubu#O.CbR.#aZ.Vbz",
".maY.ebg.M#Ra0blbNbNbNbl.M.M#u.Pan.Va2#i",
".mbU.wba.haHbJ.TaZ.TaZaZbR#QaZbv.V.abna2",
".m##bGbUaY#sbv.qan.Panan.q#Tbs.mbcbca2by"
};
