/* XPM */
static char *lcd256[] = {
/* width height num_colors chars_per_pixel */
"   190    51       26            1",
/* colors */
". c #000000",
"# c #808080",
"a c #c0dcc0",
"b c #2a5f00",
"c c #2a5f55",
"d c #553f00",
"e c #553f55",
"f c #555f00",
"g c #555f55",
"h c #555faa",
"i c #557f55",
"j c #557faa",
"k c #7f5f55",
"l c #7f7f55",
"m c #7f7faa",
"n c #7f9faa",
"o c #aa9faa",
"p c #aabfaa",
"q c #d4bfaa",
"r c #2a0000",
"s c #2a1f00",
"t c #2a1f55",
"u c #2a3f00",
"v c #2a3f55",
"w c #a0a0a4",
"x c #ffffff",
/* pixels */
"..............................................................................................................................................................................................",
"..............................................................................................................................................................................................",
"#nnmmmmmmmmmmmmmmmmmmmmmmmmmmmmmmmmmmmmmmmmmmmmmmmmmmmmmmmmmmmmmmmmmmmmmmmmmmmmmmmmmmmmmmmmmmmmmmmmmmmmmmmmmmmmmmmmmmmmmmmmmmmmmmmmmmmmmmmmmmmmmmmmmmmmmmmmmmmmmmmmmmmmmmmmmmmmmmmnnmmmmmmmmmg",
"#mmm#n#n#n#nwnwnwnwnwnwnwnwnwnwnwnwnwnwnwnwnwnwnwnwnwnwnwnwnwnwnwnwnwnwnwnwnwnwnwnwnwnwnwnwnwnwnwnwnwnwnwnwnwnwnwnwnwnwnwnwnwnwnwnwnwnwnwnwnwnwnwnwnwnwnwnwnwnwnwnwnwnwnwnwnwnwnwnwm#n#n#n#m#g",
"hwm#nmmmmmmevevevevevevevevevevevevevevevevevevevevevevevevevevevevevevevevevevevevevevevevevevevevevevevevevevevevevevevevevevevevevevevevevevevevevevevevevevevevevevevevevevevenmmmmmmmmn#h",
"#nmm#m#n#nmg#j###j###j###j###j###j###j###j###j###j###j###j###j###j###j###j###j###j###j###j###j###j###j###j###j###j###j###j###j###j###j###j###j###j###j###j###j###j###j###j###j###jwm#n#m#n#m#g",
"hwnmnmmmmm#hg...................................................................................................................................................................t#nnmmmnmmmm#h",
"#nm#m#n#m#mg#...................................................................................................................................................................vhwmm#m#m#m#jg",
"#mnmmnmmnmngh...vuevevevevevevevevevevevevevevevevevevevevevevevevevevevevevevevevevevevevevevevevevevevevevevevevevevevevevevevevevevevevevevevevevevevevevevevevevevevevevess.v#nm#nmnmnmn##",
"jwm#m#m#m#mg#...sveeggeggeggeggeggeggeggeggeggeggeggeggeggeggeggeggeggeggeggeggeggeggeggeggeggeggeggeggeggeggeggeggeggeggeggeggeggeggeggeggeggeggeggeggeggeggeggeggeggeggeggegt.v#nnmm#m#m#m#g",
"#wnnnmnmmm#hg...vewpqqqqqqqqqqqqqqqqqqqqqqqqqqqqqqqqqqqqqqqqqqqqqqqqqqqqqqqqqqqqqqqqqqqqqqqqqqqqqqqqqqqqqqqqqqqqqqqqqqqqqqqqqqqqqqqqqqqqqqqqqqqqqqqqqqqqqqqqqqwqqqqqqqqqqqqqqgu.t#wmnmnmm#mm#h",
"hwmmm#m#m#mg#...uel#wwwwwwwwwwwwwwwwwwwwwwwwwwwwwwwwwwwwwwwwwwwwwwwwwwwwwwwwwwwwwwwwwwwwwwwwwwwwwwwwwwwwwwwwwwwwwwwwwwwwwwwwwwwwwwwwwwwwwwwwwwwwwwwwwwwwwwwwwwqwwwwwwwwwwwwwwkv.vhwn#m#m#mm#jg",
"#wnn#nmmnmmgh...egwpqqqqqqqqqqqqqqqqqqqqqqqqqqqqqqqqqqqqqqqqqqqqqqqqqqqqqqqqqqqqqqqqqqqqqqqqqqqqqqqqqqqqqqqqqqqqqqqqqqqqqqqqqqqqqqqqqqqqqqqqqqqqqqqqqqqqqqqqqqwqqqqqq#l#l#qqqgv.v#wnmnmnmn#m##",
"jowmnm#m##mg#...vg##wwwwwwwwwwwwwwwwwwwwwwwwwwwwwwwwwwwwwwwwwwwwwwwwwwwwwwwwwwwwwwwwwwwwwwwwwwwwwwwwwwwwwwwwwwwwwwwwwwwwwwwwwwwwwwwwwwwwwwwwwwwwwwwwwwwwwwwwwwqwwwwwwwwwwwwwwkv.v#wwmnm#m#mm#h",
"#onwmmnmmm#hg...egwpqqqqqqqqqqqqqqqqqqqqqqqqqqqqqqqqqqqqqqqqqqqqqqqqqqqqqqqqqqqqqqqqqqqqqqqqqqqqqqqqqqqqqqqqqqqqqqqqqqqqqqqqqqqqqqqqqqqqqqqqqqqqqqqqqqqqqqqqqqwqq#l#l#qqqqqqqgu.vjonwmnmmmm#jg",
"jonmn#m#m#mgh...uel#wwwwwwwwwwwwwwwwwwwwwwwwwwwwwwwwwwwwwwwwwwwwwwwwwwwwwwwwwwwwwwwwwwwwwwwwwwwwwwwwwwwwwwwwwwwwwwwwwwwwwwwwwwwwwwwwwwwwwwwwwwwwwwwwwwwwwwwwwwqwwwwwwwwwwwwwwkt.v#wwmnm#m##j##",
"#nwmmm#m#j#g#...egwpqqqqqqqqqqqqqqqqqqqqqqqqqqqqqqqqqqqqqqqqqqqqqqqqqqqqqqqqqqqqqqqqqqqqqqqqqqqqqqqqqqqqqqqqqqqqqqqqqqqqqqqqqqqqqqqqqqqqqqqqqqqqqqqqqqqqqqqqqqwqqqqqqqqq#l#lqgv.v#nmn#mm#jm#hg",
"#nmn#mm#j#jgh...vgl#wwwwwwwwwwwwwwwwwwwwwwwwwwwwwwwwwwwwwwwwwwwwwwwwwwwwwwwwwwwwwwwwwwwwwwwwwwwwwwwwwwwwwwwwwwwwwwwwwwwwwwwwwwwwwwwwwwwwwwwwwwwwwwwwwwwwwwwwwwqwwwwwwwwwwwwwwgv.v#wmmm#m##j##h",
"hwm#m##j##mgg...egwpqqqqqqqqqqqqqqqqqqqqqqqqqqqqqqqqqqqqqqqqqqqqqqqqqqqqqqqqqqqqqqqqqqqqqqqqqqqqqqqqqqqqqqqqqqqqqqqqqqqqqqqqqqqqqqqqqqqqqqqqqqqqqqqqqqqqqqqqqqwqqqqqqqqqqqqqqku.vhnnm#j#j##jgg",
"gmm#j#j#h#hgg...uel#wwwwwwwwwwwwwwwwwwwwwwwwwwwwwwwwwwwwwwwwwwwwwwwwwwwwwwwwwwwwwwwwwwwwwwwwwwwwwwwwwwwwwwwwwwwwwwwwwwwwwwwwwwwwwwwwwwwwwwwwwwwwwwwwwwwwwwwwwwqwwwwwwwwwwwwwwgt.egm##j##h#h##h",
"#m#j#h#g#h#gh...egwpqqqqqqqqqqqqqqqqqqqqqqqqqqqqqqqqqqqqqqqqqqqqqqqqqqqqqqqqqqqqqqqqqqqqqqqqqqqqqqqqqqqqqqqqqqqqqqqqqqqqqqqqqqqqqqqqqqqqqqqqqqqqqqqqqqqqqqqqqqwqqqqqqqqqqqqqqkv.vgm#j#h##hg#gg",
"gj#g#gh#gghgg...vel#wwwwwwwwwwwwwwwwwwwwwwwwwwwwwwwwwwwwwwwwwwwwwwwwwwwwwwwwwwwwwwwwwwwwwwwwwwwwwwwwwwwwwwwwwwwwwwwwwwwwwwwwwwwwwwwwwwwwwwwwwwwwwwwwwwwwwwwwwwqwwwwwwwwwwwwwwgv.vgm#hg#hg#hghg",
"gh#hghghghgee...egwpqqqqqqqqqqqqqqqqqqqqqqqqqqqqqqqqqqqqqqqqqqqqqqqqqqqqqqqqqqqqqqqqqqqqqqqqqqqqqqqqqqqqqqqqqqqqqqqqqqqqqqqqqqqqqqqqqqqqqqqqqqqqqqqqqqqqqqqqqqwqqq#l#l#l#l#qqku.vgh#ghgghgggge",
"eggegggeggggv...ugl#wwwwwwwwwwwwwwwwwwwwwwwwwwwwwwwwwwwwwwwwwwwwwwwwwwwwwwwwwwwwwwwwwwwwwwwwwwwwwwwwwwwwwwwwwwwwwwwwwwwwwwwwwwwwwwwwwwwwwwwwwwwwwwwwwwwwwwwwwwqwwlwwwwwwwwwlwgv.vegegggggghgev",
"vgecevecevevv...egwpqqqqqqqqqqqqqqqqqqqqqqqqqqqqqqqqqqqqqqqqqqqqqqqqqqqqqqqqqqqqqqqqqqqqqqqqqqqqqqqqqqqqqqqqqqqqqqqqqqqqqqqqqqqqqqqqqqqqqqqqqqqqqqqqqqqqqqqqqqwqq#qqqqqqlqq#qge.vegcevevevevvv",
"#gggggggggggg...vgl#wwwwwwwwwwwwwwwwwwwwwwwwwwwwwwwwwwwwwwwwwwwwwwwwwwwwwwwwwwwwwwwwwwwwwwwwwwwwwwwwwwwwwwwwwwwwwwwwwwwwwwwwwwwwwwwwwwwwwwwwwwwwwwwwwwwwwwwwwwqwwlwwwwwllwwlwgv.v#gggggggggggg",
"w##########gg...egwpqqqqqqqqqqqqqqqqqqqqqqqqqqqqqqqqqqqqqqqqqqqqqqqqqqqqqqqqqqqqqqqqqqqqqqqqqqqqqqqqqqqqqqqqqqqqqqqqqqqqqqqqqqqqqqqqqqqqqqqqqqqqqqqqqqqqqqqqqqwqqqllqq#lll#qqku.vg###########g",
"w##g#k#g#k#eg...uel#wwwwwwwwwwwwwwwwwwwwwwwwwwwwwwwwwwwwwwwwwwwwwwwwwwwwwwwwwwwwwwwwwwwwwwwwwwwwwwwwwwwwwwwwwwwwwwwwwwwwwwwwwwwwwwwwwwwwwwwwwwwwwwwwwwwwwwwwwwqwwwwwwwwllwwwwgt.eg###k#g#k#kgg",
"##g#g#g#g#ggg...egwpqqqqqqqqqqqqqqqqqqqqqqqqqqqqqqqqqqqqqqqqqqqqqqqqqqqqqqqqqqqqqqqqqqqqqqqqqqqqqqqqqqqqqqqqqqqqqqqqqqqqqqqqqqqqqqqqqqqqqqqqqqqqqqqqqqqqqqqqqqwqqqqqqqqqlqqqqgv.vg#ggik#g#g#gg",
"wkgkggkgkgkeg...vel#wwwwwwwwwwwwwwwwwwwwwwwwwwwwwwwwwwwwwwwwwwwwwwwwwwwwwwwwwwwwwwwwwwwwwwwwwwwwwwwwwwwwwwwwwwwwwwwwwwwwwwwwwwwwwwwwwwwwwwwwwwwwwwwwwwwwwwwwwwqwwwwwwwwlwwlwwkv.vgk#kgggkggggg",
"##gg#gg#gggee...egwpqqqqqqqqqqqqqqqqqqqqqqqqqqqqqqqqqqqqqqqqqqqqqqqqqqqqqqqqqqqqqqqqqqqqqqqqqqqqqqqqqqqqqqqqqqqqqqqqqqqqqqqqqqqqqqqqqqqqqqqqqqqqqqqqqqqqqqqqqqwqq#l#lqq#qq#qqgu.egggg#g#gg#kge",
"#ggggggggggvg...ugl#wwwwwwwwwwwwwwwwwwwwwwwwwwwwwwwwwwwwwwwwwwwwwwwwwwwwwwwwwwwwwwwwwwwwwwwwwwwwwwwwwwwwwwwwwwwwwwwwwwwwwwwwwwwwwwwwwwwwwwwwwwwwwwwwwwwwwwwwwwqwwwwwl#wlwwlwwkv.vgggggggggggge",
"#ggggggggggev...egwpqqqqqqqqqqqqqqqqqqqqqqqqqqqqqqqqqqqqqqqqqqqqqqqqqqqqqqqqqqqqqqqqqqqqqqqqqqqqqqqqqqqqqqqqqqqqqqqqqqqqqqqqqqqqqqqqqqqqqqqqqqqqqqqqqqqqqqqqqqwqqqq#q#q#qq#qqgv.veggggggggggeg",
"ggggeggegggue...ve##wwwwwwwwwwwwwwwwwwwwwwwwwwwwwwwwwwwwwwwwwwwwwwwwwwwwwwwwwwwwwwwwwwwwwwwwwwwwwwwwwwwwwwwwwwwwwwwwwwwwwwwwwwwwwwwwwwwwwwwwwwwwwwwwwwwwwwwwwwqwwl#wwlwlwwlwwgv.vegggegeggggev",
"#gegegegegevv...egwpqqqqqqqqqqqqqqqqqqqqqqqqqqqqqqqqqqqqqqqqqqqqqqqqqqqqqqqqqqqqqqqqqqqqqqqqqqqqqqqqqqqqqqqqqqqqqqqqqqqqqqqqqqqqqqqqqqqqqqqqqqqqqqqqqqqqqqqqqqwqq#qqq#q#qq#qqku.vvegegegegeege",
"ggegegegegeue...ugg#wwowwwwwwwwwwwwwwwwwwwwwwwwwwwwwwwwwwwwwwwwwwwwwwwwwwwwwwwwwwwwwwwwwwwwwwwwwwoooooooooooooooooooooooooooooooooooooooooooooooooooooooooooowqwwwl#llwlwwlwwgt.veggegegegegvv",
"ggecececegvvv...egwpqqqqqqqqqqqqqqqqqqqqqqqqqqqqqqqqqqqqqqqqqqqqqqqqqqqqqqqqqqqqqqqqqqqqqqqqqqqqqqqqqqqqqqqqqqqqqqqqqqqqqqqqqqqqqqqqqqqqqqqqqqqqqqqqqqqqqqqqqqwqqqqqqqqqqqqqqge.#egvgvgvgvgeeu",
"ggeegeeecegsv...vg##wwwwwwwwwwwwwwwwwwwwwwwwwwwwwwwwwwwwwwwwwwwwwwwwwwwwwwwwwwwwwwwwwwwwwwwwwwwwwwwwwwwwwwwwwwwwwwwwwwwwwwwwwwwwwwwwwwwwwwwwwwwwwwwwwwwwwwwwwwwwwwwwwwwwwwwwwgv.vuegeeegegvgve",
"gecgvecgevevesv.vevvtvtvtvtvetvtvvvvvvvvvvvvetvtvvetvtvvtvvvevvvtvevvtetvvetvtvvtvvvevvvtvevvtetvvetvtvvtvvvevvvtvevvtetvvetvtvvvtvtetvvevvvvtevvvvtvvvtvtvtvtevevevtvtvtevevevugecececeveevdv",
"ggeeegeevggvuvstsstsvsvsvsutsutustsstsstsstssvsutssvsutsutsstsstustssvsutssvsutsutsstsstustssvsutssvsutsutsstsstustssvsutssvsutssvsutustsstssvsstssvsstusvsutuststssvsutuststsst#vegeceegecgev",
"ggcececegevuvvvvevvtvvvvvtvvvvtvvvtvtvvvvvvtvtvvvvtvtvtvvvtvvvtvvvtvevtvvtevtvvvvtvtvvvvtvtvtvtvvvvvvtvvtvvtvvvvtvtvtvtvvtevtvvvvtvvvtvtvtvtvtvvvtvtvvvvtvtvvvtvvvtvvtvtetvtevvevdgvegececeevu",
"gegegegvggetssststuststsutsstustsutustsstsutustssvsutustsutssvsstustsutsutsutsstusvsstsutusvsutsstssvssvssvsstsutusvsutsutsutsstustsutusvsutustssvsutssvsutsstustsutusvsutuststsvtegvgegeegcev",
"ggececegecegggggggegggggeggggegggegegggeggegeggggegegegggegggegggegggeggeggeggge#.s.tueev.s.tsege.s.sveee.s.tueegegegeggeggeggggegggegegegegegggegegeggegegggegeggegegegegegggggegcegvgvgceeve",
"gecegegeceeceveeveceeveecevevecevececevgvececevevecececevecevecevecevgvecevgvecexapa##vgxqap##gvxapa##ecxapa##ececececevgvecevevecevecececececevecececevgvgvevgvgvecececececevevgvegegeegeegdv",
"ggeecevdegvegegcegegvgeceegegeeegeeeegeegeeeegegegeeegeegeeegeeegeeegeegegeegeeg#.r.tsegv...tuvgv.r.tscev.r.tsceeegeeegeegeegegegeegeegeeegeeegegeeegeegeeegegeeegeegeeegeeegegeegevgvgcecevvv",
"gecedcecvefveveevuveeueevvuvvcvuvcecuvcvvbecvvuvvvvbvvvvucvvebvvvcuvvvvuvvcvucvv#tvvuvveevvvuvevevvvuveegvvu#tuecvvucevcuvcvvevvecvecvvecvvecvvevcevvgvvcevvvecvvecvecvevcvevvugvugeuevdveueuv",
"gvevvevvdvvdvuvueveuvvuvuevdeueeueuvedvdevueueeueueeuedvedvdvvdvdevdeueeuedveeue#ueeeegvgeeeeedegeeeevdceeee#ueueueeuvdvevdeuvdvueuvdvdvueuvdvdvueuvdvueuvdvdvueuvdvueuvdvdvuevuevuvvuevdvvvvs",
"vdvueuvuvvuvveuvvvuvvdvevvuvvvvuvvvvuvvvvuvvvvuvvvvuvvvvuvvvvuvvvvuvvvvuvvvvvuvvguevcveuevdcevcevvbevgveuecvgtevvvvuvvvuvuvuvvvuvvvuvvvuvvvuvvvuvvvuvveuvvvuvveuvvvuvvvuvvvuevuvvuvvdvvuvutust",
"tvuvvvsvsvtututusvsvsvtusvtutsvtututtutsvtututvsvsvtututvsvsvtututvsvsvtutsututuegvdvdvvvdvvuevueuevuevvevugvuvusvsvtsvtsvtvsvsvsvsvstutvsvtutututututututututututsvtutvsvsvtutvstvsvtutvtuttu",
"..r...........................................................................................................................................................................................",
"stsvststststststststststststststststststststststststststststststststststststststststststutststststststststststststststststststststststststststststststststststststststststststststststststssts"
};
