/* XPM */
static char * lcd_display[] = {
"159 31 57 1",
" 	c None",
".	c #2C322C",
"+	c #343634",
"@	c #3C3A3C",
"#	c #3C3E3C",
"$	c #3C423C",
"%	c #44423C",
"&	c #1C1A1C",
"*	c #141614",
"=	c #2C2A2C",
"-	c #4C4E44",
";	c #54524C",
">	c #4C524C",
",	c #545254",
"'	c #242A24",
")	c #74726C",
"!	c #B4B6A4",
"~	c #C4C6BC",
"{	c #C4C2B4",
"]	c #A4A28C",
"^	c #646664",
"/	c #343234",
"(	c #34322C",
"_	c #6C7264",
":	c #94928C",
"<	c #9C9E8C",
"[	c #9CA294",
"}	c #64625C",
"|	c #8C8A74",
"1	c #74766C",
"2	c #94968C",
"3	c #B4B6AC",
"4	c #A4A6A4",
"5	c #6C6A64",
"6	c #7C7A6C",
"7	c #2C3234",
"8	c #949684",
"9	c #3C4224",
"0	c #9C9A8C",
"a	c #8C8E7C",
"b	c #747664",
"c	c #646A54",
"d	c #ACAA94",
"e	c #94967C",
"f	c #9C9A84",
"g	c #54563C",
"h	c #848A74",
"i	c #5C5E44",
"j	c #ACAE9C",
"k	c #7C7E6C",
"l	c #4C4E34",
"m	c #6C6A6C",
"n	c #646264",
"o	c #646A7C",
"p	c #747274",
"q	c #7C829C",
"r	c #242224",
".+@#$%#$%#$%#$%#$%#$%#$%#$%#$%#$%#$%#$%#$%#$%#$%#$%#$%#$%#$%#$%#$%#$%#$%#$%#$%#$%#$%#$%#$%#$%#$%#$%#$%#$%#$%#$%#$%#$%#$%#$%#$%#$%#$%#$%#$%#$%#$%#$%#$%#$%#$%#&*",
"=+%--;-;>;-;-;>;-;-;>;-;-;>;-;-;>;-;-;>;-;-;>;-;-;>;-;-;>;-;-;>;-;-;>;-;-;>;-;-;>;-;-;>;-;-;>;-;-;>;-;-;>;-;-;>;-;-;>;-;-;>;-;-;>;-;-;>;-;-;>;-;-;>;-;-;>;-;>,'",
"@;)!~~~{~~~~~{~~~~~{~~~~~{~~~~~{~~~~~{~~~~~{~~~~~{~~~~~{~~~~~{~~~~~{~~~~~{~~~~~{~~~~~{~~~~~{~~~~~{~~~~~{~~~~~{~~~~~{~~~~~{~~~~~{~~~~~{~~~~~{~~]~~{~~~~~{~~~~{^/",
"(-_:]<][]<]<][]<]<][]<]<][]<]<][]<]<][]<]<][]<]<][]<]<][]<]<][]<]<][]<]<][]<]<][]<]<][]<]<][]<]<][]<]<][]<]<][]<]<][]<]<][]<]<][]<]<][]<]<][]<~<][]<]<][]<][]^/",
"$}:!~~~{~~~~~{~~~~~{~~~~~{~~~~~{~~~~~{~~~~~{~~~~~{~~~~~{~~~~~{~~~~~{~~~~~{~~~~~{~~~~~{~~~~~{~~~~~{~~~~~{~~~~~{~~~~~{~~~~~{~~~~~{~~~~~{~~~~~{~~]~~{~~~||||~~{~^/",
"+;1:]<[][]<][][]<][][]<][][]<][][]<][][]<][][]<][][]<][][]<][][]<][][]<][][]<][][]<][][]<][][]<][][]<][][]<][][]<][][]<][][]<][][]<][][]<][][]~<[][]<][[[<][]^/",
"$}23~~~{~~~{~{~~~{~{~~~{~{~~~{~{~~~{~{~~~{~{~~~{~{~~~{~{~~~{~{~~~{~{~~~{~{~~~{~{~~~{~{~~~{~{~~~{~{~~~{~{~~~{~{~~~{~{~~~{~{~~~{~{~~~{~{~~~{~{~{4{~||||~~~~~~{~^/",
"+;1:][][]<4<4[]<4<4[]<4<4[]<4<4[]<4<4[]<4<4[]<4<4[]<4<4[]<4<4[]<4<4[]<4<4[]<4<4[]<4<4[]<4<4[]<4<4[]<4<4[]<4<4[]<4<4[]<4<4[]<4<4[]<4<4[]<4<4[][{[][[[[]<]]<][]^/",
"$}2!~{~{~{{~{{~{{~{{~{{~{{~{{~{{~{{~{{~{{~{{~{{~{{~{{~{{~{{~{{~{{~{{~{{~{{~{{~{{~{{~{{~{{~{{~{{~{{~{{~{{~{{~{{~{{~{{~{{~{{~{{~{{~{{~{{~{{~{{~~]~{~{~~~~{||||~^/",
"+;12<4<4<4[][]<4[][]<4[][]<4[][]<4[][]<4[][]<4[][]<4[][]<4[][]<4[][]<4[][]<4[][]<4[][]<4[][]<4[][]<4[][]<4[][]<4[][]<4[][]<4[][]<4[][]<4[][][]~<4<4<][][[][[[^/",
"#}23{~{~{~{~{~~{{~{~~{{~{~~{{~{~~{{~{~~{{~{~~{{~{~~{{~{~~{{~{~~{{~{~~{{~{~~{{~{~~{{~{~~{{~{~~{{~{~~{{~{~~{{~{~~{{~{~~{{~{~~{{~{~~{{~{~~{{~{~{~[{~{~{~{~{~~~~~5/",
"+>6:[][][]<4[][]<4[][]<4[][]<4[][]<4[][]<4[][]<4[][]<4[][]<4[][]<4[][]<4[][]<4[][]<4[][]<4[][]<4[][]<4[][]<4[][]<4[][]<4[][]<4[][]<4[][]<4<4<4{][][]<4<4<4<]]^7",
"#}83~{~{~{~{~{~{~{~{~{~{~{~{~{~{~{~{~{~{~{~{~{~{~{~{~{~{~{~{~{~{~{~{~{~{~{~{~{~{~{~{~{~{~{~{~{~{~{~{~{~{~{~{~{~{~{~{~{~{~{~{~{~{~{~{~{~~~{~{~{[~{~{~~{~{~{~{{^/",
"+>6:[][][][]<4<4[]<4<4[]<4<4[]<4<4[]<4<4[]<4<4[]<4<4[]<4<4[]<4<4[]<4<4[]<4<4[]<4<4[]<4<4[]<4<4[]<4<4[]<4<4[]<4<4[]<4<4[]<4<4[]<4<4[]<4[][][][]~<4<4[][][][]<4^/",
"%}:!~{~{~{~~~{~{~~~{~{~~~{~{~~~{~{~~~{~{~~~{~{~~~{~{~~~{~{~~~{~{~~~{~{~~~{~{~~~{~{~~~{~{~~~{~{~~~{~{~~~{~{~~~{~{~~~{~{~~~{~{~~~{~{~~~{{~{~{~{~]{~||||||||||~{^/",
"+;1:]<4<4<4<][][]<][][]<][][]<][][]<][][]<][][]<][][]<][][]<][][]<][][]<][][]<][][]<][][]<][][]<][][]<][][]<][][]<][][]<][][]<][][]<][][]<4<4<~]9[[][[[[[[[9]^/",
"#}23~~{~{~{~~{~{~~~{~{~~~{~{~~~{~{~~~{~{~~~{~{~~~{~{~~~{~{~~~{~{~~~{~{~~~{~{~~~{~{~~~{~{~~~{~{~~~{~{~~~{~{~~~{~{~~~{~{~~~{~{~~~{~{~~~{~{~~{~{~]~|~{~{~{~|~~|~^/",
"+;12<[][][][]<4[][]<4[][]<4[][]<4[][]<4[][]<4[][]<4[][]<4[][]<4[][]<4[][]<4[][]<4[][]<4[][]<4[][]<4[][]<4[][]<4[][]<4[][]<4[][]<4[]<4<4[][]<4<~]9][][]]99]]9[^/",
"#}2!~~{~{~{~{~{~{~{~{~{~{~{~{~{~{~{~{~{~{~{~{~{~{~{~{~{~{~{~{~{~{~{~{~{~{~{~{~{~{~{~{~{~{~{~{~{~{~{~{~{~{~{~{~{~{~{~{~{~{~{~{~{~{~~~{~{{~{~~{~<~{|||~{|||||~~5/",
"+>6:<][]<4<4[][]<4[][]<4[][]<4[][]<4[][]<4[][]<4[][]<4[][]<4[][]<4[][]<4[][]<4[][]<4[][]<4[][]<4[][]<4[][]<4[][]<4[][]<4[][]<4[][]<][][]<4[][]~<4[][[][%9[]<]^7",
"#}23~~{~~{~{{~{~~{{~{~~{{~{~~{{~{~~{{~{~~{{~{~~{{~{~~{{~{~~{{~{~~{{~{~~{{~{~~{{~{~~{{~{~~{{~{~~{{~{~~{{~{~~{{~{~~{{~{~~{{~{~~{{~{~~~{~{~~{{~{~4{{~{~{~~{|~~~~^/",
"+;1:]<4[][][]<4[]<4<4[]<4<4[]<4<4[]<4<4[]<4<4[]<4<4[]<4<4[]<4<4[]<4<4[]<4<4[]<4<4[]<4<4[]<4<4[]<4<4[]<4<4[]<4<4[]<4<4[]<4<4[]<4<4[]<4<4[][][][{][[][][]9]<%<]^/",
"#}2!~{{~{~{~~~{{~~{~{{~~{~{{~~{~{{~~{~{{~~{~{{~~{~{{~~{~{{~~{~{{~~{~{{~~{~{{~~{~{{~~{~{{~~{~{{~~{~{{~~{~{{~~{~{{~~{~{{~~{~{{~~{~{{~{~{{{~{~{~{[~{3<0]{~|~~|~~^/",
"+;1:<4[]<4[][][][][][][][][][][][][][][][][][][][][][][][][][][][][][][][][][][][][][][][][][][][][][][][][][][][][][][][][][][][][][]<4<4<4[]~[]a:[bc[9[]9[]^/",
"$}2!~{~~~{{~{~{~{~{~{~{~{~{~{~{~{~{~{~{~{~{~{~{~{~{~{~{~{~{~{~{~{~{~{~{~{~{~{~{~{~{~{~{~{~{~{~{~{~{~{~{~{~{~{~{~{~{~{~{~{~{~{~{~{~{~{~~{~{~{{~]{~{d<ef~|~~|~~^/",
"+;1:][]<][]<4<4<4<4<4<4<4<4<4<4<4<4<4<4<4<4<4<4<4<4<4<4<4<4<4<4<4<4<4<4<4<4<4<4<4<4<4<4<4<4<4<4<4<4<4<4<4<4<4<4<4<4<4<4<4<4<4<4<4<4<4[][][][][{4[gb0hi]9[]9[]^/",
"$}23~{~~~{~~{{{~{~{~{~{~{~{~{~{~{~{~{~{~{~{~{~{~{~{~{~{~{~{~{~{~{~{~{~{~{~{~{~{~{~{~{~{~{~{~{~{~{~{~{~{~{~{~{~{~{~{~{~{~{~{~{~{~{~{~{{~{~{~{~{4{{|{{jf{|~~|~{^/",
"+>6:[[]<4<4[][][][][][][][][][][][][][][][][][][][][][][][][][][][][][][][][][][][][][][][][][][][][][][][][][][][][][][][][][][][][][][]<4[][{[[klicg]9[]9[]^/",
"%}:!~~~~{~{{~~{~{~{~{~{~{~{~{~{~{~{~{~{~{~{~{~{~{~{~{~{~{~{~{~{~{~{~{~{~{~{~{~{~{~{~{~{~{~{~{~{~{~{~{~{~{~{~{~{~{~{~{~{~{~{~{~{~{~{~{~{~{~{~{~]{~{~~~~~~~{~~{^/",
"+;12<]<][][]<4[]<4[][][][][][][][][][][][][][][][][][][][][][][][][][][][][][][][][][][][][][][][][][][][][][][][][][][][][][][][][]<4<4[]<4[][[][[]<]]<]][]]^/",
"*,^^m^^^^^^^^^n^^^n^^^^^^^^^^^^^^^^^^^^^^^^^^^^^^^^^^^^^^^^^^^^^^^^^^^^^^^^^^^^^^^^^^^^^^^^^^^^^^^^^^^^^^^^^^^^^^^^^^^^^^^^^^^^^^on^^^^n^^^^n^mn^^^^^on^^^^pq}r"};
