/* XPM */
char * lcd_upper_frame[] = {
"190 25 80 1",
" 	c None",
".	c #040204",
"+	c #647284",
"@	c #8C92A4",
"#	c #848AA4",
"$	c #7C8A9C",
"%	c #7C869C",
"&	c #848A9C",
"*	c #747A8C",
"=	c #5C667C",
"-	c #6C768C",
";	c #6C728C",
">	c #8C96AC",
",	c #444E5C",
"'	c #6C7284",
")	c #848EA4",
"!	c #4C5664",
"~	c #5C6274",
"{	c #343A44",
"]	c #5C6A7C",
"^	c #2C322C",
"/	c #343634",
"(	c #3C3A3C",
"_	c #3C3E3C",
":	c #3C423C",
"<	c #44423C",
"[	c #1C1A1C",
"}	c #141614",
"|	c #7C829C",
"1	c #2C2A2C",
"2	c #4C4E44",
"3	c #54524C",
"4	c #4C524C",
"5	c #545254",
"6	c #242A24",
"7	c #949AAC",
"8	c #8492A4",
"9	c #545E74",
"0	c #646A7C",
"a	c #74726C",
"b	c #B4B6A4",
"c	c #C4C6BC",
"d	c #C4C2B4",
"e	c #A4A28C",
"f	c #646664",
"g	c #343234",
"h	c #34322C",
"i	c #6C7264",
"j	c #94928C",
"k	c #9C9E8C",
"l	c #9CA294",
"m	c #949EAC",
"n	c #9CA2B4",
"o	c #545E6C",
"p	c #646A84",
"q	c #64625C",
"r	c #8C8A74",
"s	c #9CA6B4",
"t	c #74766C",
"u	c #748294",
"v	c #94968C",
"w	c #B4B6AC",
"x	c #A4A6A4",
"y	c #747E94",
"z	c #747A94",
"A	c #6C7A94",
"B	c #545A6C",
"C	c #74829C",
"D	c #646E84",
"E	c #6C6A64",
"F	c #7C7A6C",
"G	c #2C3234",
"H	c #949684",
"I	c #54566C",
"J	c #4C5264",
"K	c #4C566C",
"L	c #444A5C",
"M	c #3C4654",
"N	c #3C4224",
"O	c #3C3E4C",
"..............................................................................................................................................................................................",
"..............................................................................................................................................................................................",
"+@#$%$%$%$%$%$%$%$%$%$%$%$%$%$%$%$%$%$%$%$%$%$%$%$%$%$%$%$%$%$%$%$%$%$%$%$%$%$%$%$%$%$%$%$%$%$%$%$%$%$%$%$%$%$%$%$%$%$%$%$%$%$%$%$%$%$%$%$%$%$%$%$%$%$%$%$%$%$%$%$%$%$%$%$%$%$%$%$@&$%$%$%$%*=",
"+@#&%&%&&%#@@@@@@@@@@@@@@@@@@@@@@@@@@@@@@@@@@@@@@@@@@@@@@@@@@@@@@@@@@@@@@@@@@@@@@@@@@@@@@@@@@@@@@@@@@@@@@@@@@@@@@@@@@@@@@@@@@@@@@@@@@@@@@@@@@@@@@@@@@@@@@@@@@@@@@@@@@@@@@@@@@@@@@@@&#%&%&&%&-=",
";>$%%%&%%#%,,,,,,,,,,,,,,,,,,,,,,,,,,,,,,,,,,,,,,,,,,,,,,,,,,,,,,,,,,,,,,,,,,,,,,,,,,,,,,,,,,,,,,,,,,,,,,,,,,,,,,,,,,,,,,,,,,,,,,,,,,,,,,,,,,,,,,,,,,,,,,,,,,,,,,,,,,,,,,,,,,,,,,,>#%%%#%%#%*=",
"'>)%#%%%%%&!;;;;;;;;;;;;;;;;;;;;;;;;;;;;;;;;;;;;;;;;;;;;;;;;;;;;;;;;;;;;;;;;;;;;;;;;;;;;;;;;;;;;;;;;;;;;;;;;;;;;;;;;;;;;;;;;;;;;;;;;;;;;;;;;;;;;;;;;;;;;;;;;;;;;;;;;;;;;;;;;;;;;;;>)%&%%%%$%*=",
";>&$%%&%#%%~=...................................................................................................................................................................{+>&$%%%&%#%-]",
"'>#&#%%%%%%~=...................................................................................................................................................................{'>##%&%%%%%*=",
"->)%%&%#%&%~=...^/(_:<_:<_:<_:<_:<_:<_:<_:<_:<_:<_:<_:<_:<_:<_:<_:<_:<_:<_:<_:<_:<_:<_:<_:<_:<_:<_:<_:<_:<_:<_:<_:<_:<_:<_:<_:<_:<_:<_:<_:<_:<_:<_:<_:<_:<_:<_:<_:<_:<_:<_:<_[}.{->)%&%%#%%&-=",
"'>@$#%%%|%%~=...1/<223234323234323234323234323234323234323234323234323234323234323234323234323234323234323234323234323234323234323234323234323234323234323234323234323234323456.{+7)&%#%%%%|*=",
"->8&$&%%%|%90...(3abcccdcccccdcccccdcccccdcccccdcccccdcccccdcccccdcccccdcccccdcccccdcccccdcccccdcccccdcccccdcccccdcccccdcccccdcccccdcccccdcccccdcccccdcccccdcceccdcccccdccccdfg.{;7)&$%%%%|%-]",
"-7@##%%%%%%~]...h2ijekelekekelekekelekekelekekelekekelekekelekekelekekelekekelekekelekekelekekelekekelekekelekekelekekelekekelekekelekekelekekelekekelekekelekckelekekelekelefg.{-m8##%&%%%%-0",
"-n>))&$#|%%op...:qjbcccdcccccdcccccdcccccdcccccdcccccdcccccdcccccdcccccdcccccdcccccdcccccdcccccdcccccdcccccdcccccdcccccdcccccdcccccdcccccdcccccdcccccdcccccdcceccdcccrrrrccdcfg.{-n>))&%%%|%-0",
"-s>@)#%%||%~].../3tjeklelekelelekelelekelelekelelekelelekelelekelelekelelekelelekelelekelelekelelekelelekelelekelelekelelekelelekelelekelelekelelekelelekelelecklelekelllkelefg.{;n7@)#&%|%|-]",
"-s7))&$%|u|o0...:qvwcccdcccdcdcccdcdcccdcdcccdcdcccdcdcccdcdcccdcdcccdcdcccdcdcccdcdcccdcdcccdcdcccdcdcccdcdcccdcdcccdcdcccdcdcccdcdcccdcdcccdcdcccdcdcccdcdcdxdcrrrrccccccdcfg.{-s>@)$%%|||'0",
";n>)#&%%u|u9=.../3tjelelekxkxlekxkxlekxkxlekxkxlekxkxlekxkxlekxkxlekxkxlekxkxlekxkxlekxkxlekxkxlekxkxlekxkxlekxkxlekxkxlekxkxlekxkxlekxkxlekxkxlekxkxlekxkxleldlellllekeekelefg.{-n>)&&%%uuu'=",
";n>)&%|uyuy~=...:qvbcdcdcddcddcddcddcddcddcddcddcddcddcddcddcddcddcddcddcddcddcddcddcddcddcddcddcddcddcddcddcddcddcddcddcddcddcddcddcddcddcddcddcddcddcddcddccecdcdccccdrrrrcfg.{;n>)&%|uyyy;=",
"+7)&%|uyzAzB=.../3tvkxkxkxlelekxlelekxlelekxlelekxlelekxlelekxlelekxlelekxlelekxlelekxlelekxlelekxlelekxlelekxlelekxlelekxlelekxlelekxlelekxlelekxlelekxleleleckxkxkelellelllfg.{+7)&%|CyyzzD=",
"D>&uuyzA--AB9..._qvwdcdcdcdcdccddcdccddcdccddcdccddcdccddcdccddcdccddcdccddcdccddcdccddcdccddcdccddcdccddcdccddcdccddcdccddcdccddcdccddcdccddcdccddcdccddcdcdcldcdcdcdcdcccccEg.{p>&uuyzA---]~",
"0)Czz----;;Bo.../4FjlelelekxlelekxlelekxlelekxlelekxlelekxlelekxlelekxlelekxlelekxlelekxlelekxlelekxlelekxlelekxlelekxlelekxlelekxlelekxlelekxlelekxlelekxkxkxdelelekxkxkxkeefG.{0)Czz---;;+09",
"=|*-+;+DDDD!9..._qHwcdcdcdcdcdcdcdcdcdcdcdcdcdcdcdcdcdcdcdcdcdcdcdcdcdcdcdcdcdcdcdcdcdcdcdcdcdcdcdcdcdcdcdcdcdcdcdcdcdcdcdcdcdcdcdcdcdcdcdcdcdcdcdcdcdcccdcdcdlcdcdccdcdcdcddfg.{=|A--+DDDDD~9",
"9z+DDDpp]=0!!.../4Fjlelelelekxkxlekxkxlekxkxlekxkxlekxkxlekxkxlekxkxlekxkxlekxkxlekxkxlekxkxlekxkxlekxkxlekxkxlekxkxlekxkxlekxkxlekxkxlekxkxlekxkxlekxleleleleckxkxlelelelekxfg.{~A'DpDpp]0]9I",
"oDp==~9~~9~JJ...<qjbcdcdcdcccdcdcccdcdcccdcdcccdcdcccdcdcccdcdcccdcdcccdcdcccdcdcccdcdcccdcdcccdcdcccdcdcccdcdcccdcdcccdcdcccdcdcccdcdcccdcdcccdcdcccddcdcdcdcedcrrrrrrrrrrcdfg.{BD0==~~9~~~KJ",
",9I!!J!JJ!JLM.../3tjekxkxkxkelelekelelekelelekelelekelelekelelekelelekelelekelelekelelekelelekelelekelelekelelekelelekelelekelelekelelekelelekelelekelelekxkxkceNllelllllllNefg.{,9I!!JJJJJJLM",
"LJ,,L,L,L,LMO..._qvwccdcdcdccdcdcccdcdcccdcdcccdcdcccdcdcccdcdcccdcdcccdcdcccdcdcccdcdcccdcdcccdcdcccdcdcccdcdcccdcdcccdcdcccdcdcccdcdcccdcdcccdcdcccdcdccdcdcecrcdcdcdcrccrcfg.{MJ,,L,,,L,LMO"};
