/* XPM */
char *leftside[] = {
/* width height num_colors chars_per_pixel */
"   138    51      251            2",
/* colors */
".. c #040204",
".# c #7c826c",
".a c #bcc2ac",
".b c #3c423c",
".c c #5c6254",
".d c #9ca28c",
".e c #747264",
".f c #948e84",
".g c #dce2cc",
".h c #4c5244",
".i c #acb29c",
".j c #1c221c",
".k c #6c7264",
".l c #748294",
".m c #2c322c",
".n c #ccd2bc",
".o c #646254",
".p c #4c5264",
".q c #9496a4",
".r c #bcb6b1",
".s c #aca6a0",
".t c #747684",
".u c #8c8e80",
".v c #444a4b",
".w c #f4f2e0",
".x c #646675",
".y c #545a54",
".z c #343a37",
".A c #8c8a7e",
".B c #949a8b",
".C c #747a6b",
".D c #b4baa6",
".E c #848ea4",
".F c #d4dac4",
".G c #c4cab4",
".H c #9ca2a4",
".I c #242a2b",
".J c #0c1214",
".K c #7c8289",
".L c #e4ead4",
".M c #acb2b4",
".N c #647285",
".O c #646a62",
".P c #444a57",
".Q c #3c424d",
".R c #5c564c",
".S c #343a44",
".T c #4c5254",
".U c #848698",
".V c #a49e9c",
".W c #bcbeaa",
".X c #acae9b",
".Y c #847e74",
".Z c #546274",
".0 c #949688",
".1 c #b4b2a3",
".2 c #dcd6d4",
".3 c #545a6b",
".4 c #9c9e9c",
".5 c #5c5a52",
".6 c #747a76",
".7 c #141a1c",
".8 c #848a7a",
".9 c #ccc6c4",
"#. c #a4aa97",
"## c #ece6e4",
"#a c #2c323c",
"#b c #d4d2cd",
"#c c #747e8b",
"#d c #646e82",
"#e c #a49e94",
"#f c #242a34",
"#g c #6c7a91",
"#h c #6c6a63",
"#i c #bcc2bc",
"#j c #e4e2e4",
"#k c #242222",
"#l c #9c9a8f",
"#m c #dcdad9",
"#n c #cccac4",
"#o c #a4aab4",
"#p c #848279",
"#q c #44423f",
"#r c #a4a299",
"#s c #747274",
"#t c #7c8a9c",
"#u c #4c4a45",
"#v c #fcfafa",
"#w c #3c3a37",
"#x c #8c96ab",
"#y c #a4a2a4",
"#z c #848a85",
"#A c #eceae9",
"#B c #6c728a",
"#C c #5c6a7c",
"#D c #040a0c",
"#E c #7c829a",
"#F c #8c8e8c",
"#G c #4c4e56",
"#H c #545254",
"#I c #bcbeb7",
"#J c #acaea7",
"#K c #5c6273",
"#L c #b4b2ac",
"#M c #5c5e69",
"#N c #949eae",
"#O c #7c7a79",
"#P c #1c1a1b",
"#Q c #6c6a6c",
"#R c #94928f",
"#S c #e4e2d1",
"#T c #54524c",
"#U c #6c7277",
"#V c #34322e",
"#W c #d4d2c1",
"#X c #646264",
"#Y c #bcbabc",
"#Z c #acaaac",
"#0 c #646a84",
"#1 c #545a5c",
"#2 c #8c8e94",
"#3 c #dcdac8",
"#4 c #cccaba",
"#5 c #2c2a28",
"#6 c #848284",
"#7 c #444652",
"#8 c #3c3e4a",
"#9 c #9c968f",
"a. c #5c5a5c",
"a# c #9c9a9c",
"aa c #f4f2f0",
"ab c #7c7e8b",
"ac c #c4c2b1",
"ad c #54566c",
"ae c #7c7a6c",
"af c #141214",
"ag c #ecead4",
"ah c #b4b2b4",
"ai c #343640",
"aj c #2c2a34",
"ak c #c4c2bc",
"al c #0c0a0c",
"am c #acb2ac",
"an c #949aac",
"ao c #747a94",
"ap c #949a94",
"aq c #b4bab4",
"ar c #9ca2b4",
"as c #848aa4",
"at c #545e74",
"au c #24222c",
"av c #a4a6b4",
"aw c #6c7694",
"ax c #5c667c",
"ay c #8c92a4",
"az c #6c6e80",
"aA c #c4beb8",
"aB c #b4aea9",
"aC c #9c9eb3",
"aD c #7c827c",
"aE c #5c6264",
"aF c #9ca29c",
"aG c #1c222c",
"aH c #8c8a8c",
"aI c #646a6c",
"aJ c #949694",
"aK c #747e94",
"aL c #3c4644",
"aM c #747669",
"aN c #949283",
"aO c #4c564c",
"aP c #6c7664",
"aQ c #64665c",
"aR c #4c5666",
"aS c #949a9c",
"aT c #bcbab1",
"aU c #acaaa1",
"aV c #747a8b",
"aW c #8c9281",
"aX c #444e4c",
"aY c #646a7b",
"aZ c #949e84",
"a0 c #8492a4",
"a1 c #444e5a",
"a2 c #3c4654",
"a3 c #343e48",
"a4 c #4c5654",
"a5 c #848a9c",
"a6 c #b4b6a4",
"a7 c #545e6c",
"a8 c #5c5e54",
"a9 c #d4d6d2",
"b. c #6c6e61",
"b# c #e4e6df",
"ba c #242624",
"bb c #9c9e90",
"bc c #dcdedc",
"bd c #cccec8",
"be c #848679",
"bf c #444644",
"bg c #a4a699",
"bh c #747674",
"bi c #4c4e4c",
"bj c #fcfefc",
"bk c #3c3e3b",
"bl c #a4a6a4",
"bm c #eceee8",
"bn c #6c768c",
"bo c #7c869c",
"bp c #545655",
"bq c #5c6672",
"br c #7c7e79",
"bs c #1c1e1c",
"bt c #e4e6d3",
"bu c #343634",
"bv c #d4d6c2",
"bw c #dcdeca",
"bx c #ccceba",
"by c #2c2e2c",
"bz c #848686",
"bA c #c4c6b4",
"bB c #14161a",
"bC c #eceedc",
"bD c #b4b6b5",
"bE c #2c2e35",
"bF c #c4c6be",
"bG c #0c0e13",
"bH c #040604",
"bI c #2c363c",
"bJ c #8c928c",
"bK c #b4b6ac",
"bL c #6c6e6c",
"bM c #54564c",
"bN c #646664",
"bO c #545e5c",
"bP c #5c5e5c",
"bQ c #7c7e6c",
"bR c #9ca6b4",
"bS c #24262c",
"bT c #1c1e24",
"bU c #7c8274",
"bV c #3c4244",
"bW c #5c625c",
"bX c #9ca294",
"bY c #74726c",
"bZ c #4c524c",
"b0 c #acb2a4",
"b1 c #1c2224",
"b2 c #6c726c",
"b3 c #74829c",
"b4 c #64625c",
/* pixels */
"bjbjbjbjbjbjbjbjbjbjbjbjbjbjbjbjbjbj#mav#O#T#V.7al..................................................................................................................................................................................................................................",
"bjbjbjbjbjbjbjbjbjbjbjbjbjbjbj#ja#bp#P..............................................................................................................................................................................................................................................",
"bjbjbjbjbjbjbjbjbjbjbjbjbja9#6by......b1#7.Z#BaKbo#ta5as#ta5#tas#ta5#tasa5#ta5#ta5#ta5#ta5#t#ta5#t#ta5#t#ta5#t#ta5#t#ta5#t#ta5#t#ta5#t#ta5bo#tbo#tbo#tbo#tbo#tbo#tbo#tbo#tbo#tbo#tbo#tbo#tbo#tbo#tbo#tbo#tbo#tbo#tbo#tbo#tbo#tbo#tbo#tbo#tbo#tbo#tbo#tbo#tbo#tbo#tbo#tbo#tbo#tboaVax",
"bjbjbjbjbjbjbjbjbjbjbj#AaH#5.....7.p#dboa0.E.E.E.E.Ea0.Ea0.E.E.E.Eas.E.E.E.Eas.Eas.Eas.Easa5asasa5asasa5as#ta5as#ta5as#tasboasboasboasboas#t.U#t.Ua5boas.U#t.Ua5boas.U#t.Ua5boas.U#t.Ua5boas.U#t.Ua5boas.U#t.Ua5boas.U#t.Ua5boas.U#t.Ua5boas.U#t.Ua5boas.U#t.Ua5boas.U#t.Ua5boa5bnbq",
"bjbjbjbjbjbjbjbjbjbj#Y#G....bSat.l.Eayayay.Eaya0ay.Eay.Eay.Eay.Ea0.E.E.E.E.E.E.E.E.E.E.Ea5#t.E#tas#ta5#tasa5#tasas#tasa5boa5#ta5bo#t.U#tbobobo.Uboboboboboboboboboboboboboboboboboboboboboboboboboboboboboboboboboboboboboboboboboboboboboboboboboboboboboboboboboboboboboboboboaoax",
"bjbjbjbjbjbjbjbjbj#Rba..afaRaK.Eay.Eay.Eaya0ayayayay.Eayay.Eay.Eayayaya0#2a0.E.E.E.E.E.E.E.E.E.E.E.E.Eas#tasas#ta5as#ta5as#ta5as#tas#t.U#t.U#tbo#t.U#tboasboasboasboasboasboasboasboasboasboasboasboasboasboasboasboasboasboasboasboasboasboasboasboasboasboasboasboasboasboasboaVax",
"bjbjbjbjbjbjbj#v#6bH...S#d.E.E.Eay.Eayayay#x#x#x#x#x#xayayayayay.Eay.Eaya0ayay.Eaya0ay.E.Eay.E.Ea5.Ea5.Ea5as#tas#ta5boas#ta5bo#t.Ubo#tboasboboasbobobobobobobobobobobobobobobobobobobobobobobobobobobobobobobobobobobobobobobobobobobobobobobobobobobobobobobobobobobobobobobobobn.x",
"bjbjbjbjbjbj#vbh....a1aK#ta5as.Eayay#x#x#x.qan.qan.q.q#x#x#x#x#x#xayayayayayaya0ayay.Eayay.E.Eay.E.E.E.E.E.E.Easa5asas#ta5asboasbo#t.Ubobobobobobobobo.Ubobobobobobobobobobobobobobobobobobobobobobobobobobobobobobobobobobobobobobobobobobobobobobobobobobobobobobobobobobo#t.U#gax",
"bjbjbjbjbjbj#6..bHaR#Eboasasa0aya0#x#xanan#x#N#N#x#Nanananan#x.q#x#x#x#x#x#xay#xayayayaya0ayay.Eay.Eay.E.E.E.E.E.Ea5#tasas#tasas#tasbo#tasbo.Ubobobobobobo.Ubobo.Ubobo.Ubobo.Ubobo.Ubobo.Ubobo.Ubobo.Ubobo.Ubobo.Ubobo.Ubobo.Ubobo.Ubobo.Ubobo.Ubobo.Ubobo.Ubobo.Ubobo.Ubobobobo.t.x",
"bjbjbjbjbjaJbH...pb3bobo#t.E.Eayay#xanan#N#NaC#NaC#N#Nan#Nananananananan#x.q#x.q#x#x#xayayaya0ayayay.Ea0#2.E.E.E.Eas.Ea5#ta5#tas#tbo.Ubobobobobo#Ebo#Ebo#Ebo#Ebo#Ebo#Ebo#Ebo#Ebo#Ebo#Ebo#Ebo#Ebo#Ebo#Ebo#Ebo#Ebo#Ebo#Ebo#Ebo#Ebo#Ebo#Ebo#Ebo#Ebo#Ebo#Ebo#Ebo#Ebo#Ebo#Ebo#Ebobobo#gbq",
"bjbjbjbj#Yba..a2ao.l#Ea5asa5a0ayayanan#NaC#Nar#Nar#NaC#N#N#N#N#Nananan#xanan#xan#x#x#x#x#xayay.Eay.Eay.E.Ea0#2.Ea5.E#tasa5#tasboasbobobobobobo#Ebob3bo#Eb3bob3bob3bob3bob3bob3bob3bob3bob3bob3bob3bob3bob3bob3bob3bob3bob3bob3bob3bob3bob3bob3bob3bob3bob3bob3bob3bob3bob3bobobobn.x",
"bjbjbj#Abi..#a.Naob3#Ebo#tasayayan#N#N#NararbRbRarbRararar#NaC#N#N#N#N#x.EaKab#ca5ay#x.q#x#x#xayayay.Eayay.E.E.E.E.E.Eas#ta5#E#c#daz#dao#E#Ebob3bo#Ebob3bobo#Ebo#Ebo#Ebo#Ebo#Ebo#cbn#daY#dbnaK#Ebo#Ebo#Ebo#Ebo#Ebo#Ebo#Ebo#Ebo#Ebo#Ebo#cbn#daY#dbnaK#Ebo#Ebo#Ebo#Ebo#Ebo#Ebo#E#EbnaY",
"bjbjbj#F..bGataV#gaK#Ebobo.Eay#x#x#NararbRbRavbRavbRavararar#Nanay.U#U#K#H#G.P#G.p#MaYaV.U.Eay#xayayaya0ayay.Ea0.E.Ebo#c#B#KaR#7.Q#8.Q#7.pat#dbnaKb3#Ebob3bo.lbo.lbo.l#E.l#g#da7.p#7bV#8#8.v.pa7#dbn#c.lbo.lbo.lbo.lbo.lbo.l#E.l#g#d#M.p#7bV#8#8#7.pa7#dbn#c.lbo.lbo.lbo#E.lbobobn.x",
"bjbja9#5..#7bnawaKaKb3boa5.Eay#xan#NaCarbRavbRavbRavbRbRar#N.qbobL#Gai.I#5.IbSba.IbybV.TaY#ca5a0#x#xay.Eay.Eay.Ea5bobn#MaLbE#kbSaubSaGau.Iai.P#M#daVaK#E.l#E#Eb3#E#E.laV#dad.Qajb1#kaGb1b1aG.Iai.P#M.Nao#E.l#E#E.l#E#E#E#E.l#c#d.3.QbEb1aG#kaGb1b1.Iai.Pa7#daoaK#E.l#E#E.lbo#EbobnaY",
"bjbj#6...7#CbnbnaoaK#Ebo#ta0ayanan#NararbRavbR#o#obRbRaraCan#ca.ai#f#k#PbGal....bHbGbBbE.v#Mbn.Uaya0ayay.Eay.Ea5#EaY#GbEbSbT.JalbH....bHalafbS.QaRaY#gaK#E.lbo#E.l.laVbq.P.Ib1bT.JalbH....bHal.J.I.QaRaYaVb3#E.lbo#E.lb3#E#g.x.P#5b1bT.JalbH....bHal.JbSbVaRaYaV.l#Eb3bo.lbo#E.lbnbN",
"bj#jby..#7.N#Bbn#gao.lboboay#x#xan#NaCarbRavbRbRbRavar.H#xaV#G.IbSbBbya8braN.0#R.AaM.5#5bT.QaE.tbo.E.Eay.E.E.E.laY#7aub1bG#5a8br#R.0.0.u#O.5#5bB.S.paY#gaK.laK.laKbn#K#8b1bTbG#5a8br#R#l.0aN.Ya8#5#Pa3ad#daV.l#EaK.l#EaKbn#K.QaGb1bG#5b4#p.0#l.0.ubr.5#5bB#waR#CaV.l#EaKb3#E.l#Ebn.x",
"bja#...J#K.N#BbnawaoaKbo.U.Eay#xanan#NarararbRarbRararanaV.T#5aG#5#pbgaU#JaB#JaUbg#r#e.0b4#5#8bqaVa5as.E.Ea5#EaY#7b1.7ba#p#r.s#JaU#JaUaUaU#rbbb4#5bEa7#daVaKaKaKaoax.QaGbB#k#pbgaU#JaU#JaB#J#JaU#rbN#5#a.Z#BaoaKaKb3aK#g.x.QaubBba.Abg#Lam#L#JaB#JaUbgbb#XbS#a#M#daoaKaK.laKb3.l#Bbq",
"bjbp...S#d#d.Nbnbn#gb3#E#tas.E#x#xanan#N#NaraCarararanbo#MajbT#qbe#r#raU#J#JaUaU#rbb.0.u.8bY#q.P#U#E#ta5a5bo#U.pbabB#w#p#l.4bgbgaUaUaUbg#rbb.0.uaebk.Sax#B#gao#gaY#7aGafbk#pbb#raUaUaB#J#L.1aB.X#r.B#p#q.SaYbn#gaoaobnaY.PaGbB#q.A#raU#L#L#L.1#JaUbgbX#l.uae#q.SaxbnaKaoaoaKaKaK.NbN",
"#j#P...p#d#d#B.Nawaoao.lbo#tasayay#xanan#Nan#N#Nanan.EbL.Sba#5beaU#LbD#Iakakak#IaT#LaUbl#l.0b.bu#KaVboboboaVatai.7#k#pbg#J#L.raT#I#I#I#I.ramaU#r#laMbyad#d#Baw#daR#abBba#paU#J#LaT#iakbF#nbFbFbFaT#JaUbU#V.3.Naw#gbn#d.3bE.7ba.AbKaqaAbF#nbd#nbFakaT.r#Jbg#laM#5.3#dawbn#gao#gao#0bq",
"#Z..bB#K#d#d#d#Bbnbn#gaK#Eboa5asa0a0ay#xan#x#xan#x#x#cadbSaf.O#ebl#LbKaAbs#n.GacaT#J#r#l.u#pbr.5.S.t.l#EaK#d.Pb1bG#h.0bb.s#JbK#IakacaA.W.r.X#r.0.ube.o#f#d#B.N#Ka2bTbG#h.0#rbl#L..ac#4bd#W#Wbx..a6aUbb.0bNbE.Nbnbn#B#Ka2bTbGb..sam.rak..#Wa9#WbxbAaT..bg#l.ubeb4#f#dbnaw#Bbn#BbnaY#K",
"aD..#f#Cax#0#d.N.N#B#gaoaKb3boboas.Eas.Eay.Eay.EayayaY#8bTby#r#J.r#i#n#b....bc#mbdbF#I#Jbg#laW.AbEaxb3#E#g#Mai#P#5bb.s#J.r#i#n....a9a9....bFaT#J#r#lbJby.3.N#dadbI#P#5bbaU#JaTbF#Pa9bc#jb##Abs#P#bacbK#J#e.m#Mawbn#CaRai.7byaU.r#i#na9....#Ab##jbca9..#I#Jbgbb#R.matbnbn.N.N#B.NaxaE",
"bp..#8ax#0ax#0#0#d.Nbnaw#gaoaK#Eboboas#tas#tas.U#tasa7aibB.5#lbg.1#I#4bv#P#Pbs#3#W.a.1#r.0bebQaMbi#7aK#E.NaR#fbG.5.0a#bg.1#I#4#Pbs#3bvbs#P.W.XbXaNbe#p#Tai#B#d.p#fbG.5.0.Vbg#Lac..bwbtagbC......bxa6.X#l.u.5.Sbnbn#0.P#fbGb4bl#L#I#n#3.......wbtbwbx...1#r.0be#pbMaibnbn#d#0#d#d#KaE",
"bu...P#Kaxaxax#0#d#d#B#B.Nbnbn#gaKaKaKb3#E#Eb3b3#Eb3aRbEalaW.sah#I#na9b#........b#a9#4aT.X#laN.AbQaj.l#E#0.P#fal.ublaU#L#I#na9....#Ab#....#bbFaT#.bb.0beb1bn#d.PbS#D#RbgaUbDaAbdbs##aa#vbs#P#P#Pb##WbFa6bgaWauaVbn#K.QbSal#l#L#I#n.2b#........aaaa##..#4.DaUbb.0beau#cbn#dax#0axat#M",
"bs..aRat#Mat#K#Kaxax#C#0#d.N.N#B#Bbnbnbnbnbnbnbnbnbn.PbEbH.Abb#..rbFbv#S#P#P#P#P#P#4.Dbg.B.8.6.eb.bB#E#cax.QbS...A#lbbaU.rbA#Wbs#P#S.g#Pbs.a.1.daNbebQaMafaVaza2bS...A#lbbaUaTbx...LbC..........bv.W.Xbb.ubUaf#c.tata3bS...0aUbK#4a9.L..........bt.F...D#r.0bebQaMaf#c.t#0#M.Z#MaRa.",
"al..aRadaR.3.3aRatat#M#K#Kaxax#Caxaxaxaxaxaxax.xaxax.Q#f...4.s#Lakbdbc#A............bdaA.XbbaN.8#pbHabaV.3.SbS..bb#raU#L#ibd#m....bmaa....#3.GaT#.bb.0.A...taY#8aG..bbblaUbDbFa9#Paa#Pbs#P#P#P#PbC.F#4a6#.#9bHaV#B.paiaG...sbKakbdbcbm............bm..bxaT#.bb.0.u..aVbn#K.p.p.p.Pa2",
".....paR.paRaRaRad.3.3atat#K#K#Kaxaxaxax#K#K#K#K.Z#M.Q#f...u#lbga6acbxbw#P#P#P#P#Pac.1.daNbeaM.k#hbH.KaV.p.SbS...u.0#lbga6.Wbx#P#P#3.F#P#PaT.Xbb.u#p.CaMbH#caYa3aG...f.0bbaUa6bA...g.L...........G.W#..0.8bQbH.K#Ua1#aau..#lbg.1bA#W#S...........g.n...i.d.u#p.CaMbHab#Ua7.Pa1a1a2#H",
"al..#RaJ.4a#.V#rbgblav#JaBamahbD.r.r#Iah#IbDbDahah.M#Oa.bG#lbg#JaTbFa9#j........btbv.G.r#..0.AbebQbs#Yama#bL#Gal.0#rblaBaT#na9.....L##.....nbA.1bg.0.u.A#P#J#y#O#ubG.B#rbgaB#Ibd#P#A.waabs#P#Pbs#S#W.aaB.daNbsahbl.fbNbialaF.1#I.9a9b#........aa.wbt..bA.1bg.0.u.A#P#Lbl#9aHaHaHbr.R",
"bs...6aHaH.u#FbJ#R.0aJaJ.4a#.H#r#ybgblbgbl#yblaF#y#r.Yb4.jaMaN#laU.1.W.G#P#P#P.G.W.i.d.0.8ae.k#h.c#qbDaU#RbYbp#PaM.uaNbbbgb0.W#P#PbAbAbs#P.XbbaWbeaeaMaQbuaB.4aM#TbBaM.f.0bbbga6..bx.n.F.F.......DbgaZ.u.#.ebu#L#ybz#hbMbBbrbbaUa6.a#4.......FbvbA.D...daWbeae.e.Obuah#r#F#p#6#pbhbp",
"bu..b4#pbr#6#pbzbe.A.AaH.u#R#R#R.0#RaJ#9ap.0#R#R#RbJ#OaIbu.R.4bgamaTakbd....#3bv#4aAa6#.#l.u.8bQbi#h#L.4bzbLa8ba.5#l.4bgaBaTbF....#W#W.....a.1bgaZaW.A.hb4#ZaJbYbp#5bM#l#rbg#L#I#P#W#3#Sbtbt#P#Pbx.W.X#r.0bM#h#ZaJbrbNbp#5a8.sb0aTak#b....bt#Sbwbvbx...1#r.0aWbe#Tb4#JaJbrbhbh#O#h.R",
"bp..bi.6br#pbr#p#6#pbz#z.u.u#FaW#2.0#R#F#RbJaH#F.AaH#pbYbp#VbeaW.0bbbgaU#P.i.X#..d.0.u.#ae.k#h#hbu.4#JaJ#paMbN#ubybU.A.u.0aZ#r#.#.#.bg.dbb.0.A.#.C.eb.bu#lbl#FbYbP#uby#p.8aN.0.d...i.i.1a6a6.i..aZ.f.8.#.C#w.4aU#F#O#hbP#uby.u#lbbbg.X..aT.Da6.Xbgbb.0.8.#.C.kb.bua#aU#F#O#saMbY.ObM",
"#6..#V#OaM#O.6#Obr#Obe#p#6bzbzbz.A.u.A.u.u.A#z#6bzbe.KbhbL.zb4#l#rbgaU.1.D.WaT.1.Xbgbb.0.ubebQbM.o.rbl.A#O#s#hb4#5bP.0#lbbbgaU.1a6a6.1.1.XbgaZ#9.Abe.5a8ahaF#pb2bNa8#5bW#9bb#r.sb0bK.D#I.Wac.W.D.X.d#laNa8b4bD#r#pb2b.bNb4.IaQ#rbg#JbK.W.aac.WaTa6.XbgaZaN.Abe.Ra8bDaF#pbYb.bLbLb4.R",
"#Z..#Pb.bLae.C#s.Cbr#Obrabbr#pbzbzbe#zbzbzbe#p#paDbrbr#ObhaQ#waMbe.8.uaWaWaN.u.8bebQae.e.kaQ.o#ubl.MaJbr#Ub2bLbN.y#VbYbUbebe.u.u.u.u.8.8bebQae.kb..O#ubl#J#F#s#h#h#X#TbyaMbUbe.A.u.uaNaWaNaW.u.A.#bQ.e.kbiaU.MbJ#s#QbN#hbNbM#VbQ.A.uaN.0.0.0aW.ubebebQae.kb.aQ#ubl#J#F#s#haI.O#hbPbp",
"bc#P...ybY#QbLaMbhaM.6bh#ObU#O#Obrbr#pbrbr#O.6br.6.6#O.C.6bha8#u.A.0#9#lbbbb#laZaN.u.A.8.#bQ.h#RaT.4#pb2#hbLb.bL#hbV#q.AaN.0.0#l#l.B#l.0aNaW.Abe.#.h.VbDa##O.ObNbNbNaQ#q#q.8aN.0#lbb#lbbbbbbbbaZaN.u.8#TbgbDa##O#hbNbNbNbNbN#qbfaW#lbbbb#r.dbb#laNaNaW.8be.#.h.VbD.4#O.ObNb4bNbN.5bM",
"bjbp..#w.OaI#hbLbLbLbYaM#Obh.6bh#O.6.6#O#O.6bhbY#UbYb2bYbh.6#O#Xbka8.C.Cae.CaM.e.k.kaQ#hbM#uaJaq#ybzbLbNbN#XbNbN#Qb2#Tbua8aM.C.C.CaM.C.eaPb..k.5#u#yaT.Hbr.O#MbPbPbNbNaI#G#Va8.C.C.C.CaM.CaMaM.k.ea8bibl#Y#r.K.O#MbPbPbW#X.ObL#Tbua8bQbQ.CaeaM.eaP.kb.b.bM#u#raq#ybr.O#MbPbPbPbP#H#T",
"bj.4..bBbP.O#h.O#hb.bLbLaM#UbYbh.Cbh#s.CbYb2b2bLbLaI#QaIbL#s.6be.6bi#w#T#p.8bebe#pbQ.h#waQ#J#Y#ybzbLbNaE#MbW#Mb4bNb2bh#Ubk#V#T#p.A.8be.8.##T.zaQ#JbDaF#6bNbP.5#1a.bP#Xb.bhbL#w#VbM#p.A.8.A.8#p#T.z#h#JaT.H#6.Oa..5.ya.#1bP#XbLbhb2bkbubMbe.8.A.8bebQ.h#V#h#ZbD.4#6bNbP.5#1bp#1.y.T#T",
"bj#jby..bfbWb4.O#h.Ob.bLb.aMb2#s.ebYb2b2bLb.#Q#hbN.O.ObNbN.Ob2#Obz#RaDa8bkbsalbH#kbfb2bgaA.M.4aDbLaEbPa.a8bPa8bPaEbNbYbr#zbra8bu#PbHalbs#qaM#raA#JaJ#O#Xa..ybpbpbp.ybObNbL.6#z#O.5bu#PalbHbs.b#Obg#I#L.qbrbNa..ybpbpbpbp.ybObNb2#O#z#Oa.#VbsbHbHbs#qae#y#I#JaJ#ObNa..ybpbpbpbpbpbibi",
"bjbj#6..bsbp.obWbNbNbN.O.O#h.OaI.O#Q.O.Ob..ObN.ObNaE#MbWaE#MaEaI#sab#Fa#blaUambDaTbDbD.M.4#z#s#Xa7.ybp#1bpbpbpbpbp#1#M#Q.6bz#R.Hbl#JahbDahah#Jan#6bLa7bp.T.T.T#H.T#H.Tbp#MaI.tbzbJ.4bl#Z#LbDbDah#Z.4#6bLbPbp.T.T.T.T.T#H.T#Hbp#M.O.tbz#R.4bl#JahbDahah#oa#.KbL#Ma4.T.T.T#H.T#H.T#ubi",
"bjbja9#5...ba.bWaQbW#h.O#X.O.O#h.OaEbN#XbNaEbWbPbPbPbPa.bPa8a.bPbW.OaM.K#z#RaS.4a##l#F.K#s#XbP.ybMbpbpbpbpbpa4.T#Ha4bp.5aEbL#Obz#FaJapaJ#R#zbrbLbPbp#TbZbZbibibZbibibZbZ#TbpbP#Q.6bz#FaJaJaJ#R#zbrbLbPbp.T.TbZbibZbibZbibZ#GbZ#TbpbW#Q.6bz#2#RaJaJ#R#zbrbLbPbpbZ#TbibibZbibZbibZ.v#u",
"bjbjbjaH..bGbibPbPbPbWbWbPaE#XbWbNbNaQbWbWb4bWbPbO.y.y.y.y.y.y.y.y#1bPbW.ObLbL#UbLaIbNbW.y.ya4#Ha4bZ.TbZbZbZ.T#TbZbZbZ.TbMbpbObW.O#QaI#hbNaE.ya4bZbibibibibibZbibibZbibibZbZbZbp.ybPbN.OaI.ObNbW#1.TbZbZbibibibibibibibibibibibZbi#Ta4.5bWbN.OaI.ObNbP.ya4bZbibibibZbibibibibibibf#u",
"bjbjbj#Abi..byaOa8.ybPbPbPbWbPaQbWbWbWa7a8#1.y#1.y.ybpbpbpbpbpbpbpbpbMbpbpbpa4bMbpaObpbZ#HbZ#HbZbZ#HbZ#T.TbZbZbZ.TbZbibZbibibibZbibibibiaXbibibibibiaXbiaXbibiaXbi#uaXbibi.vbibibibiaXbibibibi.vbibibibiaXbibibibibibibibibiaXbibiaXbiaX#uaXbibibibiaXbi#ubibiaXbiaXbiaXbibiaXbi.vbf",
"bjbjbjbj#Yba..#wbp.y.y#1bO.c#1bWa8#1a8a8.y.y.ybp.y#H.Ta4bZ.TaObZaObZ.TbZbZbZbZbZbZbZbZbZbZbZbZbZbibZbibZbibibibibibibibiaXbibibiaXbiaXbibi.v#u.v.vaX#uaX#uaX#u.vbi.vbi.v#uaX#u.v.v#u.v#uaX.vbi.vbi.v.v#u.vbi.vaX.vaX.vaX#uaX#u.v#u.v#uaX#uaX#u.v.v#uaX#uaX.vbi.vbi.v#uaX#uaX#uaX#qbf",
"bjbjbjbjbjaJbH...bbp.ybpbpbpa8.y.y.y.ybp.ybpbpa4bpa4bM.TbZ.TbZ.TbZ.TbZbZ.TbZ.Tbi#Gbi.Tbi.Tbi#GbibibiaX#uaXbiaXbiaX#uaX.vaXbiaXaX.vbi.v.v.vaX.vaX.v#u.v.v.v.vaX.v.v.v.vaX.v.vaX.vbi.vaX.v.v#u.vaXbf.vaX.vaXbf.v.v#u.v#u.v.v.v.vaX.vaX.v#u.v.vaX.vaX.v.v.v.v#uaXbf.vaX.v#u.v.v.v.v.b#q",
"bjbjbjbjbjbj#6..bH.bbMbp.y.ybp.ybpbp.T.Ta4#H.TbM.TaO.TbZ.TbZ.Tbi.Tbi.T.TbZ#GbZbZbZbibZbibZbiaXbZaX#GbZbiaXbibiaXbiaXbibibiaXbibiaXbiaXbibi.vbi#uaXaXbiaXbi#uaX#ubiaX#ubi.vbi.vbi.vaX#uaXbiaX#uaXbibi.vbi#uaXbiaXbiaXaXbiaX#ubi.vbi.vbiaXaX#ubi.vbi#uaXbiaX.vbiaXbi.vbiaXaXbiaXbi.b.b",
"bjbjbjbjbjbj#vbh.....z#G.TbZbpa4bp.TaO.Ta4.Ta4bZ.T.TbZbZ.TbZbZbZbZ.TbZbibZbZ.TbZ.Tbi.TaX.TaX.TbibibiaXbibiaXbiaXbiaXbiaXaXbiaXbiaXbiaXbiaXbiaXaXaX#uaX#uaXaXbiaXaXbiaXaXaXbiaXaXbiaXbiaX#uaXaXbi.vaXbiaXaXbiaX#uaX.vbi.vbiaXaXbiaXbiaX.vbiaXaXbiaXaXbi.vbiaXbi.vbiaX.vbi.vbi.vbiaL#q",
"bjbjbjbjbjbjbj#vbrbH..bybia1bia1bi.T.T.T.TbZ.T.T.T.TbZbZ#GbZ.TbZbibZbZ.TbZbibZbibZaXbZbZbZbZbZaXbZaX.TbiaXbZbiaXbZbiaXbibibibiaXbibiaXbibiaX.h#ubiaXbiaXbiaXbiaXbiaXbibiaXbiaXbiaXbiaXbiaXbiaXbiaX.h.vbiaXbiaXbiaXbiaX.haXbiaXbiaXbiaXbiaXbiaXbiaXbiaXbiaXbiaXbiaXbiaXbiaXbiaXbiaL.b",
"bjbjbjbjbjbjbjbjbjaJ#k..afbkbiaXbia1bZ#GbZbibZ#GbZbia1biaXbZa1biaX#G.vaXbia1aXa1bia1bia1bia1aXaXa1biaXaXbia1aXbia1aXbiaXaXaXaXaXaXbi.vaX.v.v.v.vaX.vaX.vaX.v.v.v.v.v.v.v.v.v.v.v.v.v.vaX.vaX.vaX.v.v.vaX.v.vaX.vbi.vaX.v.v.v.v.v.v.vbi.vaX.v.v.v.vaX.vaX.vaX.vaX.vaX.vaX.vaX.vaX#qbk",
"bjbjbjbjbjbjbjbjbjbj#Ybi....bsbkbiaXbZbibZa1aXaXaXaXaXaX.vaX.vaX.v.v.v.v.v.v.vaX.vaX.v.v.v.v.v.v.v.v.v.v.v.v.v.v.v.v.v.v.v.v.v.v.v.v.v.v.v.v.v.v.v.v.v.v.v.v.v.v.v.v.v.v.v.v.v.v.v.v.v.v.v.v.v.v.v.v.v.v.v.v.v.v.v.v.v.v.v.v.v.v.v.v.v.v.v.v.v.v.v.v.v.v.v.v.v.v.v.v.v.v.v.v.v.vbV.z",
"bjbjbjbjbjbjbjbjbjbjbj#AaHby....bBbubfaXaX.vaX.v.v.vbf.vbf.vbfaLbf.vaL.v.v.v.vbf.vbf.v.vbf.v.v.v.vbf.v.v.v.vaL.vbf.vaLbf.vbf.vaL.vaLbfaLbfbfbfbfbfaLbfaLbfbf.vbfbfbfbfaLbfbfbfbfbfbfbfbfbfbfbfbfbfbfbfbfbfbfbfbfaLbfbfaLbfbfbf.vaL.vaLbfaL.vbf.vbf.vbfbfbfaLbfbfaLbfbfbfbfbfbfaL.b.z",
"bjbjbjbjbjbjbjbjbjbjbjbjbja9brby.......7#Vbkbf.v.v.v.vaLaLaLaLaLbVaLbVbVaLbVbVaLbVaLbVaLbVaLbVbVaLbVa3aL.bbVbVbVbVbVaLaLbVaLbVaLbVaLaLaLaLaLaLaLaLaLaLbVaLbVbVaLbVaLaLbVaLaLbVaLaLbVaLaLbVaLaLbVaLaLbVaLbVaLbVaLbVaLbVaLaLbVaLbVbVaLbVaLbVbVbVbVbVbVbVaLbVaLaLaLbVaLbVaLbVaLbVaL.SbI",
"bjbjbjbjbjbjbjbjbjbjbjbjbjbjbj#ja#bpbB..............................................................................................................................................................................................................................................",
"bjbjbjbjbjbjbjbjbjbjbjbjbjbjbjbjbjbjbc.s.6#Hby.7al.................................................................................................................................................................................................................................."
};
