/* XPM */
char * leftside[] = {
"138 51 252 2",
"  	c None",
". 	c #000000",
"+ 	c #1C2224",
"@ 	c #444652",
"# 	c #546274",
"$ 	c #6C728A",
"% 	c #747E94",
"& 	c #7C869C",
"* 	c #7C8A9C",
"= 	c #848A9C",
"- 	c #848AA4",
"; 	c #747A8B",
"> 	c #5C667C",
", 	c #141A1C",
"' 	c #4C5264",
") 	c #646E82",
"! 	c #8492A4",
"~ 	c #848EA4",
"{ 	c #848698",
"] 	c #6C768C",
"^ 	c #5C6672",
"/ 	c #24262C",
"( 	c #545E74",
"_ 	c #748294",
": 	c #8C92A4",
"< 	c #747A94",
"[ 	c #4C5666",
"} 	c #8C8E94",
"| 	c #343A44",
"1 	c #8C96AB",
"2 	c #646675",
"3 	c #444E5A",
"4 	c #9496A4",
"5 	c #949AAC",
"6 	c #6C7A91",
"7 	c #7C829A",
"8 	c #949EAE",
"9 	c #747684",
"0 	c #74829C",
"a 	c #9C9EB3",
"b 	c #3C4654",
"c 	c #9CA2B4",
"d 	c #2C323C",
"e 	c #647285",
"f 	c #9CA6B4",
"g 	c #7C7E8B",
"h 	c #747E8B",
"i 	c #6C6E80",
"j 	c #646A7B",
"k 	c #A4A6B4",
"l 	c #6C7277",
"m 	c #5C6273",
"n 	c #545254",
"o 	c #4C4E56",
"p 	c #444A57",
"q 	c #5C5E69",
"r 	c #3C424D",
"s 	c #3C3E4A",
"t 	c #545E6C",
"u 	c #3C4244",
"v 	c #444A4B",
"w 	c #6C7694",
"x 	c #6C6E6C",
"y 	c #343640",
"z 	c #242A2B",
"A 	c #2C2A28",
"B 	c #242624",
"C 	c #2C2E2C",
"D 	c #4C5254",
"E 	c #3C4644",
"F 	c #2C2E35",
"G 	c #242222",
"H 	c #24222C",
"I 	c #1C222C",
"J 	c #54566C",
"K 	c #2C2A34",
"L 	c #545A6B",
"M 	c #5C6A7C",
"N 	c #A4AAB4",
"O 	c #5C5A5C",
"P 	c #242A34",
"Q 	c #1C1A1B",
"R 	c #0C0E13",
"S 	c #0C0A0C",
"T 	c #040204",
"U 	c #040604",
"V 	c #14161A",
"W 	c #1C1E24",
"X 	c #0C1214",
"Y 	c #141214",
"Z 	c #646664",
"` 	c #9CA2A4",
" .	c #5C5E54",
"..	c #7C7E79",
"+.	c #949283",
"@.	c #949688",
"#.	c #94928F",
"$.	c #8C8A7E",
"%.	c #747669",
"&.	c #5C5A52",
"*.	c #5C6264",
"=.	c #8C8E80",
"-.	c #7C7A79",
";.	c #9C9A8F",
">.	c #847E74",
",.	c #343E48",
"'.	c #64625C",
").	c #848279",
"!.	c #3C3A37",
"~.	c #A4A699",
"{.	c #ACAAA1",
"].	c #ACAEA7",
"^.	c #B4AEA9",
"/.	c #A4A299",
"(.	c #A49E94",
"_.	c #ACA6A0",
":.	c #9C9E90",
"<.	c #B4B2AC",
"[.	c #ACB2AC",
"}.	c #646264",
"|.	c #44423F",
"1.	c #848679",
"2.	c #848A7A",
"3.	c #74726C",
"4.	c #9C9E9C",
"5.	c #7C7A6C",
"6.	c #3C3E3B",
"7.	c #B4B2A3",
"8.	c #ACAE9B",
"9.	c #949A8B",
"0.	c #9CA294",
"a.	c #B4B6B5",
"b.	c #BCBEB7",
"c.	c #C4C2BC",
"d.	c #BCBAB1",
"e.	c #A4A6A4",
"f.	c #6C6E61",
"g.	c #343634",
"h.	c #BCB6B1",
"i.	c #BCC2BC",
"j.	c #C4C6BE",
"k.	c #CCCAC4",
"l.	c #7C8274",
"m.	c #34322E",
"n.	c #B4B6AC",
"o.	c #B4BAB4",
"p.	c #C4BEB8",
"q.	c #CCCEC8",
"r.	c #646A84",
"s.	c #646A62",
"t.	c #1C1E1C",
"u.	c #C4CAB4",
"v.	c #C4C2B1",
"w.	c #6C6A63",
"x.	c #BCBEAA",
"y.	c #646254",
"z.	c #CCCABA",
"A.	c #D4D2C1",
"B.	c #CCCEBA",
"C.	c #B4B6A4",
"D.	c #D4D6D2",
"E.	c #C4C6B4",
"F.	c #D4D2CD",
"G.	c #DCDEDC",
"H.	c #DCDAD9",
"I.	c #8C9281",
"J.	c #8C928C",
"K.	c #2C363C",
"L.	c #E4E2E4",
"M.	c #E4E6DF",
"N.	c #ECEAE9",
"O.	c #2C322C",
"P.	c #D4D6C2",
"Q.	c #DCDAC8",
"R.	c #BCC2AC",
"S.	c #7C7E6C",
"T.	c #4C4E4C",
"U.	c #9C9A9C",
"V.	c #54524C",
"W.	c #A49E9C",
"X.	c #DCDECA",
"Y.	c #E4E6D3",
"Z.	c #ECEAD4",
"`.	c #ECEEDC",
" +	c #F4F2E0",
".+	c #54564C",
"++	c #B4B2B4",
"@+	c #A4AA97",
"#+	c #040A0C",
"$+	c #ECE6E4",
"%+	c #F4F2F0",
"&+	c #FCFAFA",
"*+	c #DCD6D4",
"=+	c #B4BAA6",
"-+	c #E4E2D1",
";+	c #747A76",
">+	c #747264",
",+	c #DCE2CC",
"'+	c #9CA28C",
")+	c #E4EAD4",
"!+	c #D4DAC4",
"~+	c #ECEEE8",
"{+	c #9C968F",
"]+	c #6C7264",
"^+	c #7C8289",
"/+	c #747A6B",
"(+	c #948E84",
"_+	c #CCD2BC",
":+	c #ACB29C",
"<+	c #949694",
"[+	c #ACB2B4",
"}+	c #BCBABC",
"|+	c #A4A2A4",
"1+	c #4C4A45",
"2+	c #9CA29C",
"3+	c #CCC6C4",
"4+	c #8C8A8C",
"5+	c #5C564C",
"6+	c #8C8E8C",
"7+	c #1C221C",
"8+	c #5C6254",
"9+	c #545655",
"0+	c #ACB2A4",
"a+	c #64665C",
"b+	c #949E84",
"c+	c #7C826C",
"d+	c #848686",
"e+	c #848284",
"f+	c #747674",
"g+	c #949A94",
"h+	c #646A6C",
"i+	c #4C5244",
"j+	c #ACAAAC",
"k+	c #848A85",
"l+	c #5C5E5C",
"m+	c #747274",
"n+	c #343A37",
"o+	c #6C726C",
"p+	c #5C625C",
"q+	c #7C827C",
"r+	c #545A54",
"s+	c #6C6A6C",
"t+	c #444644",
"u+	c #6C7664",
"v+	c #545A5C",
"w+	c #545E5C",
"x+	c #3C423C",
"y+	c #4C5654",
"z+	c #949A9C",
"A+	c #4C524C",
"B+	c #4C564C",
"C+	c #444E4C",
". . . . . . . . . . . . . . . . . . . . . . . . . . . . . . . . . . . . . . . . . . . . . . . . . . . . . . . . . . . . . . . . . . . . . . . . . . . . . . . . . . . . . . . . . . . . . . . . . . . . . . . . . . . . . . . . . . . . . . . . . . . . . . . . . . . . . . . . . . ",
". . . . . . . . . . . . . . . . . . . . . . . . . . . . . . . . . . . . . . . . . . . . . . . . . . . . . . . . . . . . . . . . . . . . . . . . . . . . . . . . . . . . . . . . . . . . . . . . . . . . . . . . . . . . . . . . . . . . . . . . . . . . . . . . . . . . . . . . . . ",
". . . . . . . . . . . . . . . . . . . + @ # $ % & * = - * = * - * = * - = * = * = * = * = * * = * * = * * = * * = * * = * * = * * = * * = & * & * & * & * & * & * & * & * & * & * & * & * & * & * & * & * & * & * & * & * & * & * & * & * & * & * & * & * & * & * & * & * & * & ; > ",
". . . . . . . . . . . . . . . . , ' ) & ! ~ ~ ~ ~ ~ ! ~ ! ~ ~ ~ ~ - ~ ~ ~ ~ - ~ - ~ - ~ - = - - = - - = - * = - * = - * - & - & - & - & - * { * { = & - { * { = & - { * { = & - { * { = & - { * { = & - { * { = & - { * { = & - { * { = & - { * { = & - { * { = & - { * { = & = ] ^ ",
". . . . . . . . . . . . . . / ( _ ~ : : : ~ : ! : ~ : ~ : ~ : ~ ! ~ ~ ~ ~ ~ ~ ~ ~ ~ ~ ~ = * ~ * - * = * - = * - - * - = & = * = & * { * & & & { & & & & & & & & & & & & & & & & & & & & & & & & & & & & & & & & & & & & & & & & & & & & & & & & & & & & & & & & & & & & & & & & < > ",
". . . . . . . . . . . . . [ % ~ : ~ : ~ : ! : : : : ~ : : ~ : ~ : : : ! } ! ~ ~ ~ ~ ~ ~ ~ ~ ~ ~ ~ ~ ~ - * - - * = - * = - * = - * - * { * { * & * { * & - & - & - & - & - & - & - & - & - & - & - & - & - & - & - & - & - & - & - & - & - & - & - & - & - & - & - & - & - & - & ; > ",
". . . . . . . . . . . | ) ~ ~ ~ : ~ : : : 1 1 1 1 1 1 : : : : : ~ : ~ : ! : : ~ : ! : ~ ~ : ~ ~ = ~ = ~ = - * - * = & - * = & * { & * & - & & - & & & & & & & & & & & & & & & & & & & & & & & & & & & & & & & & & & & & & & & & & & & & & & & & & & & & & & & & & & & & & & & & ] 2 ",
". . . . . . . . . . 3 % * = - ~ : : 1 1 1 4 5 4 5 4 4 1 1 1 1 1 1 : : : : : : ! : : ~ : : ~ ~ : ~ ~ ~ ~ ~ ~ ~ - = - - * = - & - & * { & & & & & & & & { & & & & & & & & & & & & & & & & & & & & & & & & & & & & & & & & & & & & & & & & & & & & & & & & & & & & & & & & & & * { 6 > ",
". . . . . . . . . [ 7 & - - ! : ! 1 1 5 5 1 8 8 1 8 5 5 5 5 1 4 1 1 1 1 1 1 : 1 : : : : ! : : ~ : ~ : ~ ~ ~ ~ ~ ~ = * - - * - - * - & * - & { & & & & & & { & & { & & { & & { & & { & & { & & { & & { & & { & & { & & { & & { & & { & & { & & { & & { & & { & & { & & { & & & & 9 2 ",
". . . . . . . . ' 0 & & * ~ ~ : : 1 5 5 8 8 a 8 a 8 8 5 8 5 5 5 5 5 5 5 1 4 1 4 1 1 1 : : : ! : : : ~ ! } ~ ~ ~ ~ - ~ = * = * - * & { & & & & & 7 & 7 & 7 & 7 & 7 & 7 & 7 & 7 & 7 & 7 & 7 & 7 & 7 & 7 & 7 & 7 & 7 & 7 & 7 & 7 & 7 & 7 & 7 & 7 & 7 & 7 & 7 & 7 & 7 & 7 & 7 & & & 6 ^ ",
". . . . . . . b < _ 7 = - = ! : : 5 5 8 a 8 c 8 c 8 a 8 8 8 8 8 5 5 5 1 5 5 1 5 1 1 1 1 1 : : ~ : ~ : ~ ~ ! } ~ = ~ * - = * - & - & & & & & & 7 & 0 & 7 0 & 0 & 0 & 0 & 0 & 0 & 0 & 0 & 0 & 0 & 0 & 0 & 0 & 0 & 0 & 0 & 0 & 0 & 0 & 0 & 0 & 0 & 0 & 0 & 0 & 0 & 0 & 0 & 0 & & & ] 2 ",
". . . . . . d e < 0 7 & * - : : 5 8 8 8 c c f f c f c c c 8 a 8 8 8 8 1 ~ % g h = : 1 4 1 1 1 : : : ~ : : ~ ~ ~ ~ ~ ~ - * = 7 h ) i ) < 7 7 & 0 & 7 & 0 & & 7 & 7 & 7 & 7 & 7 & h ] ) j ) ] % 7 & 7 & 7 & 7 & 7 & 7 & 7 & 7 & 7 & 7 & h ] ) j ) ] % 7 & 7 & 7 & 7 & 7 & 7 & 7 7 ] j ",
". . . . . . ( ; 6 % 7 & & ~ : 1 1 8 c c f f k f k f k c c c 8 5 : { l m n o p o ' q j ; { ~ : 1 : : : ! : : ~ ! ~ ~ & h $ m [ @ r s r @ ' ( ) ] % 0 7 & 0 & _ & _ & _ 7 _ 6 ) t ' @ u s s v ' t ) ] h _ & _ & _ & _ & _ & _ 7 _ 6 ) q ' @ u s s @ ' t ) ] h _ & _ & _ & 7 _ & & ] 2 ",
". . . . . @ ] w % % 0 & = ~ : 1 5 8 a c f k f k f k f f c 8 4 & x o y z A z / B z C u D j h = ! 1 1 : ~ : ~ : ~ = & ] q E F G / H / I H z y p q ) ; % 7 _ 7 7 0 7 7 _ ; ) J r K + G I + + I z y p q e < 7 _ 7 7 _ 7 7 7 7 _ h ) L r F + I G I + + z y p t ) < % 7 _ 7 7 _ & 7 & ] j ",
". . . . , M ] ] < % 7 & * ! : 5 5 8 c c f k f N N f f c a 5 h O y P G Q R S T T U R V F v q ] { : ! : : ~ : ~ = 7 j o F / W X S U T T U S Y / r [ j 6 % 7 _ & 7 _ _ ; ^ p z + W X S U T T U S X z r [ j ; 0 7 _ & 7 _ 0 7 6 2 p A + W X S U T T U S X / u [ j ; _ 7 0 & _ & 7 _ ] Z ",
". . . . @ e $ ] 6 < _ & & : 1 1 5 8 a c f k f f f k c ` 1 ; o z / V C  ...+.@.#.$.%.&.A W r *.9 & ~ ~ : ~ ~ ~ _ j @ H + R A  ...#.@.@.=.-.&.A V | ' j 6 % _ % _ % ] m s + W R A  ...#.;.@.+.>. .A Q ,.J ) ; _ 7 % _ 7 % ] m r I + R A '.).@.;.@.=...&.A V !.[ M ; _ 7 % 0 7 _ 7 ] 2 ",
". . . . m e $ ] w < % & { ~ : 1 5 5 8 c c c f c f c c 5 ; D A I A ).~.{.].^.].{.~./.(.@.'.A s ^ ; = - ~ ~ = 7 j @ + , B )./._.].{.].{.{.{./.:.'.A F t ) ; % % % < > r I V G ).~.{.].{.].^.].].{./.Z A d # $ < % % 0 % 6 2 r H V B $.~.<.[.<.].^.].{.~.:.}./ d q ) < % % _ % 0 _ $ ^ ",
". . . | ) ) e ] ] 6 0 7 * - ~ 1 1 5 5 8 8 c a c c c 5 & q K W |.1././.{.].].{.{./.:.@.=.2.3.|.p l 7 * = = & l ' B V !.).;.4.~.~.{.{.{.~./.:.@.=.5.6.| > $ 6 < 6 j @ I Y 6.).:./.{.{.^.].<.7.^.8./.9.).|.| j ] 6 < < ] j p I V |.$./.{.<.<.<.7.].{.~.0.;.=.5.|.| > ] % < < % % % e Z ",
". . . ' ) ) $ e w < < _ & * - : : 1 5 5 8 5 8 8 5 5 ~ x | B A 1.{.<.a.b.c.c.c.b.d.<.{.e.;.@.f.g.m ; & & & ; ( y , G ).~.].<.h.d.b.b.b.b.h.[.{./.;.%.C J ) $ w ) [ d V B ).{.].<.d.i.c.j.k.j.j.j.d.].{.l.m.L e w 6 ] ) L F , B $.n.o.p.j.k.q.k.j.c.d.h.].~.;.%.A L ) w ] 6 < 6 < r.^ ",
". . V m ) ) ) $ ] ] 6 % 7 & = - ! ! : 1 5 1 1 5 1 1 h J / Y s.(.e.<.n.p.t.k.u.v.d.]./.;.=.)...&.| 9 _ 7 % ) p + R w.@.:._.].n.b.c.v.p.x.h.8./.@.=.1.y.P ) $ e m b W R w.@./.e.<.T v.z.q.A.A.B.T C.{.:.@.Z F e ] ] $ m b W R f._.[.h.c.T A.D.A.B.E.d.T ~.;.=.1.'.P ) ] w $ ] $ ] j m ",
". . P M > r.) e e $ 6 < % 0 & & - ~ - ~ : ~ : ~ : : j s W C /.].h.i.k.F.T T G.H.q.j.b.].~.;.I.$.F > 0 7 6 q y Q A :._.].h.i.k.T T D.D.T T j.d.]./.;.J.C L e ) J K.Q A :.{.].d.j.Q D.G.L.M.N.t.Q F.v.n.].(.O.q w ] M [ y , C {.h.i.k.D.T T N.M.L.G.D.T b.].~.:.#.O.( ] ] e e $ e > *.",
". . s > r.> r.r.) e ] w 6 < % 7 & & - * - * - { * - t y V &.;.~.7.b.z.P.Q Q t.Q.A.R.7./.@.1.S.%.T.@ % 7 e [ P R &.@.U.~.7.b.z.Q t.Q.P.t.Q x.8.0.+.1.).V.y $ ) ' P R &.@.W.~.<.v.T X.Y.Z.`.T T T B.C.8.;.=.&.| ] ] r.p P R '.e.<.b.k.Q.T T T  +Y.X.B.T 7./.@.1.)..+y ] ] ) r.) ) m *.",
". . p m > > > r.) ) $ $ e ] ] 6 % % % 0 7 7 0 0 7 0 [ F S I._.++b.k.D.M.T T T T M.D.z.d.8.;.+.$.S.K _ 7 r.p P S =.e.{.<.b.k.D.T T N.M.T T F.j.d.@+:.@.1.+ ] ) p / #+#.~.{.a.p.q.t.$+%+&+t.Q Q Q M.A.j.C.~.I.H ; ] m r / S ;.<.b.k.*+M.T T T T %+%+$+T z.=+{.:.@.1.H h ] ) > r.> ( q ",
". . [ ( q ( m m > > M r.) e e $ $ ] ] ] ] ] ] ] ] ] p F U $.:.@+h.j.P.-+Q Q Q Q Q z.=+~.9.2.;+>+f.V 7 h > r / T $.;.:.{.h.E.A.t.Q -+,+Q t.R.7.'++.1.S.%.Y ; i b / T $.;.:.{.d.B.T )+`.T T T T T P.x.8.:.=.l.Y h 9 ( ,./ T @.{.n.z.D.)+T T T T T Y.!+T =+/.@.1.S.%.Y h 9 r.q # q [ O ",
". . [ J [ L L [ ( ( q m m > > M > > > > > > > 2 > > r P T 4._.<.c.q.G.N.T T T T T T q.p.8.:.+.2.).U g ; L | / T :./.{.<.i.q.H.T T ~+%+T T Q.u.d.@+:.@.$.T 9 j s I T :.e.{.a.j.D.Q %+Q t.Q Q Q Q `.!+z.C.@+{+U ; $ ' y I T _.n.c.q.G.~+T T T T T T ~+T B.d.@+:.@.=.T ; ] m ' ' ' p b ",
". . ' [ ' [ [ [ J L L ( ( m m m > > > > m m m m # q r P T =.;.~.C.v.B.X.Q Q Q Q Q v.7.'++.1.%.]+w.U ^+; ' | / T =.@.;.~.C.x.B.Q Q Q.!+Q Q d.8.:.=.)./+%.U h j ,.I T (+@.:.{.C.E.T ,+)+T T T T T u.x.@+@.2.S.U ^+l 3 d H T ;.~.7.E.A.-+T T T T T ,+_+T :+'+=.)./+%.U g l t p 3 3 b n ",
". . #.<+4.U.W./.~.e.k ].^.[.++a.h.h.b.++b.a.a.++++[+-.O R ;.~.].d.j.D.L.T T T T Y.P.u.h.@+@.$.1.S.t.}+[.U.x o S @./.e.^.d.k.D.T T )+$+T T _+E.7.~.@.=.$.Q ].|+-.1+R 9./.~.^.b.q.Q N. +%+t.Q Q t.-+A.R.^.'++.t.++e.(+Z T.S 2+7.b.3+D.M.T T T T %+ +Y.T E.7.~.@.=.$.Q <.e.{+4+4+4+..5+",
"t.. ;+4+4+=.6+J.#.@.<+<+4.U.` /.|+~.e.~.e.|+e.2+|+/.>.'.7+%.+.;.{.7.x.u.Q Q Q u.x.:+'+@.2.5.]+w.8+|.a.{.#.3.9+Q %.=.+.:.~.0+x.Q Q E.E.t.Q 8.:.I.1.5.%.a+g.^.4.%.V.V %.(+@.:.~.C.T B._+!+!+T T T =+~.b+=.c+>+g.<.|+d+w..+V ..:.{.C.R.z.T T T !+P.E.=+T '+I.1.5.>+s.g.++/.6+).e+).f+9+",
". . '.)...e+).d+1.$.$.4+=.#.#.#.@.#.<+{+g+@.#.#.#.J.-.h+g.5+4.~.[.d.c.q.T T Q.P.z.p.C.@+;.=.2.S.T.w.<.4.d+x  .B &.;.4.~.^.d.j.T T A.A.T T R.7.~.b+I.$.i+'.j+<+3.9+A .+;./.~.<.b.Q A.Q.-+Y.Y.Q Q B.x.8./.@..+w.j+<+..Z 9+A  ._.0+d.c.F.T T Y.-+X.P.B.T 7./.@.I.1.V.'.].<+..f+f+-.w.5+",
". . T.;+..)...).e+).d+k+=.=.6+I.} @.#.6+#.J.4+6+$.4+).3.9+m.1.I.@.:.~.{.Q :+8.@+'+@.=.c+5.]+w.w.g.4.].<+).%.Z 1+C l.$.=.@.b+/.@+@+@+~.'+:.@.$.c+/+>+f.g.;.e.6+3.l+1+C ).2.+.@.'+T :+:+7.C.C.:+T b+(+2.c+/+!.4.{.6+-.w.l+1+C =.;.:.~.8.T d.=+C.8.~.:.@.2.c+/+]+f.g.U.{.6+-.m+%.3.s..+",
". . m.-.%.-.;+-...-.1.).e+d+d+d+$.=.$.=.=.$.k+e+d+1.^+f+x n+'.;./.~.{.7.=+x.d.7.8.~.:.@.=.1.S..+y.h.e.$.-.m+w.'.A l+@.;.:.~.{.7.C.C.7.7.8.~.b+{+$.1.&. .++2+).o+Z  .A p+{+:./._.0+n.=+b.x.v.x.=+8.'+;.+. .'.a./.).o+f.Z '.z a+/.~.].n.x.R.v.x.d.C.8.~.b++.$.1.5+ .a.2+).3.f.x x '.5+",
". . Q f.x 5./+m+/+..-...g ..).d+d+1.k+d+d+1.).).q+....-.f+a+!.%.1.2.=.I.I.+.=.2.1.S.5.>+]+a+y.1+e.[+<+..l o+x Z r+m.3.l.1.1.=.=.=.=.2.2.1.S.5.]+f.s.1+e.].6+m+w.w.}.V.C %.l.1.$.=.=.+.I.+.I.=.$.c+S.>+]+T.{.[+J.m+s+Z w.Z .+m.S.$.=.+.@.@.@.I.=.1.1.S.5.]+f.a+1+e.].6+m+w.h+s.w.l+9+",
". . . r+3.s+x %.f+%.;+f+-.l.-.-.....).....-.;+..;+;+-./+;+f+ .1+$.@.{+;.:.:.;.b++.=.$.2.c+S.i+#.d.4.).o+w.x f.x w.u |.$.+.@.@.;.;.9.;.@.+.I.$.1.c+i+W.a.U.-.s.Z Z Z a+|.|.2.+.@.;.:.;.:.:.:.:.b++.=.2.V.~.a.U.-.w.Z Z Z Z Z |.t+I.;.:.:./.'+:.;.+.+.I.2.1.c+i+W.a.4.-.s.Z '.Z Z &..+",
". . . !.s.h+w.x x x 3.%.-.f+;+f+-.;+;+-.-.;+f+3.l 3.o+3.f+;+-.}.6. ./+/+5./+%.>+]+]+a+w..+1+<+o.|+d+x Z Z }.Z Z s+o+V.g. .%./+/+/+%./+>+u+f.]+&.1+|+d.` ..s.q l+l+Z Z h+o m. ./+/+/+/+%./+%.%.]+>+ .T.e.}+/.^+s.q l+l+p+}.s.x V.g. .S.S./+5.%.>+u+]+f.f..+1+/.o.|+..s.q l+l+l+l+n V.",
". . . V l+s.w.s.w.f.x x %.l 3.f+/+f+m+/+3.o+o+x x h+s+h+x m+;+1.;+T.!.V.).2.1.1.).S.i+!.a+].}+|+d+x Z *.q p+q '.Z o+f+l 6.m.V.).$.2.1.2.c+V.n+a+].a.2+e+Z l+&.v+O l+}.f.f+x !.m..+).$.2.$.2.).V.n+w.].d.` e+s.O &.r+O v+l+}.x f+o+6.g..+1.2.$.2.1.S.i+m.w.j+a.4.e+Z l+&.v+9+v+r+D V.",
". . . . t+p+'.s.w.s.f.x f.%.o+m+>+3.o+o+x f.s+w.Z s.s.Z Z s.o+-.d+#.q+ .6.t.S U G t+o+~.p.[+4.q+x *.l+O  .l+ .l+*.Z 3...k+.. .g.Q U S t.|.%./.p.].<+-.}.O r+9+9+9+r+w+Z x ;+k+-.&.g.Q S U t.x+-.~.b.<.4 ..Z O r+9+9+9+9+r+w+Z o+-.k+-.O m.t.U U t.|.5.|+b.].<+-.Z O r+9+9+9+9+9+T.T.",
". . . . t.9+y.p+Z Z Z s.s.w.s.h+s.s+s.s.f.s.Z s.Z *.q p+*.q *.h+m+g 6+U.e.{.[.a.d.a.a.[+4.k+m+}.t r+9+v+9+9+9+9+9+v+q s+;+d+#.` e.].++a.++++].5 e+x t 9+D D D n D n D 9+q h+9 d+J.4.e.j+<.a.a.++j+4.e+x l+9+D D D D D n D n 9+q s.9 d+#.4.e.].++a.++++N U.^+x q y+D D D n D n D 1+T.",
". . . . . x+O p+a+p+w.s.}.s.s.w.s.*.Z }.Z *.p+l+l+l+l+O l+ .O l+p+s.%.^+k+#.z+4.U.;.6+^+m+}.l+r+.+9+9+9+9+9+y+D n y+9+&.*.x -.d+6+<+g+<+#.k+..x l+9+V.A+A+T.T.A+T.T.A+A+V.9+l+s+;+d+6+<+<+<+#.k+..x l+9+D D A+T.A+T.A+T.A+o A+V.9+p+s+;+d+} #.<+<+#.k+..x l+9+A+V.T.T.A+T.A+T.A+v 1+",
". . . . . . T.l+l+l+p+p+l+*.}.p+Z Z a+p+p+'.p+l+w+r+r+r+r+r+r+r+r+v+l+p+s.x x l x h+Z p+r+r+y+n y+A+D A+A+A+D V.A+A+A+D .+9+w+p+s.s+h+w.Z *.r+y+A+T.T.T.T.T.A+T.T.A+T.T.A+A+A+9+r+l+Z s.h+s.Z p+v+D A+A+T.T.T.T.T.T.T.T.T.T.T.A+T.V.y+&.p+Z s.h+s.Z l+r+y+A+T.T.T.A+T.T.T.T.T.T.t+1+",
". . . . . . C B+ .r+l+l+l+p+l+a+p+p+p+t  .v+r+v+r+r+9+9+9+9+9+9+9+9+.+9+9+9+y+.+9+B+9+A+n A+n A+A+n A+V.D A+A+A+D A+T.A+T.T.T.A+T.T.T.T.C+T.T.T.T.T.C+T.C+T.T.C+T.1+C+T.T.v T.T.T.T.C+T.T.T.T.v T.T.T.T.C+T.T.T.T.T.T.T.T.T.C+T.T.C+T.C+1+C+T.T.T.T.C+T.1+T.T.C+T.C+T.C+T.T.C+T.v t+",
". . . . . . . !.9+r+r+v+w+8+v+p+ .v+ . .r+r+r+9+r+n D y+A+D B+A+B+A+D A+A+A+A+A+A+A+A+A+A+A+A+A+T.A+T.A+T.T.T.T.T.T.T.T.C+T.T.T.C+T.C+T.T.v 1+v v C+1+C+1+C+1+v T.v T.v 1+C+1+v v 1+v 1+C+v T.v T.v v 1+v T.v C+v C+v C+1+C+1+v 1+v 1+C+1+C+1+v v 1+C+1+C+v T.v T.v 1+C+1+C+1+C+|.t+",
". . . . . . . . x+9+r+9+9+9+ .r+r+r+r+9+r+9+9+y+9+y+.+D A+D A+D A+D A+A+D A+D T.o T.D T.D T.o T.T.T.C+1+C+T.C+T.C+1+C+v C+T.C+C+v T.v v v C+v C+v 1+v v v v C+v v v v C+v v C+v T.v C+v v 1+v C+t+v C+v C+t+v v 1+v 1+v v v v C+v C+v 1+v v C+v C+v v v v 1+C+t+v C+v 1+v v v v x+|.",
". . . . . . . . . x+.+9+r+r+9+r+9+9+D D y+n D .+D B+D A+D A+D T.D T.D D A+o A+A+A+T.A+T.A+T.C+A+C+o A+T.C+T.T.C+T.C+T.T.T.C+T.T.C+T.C+T.T.v T.1+C+C+T.C+T.1+C+1+T.C+1+T.v T.v T.v C+1+C+T.C+1+C+T.T.v T.1+C+T.C+T.C+C+T.C+1+T.v T.v T.C+C+1+T.v T.1+C+T.C+v T.C+T.v T.C+C+T.C+T.x+x+",
". . . . . . . . . . n+o D A+9+y+9+D B+D y+D y+A+D D A+A+D A+A+A+A+D A+T.A+A+D A+D T.D C+D C+D T.T.T.C+T.T.C+T.C+T.C+T.C+C+T.C+T.C+T.C+T.C+T.C+C+C+1+C+1+C+C+T.C+C+T.C+C+C+T.C+C+T.C+T.C+1+C+C+T.v C+T.C+C+T.C+1+C+v T.v T.C+C+T.C+T.C+v T.C+C+T.C+C+T.v T.C+T.v T.C+v T.v T.v T.E |.",
". . . . . . . . . . . C T.3 T.3 T.D D D D A+D D D D A+A+o A+D A+T.A+A+D A+T.A+T.A+C+A+A+A+A+A+C+A+C+D T.C+A+T.C+A+T.C+T.T.T.T.C+T.T.C+T.T.C+i+1+T.C+T.C+T.C+T.C+T.C+T.T.C+T.C+T.C+T.C+T.C+T.C+T.C+i+v T.C+T.C+T.C+T.C+i+C+T.C+T.C+T.C+T.C+T.C+T.C+T.C+T.C+T.C+T.C+T.C+T.C+T.C+T.E x+",
". . . . . . . . . . . . . 6.T.C+T.3 A+o A+T.A+o A+T.3 T.C+A+3 T.C+o v C+T.3 C+3 T.3 T.3 T.3 C+C+3 T.C+C+T.3 C+T.3 C+T.C+C+C+C+C+C+T.v C+v v v v C+v C+v C+v v v v v v v v v v v v v v C+v C+v C+v v v C+v v C+v T.v C+v v v v v v v T.v C+v v v v C+v C+v C+v C+v C+v C+v C+v C+|.6.",
". . . . . . . . . . . . . . t.6.T.C+A+T.A+3 C+C+C+C+C+C+v C+v C+v v v v v v v C+v C+v v v v v v v v v v v v v v v v v v v v v v v v v v v v v v v v v v v v v v v v v v v v v v v v v v v v v v v v v v v v v v v v v v v v v v v v v v v v v v v v v v v v v v v v v v v v v v u n+",
". . . . . . . . . . . . . . . . V g.t+C+C+v C+v v v t+v t+v t+E t+v E v v v v t+v t+v v t+v v v v t+v v v v E v t+v E t+v t+v E v E t+E t+t+t+t+t+E t+E t+t+v t+t+t+t+E t+t+t+t+t+t+t+t+t+t+t+t+t+t+t+t+t+t+t+t+E t+t+E t+t+t+v E v E t+E v t+v t+v t+t+t+E t+t+E t+t+t+t+t+t+E x+n+",
". . . . . . . . . . . . . . . . . . . . m.6.t+v v v v E E E E E u E u u E u u E u E u E u E u u E u ,.E x+u u u u u E E u E u E u E E E E E E E E E E u E u u E u E E u E E u E E u E E u E E u E E u E u E u E u E u E E u E u u E u E u u u u u u u E u E E E u E u E u E u E | K.",
". . . . . . . . . . . . . . . . . . . . . . . . . . . . . . . . . . . . . . . . . . . . . . . . . . . . . . . . . . . . . . . . . . . . . . . . . . . . . . . . . . . . . . . . . . . . . . . . . . . . . . . . . . . . . . . . . . . . . . . . . . . . . . . . . . . . . . . . . . ",
". . . . . . . . . . . . . . . . . . . . . . . . . . . . . . . . . . . . . . . . . . . . . . . . . . . . . . . . . . . . . . . . . . . . . . . . . . . . . . . . . . . . . . . . . . . . . . . . . . . . . . . . . . . . . . . . . . . . . . . . . . . . . . . . . . . . . . . . . . "};
