/* XPM */
char *leftside256[] = {
/* width height num_colors chars_per_pixel */
"   138    51       36            1",
/* colors */
". c #000000",
"# c #808080",
"a c #c0dcc0",
"b c #a6caf0",
"c c #2a5f55",
"d c #553f00",
"e c #553f55",
"f c #555f00",
"g c #555f55",
"h c #555faa",
"i c #557f55",
"j c #557faa",
"k c #7f5f55",
"l c #7f7f55",
"m c #7f7faa",
"n c #7f9f55",
"o c #7f9faa",
"p c #aa9f55",
"q c #aa9faa",
"r c #aabfaa",
"s c #d49faa",
"t c #d4bfaa",
"u c #d4bfff",
"v c #d4dfaa",
"w c #d4dfff",
"x c #ffdfaa",
"y c #ffdfff",
"z c #ccccff",
"A c #2a0000",
"B c #2a1f00",
"C c #2a1f55",
"D c #2a3f00",
"E c #2a3f55",
"F c #fffbf0",
"G c #a0a0a4",
"H c #ffffff",
/* pixels */
"HHHHHHHHHHHHHHHHHHwG#gCB..................................................................................................................",
"HHHHHHHHHHHHHHHwGgB.......................................................................................................................",
"HHHHHHHHHHHHHa#B...Ceg#mmmommommommommommommommmmmmmmmmmmmmmmmmmmmmmmmmmmmmmmmmmmmmmmmmmmmmmmmmmmmmmmmmmmmmmmmmmmmmmmmmmmmmmmmmmmmmmmmmmmg",
"HHHHHHHHHHHF#C..Ce##omomomomoomom#ommom#om#omo#oo#oo#o#o#o#o#o#o#o#o#o#o#o#o#o#o#o#o#o#o#o#o#o#o#o#o#o#o#o#o#o#o#o#o#o#o#o#o#o#o#o#o#o#m#g",
"HHHHHHHHHHre..BgmomomomomGmGm#GmGomGo#oomoom#mom#om#mommommommmmmmmmmmmmmmmmmmmmmmmmmmmmmmmmmmmmmmmmmmmmmmmmmmmmmmmmmmmmmmmmmmmmmmmmmmmo#h",
"HHHHHHHHHGB.BgmomomoGmGmGmomGomomommommGmmGmomomomomom#om#o#mo#o#o#o#m#o#m#o#m#o#m#o#m#o#m#o#m#o#m#o#m#o#m#o#m#o#m#o#m#o#m#o#m#o#m#o#m#m#g",
"HHHHHHHF#..EhmmmGmGomGoGooGomGmGmGoGmGomGomomGmGmomm#om#ommo#mmmmmmmmommmommmommmommmommmommmommmommmommmommmommmommmommmommmommmommmom#j#",
"HHHHHHF#..gm#moomomGoGoGoGGoGoGoGmomGomGomGmGo#omGmGommomo#momo#o#o#m#m#m#m#m#m#m#m#m#m#m#m#m#m#m#m#m#m#m#m#m#m#m#m#m#m#m#m#m#m#m#m#m#mm#g",
"HHHHHH#..gmmomomGGoGoGGoGmoGmGoGmGGoomGmoGmommomGmommGomm#mom#mmmmmmommo#mmo#mmm#mmm#mmm#mmm#mmm#mmm#mmm#mmm#mmo#mmm#mmm#mmo#mmm#mmo#mm#j#",
"HHHHHG..gm#m#omGmoGoGoqGGqGGGoGoGoGGGoGGmoGoGoGmomGommo#oom#omo#o#m#m#mmm#m#m#o#m#o#m#o#m#o#m#o#m#o#m#o#m#o#m#m#m#o#m#o#m#m#m#o#m#m#m#om#g",
"HHHHrB.ej#mommomoGoGqqoqoqoqoqoGGoGomGooGmGmGmomGommGomGmmomm#mmmomomm#m#m#mmm#mmm#mmm#mmm#mmm#mmm#mmm#mmm#mom#mmm#mmm#mom#mmm#mom#mmmm#h#",
"HHHFe.Ej#m#m#omGGoqGqoqqqqqoqoqqoqoGmm##mooGooGGomGoommomo#omom##g####m#mmm#m#m#m#m#m#mj###hi#j#m#m#m#m#m#m#m#m#m#mj#gjg##m#m#m#m#mm#m#m#g",
"HHH#..g##jm#moGomqoqoqqoqqoqqqoomm#ggeEegg##mmmomGmmGmGmo#m##ggEEEEEggj#j#mm#mmm#mmm#j#ggEEEeEgg#j#mmmmm#mmm#mmj#jggEEeEEggj#j#mmm#mm#mm#h",
"HHaC.ej#j#mmommGGGqoqqbqqbqqoqGm#eECBEBCBCEeg#mGooGmoomomm#gECBCBCBCCEeg###jm#m#j##j#gECBCBBCBCEEg#j###jm#m#j###gECBCBBCBCEEg#j##mj#mo#m#g",
"HH#.Cg#h#m#m#oGoooqqqqGrGqoqqo#gECBB......BEeg##GmmGm#om##gCBCB.......CEch###j#m#mmgEBCB.......BCEgg#mmm#j#m#mgECBBB......BCEggjm#m#m#m#j#",
"HaE.E#h#j#m#mmomGGqoqoqqoqqqo#eCB.Eg##GG##gCBEg##mGmoom##EBC.Bg##GG##gBBEggjmm#mj#gEBC.Eg##GG##gBBEg#j###mm#jgECB.Cg#GGG##gBBEg###m#m#jm#g",
"HG.Bgj###j#moomGoGoqqqqoqqoomeEBC#GqrrqGGGG#gEEgmmomGm##EBCB#GGrrqGrGGGgBCg###j##gECBB#GqrrqrrqrGgCEg#jmj##jgeCBBoGrrqrGrqGGgCCgh#j#jm##hg",
"Hg.E##hh##j#mmGmGoqooqoqoqqmgCBEnGGqqrqrGG#G#lee##m#m##EC.E#GGGqqrGGGG#G#EEgh#mj#EC.E#GGGqqrqrqqGGleEg##mj##EB.E#GqrqrqrqGGG#lEEg#m##jm##g",
"wB.ehg###j#mm#moomoqqoqoqom#EBB#qrrtattrtrrGG#gEg##mmmgEBBlGGrtrtrtttrrGGlCg#h##eEBB#GqrtattatatrrGlCghj##heECD#rrttatatttrrGGlCgh#j##j#hg",
"q..g#h#hh##m#mommGmooGoGoo#gCBiGqqtrAaatrqGp###gEjmm##EC.gGGGqrrtrtrrGG###gBh#hgEB.gGGqr.taaata.rGGGiC###jgEB.#qqta.aaatar.GG##gC##h#h#h#g",
"#.Ehg#g##h#j#m#momommmommG#EBCGqrtaa..waatrqGG##Dgm#jgEBCGGrtta..wa..ttrGG#Eg#ggECBqGrrtBzayyFBBatrGGDgh#ggEBCGrtau..yywaa.trGG#Dgh###h#gg",
"g.E#hghgj#h#j#m#m#mommmommgC.gGGrrtwBBBataqG#n#leem##eC.gGGGrrtBBavBBrqGp#lgC#hgC.gGGGrt.vFvF...arqp#gE#h#EC.gqrtaa...Fxwt.rGp##gE#hghih#g",
"E.egg#gh#g#h##j#m#m##m#m#mgEB#qrtaaw....yaatrG##lEm#hEE.#GGqtaw..yy..atrGGG#B##ED.#GqrtaBwFHBBBByatrq#C##geE.GrtaaF....FFF.trGGG#B###g#ggg",
"B.ghghg#ggh#gh##h#j#j#j##jeC.#GqrttFBBCBBttG###l#.#mgeB.#GGqrtaBBvaCBtrG##l#.#heC.#GGqra.vF.....atrG##.#jgEB.GqqatF.....aa.rG##l#.j#hghghg",
"..gggggehggghgghgg#ghgghggED.GGrtawF......atrG###.##gEC.GGGrtaw..HF..atrrG##.#gEB.GGrrtuBHBBBCBBFatrGG.##eEC.GrtawF......F.atrG##.##ggegEe",
"..egeghgghggghgghghgghgghgeC.#GGrttaBBBBCrqG#lllg.m#gEB.#pGGrttBBaaBBrqGl#ll.m#EC.#GGGrt.aw.....trG#nl.##EEB.GGrtta.....va.qGl#ll.##gEgeEg",
"..GoGGGGGGqrqrrtrrtrrtrrrq#g.GGrsaaw....xattGG###BrqG#g.GGGrqaw..Fy..atrGG##BGGlg.GGGqtaBFFHBBBBwvtrGGBqGGgg.GqtaaF....FFF.trGG##BqGG#m##g",
"B.######G#GGGGGGqqGqqGqqqG#gBl#GGqttBCBarrG##lllgerGGggBl##GqqrBBtrBBqG##llkErG#eBl#pGGr.ataa...rGG#lkErG#geBlGGqtt...vatr.G##llkErG#####g",
"E.g###########G#G#GGG#G#G##kEgGGrraa..aattrGG###egrG##gCgGGGrtt..aa..rrGp##ggqGggCgGGGrtBaayFwBBatGGGggqG#kgCgGrtaa..Fwvat.rGp##ggqG####gg",
"g.e#########G##G#G###G######gB##GGGGBrqqG##lllggEGqG#kgeB####GGGGqGGG#p##liEGG##geB###GG.qrGrrq.G#nllEGq##ggeD#GGGq.rrrqqG##l#lgEGq##lg#kg",
"#.E#l##l###########G########gegGGGrqrrtrrrGG###gkrG###lgEgpGGGGrrrrrrGG###ggrG#lggBgGGGGrrrtrttrGGG#ggrG#l#ggCkGGqrrttttrGrG###ggrG##g#kgg",
"q.Bkg#l##l###################gEl#l##G####lllglgeGqG##g#ggB###n#####l#llllgeqq##g#ggElll#########llllgqr###ggkgD#n#G#G###l#llllgeqq##g#gggg",
"wB.g#g#g###l##############l#l#ge#GGGpGGp######eGrG#kg#gk#Ee##GGpGGpG#####gGrG#gkggkEe#GGGGGGGGGpG##eGrG#ggg#ggee#GpGGGGGG#####gGrG#gkgg#ge",
"Hg.Egkg#gg##l###l##l#l#lg#g####gegll#ll#llglge#rq##ggg#gg#gDgll#ll#llllgeGrG#gggg#gkgDgllllllllilggGrq#kggggk#ggEg#lllllllligeGrG#kggggggg",
"HG.Bgikg#kg#g#g##l###g#g#g#ggg##leEg######eEgraG##ggggggkg##EEe######eEgqrG#kggggggg#kECg######eEkqrq#gggggggg#lkeEg######eegqrG#gggggggee",
"HaC.eggkgg#g#ik#g#ggg#gg#gggg#l####gEB..BElGtqG#lgggggggggk##lgEB..BE#GtrG#gggggggg#g##lgEB..Be#qrrG#gggggeggggg##lgEB..BE#GtrG#ggggggeggg",
"HH#.Bggg#ggkgk#gg#g#kgg#ggg#gggg###GGqrrarrqG##gggggggggggg###GGGrrrrqqG#gggegeeegeggg##GGGrrrrrqG##gggegegegegg###GGGrrrrqGG#gggegeeggeee",
"HHaC.egggkigggg#ggggggggggggggggg####GGGGG###gggegegegegeggeg####GGGG##gggeggeggegeggggg###GGGm###gegegegegeggegegg###GGGG##gggeggegeeggEg",
"HHH#..eggggg#gggkg#ggkggggggggggggggkgg#g#ggggeggggegggeggeggeggkggggggggegegecegEgeeeggggggggkgggegegegecegEgegegggggggggggggegeegEggEgee",
"HHHFg.EggggggggggggggggggggegegegeggggggegeggeggegeggeeggeegeegegggegegeegececeecegecgeeegegegegeegEgEgEegeceececeeeegegegegeeececegeEgeDE",
"HHHHrB.EggggggggggggggggegegggggggegegegeggeggeegeceecgEecgEgcegEeegececeEeegegEegEeeececegecececeEeegegeEgeeceeegcecegeceeEgceegeecegecee",
"HHHHHG..eggegggggggggegggegegeeeeggecegEgeceecgEgegceeegeeegeecegEgEeeeeggEgEeegEegcecegeEeEegeeecegEeEeceEgeecgEeegeEeEecegeeceEgEeEeeeEe",
"HHHHHH#..EgggggggegegggeggggEggcegEgegegegecgeegecegegcecgceEgecegeececgEegEgeceeceegeeEeggegEecgeEgecgegegeEgeegEgEeggegeceEgeegegegecgdE",
"HHHHHHF#..EeegegeggggeeggecegegegEgeggcegcegecgeceececeegeeegegegecgegeEegEgeEgegeEgEecgceEecegeeEgeceeceEgEgeEgEgeegEececegecececececeeEe",
"HHHHHHHF#..DegegegeEegcegEggecegeggeceegEegegeeceggegegcecgcecececeececgeceecgececgeggeeegggegEgcgecegEgegegecgegecgEgegeegEgegegegegegceD",
"HHHHHHHHHGB..EececgggegEgeecegceceEgeceggececgegeEgEeceegeeegegegeceegeEgeceeEeegeEgEececeEeceeeeEgeEegEgEeceeEeceeegEgEgEegEeceEeceEgEeEe",
"HHHHHHHHHHrg..BEgeeEecegeceeceeceegEeeceEgeEeececeEgeeceEEgEceEEeEegEeceeEeecegEEgeEgEeceEgEeEceceEgeceeEeceececeEceEeEeEgeEeceEgEeceEegEE",
"HHHHHHHHHHHy#E...DEggececeeceEeEecEeceEeceEegEeEeEgeEgEeEgdEeeEgecdEEeDeEcdcEdEEdeEdEeDeEdEeDgedEeDeEDeEfeEdceDeEdeEdcefEeDgEdEgDeEdecdEeD",
"HHHHHHHHHHHHHa#C...BBEeEeEceEdceDeEdEEdEeDEEDeEdEeDEEDeEdEEeEDeEDeEeEEeEeEeEeEeeEEEeEeEeEeEeEEEEeEeEeeEEEEeEEeEeEcEeEeEEeEEEeEeEeEeEEeEEDE",
"HHHHHHHHHHHHHHFFGgB.......................................................................................................................",
"HHHHHHHHHHHHHHHFHHwq#eEB.................................................................................................................."
};
