/* XPM */
char *logo[] = {
/* width height num_colors chars_per_pixel */
"    45    36      174            2",
/* colors */
".. c #1a1c10",
".# c #1e2014",
".a c #232418",
".b c #232519",
".c c #27291c",
".d c #2c2e22",
".e c #2d2f23",
".f c #313226",
".g c #313327",
".h c #333527",
".i c #36382b",
".j c #36382c",
".k c #3b3b2f",
".l c #3b3b30",
".m c #3b3c31",
".n c #3c3c31",
".o c #3d3d31",
".p c #3f3f34",
".q c #424437",
".r c #434338",
".s c #46463a",
".t c #47473c",
".u c #494b3e",
".v c #4a4c3f",
".w c #4b4b40",
".x c #4d4d42",
".y c #4d4f44",
".z c #515146",
".A c #515244",
".B c #515345",
".C c #525345",
".D c #535346",
".E c #53554a",
".F c #535646",
".G c #545647",
".H c #545649",
".I c #55574a",
".J c #57574a",
".K c #57574b",
".L c #57574c",
".M c #58594b",
".N c #59594e",
".O c #5a5c4e",
".P c #5c5c50",
".Q c #5c5d52",
".R c #5d5e4f",
".S c #5d6053",
".T c #5f5f52",
".U c #606254",
".V c #616156",
".W c #626458",
".X c #656758",
".Y c #67675a",
".Z c #67675d",
".0 c #69695e",
".1 c #6c6c61",
".2 c #6d6d60",
".3 c #6d7061",
".4 c #707167",
".5 c #727268",
".6 c #727469",
".7 c #73756b",
".8 c #75756a",
".9 c #75776c",
"#. c #76776d",
"## c #76786e",
"#a c #77796e",
"#b c #78786a",
"#c c #787a6f",
"#d c #79796f",
"#e c #797a70",
"#f c #7a7c71",
"#g c #7b7c72",
"#h c #7e7e75",
"#i c #7f8075",
"#j c #7f8176",
"#k c #808073",
"#l c #808176",
"#m c #818377",
"#n c #828376",
"#o c #828478",
"#p c #84847b",
"#q c #84857a",
"#r c #84867a",
"#s c #85867b",
"#t c #85877b",
"#u c #868879",
"#v c #87877d",
"#w c #87897d",
"#x c #88887f",
"#y c #888a7e",
"#z c #89897c",
"#A c #898a7e",
"#B c #898b7f",
"#C c #8a8a81",
"#D c #8b8d81",
"#E c #8c8c83",
"#F c #8c8e82",
"#G c #8d8d83",
"#H c #8d8d84",
"#I c #8d8f81",
"#J c #8e8e85",
"#K c #8e8f83",
"#L c #8e9083",
"#M c #8f8f85",
"#N c #8f9182",
"#O c #909285",
"#P c #919188",
"#Q c #919286",
"#R c #919386",
"#S c #939389",
"#T c #939487",
"#U c #939588",
"#V c #94948a",
"#W c #94948b",
"#X c #949689",
"#Y c #959587",
"#Z c #95958b",
"#0 c #96968a",
"#1 c #96968c",
"#2 c #96988a",
"#3 c #96988b",
"#4 c #97978d",
"#5 c #98988e",
"#6 c #98998c",
"#7 c #99998f",
"#8 c #999b8d",
"#9 c #999b8e",
"a. c #9a9a90",
"a# c #9a9c8e",
"aa c #9b9b91",
"ab c #9b9d8f",
"ac c #9c9e90",
"ad c #9d9d92",
"ae c #9d9e91",
"af c #9e9e93",
"ag c #9ea092",
"ah c #9f9f95",
"ai c #9fa193",
"aj c #a0a095",
"ak c #a1a196",
"al c #a1a197",
"am c #a3a398",
"an c #a4a499",
"ao c #a5a59a",
"ap c #a6a69b",
"aq c #a8a89d",
"ar c #aaaa9f",
"as c #abab9f",
"at c #acaca0",
"au c #acaca1",
"av c #aeaea2",
"aw c #afafa3",
"ax c #b2b2a6",
"ay c #b2b2a7",
"az c #b4b4a8",
"aA c #b5b5a9",
"aB c #b6b6aa",
"aC c #b7b7ab",
"aD c #b8b8ac",
"aE c #b9b9ac",
"aF c #b9b9ad",
"aG c #babaae",
"aH c #bbbbaf",
"aI c #bcbcaf",
"aJ c #bdbdb1",
"aK c #bebeb2",
"aL c #bfbfb2",
"aM c #c0c0b3",
"aN c #c1c1b4",
"aO c #c3c3b7",
"aP c #c4c4b7",
"aQ c #c5c5b8",
"aR c #ffffff",
/* pixels */
"aQaQaQaQaQaN#Y.2.J.D.l.k.k.n.TaHaQaQaQaQaQaQaQaQaQaQaQaQaQaQaQaQaQaQaQaQaQaQaQaQaQaQaRaRaR",
"aiaiaiag#I.i.................q#BaiaiaiaiaiaiaiaiaiaiaiaiaiaiaiaiaiaiaiaiaiaiaiaiaiaiaRaRaR",
"aQaQaQaG.L.k.k.x.Z.5.5.5.5.5#pauaQaQaQaQaQaQaQaQaQaQaQaQaQaQaQaQaQaQaQaQaQaQaQaQaQaQaRaRaR",
"aiaiac.S.....j.4.4.4.4.4.4.4#e.M.B.A.A.A.F#Nagaiaiaiag#u.3.O.B.B.Ra#aiag#u.3.O.B.B.RaRaRaR",
"aQaQaz.K.k.p#p#CarayaAaAaAaDan.k.k.k.k.k.k.0aIaQaK#b.s.k.k.k.k.k.Kaq#b.s.k.k.k.k.k.KaRaRaR",
"aiai#m.#...#.d.e.f.f.f.f.h.U.E.....q.E.....q#K#9.u.....d.q.q.q.q.E.q.....d.q.q.q.q.EaRaRaR",
"aQaM.1.k.k.k.k.k.k.k.k.k.k#d.V.k.k#C#C.k.k.Zaq#0.k.k.V#C#C#C#C#C#h.k.k.V#C#C#C#C#C#CaRaRaR",
"ai#O.m.....m.q.q.q.q.q.q.q.4.d...d.4.W.q.q.W#r.m...............c.m...............c#BaRaRaR",
"aQao.x.k.p#C#C#C#C#C#C#C#C#C.k.k.V#Waj#C#C#Wad.t.k.k.k.k.k.k.k.K.t.k.k.k.k.k.k.k.KamaRaRaR",
"ai#f.....g.4#w#A#A#A#A#A#D.E.....E#t#3#F#F#3##.....j.E.E.E.E.E.W.....j.E.E.E.E.E.W#saRaRaR",
"aN.5.k.k.VaaaQaQaQaQaQaQaB.V.k.k#CaBaQaQaQaQ#E.p.k.z#h#C#C#C#C#C.p.k.z#h#C#C#C#C#VaDaRaRaR",
"#T.q.....E#yaiaiaiaiaiai#y.g...d.4acaiaiaiai.9.m.............b.4.m.............b#LagaRaRaR",
"aq.x.k.k#CaBaQaQaQaQaQaQaa.p.k.V#5aQaQaQaQaQap#C.V.r.k.k.k.k.K#C#C.V.r.k.k.k.k.KalaQaRaRaR",
"#w.4.4.4.7acaiaiaiaiaiai#l.4.4.4#Daiaiaiaiai#8#f.4.4.4.4.4.4.4#i#f.4.4.4.4.4.4.4#taiaRaRaR",
"aGah#E#4aBaQaQaQaQaQaQaQaC#7#PaqaKaQaQaQaQaQaQaKar#W#C#C#C#JamaIaKar#W#C#C#C#JamaIaQaRaRaR",
"aiaiaiaiaiaiaiaiaiaiaiaiaiaiaiaiaiaiaiaiaiaiaiaiaiaiaiaiaiaiaiaiaiaiaiaiaiaiaiaiaiaiaRaRaR",
"aQaQaQaQaQaQaQaQaQaQaQaQaQaQaQaQaQaQaQaQaQaQaQaQaQaQaQaQaQaQaQaQaQaQaQaQaQaQaQaQaQaQaRaRaR",
"aiaiaiaiaiaiaiaiaiaiaiaiaiaiaiaiaiaiaiaiaiaiaiaiaiaiaiaiaiaiaiaiaiaiaiaiaiaiaiaiaiaiaRaRaR",
"aQaQaQaQaQaQaQaQaH.T.n.o.2aJaQaQaQaQaQaQaQaQaQaQaQaQaQaQaQaQaQaQaQaQaQaQaQaQaQaQaQaQaQaQaQ",
"aiaiaiaiaiaiaiab.I.......d#Aaiaiaiaiaiaiaiaiaiaiaiaiaiaiaiaiaiaiaiaiaiaiaiaiaiaiaiaiaiaiai",
"aQaQaQaQaQaQaPam.p.k.r.k.k#4aQaQaQaQaQaQaQaQaQaQaQaQaQaQaQaQaQaQaQaQaQaQaQaQaQaQaQaQaQaQaQ",
"aiaiaiaiaiai#2.g...g.q.....Wagaiaia#.R.B.A.A.A.A.A.A.A.A.C.Xabaiaiai#9.G.A.A.A.A.C.Xabaiai",
"aQaQaQaQaQaM.8.k.p#h.Z.k.k.5aJaQaQar.k.k.k.k.k.k.k.k.k.k.k.k.YaJaQaPaf.k.k.k.k.k.k.k.wawaP",
"aiaiaiaiag#n.#...q.4.E.....q#Raiac.E.....c.d.d.#...a.d.c.....d#Aai#9.y.....c.d.d.#.....q#6",
"aQaQaQaQaF.z.k.t#C#1#p.k.k.zaqaQaB.V.k.k#p#C#C.k.k.V#C#C.t.k.xaaaQax.P.k.k#p#C#C#p.r.k.xas",
"aiaiaiab.H.....g.q.v.q.....c#jai#w.d...c.4.9.E.....Q.4.4.a...q#iai#q.c...d.4#c#a.4.d...d#i",
"aQaQaPam.p.k.k.k.k.k.k.k.k.k#SaQ#5.k.k.P#SaA.V.k.p#CaC#v.k.k.ZaoaP#G.k.k.V#4aPaO#x.k.k.Vad",
"aiai#2.g...#.d.d.d.d.d.a.....Q#9.E.....y#q#w.d...g.4#6.E.....Q#K#9.y.....Q#Aai#6.q.....W#B",
"aQaM.8.k.k.5#C#C#C#C#C.V.k.k.Zar.V.k.k#Cay#5.k.k.VaaaA.V.k.k#CaFax.P.k.p.5#z#k.N.k.k.P#CaG",
"ag#n.#...d.4.6#g#g#g.4.q.....q#..d...d.4#6.E.....Q#B#w.d...d.4ae#q.c...............j.4#oag",
"aF.z.k.k#h#1aNaQaQaQau.5.k.k.x#C.p.k.V#5aB.V.k.p#CaEa..p.k.V#5aP#G.k.k.k.k.k.p.z.Z#C#SaJaQ",
"#K.4.4.4.4#Uaiaiaiai#T.4.4.4.4.4.4.4.4#D#Q.4.4.4#aae#j.4.4.4#D#9.y.....Q.4.4.4.4.4#f#6aiai",
"aHal#H#ZayaOaQaQaQaQaNav#S#Eahat#7#PaqaKaKaq#P#7aCaQaC#7#PaqaKax.P.k.p#C#C#C#MadawaLaQaQaQ",
"aiaiaiaiaiaiaiaiaiaiaiaiaiaiaiaiaiaiaiaiaiaiaiaiaiaiaiaiaiaiai#q.c...g.4aeaiaiaiaiaiaiaiai",
"aQaQaQaQaQaQaQaQaQaQaQaQaQaQaQaQaQaQaQaQaQaQaQaQaQaQaQaQaQaQaQaj.5.5#hakaQaQaQaQaQaQaQaQaQ",
"aiaiaiaiaiaiaiaiaiaiaiaiaiaiaiaiaiaiaiaiaiaiaiaiaiaiaiaiaiaiai#L.4.4#.#Xaiaiaiaiaiaiaiaiai"
};
