/* XPM */
char *logo256[] = {
/* width height num_colors chars_per_pixel */
"    45    36       13            1",
/* colors */
". c #808080",
"# c #553f55",
"a c #555f55",
"b c #7f5f55",
"c c #7f7f55",
"d c #aa9faa",
"e c #aabfaa",
"f c #d4bfaa",
"g c #2a1f00",
"h c #2a3f00",
"i c #2a3f55",
"j c #a0a0a4",
"k c #ffffff",
/* pixels */
"ffffff.baaiiiiaeffffffffffffffffffffffffffkkk",
"jjjj.igggggggg#.jjjjjjjjjjjjjjjjjjjjjjjjjjkkk",
"fffeaii#accccc.dffffffffffffffffffffffffffkkk",
"jjjaggiccccccc.aaaaaa.jjjjj.caaaajjj.caaaakkk",
"ffeaii..jfffffjiiiiiiaefec#iiiiiajc#iiiiiakkk",
"jj.ggggghhhhhaagg#agg#.j#ggg####a#ggg####akkk",
"ffbiiiiiiiiii.aii..iiajjiia......iia......kkk",
"j.iggi#######cgggca##a.iggggggggigggggggg.kkk",
"fj#ii.........iiajj..jj#iiiiiiia#iiiiiiiajkkk",
"j.gghc.......agga.j..j.ggiaaaaaaggiaaaaaa.kkk",
"fciiajffffffeaii.effff.iia......iia......fkkk",
".#gga.jjjjjj.hggcjjjjj.igggggggciggggggg.jkkk",
"j#ii.effffffjiiajfffffj.a#iiiia..a#iiiiajfkkk",
".ccccjjjjjjj.ccc.jjjjjj.ccccccc..ccccccc.jkkk",
"ej.jefffffffej.jeffffffejj....jeejj....jefkkk",
"jjjjjjjjjjjjjjjjjjjjjjjjjjjjjjjjjjjjjjjjjjkkk",
"ffffffffffffffffffffffffffffffffffffffffffkkk",
"jjjjjjjjjjjjjjjjjjjjjjjjjjjjjjjjjjjjjjjjjjkkk",
"ffffffffeaiibefffffffffffffffffffffffffffffff",
"jjjjjjjjagggg.jjjjjjjjjjjjjjjjjjjjjjjjjjjjjjj",
"fffffffjii#iijfffffffffffffffffffffffffffffff",
"jjjjjjjhgh#ggajjjjaaaaaaaaaaaajjjjjaaaaaaajjj",
"ffffffcii.aiiceffjiiiiiiiiiiiiaeffjiiiiiii#df",
"jjjjj.gg#cagg#.jjaggggggggggggg.jj#gggggggg#j",
"ffffeai#.j.iiajfeaii...iia..#i#jfeaii....#i#d",
"jjjjaggh###ggg.j.gggc.aggaccgg#.j.gggc..cggg.",
"fffjiiiiiiiiii.fjiia.eaii.e.iiajf.iiajff.iiaj",
"jjjhggggggggggajagg#..gghcjagga.j#gga.jj#gga.",
"ffciic.....aiiajaii.ejiiajeaii.eeaiic..aiia.e",
"j.gggcc...c#gg#.gggcjagga..gggcj.ggggggggic.j",
"eaii.jffffdcii#.iiajeaii.ejiiajf.iiiiiiaa..ef",
".cccc.jjjj.cccccccc..ccc.j.ccc.j#ggaccccc.jjj",
"ej.jeffffffd..jdj.jefj.jefej.jeeaii....jdefff",
"jjjjjjjjjjjjjjjjjjjjjjjjjjjjjjj.gghcjjjjjjjjj",
"fffffffffffffffffffffffffffffffjcc.jfffffffff",
"jjjjjjjjjjjjjjjjjjjjjjjjjjjjjjj.cc..jjjjjjjjj"
};
