#define major_button_mask_width 20
#define major_button_mask_height 20
static char major_button_mask_bits[] = {
   0xc0, 0x3f, 0xf0, 0xf0, 0xff, 0xf0, 0xf8, 0xff, 0xf3, 0xfc, 0xff, 0xf3,
   0xfc, 0xff, 0xf3, 0xfe, 0xff, 0xf7, 0xfe, 0xff, 0xf7, 0xff, 0xff, 0xff,
   0xff, 0xff, 0xff, 0xff, 0xff, 0xff, 0xff, 0xff, 0xff, 0xff, 0xff, 0xff,
   0xff, 0xff, 0xff, 0xfe, 0xff, 0xf7, 0xfe, 0xff, 0xf7, 0xfc, 0xff, 0xf3,
   0xfc, 0xff, 0xf3, 0xf8, 0xff, 0xf1, 0xf0, 0xff, 0xf0, 0xc0, 0x3f, 0xf0};
