/* XPM */
static char *minimize_buttons256[] = {
/* width height num_colors chars_per_pixel */
"    13    39       17            1",
/* colors */
". c #000000",
"# c #808080",
"a c #a6caf0",
"b c #2a7faa",
"c c #553f55",
"d c #555f55",
"e c #555faa",
"f c #557faa",
"g c #7f7faa",
"h c #7f9faa",
"i c #aa9faa",
"j c #aabfaa",
"k c #2a1f00",
"l c #2a1f55",
"m c #2a3f55",
"n c #a0a0a4",
"o c #ffffff",
/* pixels */
"ddmlk...km###",
"dmk.......ldf",
"mk.........m#",
"l...........d",
"k...........m",
"............k",
".............",
"....#####...k",
"l...ooooo...c",
"c...........#",
"#m........kdi",
"f#c......kdnn",
"##fddlkmdgihg",
"dcclk...km###",
"dmk.......le#",
"mk.........m#",
"l...........d",
"k...........m",
"............k",
".............",
"....bbbbb...k",
"l...aaaaa...c",
"d...........#",
"#m........kdi",
"#ec......kdih",
"####cmkmdgih#",
"ddmlk...km#e#",
"dmk.......ld#",
"mk.........mg",
"l...........d",
"k...........m",
"............k",
".............",
"............k",
"l....bbbbb..c",
"d....aaaaa..#",
"#m........kdj",
"##m.....k.dih",
"e###cmkmdgih#"
};
