/* XPM */
static char *minimize_buttons[] = {
/* width height num_colors chars_per_pixel */
"    13    39       74            2",
/* colors */
".. c #000000",
".# c #010101",
".a c #010102",
".b c #010202",
".c c #020202",
".d c #030303",
".e c #040404",
".f c #050505",
".g c #060606",
".h c #070707",
".i c #0a0a0c",
".j c #0b0b0b",
".k c #0c0c0d",
".l c #0c0c0e",
".m c #0d0d0d",
".n c #0d0e10",
".o c #161616",
".p c #16181c",
".q c #191a1d",
".r c #191b1f",
".s c #191b20",
".t c #1a1b20",
".u c #1d1d1d",
".v c #1e1e20",
".w c #1e2025",
".x c #24272d",
".y c #25282f",
".z c #2875a9",
".A c #2a2d34",
".B c #2c2d30",
".C c #2e313a",
".D c #323235",
".E c #323640",
".F c #343843",
".G c #363a44",
".H c #383b43",
".I c #3a3e48",
".J c #3c404a",
".K c #3e424d",
".L c #414650",
".M c #444a56",
".N c #46494f",
".O c #47494f",
".P c #4e5563",
".Q c #4f5563",
".R c #55585c",
".S c #595f6d",
".T c #5b5e63",
".U c #5b6375",
".V c #5f6166",
".W c #606879",
".X c #616a7c",
".Y c #626772",
".Z c #626c80",
".0 c #676f83",
".1 c #6a7488",
".2 c #6b7488",
".3 c #6b7489",
".4 c #6f788f",
".5 c #71788a",
".6 c #71798e",
".7 c #727a8f",
".8 c #767e94",
".9 c #797d86",
"#. c #798194",
"## c #808080",
"#a c #80838b",
"#b c #939aa8",
"#c c #979dab",
"#d c #9ca2ac",
"#e c #a5aab6",
"#f c #a6acb9",
"#g c #b2d5ed",
"#h c #ffffff",
/* pixels */
".U.Q.K.y.p.i.b.l.w.I.W.2.3",
".P.G.r.#...........a.C.X.6",
".L.t...................F.8",
".A.#...................c.S",
".s.....................c.H",
".k.....................c.q",
".c.....................c.f",
".n......##########.....c.v",
".x...#..#h#h#h#h#h...#.f.O",
".M.d.#.#...........#.e.m.9",
".1.E.e.c.#.....#.c.f.m.T#f",
".4.0.J.k.h.f.e.g.j.o.V#d#c",
".Z.7#..Y.N.B.u.D.R#a#e#b.5",
".U.Q.K.y.p.i.b.l.w.I.W.2.3",
".P.G.r.#...........a.C.X.6",
".L.t...................F.8",
".A.#...................c.S",
".s.....................c.H",
".k.....................c.q",
".c.....................c.f",
".n.......z.z.z.z.z.....c.v",
".x...#..#g#g#g#g#g...#.f.O",
".M.d.#.#...........#.e.m.9",
".1.E.e.c.#.....#.c.f.m.T#f",
".4.0.J.k.h.f.e.g.j.o.V#d#c",
".Z.7#..Y.N.B.u.D.R#a#e#b.5",
".U.Q.K.y.p.i.b.l.w.I.W.2.3",
".P.G.r.#...........a.C.X.6",
".L.t...................F.8",
".A.#...................c.S",
".s.....................c.H",
".k.....................c.q",
".c.....................c.f",
".n.....................c.v",
".x...#.....z.z.z.z.z.#.f.O",
".M.d.#.#..#g#g#g#g#g.e.m.9",
".1.E.e.c.#.....#.c.f.m.T#f",
".4.0.J.k.h.f.e.g.j.o.V#d#c",
".Z.7#..Y.N.B.u.D.R#a#e#b.5"
};
