#define minor_button_mask_width 13
#define minor_button_mask_height 13
static char minor_button_mask_bits[] = {
 0xf0,0xe1,0xfc,0xe7,0xfe,0xef,0xfe,0xef,0xff,0xff,0xff,0xff,0xff,0xff,0xff,
 0xff,0xff,0xff,0xfe,0xef,0xfe,0xef,0xfc,0xe3,0xf0,0xe1};
