/* XPM */
char *mode_buttons[] = {
/* width height num_colors chars_per_pixel */
"    13    39       73            2",
/* colors */
".. c #000000",
".# c #010101",
".a c #010102",
".b c #020202",
".c c #030304",
".d c #040404",
".e c #050505",
".f c #050506",
".g c #060606",
".h c #070707",
".i c #0a0a0c",
".j c #0b0b0b",
".k c #0c0c0e",
".l c #0c0d0d",
".m c #0c0d0f",
".n c #0d0d0d",
".o c #0f1012",
".p c #161616",
".q c #16181c",
".r c #191a1d",
".s c #1a1b21",
".t c #1b1d22",
".u c #1d1d1d",
".v c #1e1f21",
".w c #1f2126",
".x c #26282f",
".y c #262930",
".z c #2875a9",
".A c #2d2e30",
".B c #2d3038",
".C c #2f333b",
".D c #323336",
".E c #353943",
".F c #373b45",
".G c #393d47",
".H c #3a3d43",
".I c #3b3f49",
".J c #3f434d",
".K c #40454f",
".L c #464b58",
".M c #474d58",
".N c #484b51",
".O c #4a4c52",
".P c #515766",
".Q c #545a69",
".R c #57595e",
".S c #5d626f",
".T c #5e6066",
".U c #61646a",
".V c #62697b",
".W c #636a7c",
".X c #656a76",
".Y c #666d7f",
".Z c #6a7388",
".0 c #6d768b",
".1 c #6f7689",
".2 c #70788d",
".3 c #747e95",
".4 c #757e92",
".5 c #778195",
".6 c #788092",
".7 c #7c8498",
".8 c #7e818a",
".9 c #7e869a",
"#. c #808080",
"## c #83878e",
"#a c #999faf",
"#b c #9da4b4",
"#c c #a1a6b3",
"#d c #a9afbc",
"#e c #acb2bf",
"#f c #b2d5ed",
"#g c #ffffff",
/* pixels */
".V.P.K.y.q.i.b.k.w.I.W.1.2",
".Q.G.s.#...........a.C.Y.4",
".L.t........#..........F.7",
".B.#......#.#g#........b.S",
".t......#.#g#g#g#......#.H",
".m..........#g.........#.r",
".b..........#g.........#.f",
".o.#........#g.........b.v",
".x.#.#..#.#g#g#g#....#.e.O",
".M.c.#.#..#.#g#....#.d.n.8",
".2.E.d.b.#..#..#.b.e.n.T#e",
".3.Z.J.l.h.e.d.g.j.p.U#c#b",
".0.5.9.X.N.A.u.D.R###d#a.6",
".V.P.K.y.q.i.b.k.w.I.W.1.2",
".Q.G.s.#...........a.C.Y.4",
".L.t.........z.........F.7",
".B.#.......z#f.z.......b.S",
".t.......z#f#f#f.z.....#.H",
".m..........#f.........#.r",
".b..........#f.........#.f",
".o.#........#f.........b.v",
".x.#.#...z#f#f#f.z...#.e.O",
".M.c.#.#...z#f.z...#.d.n.8",
".2.E.d.b.....z.....e.n.T#e",
".3.Z.J.l.h.e.d.g.j.p.U#c#b",
".0.5.9.X.N.A.u.D.R###d#a.6",
".V.P.K.y.q.i.b.k.w.I.W.1.2",
".Q.G.s.#...........a.C.Y.4",
".L.t.....#.............F.7",
".B.#...........z.......b.S",
".t...........z#f.z.....#.H",
".m.........z#f#f#f.z...#.r",
".b............#f.......#.f",
".o.#..........#f.......b.v",
".x.#.#........#f.....#.e.O",
".M.c.#.#...z#f#f#f.z.d.n.8",
".2.E.d.b.#...z#f.z...n.T#e",
".3.Z.J.l.b.....z.....U#c#b",
".0.5.9.X.N.A.u.D.R###d#a.6"
};
