/* XPM */
char *mode_buttons256[] = {
/* width height num_colors chars_per_pixel */
"    13    39       18            1",
/* colors */
". c #000000",
"# c #808080",
"a c #a6caf0",
"b c #2a7faa",
"c c #553f55",
"d c #555f55",
"e c #555faa",
"f c #557faa",
"g c #7f7faa",
"h c #7f9faa",
"i c #aa9faa",
"j c #aabfaa",
"k c #aadfff",
"l c #d4dfff",
"m c #2a1f00",
"n c #2a1f55",
"o c #2a3f55",
"p c #ffffff",
/* pixels */
"#donm...no###",
"dom.......ndg",
"cm....#....og",
"o....#p#....d",
"m...#ppp#...o",
"......p.....m",
"......p......",
"......p.....m",
"n...#ppp#...c",
"d....#p#....#",
"#o....#...mdj",
"f#c......mdii",
"##g#comodgjig",
"edonm...no#f#",
"dom.......n##",
"cm....b....og",
"o....bab....d",
"m...baaab...o",
"......k.....m",
"......a......",
"......a.....m",
"n...balab...c",
"d....bab....#",
"#o....b...mdj",
"g#o......mdii",
"#g##comodgjig",
"ddonm...moef#",
"dom.......m##",
"cn.........og",
"o......b....d",
"m.....bab...o",
".....baaab..m",
".......k.....",
".......a....m",
"n......a....c",
"d....balab..#",
"#o....bab..#j",
"g#o....b..dii",
"##g#dnmodgjhg"
};
