/* XPM */
char *next_buttons256[] = {
/* width height num_colors chars_per_pixel */
"    20    60       48            1",
/* colors */
". c #000000",
"# c #808080",
"a c #c0dcc0",
"b c #a6caf0",
"c c #2a5f55",
"d c #2a7f55",
"e c #2a7faa",
"f c #553f00",
"g c #553f55",
"h c #555f55",
"i c #555faa",
"j c #557f55",
"k c #557faa",
"l c #559faa",
"m c #55bfaa",
"n c #55bfff",
"o c #7f5f55",
"p c #7f7f55",
"q c #7f7faa",
"r c #7f9faa",
"s c #7fbfaa",
"t c #7fbfff",
"u c #7fdfaa",
"v c #7fdfff",
"w c #7fffff",
"x c #aa9f55",
"y c #aa9faa",
"z c #aabfaa",
"A c #aadfaa",
"B c #aadfff",
"C c #aaffff",
"D c #d49faa",
"E c #d4bfaa",
"F c #d4bfff",
"G c #d4dfaa",
"H c #d4dfff",
"I c #d4ffff",
"J c #ffdfaa",
"K c #ffdfff",
"L c #ccccff",
"M c #99ffff",
"N c #ccffff",
"O c #2a1f00",
"P c #2a1f55",
"Q c #2a3f00",
"R c #2a3f55",
"S c #fffbf0",
"T c #a0a0a4",
/* pixels */
"hROP.Rh##TT##hOORh##",
"gPOO#TzzzyzyTyThPPhi",
"OOR#TyyzDzyzTTT#pRR#",
"OP#zzEaEaaEEEzzTT#Oh",
".jyzEa.aaEaEz.T###hP",
"PyEzaF..KSHaa.EzTT#Q",
"hTyEEG...SSJa.zTx##h",
"TzaaaK....SHK.EzTTT#",
"#yEEaS.....Ja.zT##pp",
"zzzLaS......S.EEzT##",
"TyzEaa.....aa.zT#p#p",
"TyEEaK....SSS.EzTT##",
"#TTzEa...aGEz.T#ppph",
"hTzzEa..SaHGE.zTT##h",
"Q#TTTy.zzETTT##pppoR",
"PoTTyzzEEEzzTzT###hh",
"hQ####T#####ppppphgT",
"hgg#TTTTTTxT#####hTz",
"#hhfhppppp#pppphgTzT",
"hh#hgRh######gRhyzT#",
"hgPO.Oh##r##jhOORh##",
"RO.R#TTTzTzTTrrhPPhi",
"POR#rrTzTTTrrTq#jRR#",
"OP#yzzababazzTTTq#Oh",
".hrTzb.aazzby.r###hP",
"PTzzaa..HHHaa.zTrq#R",
"hTTbzL...aLab.Tr##jg",
"qzzEaH....SHH.bzrrq#",
"#rybaL.....aa.Tr##jh",
"TzzaLS......H.ayrqq#",
"qryyza.....bz.rq###h",
"TyzbaH....IHH.zTr#k#",
"#rrTyz...bzzr.rq#hhh",
"hTTzba..HaLbz.Trqq#R",
"P##qTr.TTrTrrq##hhhR",
"OhrTryybzzTTTr#k#khh",
"hP###qr#qk#k#h#hhhgT",
"hgR#r#rr#r##q#k##RTy",
"jhhPhh#h#hihhhhgRTzT",
"oh#oRRR######RRhTyT#",
"hROP.QhlllrlkhRORh##",
"gP.RlrsszssssrrcPRhi",
"POc#rszssssrsrrljRR#",
".OlsszbbbbzbssssrjPh",
".kssbz.abAbus.rlllcR",
"Rszzba..NBaBb.bsrrlR",
"crssuB...CBMb.ssllkc",
"rsabbH....NaC.bssrl#",
"rsssbM.....MM.umlllk",
"ssbaaN......B.tsslll",
"rrsubB.....Mw.tllkjk",
"rssbaB....CCb.usslll",
"ksrstu...Mvvu.llkkjd",
"csssbb..BbAbv.srlllc",
"Rlrlss.vmunmllllkdkR",
"Ohrsssssstsssslllkch",
"hRklllllllllkkejejRT",
"hgcllrssrlrllllkkcTz",
"hhgRjkekkkekjejcgTyT",
"hp#oRRc#ll#kkcRhTzT#"
};
