/* XPM */
static char *next_buttons[] = {
/* width height num_colors chars_per_pixel */
"    20    60      241            2",
/* colors */
".. c #040204",
".# c #448391",
".a c #a4a598",
".b c #6cc6cc",
".c c #7c8272",
".d c #a4d2cc",
".e c #2c4848",
".f c #74a4a1",
".g c #3c6664",
".h c #b4bca4",
".i c #d4d3c1",
".j c #64645a",
".k c #54a2ac",
".l c #8c9280",
".m c #9ca291",
".n c #7ce2e4",
".o c #bcbcaa",
".p c #4c9298",
".q c #647274",
".r c #8cbfba",
".s c #1c2424",
".t c #a4ecee",
".u c #4c4b44",
".v c #a4aeac",
".w c #1c3434",
".x c #8c8c7f",
".y c #bcc6c4",
".z c #949587",
".A c #74b5b2",
".B c #3c727c",
".C c #8cb5b4",
".D c #747868",
".E c #dcdfca",
".F c #74828d",
".G c #5cb2bc",
".H c #649599",
".I c #ccd2bc",
".J c #8ccfcf",
".K c #b4b4a9",
".L c #4c575c",
".M c #a4c8c4",
".N c #64a5a8",
".O c #8ca2ac",
".P c #5c8d92",
".Q c #6ccad4",
".R c #ecead4",
".S c #343531",
".T c #4c8c92",
".U c #646b70",
".V c #549ba1",
".W c #24232b",
".X c #a4b1b6",
".Y c #c4ebec",
".Z c #949ea7",
".0 c #84b3ac",
".1 c #e4e5d2",
".2 c #5c5d51",
".3 c #64acbc",
".4 c #546264",
".5 c #8cc7c6",
".6 c #747e86",
".7 c #7c8b93",
".8 c #94aab8",
".9 c #a4bac0",
"#. c #84939d",
"## c #bcbdbc",
"#a c #6c7b83",
"#b c #3c7a80",
"#c c #abaa9b",
"#d c #3c424c",
"#e c #74abaa",
"#f c #7cbfc0",
"#g c #848578",
"#h c #949a8a",
"#i c #bcd2dc",
"#j c #545868",
"#k c #fcfaf8",
"#l c #b4bdbd",
"#m c #a4dedc",
"#n c #84eeec",
"#o c #5c9290",
"#p c #64737c",
"#q c #7cbab9",
"#r c #7c7e72",
"#s c #8cd6d4",
"#t c #6ca3a0",
"#u c #242a2a",
"#v c #a4b6bc",
"#w c #8c9ba1",
"#x c #ccd2d4",
"#y c #646a5c",
"#z c #a4f8f8",
"#A c #2c3238",
"#B c #cccac4",
"#C c #649c99",
"#D c #ececec",
"#E c #343a40",
"#F c #548b91",
"#G c #54626c",
"#H c #9cacb2",
"#I c #3c4e4c",
"#J c #84c6c7",
"#K c #548284",
"#L c #aca6a4",
"#M c #dcdac8",
"#N c #c1c2b1",
"#O c #e4fafc",
"#P c #94c0be",
"#Q c #7cb3b3",
"#R c #d4e2e4",
"#S c #bcb6ac",
"#T c #b4c8d0",
"#U c #84cbcc",
"#V c #6c6d6c",
"#W c #cccecc",
"#X c #e4e5e2",
"#Y c #848e95",
"#Z c #4c7e7c",
"#0 c #84aeac",
"#1 c #c1dae1",
"#2 c #4c8390",
"#3 c #a4a4a4",
"#4 c #94a2a4",
"#5 c #d4eaec",
"#6 c #14171c",
"#7 c #94dedc",
"#8 c #bcfafc",
"#9 c #b4dadc",
"a. c #6cb2b4",
"a# c #94eeec",
"aa c #e4ecec",
"ab c #0c0e14",
"ac c #345b5f",
"ad c #9cb2b4",
"ae c #cce0e8",
"af c #b4e2e0",
"ag c #3c7686",
"ah c #9ca6ac",
"ai c #9cc8c7",
"aj c #9cd9d8",
"ak c #4c5250",
"al c #f4f2e0",
"am c #bcced4",
"an c #acc2cc",
"ao c #8cf6f8",
"ap c #dcf2f8",
"aq c #98e6ec",
"ar c #406a6c",
"as c #243a3c",
"at c #8ebabb",
"au c #64bac4",
"av c #c2c2be",
"aw c #f4f2f4",
"ax c #5c6a73",
"ay c #d7e6e4",
"az c #1c1e24",
"aA c #788284",
"aB c #849294",
"aC c #84bab8",
"aD c #a9aaa7",
"aE c #848a7a",
"aF c #b4c2cc",
"aG c #5ca5af",
"aH c #54959f",
"aI c #acb0a4",
"aJ c #7c7a6c",
"aK c #545853",
"aL c #5c9aa2",
"aM c #9c9c9c",
"aN c #6cadaf",
"aO c #acbdc5",
"aP c #447c8c",
"aQ c #444444",
"aR c #7cacae",
"aS c #9c9d90",
"aT c #c4d4dc",
"aU c #2c2d2c",
"aV c #3c3c3e",
"aW c #a4ceca",
"aX c #c4f2f4",
"aY c #545e69",
"aZ c #a4e6e4",
"a0 c #ccdadc",
"a1 c #2c3a3c",
"a2 c #cccebe",
"a3 c #b4f2f4",
"a4 c #6c7266",
"a5 c #c4c6b9",
"a6 c #447270",
"a7 c #5c6254",
"a8 c #acb6bc",
"a9 c #545250",
"b. c #74c2c4",
"b# c #acd3ce",
"ba c #344a4c",
"bb c #446468",
"bc c #aceaec",
"bd c #948e84",
"be c #7c858f",
"bf c #94d2d1",
"bg c #94a5ad",
"bh c #648e94",
"bi c #74cdd1",
"bj c #acb1b4",
"bk c #c4c8cc",
"bl c #94c6c4",
"bm c #8c959c",
"bn c #84c0bf",
"bo c #6c7480",
"bp c #94dadc",
"bq c #6c6e5f",
"br c #5c6473",
"bs c #444c51",
"bt c #dcdedc",
"bu c #9ca3a3",
"bv c #c4f6f4",
"bw c #1c2d2f",
"bx c #3c5c60",
"by c #d4d5cc",
"bz c #646464",
"bA c #bcbcb4",
"bB c #8cc2c4",
"bC c #243534",
"bD c #74b6bc",
"bE c #747674",
"bF c #64b6bc",
"bG c #b4b4b4",
"bH c #ecece4",
"bI c #4c8e9c",
"bJ c #646b7c",
"bK c #549eac",
"bL c #84b6bc",
"bM c #5c5b5c",
"bN c #747e94",
"bO c #7c8e9c",
"bP c #c4bebc",
"bQ c #3c7c8c",
"bR c #5c959c",
"bS c #6ca5ac",
"bT c #8c9eac",
"bU c #649ea4",
/* pixels */
"br#d.WazabaU.j#g.zaS.zbd#rbMaU#6#E#jbJbN",
"#d.s#6.W.x.a.KaI.K.KaIaDaD.aaS.jaU#A#jbo",
".W#6aV.x.aaD.KbG.K#LaI#c#caSaS.xaJaV#EbJ",
"#6.W.x.K#SbPav#B#B#B#BbPbA#SaI.aaSbEaU#j",
"abbq#c.KbGa5..byby.i#Ba5.o...aaS.x.xa7#A",
"aUaD#S###Bby....#D#X#Xbtby..##aI.aaS.zaU",
".j.a.K###B#M......al.1#Ma2...KaS.z#g#ga9",
"aSbG###B#M#X........#kaw#X..#B.o#caS.z#g",
".zaD#Sa5by.R...........1#M...K.a.laE#r.D",
"aD.KbPbybt#D............bH..a2.o#caS.z.x",
"aS.a.Ka5.i.1...........E.I..aI.m.x#g.D.D",
"aS.KbAbkby#X........awal.1..a5.K.a.z.x.x",
"#raS#c.K#Na2......#M.Ia5.o...m.l#gaJa4#y",
".2#L.KbAava2....#X.1.E.ia2...K.a.z.laEa9",
".S.x#haS#caI...h.h.KaI.aaS.zaE.c.Dbqbq.S",
"#u.j.a#LaI.KbA#N#N.o.h.KaI.aaS.l.x#g.2bM",
"aKaU#raE.x.z.z.z.z.z.xaE#g.c.Dbqbq#y.u.a",
".jaQaQ.xaSaSaS.a.maSaS.z.l.x.x#g#g.u.abG",
".U#Va9.Sa7aJ#r#r.D.D.Dbq.Dbqbqa9.u.abG#3",
".j#V.DbEaV.Sa9#g.xaE#g#g#rak.S.jaIbG#3aA",
"br#dazazab#uaK#aaEaB#YaE.qak#u#6#E#jbJ.6",
"#d.W#6.saA#4aDah#HaDah#4bu#4bmaY.W#A#jbo",
".W#6#EaA.Zbg#H#H#H.8bg#4#waB#YaA.q#E#EbJ",
"#6.saA.vbj#l.ybkbk.y.y#la8bjahbTbmbJ#u#j",
"abbr#4#H.XaO..#TamaFaO#vad..#w.7aA#a#j#A",
"#uahbj#l.y#x....aaay#Ra0#W..a8#H#waB.7#u",
"aK#4#H.9#Tam......aeaT#TaO..#4#.be#abobs",
"#..v#lbkbyay........#Oapae..aFad#4aBbO.6",
"#Y.Z#HaO#TaT..........aT#T...8#..F#a#pax",
"#4.v#l#Wa0aa............#5..#T#H.Z#.be.F",
"#YbT#H#vanam..........#Tan...ObO.F#pbJax",
".Zaha8#T#x#R........ap#5aT...9bgbm.7.F.6",
"boaB.Zbg#HaO......#Tan#v.8..bO.FboaxaxaY",
".L#4aha8aOam....#1aT#i#T.9..ah#..7be#abs",
"aUaA.7aBbm.O...8.8bgbT#.#..FbN#pax#G#G#A",
"#uaYbm#4bg#H#v.X.X.X#H.8bT#wbO.F.6boakbM",
"aKaU.q.6.6.F.7.7.FbNbN#abo#paxbr#GaY#dbu",
"bzaQaVbebO#.#.#.#.#..7.7be.F#a#abo#daM.K",
"#y#Vak#AaK#p#pbJbJaxaxbr#GaY#Gak#daM.K.Z",
".4#VbE#VaV#Abs#a#a.6#a#aboaQ#Abz#3bjaM#r",
"br#d.Wazab.war#o#t.f.f#C#Kbb.w#6aV.LbJbN",
"#d.s#6bwbh.0atatatat.C.CbL.0.fa6#u#A#jbo",
".W#6.e.H#Q.0.C.rbnaC#Q.AaR#ebS.H.T.eaVbJ",
"#6bw.H#P#P.M.daWb#aWaW.Mblat.C#Q.f#K.w#j",
"ab#ZaR.C.rai..ajajajbf.J#J..#ebSbUbRar#A",
".w.C#P.M.d#9.....Y.Yafafb#...5bL#ebS#t.w",
"ar#0aC.5bf#m......#z.ta#bp..#fa..NaH.pbx",
".f.raib##9.Y........bvaXbc..bfbnbDbS.Nbh",
"#t#Q.r.Jaj.t..........#za#...QbFbKaH.T#2",
"#Q.9aib#af.Y............bc..#sbn.AaNbU.H",
"#t.A#f.5bp.t..........ao#n...b.GbK.T.#.#",
"aR.CblaW#9bc........#8a3aq..#U#qaN#taLbR",
"#F#e#Q#f#U#s......ao#n.n.Q...3.kbI#2.##b",
".g#0atbBaiaj....aZaq#7bp.J..#qaNbUaLaHac",
"bC.HbUaN.Ab...bi.Qbib.au.3.kbK.T.#bQ#ba1",
"#ua6aR#Q#Qbn#J#J#J#J#f#qbDa..NaLaH#F.gbM",
"aKbC#F.V.VaLaGaGaGbKbKaH.pbI.#.#ag.B#IaM",
".jaQba#C.NaN#eaNaNbSbU.NaLaLaH#F#F#I.Z.K",
".U#V.ua1ar#2.T#2#2.#aPaPagag.Bac#IaMbGaM",
"a7#VbE#V#Easbx.PbRbR.P.P#Kaca1bz#3bjaM#r"
};
