/* XPM */
char *open_buttons256[] = {
/* width height num_colors chars_per_pixel */
"    13    39        9            1",
/* colors */
". c #000000",
"# c #808080",
"a c #a6caf0",
"b c #2a7faa",
"c c #553f55",
"d c #555f55",
"e c #2a1f00",
"f c #2a3f55",
"g c #ffffff",
/* pixels */
"cfee....eeccc",
"fe........efc",
"e..........ec",
"e.....#.....f",
".....#g#....e",
"....#g#g#....",
"...#g###g#...",
".............",
"...ggggggg..f",
"e...........d",
"fe.........f#",
"ffe.......c#d",
"cccfee.efd##d",
"cfee....eeccc",
"fe........efc",
"e..........ec",
"e.....b.....f",
".....bab....e",
"....babab....",
"...babbbab...",
".............",
"...aaaaaaa..f",
"e...........d",
"fe.........f#",
"ffe.......c#d",
"cccfee.efd##d",
"cfee....eeccc",
"fe........efc",
"e..........ec",
"e...........f",
".......b....e",
"......bab....",
".....babab...",
"....babbbab..",
"............f",
"e...aaaaaaa.d",
"fe.........f#",
"ffe.......c#d",
"cccfee.efd##d"
};
