/* XPM */
static char *open_buttons[] = {
/* width height num_colors chars_per_pixel */
"    13    39       65            2",
/* colors */
".. c #000000",
".# c #010101",
".a c #020202",
".b c #030303",
".c c #040404",
".d c #050505",
".e c #060606",
".f c #070707",
".g c #080807",
".h c #0d0e0d",
".i c #0f0f0f",
".j c #0f100f",
".k c #10100e",
".l c #10110f",
".m c #101110",
".n c #111111",
".o c #141513",
".p c #151515",
".q c #171917",
".r c #181919",
".s c #191919",
".t c #1b1b19",
".u c #1d1d1c",
".v c #1d1f1f",
".w c #1e1f1d",
".x c #1f211f",
".y c #222322",
".z c #252525",
".A c #272826",
".B c #2875a9",
".C c #2a2b28",
".D c #2a2b2a",
".E c #2d2d2a",
".F c #2f302f",
".G c #313635",
".H c #343534",
".I c #343834",
".J c #363734",
".K c #393a3a",
".L c #3a3b37",
".M c #3b403f",
".N c #3e3f3c",
".O c #3e413f",
".P c #3f4140",
".Q c #41423d",
".R c #424846",
".S c #43443f",
".T c #434444",
".U c #444a48",
".V c #454643",
".W c #464643",
".X c #474843",
".Y c #474943",
".Z c #4a4e4d",
".0 c #565855",
".1 c #575c5a",
".2 c #616462",
".3 c #676a6a",
".4 c #6f7372",
".5 c #757877",
".6 c #777977",
".7 c #808080",
".8 c #818583",
".9 c #b2d5ed",
"#. c #ffffff",
/* pixels */
".S.L.E.t.k.f.#.g.o.A.Q.X.W",
".J.z.m.#...........#.u.N.V",
".C.l...................w.Y",
".r...........7.........#.H",
".h.........7#..7.........y",
".e.......7#..7#..7.......i",
".#.....7#..7.7.7#..7.....a",
".e.......................n",
".j....#.#.#.#.#.#.#..#.#.F",
".x.#.#...............#.c.0",
".I.q.#.#...........#.b.P.6",
".M.G.v.b.#.....#.a.d.T.5.3",
".R.U.Z.O.D.p.e.s.K.2.8.4.1",
".S.L.E.t.k.f.#.g.o.A.Q.X.W",
".J.z.m.#...........#.u.N.V",
".C.l...................w.Y",
".r...........B.........#.H",
".h.........B.9.B.........y",
".e.......B.9.B.9.B.......i",
".#.....B.9.B.B.B.9.B.....a",
".e.......................n",
".j.....9.9.9.9.9.9.9.#.#.F",
".x.#.#...............#.c.0",
".I.q.#.#...........#.b.P.6",
".M.G.v.b.#.....#.a.d.T.5.3",
".R.U.Z.O.D.p.e.s.K.2.8.4.1",
".S.L.E.t.k.f.#.g.o.A.Q.X.W",
".J.z.m.#...........#.u.N.V",
".C.l...................w.Y",
".r.....................#.H",
".h.............B.........y",
".e...........B.9.B.......i",
".#.........B.9.B.9.B.....a",
".e.......B.9.B.B.B.9.B...n",
".j.....................#.F",
".x.#.#...9.9.9.9.9.9.9.c.0",
".I.q.#.#...........#.b.P.6",
".M.G.v.b.#.....#.a.d.T.5.3",
".R.U.Z.O.D.p.e.s.K.2.8.4.1"
};
