/* XPM */
static char *pause_buttons[] = {
/* width height num_colors chars_per_pixel */
"    20    60      243            2",
/* colors */
".. c #040204",
".# c #3c7e88",
".a c #9c998f",
".b c #64bac8",
".c c #7c8072",
".d c #9cc7c2",
".e c #2c4647",
".f c #6ca0a0",
".g c #3c6467",
".h c #acae9b",
".i c #cccbc0",
".j c #549ea4",
".k c #646562",
".l c #6c969c",
".m c #8c9fa5",
".n c #b4b2a3",
".o c #4c9094",
".p c #74d6d4",
".q c #9cdee0",
".r c #4c4b44",
".s c #1c2224",
".t c #647274",
".u c #84bbba",
".v c #6cb0b2",
".w c #9ca297",
".x c #1c3434",
".y c #b4c6c4",
".z c #8c8f80",
".A c #848475",
".B c #9cc2c4",
".C c #cce2ec",
".D c #b4baac",
".E c #5c8f91",
".F c #84909d",
".G c #84cacc",
".H c #747568",
".I c #9ca9ad",
".J c #6ca8a7",
".K c #3c727c",
".L c #9cafb7",
".M c #5cb2bc",
".N c #84b3b0",
".O c #343632",
".P c #6c7e88",
".Q c #bcd2d4",
".R c #548284",
".S c #3c5254",
".T c #d4d8c8",
".U c #84c2c0",
".V c #acaaa1",
".W c #b4c8d2",
".X c #c4c2b2",
".Y c #646c79",
".Z c #5497a0",
".0 c #7cb0ab",
".1 c #5c5b52",
".2 c #acb4b7",
".3 c #748694",
".4 c #546264",
".5 c #549fac",
".6 c #8c9694",
".7 c #7ca8a2",
".8 c #448894",
".9 c #a4d2d0",
"#. c #84aaac",
"## c #24272b",
"#a c #64747c",
"#b c #a4aa94",
"#c c #b4babc",
"#d c #5c989f",
"#e c #8496a2",
"#f c #a4b6ba",
"#g c #74bebc",
"#h c #444543",
"#i c #b4b6a6",
"#j c #a4a499",
"#k c #dcdac6",
"#l c #9c9e90",
"#m c #4c8f9e",
"#n c #b4dedc",
"#o c #747a84",
"#p c #646a5c",
"#q c #94a1a3",
"#r c #94eeec",
"#s c #94bcb8",
"#t c #243a3c",
"#u c #949183",
"#v c #848a94",
"#w c #e4e2cc",
"#x c #747a6d",
"#y c #74a8a3",
"#z c #a4b0b9",
"#A c #7c828c",
"#B c #94c3bf",
"#C c #c4cacc",
"#D c #5c6471",
"#E c #8c989e",
"#F c #3c4e4c",
"#G c #4c8287",
"#H c #74a19f",
"#I c #94d8dc",
"#J c #4c5244",
"#K c #74b6b8",
"#L c #848a7b",
"#M c #4c7274",
"#N c #8cb5b4",
"#O c #343a42",
"#P c #748089",
"#Q c #2c2e2f",
"#R c #6c7a85",
"#S c #0c1214",
"#T c #6cc6cc",
"#U c #ccd2d4",
"#V c #649e94",
"#W c #8cbbb8",
"#X c #2c3238",
"#Y c #c4c7b7",
"#Z c #acbcc2",
"#0 c #bcbdaa",
"#1 c #94cac4",
"#2 c #3c7786",
"#3 c #64b6c0",
"#4 c #345b5f",
"#5 c #7cb6b4",
"#6 c #b4f2f4",
"#7 c #f4f2ec",
"#8 c #9ceeec",
"#9 c #54a6b4",
"a. c #141a1c",
"a# c #dcedec",
"aa c #648a8c",
"ab c #acd2cc",
"ac c #eceae6",
"ad c #0c0e14",
"ae c #142a2c",
"af c #7c8e98",
"ag c #c4d2d4",
"ah c #c4eaec",
"ai c #64a6ac",
"aj c #94e2e4",
"ak c #94a6af",
"al c #dce6ec",
"am c #64a2ac",
"an c #aceaec",
"ao c #dcdecc",
"ap c #9ccecc",
"aq c #7cdee4",
"ar c #548a90",
"as c #9fdadc",
"at c #849094",
"au c #ccd7d7",
"av c #8cd2d4",
"aw c #b4dadc",
"ax c #b4c2c4",
"ay c #545e69",
"az c #5c6a74",
"aA c #4c5257",
"aB c #64a6a4",
"aC c #acc2cc",
"aD c #acdadc",
"aE c #acafa6",
"aF c #b4b2af",
"aG c #44464f",
"aH c #dcd8d8",
"aI c #44818f",
"aJ c #6c7369",
"aK c #648e94",
"aL c #54584c",
"aM c #a4aaac",
"aN c #64aeac",
"aO c #8cc5c4",
"aP c #949789",
"aQ c #64989a",
"aR c #6c6c61",
"aS c #3c5c60",
"aT c #3c6a6c",
"aU c #44726c",
"aV c #5c6254",
"aW c #bcb6b1",
"aX c #3c3e39",
"aY c #a49e9c",
"aZ c #d4d2c4",
"a0 c #6cbdc6",
"a1 c #a4c6c4",
"a2 c #548e90",
"a3 c #74b0af",
"a4 c #243337",
"a5 c #3c3a34",
"a6 c #bccacc",
"a7 c #7c8991",
"a8 c #4c878c",
"a9 c #2c2a2a",
"b. c #6c767e",
"b# c #7cbcbb",
"ba c #54909c",
"bb c #545a6c",
"bc c #444b50",
"bd c #3c3a3c",
"be c #14161c",
"bf c #bcf0f0",
"bg c #d4d6d4",
"bh c #9c9a9c",
"bi c #7c7e7c",
"bj c #cccecc",
"bk c #5ca2a4",
"bl c #9ca4a4",
"bm c #848284",
"bn c #5c929c",
"bo c #8ccbcc",
"bp c #747574",
"bq c #84b6bc",
"br c #646e84",
"bs c #549aac",
"bt c #7cb1b4",
"bu c #5c5b5c",
"bv c #bcbdbc",
"bw c #a4a4a4",
"bx c #94a0ac",
"by c #2c3e3c",
"bz c #74aaac",
"bA c #5c667c",
"bB c #8c98ac",
"bC c #748294",
"bD c #64a1a4",
"bE c #c4c6c4",
"bF c #acbecc",
"bG c #bcbcb4",
"bH c #1c1e1c",
"bI c #64b0bc",
"bJ c #6c6c6c",
"bK c #3c5e6c",
"bL c #7c7a6c",
"bM c #54524c",
"bN c #8c8a7c",
"bO c #bcced7",
"bP c #5c8a8c",
"bQ c #545254",
"bR c #7cd6d4",
"bS c #bcc6c4",
"bT c #c4c2bc",
"bU c #a4b6c4",
"bV c #b4b6b4",
"bW c #9c9e9c",
/* pixels */
".YaG##bH#Sa9.1.c#u.aaP#ubL.1a9be#Obb.Y#R",
"aG.sbe.sbm#j.V.VaE.V.V.VaM#j.a.k###Xbbbr",
"##bea5.A.a#lbw.V.VaM.V#j#j#laP.zbLa5#ObA",
"bH.s.c.VaEaFbVbGbvbGbGbGaWaF.V#j.a.H#Qbb",
"ad.k.a.a.V.VaWbG#Y.X.X#0.D.h#jaP.zbmaVa9",
"a9aY.VaFbV.X#C....aHbg....#YaWaE#j.a#u#Q",
".1aP.a#j.nbG.ibHbH#k.TbHbH#0.h#j#u.A.caL",
".z#j.VaFbvbj.T....acal....aZbE#i#b#laP.A",
"bN.a#l.V#i#YaZbHbHao#wbHbH.X.n#j#u#L.c.H",
"bW#j.VaFbT.iaH....#7ac....#k#Y.D.V#l#u.z",
".z#u.a#j#i#0.ibHbH#k#kbHbH.D.h#l.z.cbL.H",
"aP#j.VaEbv.i.T....ac#w....aZ.X#i#jaP.z#L",
".H.z#u.a#j.n#0bHbH#Y#YbHbH.h#l#u.AbL.H#p",
"aL.a.w#jaF.DbT....aZaZ....#0#i#baP.z#LbM",
"#QbmbN.zaP#l.w#b#b#b#j#j#l.zbN.c#x.HaJ.O",
"a9.1aP.a#l#j.V.n#i#i.h#i.h#b#laPbN.A.1.1",
".1#Q.H.c.A#L.z.z.z.z.z.A.A.c.H.HaR#p.r#j",
"#p#h#hbN#uaPaP.a.a.aaPaPaP.zbN#L.c.r#jbV",
"bJbJaA.O.1#x.H#x#x#x.H.HaJaRaJ.1.r#j#cbw",
".kaJbLaJa5.OaL.AbN.A#L#L.A#Ja5#paEbVbw.c",
".YaG.s.sad##aAb.a7at#La7.t#J##be#ObbbA#o",
"aG##be.s#Rbh#qblblbl.I.w#q#q#eay.s#Xbbbr",
"##be.O#R.6#E.m#q#qak.m.m#Eata7#A.t.O#ObA",
"be.sb.#qblaM.2.2.D#Z#c.2.2aMbl#Eat.Y##bb",
"ad#Dat#E#qak#z#f#Z#z#z#z.L.m#Ea7#P#Rbb##",
"###E#qbl.2#cbS....auag....#c#f.I#Eata7#Q",
"aAat#E.m.L#zaCbHbH.W.ybHbH.L#q.Fa7#R#abc",
"#A#qblaM.D#C#U....a#al....bO#Z.L.mataf#o",
"#Pat#e#q.L#z.ybHbHa6.WbHbH.Lak.F#P.P.taz",
".6#qblaM#Za6au....a#a#.....QbF.L.m.Fa7#P",
"#Pafat#Eak#z#ZbHbH.W.Wa.bH.LbBaf#Pb..Yaz",
"at#E#q.I.2axbO.....C.C.....WbUak#Ea7#P#R",
".Y#Aa7at#Ebx.LbHbH#fbUbHbH#eaf.3b..Yaz.4",
"bc.6.6#q.I#f#Z.....W.y....#zak#Eaf#P.Pbc",
"###R#o#Pa7af#e#e#e#E#e#eafbC.Pb.bA#D.4#X",
"a9bba7at.6.mbx.I.Lakakbxbx#e.F.3#P#RaAbu",
"aL#Qazb.b.#R#P.P#P#R.P#Rb.#a#DazayayaXbw",
"#p#h.O#Pa7a7#vaf.F.Fafa7a7#P#P#Rb.aGbWaE",
"bJaJbQ#XaAaz.Yaz.Yaz#Daz#Day.4aAaGbW.2bh",
".kbJbpbJbd#Xbcb.#P.P#o#ob.#F.O.kbwaEbhbi",
".YaG##.s#S.x.g.E#V#H.faQarbKa4be#Obb.Y#R",
"aG.sbeaeaa.0.N.N#W.N#N#N.N#.#yaU.s#Xbbbr",
"##be.ebP#y.7#..0bq.0#Ka3a3#H.faQar.e#ObA",
"a.aeaa.N#N#W#B#B.d.d.d.B#B#N.Na3#y#Ga4bb",
"ad#M#y.7.0.N.U#BboaOaO.U.Ub#bz.faQa2.ga4",
".x.7.N#N#Ba1.9....#naD....apaObqbz.J.fa4",
".g#H#ya3.uaOavbHbHaj.qbHbH.G#g.vam.Z.o#4",
".l.0.N#s.dabaw....ahan....asbo.U#K.JaBaK",
"aQ#H#y.0b#boasbHbH#8#8bHbHbR#TbI.5ba#m#G",
"#y#..N#W.d.9aD....bf#6.....q.G.U#K.JaQ#d",
".l.J.J.0b#bo#IbHbH#r#rbHbH.pa0.M.5#m.8aI",
".f.0#..u.B#1.9....anan....#I.Gb#.v.f#d#d",
".RaQ.f.Ja3.U.Ga.bHaqaqbHbH.b.M.5#ma8aI.K",
"aS#H.7.0.u.U.G....#Iav.....U#5a3am#d#d#4",
".xaabn#d.faN#3a0#3a0a0.MaN#9.5#maI#2.##t",
"a9aT.fbz.J.0bt#gb#b##5b##K.vambk#dba.gbu",
".1a4#Ga2ba.Zbsbs.jbsbsba#m#m.#aI#2.K#F.w",
"#p#h.eaKbkbD.f.J.J.fbDaibk#d#dbaa2.SbhaE",
"bJbJaA#XaT#GaI#GaIaIaI#2aI#2#2bK#FbWaFbh",
".kaJbpaJbd#taSbPbnbn.E.EbP#4by.kbwaEbWbi"
};
