/* XPM */
static char * play_buttons[] = {
"20 60 995 2",
"  	c None",
". 	c #747986",
"+ 	c #4D5058",
"@ 	c #282A2E",
"# 	c #24252A",
"$ 	c #151618",
"% 	c #2D2D29",
"& 	c #5D5F56",
"* 	c #807F75",
"= 	c #929187",
"- 	c #97968D",
"; 	c #93938A",
"> 	c #8B8A7F",
", 	c #77776D",
"' 	c #57584F",
") 	c #2C2C2A",
"! 	c #1D1F22",
"~ 	c #3E4149",
"{ 	c #5B606C",
"] 	c #707786",
"^ 	c #7F8698",
"/ 	c #4E515A",
"( 	c #1F2024",
"_ 	c #292A27",
": 	c #85857B",
"< 	c #A4A49B",
"[ 	c #ACACA4",
"} 	c #AEAEA6",
"| 	c #AFAEA6",
"1 	c #ADACA5",
"2 	c #ABAAA3",
"3 	c #A6A69E",
"4 	c #A4A39A",
"5 	c #9F9E96",
"6 	c #98978D",
"7 	c #606057",
"8 	c #2B2D2E",
"9 	c #3C3F48",
"0 	c #616674",
"a 	c #747B8C",
"b 	c #2A2C30",
"c 	c #1E1F23",
"d 	c #40403B",
"e 	c #87877B",
"f 	c #A0A098",
"g 	c #A4A49D",
"h 	c #A9A9A2",
"i 	c #ADADA5",
"j 	c #AEAEA5",
"k 	c #ACACA1",
"l 	c #A9A89D",
"m 	c #A3A397",
"n 	c #9C9C90",
"o 	c #959689",
"p 	c #8F9083",
"q 	c #87887C",
"r 	c #737368",
"s 	c #41413D",
"t 	c #454A54",
"u 	c #6B7282",
"v 	c #222428",
"w 	c #282826",
"x 	c #86867C",
"y 	c #B3B3AB",
"z 	c #B8B7B1",
"A 	c #BEBCB7",
"B 	c #C3C2BD",
"C 	c #C4C4BF",
"D 	c #C2C2BC",
"E 	c #BFBEB9",
"F 	c #B9B9B3",
"G 	c #B3B2AB",
"H 	c #ABABA3",
"I 	c #A4A49C",
"J 	c #9C9C92",
"K 	c #95948B",
"L 	c #6F7065",
"M 	c #323434",
"N 	c #5B6170",
"O 	c #131416",
"P 	c #696960",
"Q 	c #A7A7A0",
"R 	c #B0AFA8",
"S 	c #B7B7B0",
"T 	c #C0BFB6",
"U 	c #1C1C1A",
"V 	c #CBCBBF",
"W 	c #C9C9BB",
"X 	c #C3C3B3",
"Y 	c #BABAAA",
"Z 	c #B0AFA0",
"` 	c #A4A495",
" .	c #98988C",
"..	c #8E8E81",
"+.	c #838477",
"@.	c #7C7D71",
"#.	c #5A5B51",
"$.	c #353942",
"%.	c #2B2B28",
"&.	c #A3A199",
"*.	c #AFAEA7",
"=.	c #C0C0BA",
"-.	c #C9C9C4",
";.	c #D3D3CE",
">.	c #000000",
",.	c #DFDEDB",
"'.	c #D9D9D5",
").	c #D0D0CC",
"!.	c #C6C6C1",
"~.	c #BBBBB4",
"{.	c #B0B0A8",
"].	c #A3A49B",
"^.	c #98998F",
"/.	c #909186",
"(.	c #88887D",
"_.	c #30312F",
":.	c #5A5C53",
"<.	c #9C9B94",
"[.	c #A6A59D",
"}.	c #B2B1A7",
"|.	c #BEBEB3",
"1.	c #CACABF",
"2.	c #D7D7C8",
"3.	c #DADCC8",
"4.	c #CED0BC",
"5.	c #BFC1AF",
"6.	c #B0B2A0",
"7.	c #A3A494",
"8.	c #949587",
"9.	c #868779",
"0.	c #7C7D70",
"a.	c #757668",
"b.	c #4E4F46",
"c.	c #8F9087",
"d.	c #AAA8A1",
"e.	c #B3B3AC",
"f.	c #BFBFB9",
"g.	c #CBCAC6",
"h.	c #D8D7D4",
"i.	c #E4E4E1",
"j.	c #E5E5E3",
"k.	c #D8D7D2",
"l.	c #C9C9C1",
"m.	c #BABBB1",
"n.	c #ABACA1",
"o.	c #9C9D90",
"p.	c #909285",
"q.	c #89897D",
"r.	c #7B7C72",
"s.	c #9C9C93",
"t.	c #A9A89E",
"u.	c #B7B6AA",
"v.	c #C6C6B7",
"w.	c #D5D6C4",
"x.	c #E3E3D1",
"y.	c #C9C9B6",
"z.	c #B7B8A5",
"A.	c #A7A895",
"B.	c #969887",
"C.	c #858978",
"D.	c #7A7C6E",
"E.	c #727465",
"F.	c #6C6D61",
"G.	c #9E9E94",
"H.	c #A8A8A0",
"I.	c #B4B3AC",
"J.	c #C1C0BB",
"K.	c #CECEC9",
"L.	c #DCDCD9",
"M.	c #EBEAE9",
"N.	c #CFCFC4",
"O.	c #BEBFB1",
"P.	c #AEAEA1",
"Q.	c #9D9E91",
"R.	c #909083",
"S.	c #86887B",
"T.	c #828377",
"U.	c #8E8E84",
"V.	c #9A998E",
"W.	c #A6A698",
"X.	c #B4B4A5",
"Y.	c #C2C3B2",
"Z.	c #CED0BD",
"`.	c #DCDDCA",
" +	c #C2C3AF",
".+	c #B2B39F",
"++	c #A1A491",
"@+	c #929482",
"#+	c #828473",
"$+	c #757869",
"%+	c #6E7061",
"&+	c #6A6C5E",
"*+	c #98988E",
"=+	c #A5A59C",
"-+	c #AFAFA7",
";+	c #BCBBB5",
">+	c #C8C8C3",
",+	c #D5D5D1",
"'+	c #E2E2E0",
")+	c #E4E4D9",
"!+	c #D5D6C8",
"~+	c #C7C7B8",
"{+	c #B7B7A7",
"]+	c #A7A898",
"^+	c #979889",
"/+	c #8A8B7E",
"(+	c #828475",
"_+	c #7E7F72",
":+	c #76776C",
"<+	c #939386",
"[+	c #A7A798",
"}+	c #B2B3A2",
"|+	c #BDBDAC",
"1+	c #C6C9B5",
"2+	c #C8CAB3",
"3+	c #BCBDA7",
"4+	c #AEB19C",
"5+	c #9FA38E",
"6+	c #929583",
"7+	c #868877",
"8+	c #787B6B",
"9+	c #707262",
"0+	c #696B5D",
"a+	c #606255",
"b+	c #575850",
"c+	c #9E9E96",
"d+	c #AFB0A8",
"e+	c #C3C3BC",
"f+	c #CECEC5",
"g+	c #DBDBCE",
"h+	c #D5D5C7",
"i+	c #CCCCBD",
"j+	c #C0C0AE",
"k+	c #B3B5A4",
"l+	c #A7A998",
"m+	c #999B8B",
"n+	c #8C8F80",
"o+	c #858778",
"p+	c #4C4D44",
"q+	c #32322E",
"r+	c #84857A",
"s+	c #8E9082",
"t+	c #969788",
"u+	c #9D9D8F",
"v+	c #A3A694",
"w+	c #AAAB98",
"x+	c #AFB49E",
"y+	c #ADAF9C",
"z+	c #A7A996",
"A+	c #9EA18C",
"B+	c #949784",
"C+	c #8B8D7B",
"D+	c #828373",
"E+	c #787A6B",
"F+	c #6F7262",
"G+	c #696C5C",
"H+	c #67695B",
"I+	c #373833",
"J+	c #373835",
"K+	c #616259",
"L+	c #9A9A91",
"M+	c #A1A197",
"N+	c #A6A79C",
"O+	c #ACACA2",
"P+	c #B2B2A7",
"Q+	c #B8B9AB",
"R+	c #BBBBAD",
"S+	c #B8B9AA",
"T+	c #B3B4A3",
"U+	c #ADAE9E",
"V+	c #A6A796",
"W+	c #9C9E8D",
"X+	c #949685",
"Y+	c #8C8E7E",
"Z+	c #838676",
"`+	c #7D7F71",
" @	c #55554C",
".@	c #60605F",
"+@	c #646562",
"@@	c #393934",
"#@	c #77786C",
"$@	c #858678",
"%@	c #878A7A",
"&@	c #8A8C7C",
"*@	c #8E9080",
"=@	c #909281",
"-@	c #909381",
";@	c #8C907C",
">@	c #888B79",
",@	c #828575",
"'@	c #7D7F6E",
")@	c #787A69",
"!@	c #717463",
"~@	c #6C6E5E",
"{@	c #676A5A",
"]@	c #636558",
"^@	c #494946",
"/@	c #A7A7A6",
"(@	c #767971",
"_@	c #5B5C58",
":@	c #494A44",
"<@	c #8C8C81",
"[@	c #959688",
"}@	c #97988B",
"|@	c #999A8E",
"1@	c #9C9D8E",
"2@	c #9A9B8C",
"3@	c #959888",
"4@	c #929384",
"5@	c #8E8F80",
"6@	c #898B7B",
"7@	c #848777",
"8@	c #808273",
"9@	c #7B7D70",
"0@	c #4C4D47",
"a@	c #949593",
"b@	c #B8B9B6",
"c@	c #767877",
"d@	c #7A7C7B",
"e@	c #616262",
"f@	c #3C3E3B",
"g@	c #5E5F55",
"h@	c #777A6B",
"i@	c #787B6C",
"j@	c #767969",
"k@	c #747667",
"l@	c #717565",
"m@	c #6D7161",
"n@	c #6B6F5F",
"o@	c #686B5B",
"p@	c #686B5C",
"q@	c #55574D",
"r@	c #494A47",
"s@	c #959595",
"t@	c #BABBBB",
"u@	c #A2A3A3",
"v@	c #717371",
"w@	c #7A7C78",
"x@	c #80837F",
"y@	c #787B78",
"z@	c #4A4B4A",
"A@	c #373733",
"B@	c #53544B",
"C@	c #888A7C",
"D@	c #848678",
"E@	c #828477",
"F@	c #4D4F45",
"G@	c #393A36",
"H@	c #656665",
"I@	c #ADAEAD",
"J@	c #B9B9B9",
"K@	c #A3A4A3",
"L@	c #858685",
"M@	c #262A2C",
"N@	c #4E565B",
"O@	c #6A787C",
"P@	c #7C898D",
"Q@	c #828F92",
"R@	c #808B8F",
"S@	c #758286",
"T@	c #646F74",
"U@	c #495055",
"V@	c #25292B",
"W@	c #22282B",
"X@	c #727C7F",
"Y@	c #929D9F",
"Z@	c #9BA3A7",
"`@	c #9DA5A9",
" #	c #9EA8AB",
".#	c #9DA6A8",
"+#	c #9AA3A6",
"@#	c #969FA2",
"##	c #919C9E",
"$#	c #8C979A",
"%#	c #829093",
"&#	c #50595C",
"*#	c #282B2F",
"=#	c #353B3F",
"-#	c #727E82",
";#	c #8D9A9C",
">#	c #93A0A1",
",#	c #97A3A6",
"'#	c #98A5AA",
")#	c #98A5AB",
"!#	c #94A5AA",
"~#	c #90A1A6",
"{#	c #8A99A0",
"]#	c #849096",
"^#	c #7F8990",
"/#	c #79838A",
"(#	c #727C83",
"_#	c #5E6B70",
":#	c #373D41",
"<#	c #22262A",
"[#	c #737D80",
"}#	c #9DA6A9",
"|#	c #A3ABAE",
"1#	c #A9B1B4",
"2#	c #B0B9BB",
"3#	c #B6BEC0",
"4#	c #BABFC2",
"5#	c #B5BDBF",
"6#	c #B1BBBB",
"7#	c #ACB3B6",
"8#	c #A2ADAF",
"9#	c #9AA4A7",
"0#	c #929DA0",
"a#	c #879498",
"b#	c #808B90",
"c#	c #5C656B",
"d#	c #2C3136",
"e#	c #586266",
"f#	c #8B989B",
"g#	c #95A1A4",
"h#	c #9BAAAC",
"i#	c #A3B1B5",
"j#	c #A7BABE",
"k#	c #AFC2C7",
"l#	c #ABBBC3",
"m#	c #A4B3BB",
"n#	c #9CABB2",
"o#	c #94A5A9",
"p#	c #89979D",
"q#	c #828E93",
"r#	c #768288",
"s#	c #6D7880",
"t#	c #677279",
"u#	c #4A5359",
"v#	c #24292B",
"w#	c #909D9E",
"x#	c #9FA8AA",
"y#	c #B4BBBD",
"z#	c #BFC5C6",
"A#	c #CACFD0",
"B#	c #D4DCDD",
"C#	c #CAD5D7",
"D#	c #C0CDCE",
"E#	c #B4C0C3",
"F#	c #A7B4B7",
"G#	c #9BAAAD",
"H#	c #8E9BA1",
"I#	c #838F95",
"J#	c #7B878E",
"K#	c #737F84",
"L#	c #292E32",
"M#	c #4B5358",
"N#	c #899798",
"O#	c #91A0A2",
"P#	c #9AABAF",
"Q#	c #A5B8BC",
"R#	c #AFBFC7",
"S#	c #B7CBD3",
"T#	c #B8C8D3",
"U#	c #ACBDC9",
"V#	c #A1AFB9",
"W#	c #93A2AC",
"X#	c #87959F",
"Y#	c #7C888F",
"Z#	c #6F7B84",
"`#	c #667279",
" $	c #5F6C74",
".$	c #40474C",
"+$	c #7D858C",
"@$	c #98A4A6",
"#$	c #A4ABAF",
"$$	c #B3BABC",
"%$	c #C2C8C8",
"&$	c #CED5D5",
"*$	c #DDE2E3",
"=$	c #D2E3E4",
"-$	c #C1D5D6",
";$	c #B2C3C8",
">$	c #A3B2B9",
",$	c #94A2A9",
"'$	c #84949B",
")$	c #7A868F",
"!$	c #728085",
"~$	c #6A7278",
"{$	c #758386",
"]$	c #879398",
"^$	c #91A1A5",
"/$	c #9CAFB4",
"($	c #A7BAC2",
"_$	c #B3C4D0",
":$	c #C2D4DC",
"<$	c #A6B7C0",
"[$	c #97A8B3",
"}$	c #889BA5",
"|$	c #7B8A96",
"1$	c #6C7885",
"2$	c #63707A",
"3$	c #5B6771",
"4$	c #59636A",
"5$	c #8A969A",
"6$	c #99A0A3",
"7$	c #A5AEB0",
"8$	c #B3BCBE",
"9$	c #C0C9CC",
"0$	c #CED9DA",
"a$	c #DCE9EA",
"b$	c #B4C8CD",
"c$	c #A2B5BD",
"d$	c #94A3AC",
"e$	c #85929B",
"f$	c #78878C",
"g$	c #717C84",
"h$	c #6E787F",
"i$	c #798489",
"j$	c #829196",
"k$	c #8B9AA1",
"l$	c #98A6AD",
"m$	c #A4B2BB",
"n$	c #AEBDC7",
"o$	c #B9CAD4",
"p$	c #9FB2BE",
"q$	c #91A5B0",
"r$	c #8494A1",
"s$	c #748490",
"t$	c #697782",
"u$	c #606B74",
"v$	c #59646E",
"w$	c #56616A",
"x$	c #838E92",
"y$	c #929CA0",
"z$	c #9EA9AB",
"A$	c #ABB6B8",
"B$	c #B9C4C6",
"C$	c #C1D1D3",
"D$	c #CFE0E1",
"E$	c #C7DCE3",
"F$	c #B7C9D5",
"G$	c #A8BDC4",
"H$	c #99ABB5",
"I$	c #8C9BA4",
"J$	c #7E8B94",
"K$	c #747F87",
"L$	c #6C7781",
"M$	c #69747B",
"N$	c #626C72",
"O$	c #7B878D",
"P$	c #859297",
"Q$	c #8C9AA1",
"R$	c #95A3AE",
"S$	c #9EADB5",
"T$	c #A6B5C3",
"U$	c #A3BAC7",
"V$	c #98AEBA",
"W$	c #8E9FAE",
"X$	c #7F8E9F",
"Y$	c #788691",
"Z$	c #6C7A86",
"`$	c #626D79",
" %	c #5A6670",
".%	c #546069",
"+%	c #4D595E",
"@%	c #495155",
"#%	c #8D989A",
"$%	c #939EA2",
"%%	c #9BA8AD",
"&%	c #A6B3B6",
"*%	c #ADBFC1",
"=%	c #B5C7CD",
"-%	c #BDD0DA",
";%	c #B6C9D4",
">%	c #ADC0C8",
",%	c #A1B1BC",
"'%	c #97A5B0",
")%	c #8C99A4",
"!%	c #808D96",
"~%	c #76818A",
"{%	c #6E7A84",
"]%	c #3E454A",
"^%	c #2C3031",
"/%	c #717A81",
"(%	c #78828C",
"_%	c #7D8992",
":%	c #839097",
"<%	c #8797A0",
"[%	c #8B9EA9",
"}%	c #8E9EAF",
"|%	c #8E9FAA",
"1%	c #8899A4",
"2%	c #80919E",
"3%	c #798792",
"4%	c #707F8B",
"5%	c #68767F",
"6%	c #616D76",
"7%	c #58636F",
"8%	c #535E69",
"9%	c #535E67",
"0%	c #2F3337",
"a%	c #515A60",
"b%	c #869196",
"c%	c #8B999D",
"d%	c #909DA4",
"e%	c #94A4A9",
"f%	c #9AAAB0",
"g%	c #9DADB7",
"h%	c #9EB1B8",
"i%	c #9BABB5",
"j%	c #92A0A9",
"k%	c #8A98A2",
"l%	c #818F9A",
"m%	c #7A8892",
"n%	c #73828A",
"o%	c #6D7982",
"p%	c #67737C",
"q%	c #464F52",
"r%	c #5D5D5C",
"s%	c #333737",
"t%	c #626D75",
"u%	c #6E7A82",
"v%	c #6E7A87",
"w%	c #717F8A",
"x%	c #74828E",
"y%	c #758490",
"z%	c #707E8C",
"A%	c #6E7D88",
"B%	c #6A7781",
"C%	c #64727D",
"D%	c #606D78",
"E%	c #596471",
"F%	c #56626C",
"G%	c #505B67",
"H%	c #4F5A62",
"I%	c #424647",
"J%	c #A1A1A0",
"K%	c #3F4447",
"L%	c #768187",
"M%	c #7D8C93",
"N%	c #808C94",
"O%	c #828E96",
"P%	c #829298",
"Q%	c #839098",
"R%	c #818D96",
"S%	c #7D8993",
"T%	c #79868E",
"U%	c #76828A",
"V%	c #717E88",
"W%	c #6D7983",
"X%	c #69757E",
"Y%	c #667179",
"Z%	c #41464A",
"`%	c #8F8F8E",
" &	c #B2B3B0",
".&	c #757776",
"+&	c #797B7A",
"@&	c #606161",
"#&	c #383B3D",
"$&	c #4D565D",
"%&	c #616D77",
"&&	c #626E78",
"*&	c #626E77",
"=&	c #606C77",
"-&	c #5E6A73",
";&	c #5C6772",
">&	c #58646F",
",&	c #555F6C",
"'&	c #515C68",
")&	c #545F69",
"!&	c #464E55",
"~&	c #8F9090",
"{&	c #B3B4B4",
"]&	c #9D9E9E",
"^&	c #707270",
"/&	c #797A77",
"(&	c #7E817E",
"_&	c #767876",
":&	c #494A49",
"<&	c #303436",
"[&	c #454C51",
"}&	c #6E777E",
"|&	c #727D86",
"1&	c #6F7B82",
"2&	c #6E7982",
"3&	c #687177",
"4&	c #3F464C",
"5&	c #323637",
"6&	c #616261",
"7&	c #A7A8A7",
"8&	c #B2B3B2",
"9&	c #9E9F9E",
"0&	c #828382",
"a&	c #1E3434",
"b&	c #3F666B",
"c&	c #589089",
"d&	c #699E98",
"e&	c #6FA29D",
"f&	c #6F9D9C",
"g&	c #649792",
"h&	c #548483",
"i&	c #3D5D61",
"j&	c #213031",
"k&	c #1C3132",
"l&	c #638F8E",
"m&	c #80AEA9",
"n&	c #89B5B5",
"o&	c #8BB7B6",
"p&	c #88B9B5",
"q&	c #8AB6B2",
"r&	c #87B4AF",
"s&	c #85AEAD",
"t&	c #7FAEA9",
"u&	c #7AAAA5",
"v&	c #6FA49F",
"w&	c #426B6A",
"x&	c #253032",
"y&	c #2E4849",
"z&	c #619392",
"A&	c #7AABA6",
"B&	c #80ADA8",
"C&	c #84B1B0",
"D&	c #82B6B5",
"E&	c #83B7B6",
"F&	c #7CB6B2",
"G&	c #79B3AF",
"H&	c #73AEAE",
"I&	c #71A6A6",
"J&	c #6C9EA1",
"K&	c #67989B",
"L&	c #619195",
"M&	c #4B8483",
"N&	c #2F4849",
"O&	c #1B3031",
"P&	c #64908F",
"Q&	c #8BB7B2",
"R&	c #91BCBB",
"S&	c #96C0BC",
"T&	c #98C7C0",
"U&	c #9DCBC7",
"V&	c #A5CAC9",
"W&	c #9EC9C6",
"X&	c #9BC6C0",
"Y&	c #97BFBF",
"Z&	c #8DBBB7",
"`&	c #88B2B2",
" *	c #80ACAB",
".*	c #72A8A7",
"+*	c #6FA09F",
"@*	c #4B7A7E",
"#*	c #29373B",
"$*	c #4A7574",
"%*	c #78A9A4",
"&*	c #82AFAE",
"**	c #85B8B4",
"=*	c #8EBEBD",
"-*	c #8CC8C5",
";*	c #96D0CE",
">*	c #92CFCE",
",*	c #8CC9C9",
"'*	c #85C2C2",
")*	c #7DBAB6",
"!*	c #74B0AF",
"~*	c #6FA4A3",
"{*	c #639B9B",
"]*	c #599093",
"^*	c #54898D",
"/*	c #3B6468",
"(*	c #1D3233",
"_*	c #7EADA4",
":*	c #8DB8B4",
"<*	c #9FC8C4",
"[*	c #A7CFCC",
"}*	c #B0D8D5",
"|*	c #B8E2E0",
"1*	c #B0DDDD",
"2*	c #A7D5D3",
"3*	c #9CCACC",
"4*	c #90C2C1",
"5*	c #83BAB9",
"6*	c #78ACAF",
"7*	c #6FA2A6",
"8*	c #659DA1",
"9*	c #609796",
"0*	c #223638",
"a*	c #3D6368",
"b*	c #78A5A0",
"c*	c #7DB0AB",
"d*	c #81BBB7",
"e*	c #8AC6C3",
"f*	c #96D0D0",
"g*	c #99DCDB",
"h*	c #9CE3E4",
"i*	c #8EDADB",
"j*	c #87CCCE",
"k*	c #78BFC1",
"l*	c #6EB2B4",
"m*	c #67A4A4",
"n*	c #57979A",
"o*	c #508C90",
"p*	c #48868A",
"q*	c #33565A",
"r*	c #6C969A",
"s*	c #83B5AC",
"t*	c #90BCBB",
"u*	c #9DC7C3",
"v*	c #ABD0CD",
"w*	c #B4DCD8",
"x*	c #C3E6E6",
"y*	c #B5E8E8",
"z*	c #A0DDDB",
"A*	c #93CFD1",
"B*	c #86C2C5",
"C*	c #7AB5B8",
"D*	c #6AA9AD",
"E*	c #619BA3",
"F*	c #5D9998",
"G*	c #5B8387",
"H*	c #74A7A6",
"I*	c #7DB2AE",
"J*	c #83C0BC",
"K*	c #8BCDCC",
"L*	c #95D9DB",
"M*	c #A7E7E7",
"N*	c #8BDBDB",
"O*	c #77CCCD",
"P*	c #68BCBF",
"Q*	c #5EA7AF",
"R*	c #5093A0",
"S*	c #4B8892",
"T*	c #42828B",
"U*	c #46797D",
"V*	c #77ABA6",
"W*	c #8AAEAD",
"X*	c #90BCB8",
"Y*	c #9CC8C4",
"Z*	c #A7D4D3",
"`*	c #B3E0E0",
" =	c #BFEDEC",
".=	c #94D6D5",
"+=	c #82C7C9",
"@=	c #79B7BA",
"#=	c #6DA8AB",
"$=	c #629F9E",
"%=	c #5C9098",
"&=	c #5B8E92",
"*=	c #679A99",
"==	c #6CA6A1",
"-=	c #74B0B0",
";=	c #81BCBC",
">=	c #8BC9CB",
",=	c #93D7D9",
"'=	c #9DE6E7",
")=	c #7DDBDC",
"!=	c #6ECBCD",
"~=	c #63B4BD",
"{=	c #56A6AE",
"]=	c #4F919C",
"^=	c #4A828C",
"/=	c #417B85",
"(=	c #3F7780",
"_=	c #72A3A2",
":=	c #7FAFAE",
"<=	c #89B8B4",
"[=	c #94C3BF",
"}=	c #A2CDCC",
"|=	c #A4DADA",
"1=	c #B3E5E5",
"2=	c #92D9DC",
"3=	c #8ACECE",
"4=	c #79C0C2",
"5=	c #72B1B4",
"6=	c #67A3A6",
"7=	c #609599",
"8=	c #558E96",
"9=	c #558C90",
"0=	c #518286",
"a=	c #699E9D",
"b=	c #73A6A5",
"c=	c #76B3B2",
"d=	c #7ABEC1",
"e=	c #84CBCB",
"f=	c #88D3D8",
"g=	c #7CE3E3",
"h=	c #73D8D9",
"i=	c #6BC2CC",
"j=	c #5DAFBF",
"k=	c #5CA2AE",
"l=	c #5096A2",
"m=	c #488293",
"n=	c #427E88",
"o=	c #3E7780",
"p=	c #3B7271",
"q=	c #3D5E62",
"r=	c #7CA7A2",
"s=	c #7FB0AF",
"t=	c #83B7BA",
"u=	c #8FC1C0",
"v=	c #92CBCA",
"w=	c #92D3D6",
"x=	c #9BDFE0",
"y=	c #91D2D1",
"z=	c #83C7C9",
"A=	c #7BBABF",
"B=	c #72AEB4",
"C=	c #67A5A8",
"D=	c #5F969E",
"E=	c #569099",
"F=	c #548C90",
"G=	c #315458",
"H=	c #243837",
"I=	c #608D91",
"J=	c #62979F",
"K=	c #66A3A6",
"L=	c #6DACAC",
"M=	c #6BB6B8",
"N=	c #6ABFC1",
"O=	c #6AC1CD",
"P=	c #6EC5C9",
"Q=	c #6ABEC4",
"R=	c #60B1BD",
"S=	c #5DA3B0",
"T=	c #539CA8",
"U=	c #4F959A",
"V=	c #49858F",
"W=	c #3E7B8B",
"X=	c #3A7584",
"Y=	c #3C757E",
"Z=	c #273B3F",
"`=	c #416C71",
" -	c #74A5A4",
".-	c #76ADAC",
"+-	c #76B0B3",
"@-	c #7DB6B6",
"#-	c #81BCBB",
"$-	c #7EBFC4",
"%-	c #81C4C4",
"&-	c #7FC0C2",
"*-	c #7AB9BE",
"=-	c #79B5B8",
"--	c #70B0B3",
";-	c #66A6AD",
">-	c #609FA6",
",-	c #5A9B9F",
"'-	c #559098",
")-	c #508992",
"!-	c #38605F",
"~-	c #2F3C3C",
"{-	c #4E858A",
"]-	c #569599",
"^-	c #5294A0",
"/-	c #569AA2",
"(-	c #589FA7",
"_-	c #58A1AA",
":-	c #58A1AC",
"<-	c #529BAB",
"[-	c #5299A5",
"}-	c #51909C",
"|-	c #498D98",
"1-	c #468792",
"2-	c #3F7E8E",
"3-	c #3D7A84",
"4-	c #387281",
"5-	c #3B6E78",
"6-	c #3C4E4E",
"7-	c #364E51",
"8-	c #659897",
"9-	c #64A3A6",
"0-	c #68A3A6",
"a-	c #6CA3A6",
"b-	c #6AAAA9",
"c-	c #6DA5A8",
"d-	c #6BA4A7",
"e-	c #659FA6",
"f-	c #629FA2",
"g-	c #5F9B9E",
"h-	c #59959D",
"i-	c #559099",
"j-	c #528C94",
"k-	c #52858E",
"l-	c #395255",
"m-	c #313F43",
"n-	c #3D696D",
"o-	c #49868F",
"p-	c #498791",
"q-	c #4C858F",
"r-	c #478090",
"s-	c #48818B",
"t-	c #437B8B",
"u-	c #407787",
"v-	c #3C7287",
"w-	c #397483",
"x-	c #3D7280",
"y-	c #375B64",
"z-	c #3E4C4C",
"A-	c #283D3D",
"B-	c #39595D",
"C-	c #5C8D90",
"D-	c #5C919A",
"E-	c #5A9397",
"F-	c #598E96",
"G-	c #588C95",
"H-	c #57868A",
"I-	c #32565A",
"J-	c #2D3D3C",
". + @ # $ % & * = - ; > , ' ) ! ~ { ] ^ ",
"/ @ ( _ : < [ } | 1 2 3 4 5 6 7 8 9 0 a ",
"b c d e f g h i j k l m n o p q r s t u ",
"v w x i y z A B C D E F G H I J K L M N ",
"O P 5 Q R S T U V W X Y Z `  ...+.@.#.$.",
"%.&.*.z =.-.;.>.>.,.'.).!.~.{.].^./.(._.",
":.<.[.}.|.1.2.U U U 3.4.5.6.7.8.9.0.a.b.",
"c.d.e.f.g.h.i.>.>.>.>.j.k.l.m.n.o.p.q.r.",
"> s.t.u.v.w.x.U U U U U y.z.A.B.C.D.E.F.",
"G.H.I.J.K.L.M.>.>.>.>.>.>.N.O.P.Q.R.S.T.",
"U.V.W.X.Y.Z.`.U U U U U  +.+++@+#+$+%+&+",
"*+=+-+;+>+,+'+>.>.>.>.)+!+~+{+]+^+/+(+_+",
":+<+n [+}+|+1+U U U 2+3+4+5+6+7+8+9+0+a+",
"b+c+3 d+F e+f+>.>.g+h+i+j+k+l+m+n+o+_+p+",
"q+r+s+t+u+v+w+U x+y+z+A+B+C+D+E+F+G+H+I+",
"J+K+L+M+N+O+P+Q+R+S+T+U+V+W+X+Y+Z+`+ @.@",
"+@@@#@$@%@&@*@=@-@;@>@,@'@)@!@~@{@]@^@/@",
"(@_@:@<@[@}@|@u+1@2@3@4@5@6@7@8@9@0@a@b@",
"c@d@e@f@g@h@8+i@j@k@l@m@n@o@p@q@r@s@t@u@",
"v@w@x@y@z@A@B@T.C@9.D@E@@.F@G@H@I@J@K@L@",
". + @ # $ M@N@O@P@Q@R@S@T@U@V@! ~ { ] ^ ",
"/ @ ( W@X@Y@Z@`@ #.#+#@###$#%#&#*#9 0 a ",
"b c =#-#;#>#,#'#)#!#~#{#]#^#/#(#_#:#t u ",
"v <#[#}#|#1#2#3#4#5#6#7#8#9#0#a#b#c#d#N ",
"O e#f#g#h#i#j#U k#l#m#n#o#p#q#r#s#t#u#$.",
"v#w#x#1#y#z#A#>.>.B#C#D#E#F#G#H#I#J#K#L#",
"M#N#O#P#Q#R#S#U U U T#U#V#W#X#Y#Z#`# $.$",
"+$@$#$$$%$&$*$>.>.>.>.=$-$;$>$,$'$)$!$~$",
"{$]$^$/$($_$:$U U U U U <$[$}$|$1$2$3$4$",
"5$6$7$8$9$0$a$>.>.>.>.>.>.b$c$d$e$f$g$h$",
"i$j$k$l$m$n$o$U U U U U p$q$r$s$t$u$v$w$",
"x$y$z$A$B$C$D$>.>.>.>.E$F$G$H$I$J$K$L$M$",
"N$O$P$Q$R$S$T$U U U U$V$W$X$Y$Z$`$ %.%+%",
"@%#%$%%%&%*%=%>.>.-%;%>%,%'%)%!%~%{%M$]%",
"^%/%(%_%:%<%[%U }%|%1%2%3%4%5%6%7%8%9%0%",
"J+a%b%c%d%e%f%g%h%i%'%j%k%l%m%n%o%p%q%r%",
"+@s%t%u%v%w%x%y%y%z%A%B%C%D%E%F%G%H%I%J%",
"(@_@K%L%M%N%O%P%Q%R%S%T%U%V%W%X%Y%Z%`% &",
".&+&@&#&$&%&&&*&=&-&;&>&,&'&)&!&I%~&{&]&",
"^&/&(&_&:&<&[&}&|&1&2&s#3&4&5&6&7&8&9&0&",
". + @ # $ a&b&c&d&e&f&g&h&i&j&! ~ { ] ^ ",
"/ @ ( k&l&m&n&o&p&q&r&s&t&u&v&w&x&9 0 a ",
"b c y&z&A&B&C&D&E&F&G&H&I&J&K&L&M&N&t u ",
"v O&P&Q&R&S&T&U&V&W&X&Y&Z&`& *.*+*@*#*N ",
"O $*%*&***=*-*U ;*>*,*'*)*!*~*{*]*^*/*$.",
"(*_*:*S&<*[*}*>.>.|*1*2*3*4*5*6*7*8*9*0*",
"a*b*c*d*e*f*g*U U U h*i*j*k*l*m*n*o*p*q*",
"r*s*t*u*v*w*x*>.>.>.>.y*z*A*B*C*D*E*F*G*",
"g&H*I*J*K*L*M*U U U U U N*O*P*Q*R*S*T*U*",
"V*W*X*Y*Z*`* =>.>.>.>.>.>..=+=@=#=$=%=&=",
"*===-=;=>=,='=U U U U U )=!=~={=]=^=/=(=",
"_=:=<=[=}=|=1=>.>.>.>.M*2=3=4=5=6=7=8=9=",
"0=a=b=c=d=e=f=U U U g=h=i=j=k=l=m=n=o=p=",
"q=r=s=t=u=v=w=>.>.x=2=y=z=A=B=C=D=E=F=G=",
"H=I=J=K=L=M=N=U O=P=Q=R=S=T=U=V=W=X=Y=Z=",
"J+`= -.-+-@-#-$-%-&-*-=---;->-,-'-)-!-r%",
"+@~-{-]-^-/-(-_-:-<-[-}-|-1-2-3-4-5-6-J%",
"(@_@7-8-9-0-a-b-c-d-e-f-g-h-i-j-k-l-`% &",
".&+&@&m-n-o-p-q-r-s-t-u-v-w-x-y-z-~&{&]&",
"^&/&(&_&:&A-B-C-D-E-F-G-H-I-J-6&7&8&9&0&"};
