/* XPM */
char * playlist_drawer[] = {
"190 26 111 2",
"  	c None",
". 	c #7C7A74",
"+ 	c #6C6A64",
"@ 	c #5C5E5C",
"# 	c #5C5A5C",
"$ 	c #5C5A54",
"% 	c #040204",
"& 	c #343634",
"* 	c #54524C",
"= 	c #74766C",
"- 	c #94968C",
"; 	c #9C9E8C",
"> 	c #9CA294",
", 	c #A4A28C",
"' 	c #A4A6A4",
") 	c #C4C6BC",
"! 	c #3C4224",
"~ 	c #646664",
"{ 	c #343234",
"] 	c #343A44",
"^ 	c #6C6A6C",
"/ 	c #949694",
"( 	c #84827C",
"_ 	c #747674",
": 	c #7C7A6C",
"< 	c #545654",
"[ 	c #3C3E3C",
"} 	c #64625C",
"| 	c #B4B6A4",
"1 	c #C4C2B4",
"2 	c #8C8A74",
"3 	c #7C7A7C",
"4 	c #74726C",
"5 	c #747274",
"6 	c #4C524C",
"7 	c #94928C",
"8 	c #44423C",
"9 	c #2C3234",
"0 	c #646264",
"a 	c #7C7E74",
"b 	c #6C726C",
"c 	c #6C6E64",
"d 	c #6C6E6C",
"e 	c #545A54",
"f 	c #B4B6AC",
"g 	c #5C625C",
"h 	c #8C92A4",
"i 	c #646A64",
"j 	c #4C4A4C",
"k 	c #545254",
"l 	c #64665C",
"m 	c #444A44",
"n 	c #9C9A8C",
"o 	c #7C7E7C",
"p 	c #545A5C",
"q 	c #3C423C",
"r 	c #444644",
"s 	c #8C8E7C",
"t 	c #747664",
"u 	c #646A54",
"v 	c #ACAA94",
"w 	c #94967C",
"x 	c #9C9A84",
"y 	c #4C4E4C",
"z 	c #444A4C",
"A 	c #343A3C",
"B 	c #54563C",
"C 	c #848A74",
"D 	c #5C5E44",
"E 	c #54565C",
"F 	c #4C5254",
"G 	c #4C4E5C",
"H 	c #ACAE9C",
"I 	c #4C5654",
"J 	c #4C4E44",
"K 	c #343A34",
"L 	c #343E3C",
"M 	c #7C7E6C",
"N 	c #4C4E34",
"O 	c #444E4C",
"P 	c #3C4644",
"Q 	c #2C3634",
"R 	c #141614",
"S 	c #646A7C",
"T 	c #7C829C",
"U 	c #242224",
"V 	c #3C4244",
"W 	c #3C3A3C",
"X 	c #5C6264",
"Y 	c #B4B6B4",
"Z 	c #BCBABC",
"` 	c #3C3E4C",
" .	c #2C322C",
"..	c #242A2C",
"+.	c #2C2E2C",
"@.	c #2C2E34",
"#.	c #5C6664",
"$.	c #747A7C",
"%.	c #0C0E0C",
"&.	c #141214",
"*.	c #040A04",
"=.	c #242A24",
"-.	c #FCFEFC",
";.	c #848684",
">.	c #0C0A0C",
",.	c #242624",
"'.	c #24262C",
").	c #848284",
"!.	c #040604",
"~.	c #2C2A2C",
"{.	c #1C1A1C",
". + @ # @ # @ # @ # @ # $ % % % & * = - ; > , > , > , > , ; ' > , > , ; ' > , > , ; ' > , > , ; ' > , > , ; ' > , > , ; ' > , > , ; ' > , > , ; ' > , > , ; ' > , > , ; ' > , > , ; ' > , > , ; ' > , > , ; ' > , > , ; ' > , > , ; ' > , > , ; ' > , > , ; ' > , > , ; ' > , > , ; ' > , > , ; ' > , ; ' ; ' > , > , ; ' ; ) , ! , > , > , , ! ! , , ! > ~ { % ] . ^ @ # @ # # # @ # @ $ @ ",
"/ ( . _ : _ = . _ . _ < @ % % % [ } - | ) ) 1 ) 1 ) 1 ) 1 ) 1 ) 1 ) 1 ) 1 ) 1 ) 1 ) 1 ) 1 ) 1 ) 1 ) 1 ) 1 ) 1 ) 1 ) 1 ) 1 ) 1 ) 1 ) 1 ) 1 ) 1 ) 1 ) 1 ) 1 ) 1 ) 1 ) 1 ) 1 ) 1 ) 1 ) 1 ) 1 ) 1 ) 1 ) 1 ) 1 ) 1 ) 1 ) 1 ) 1 ) 1 ) 1 ) 1 ) 1 ) 1 ) 1 ) 1 ) 1 ) 1 ) 1 ) 1 ) 1 ) 1 ) 1 ) 1 ) 1 ) 1 ) 1 ) ) ) 1 ) 1 1 ) 1 ) ) 1 ) ; ) 1 2 2 2 ) 1 2 2 2 2 2 ) ) + { % ] ~ ( . _ . = _ . _ . _ + @ ",
"/ 3 _ 4 4 4 5 4 4 4 4 * $ % % % & 6 : 7 ; , > , ; ' ; ' > , > , ; ' > , > , ; ' > , > , ; ' > , > , ; ' > , > , ; ' > , > , ; ' > , > , ; ' > , > , ; ' > , > , ; ' > , > , ; ' > , > , ; ' > , > , ; ' > , > , ; ' > , > , ; ' > , > , ; ' > , > , ; ' > , > , ; ' > , > , ; ' > , > , ; ' > , > , ; , > , > , ; ' > , > , ) ; ' > , > > , > 8 ! > , ; , ~ 9 % ] 0 a _ 4 4 4 4 4 4 4 4 + @ ",
"/ = b c d c d c d d d 6 e % % % [ } - f ) ) 1 ) ) 1 ) 1 1 ) 1 ) ) 1 1 ) 1 ) ) 1 1 ) 1 ) ) 1 1 ) 1 ) ) 1 1 ) 1 ) ) 1 1 ) 1 ) ) 1 1 ) 1 ) ) 1 1 ) 1 ) ) 1 1 ) 1 ) ) 1 1 ) 1 ) ) 1 1 ) 1 ) ) 1 1 ) 1 ) ) 1 1 ) 1 ) ) 1 1 ) 1 ) ) 1 1 ) 1 ) ) 1 1 ) 1 ) ) 1 1 ) 1 ) ) 1 1 ) 1 ) ) 1 1 ) 1 ) ) 1 1 ) 1 ) ) ) 1 ) 1 ) ) 1 1 ) 1 ) ' 1 1 ) 1 ) 1 ) ) 1 2 ) ) ) ) ~ { % ] g = d c d d c d d d d } e ",
"h 4 + ~ + ~ ~ + i + i j k % % % & * = 7 , ; ' > , > , > , ; ' > , ; ' ; ' > , ; ' ; ' > , ; ' ; ' > , ; ' ; ' > , ; ' ; ' > , ; ' ; ' > , ; ' ; ' > , ; ' ; ' > , ; ' ; ' > , ; ' ; ' > , ; ' ; ' > , ; ' ; ' > , ; ' ; ' > , ; ' ; ' > , ; ' ; ' > , ; ' ; ' > , ; ' ; ' > , ; ' ; ' > , ; ' ; ' > , ; ' ; ' > , > , > , > 1 , > > , > , > , ! , ; 8 ; , ~ { % ] # 5 + ~ + i ~ + i + i @ k ",
"7 i ~ ~ } ~ } 0 l ~ } m * % % % [ } - | ) 1 1 ) 1 ) 1 ) ) ) 1 1 ) ) 1 ) 1 1 ) ) 1 ) 1 1 ) ) 1 ) 1 1 ) ) 1 ) 1 1 ) ) 1 ) 1 1 ) ) 1 ) 1 1 ) ) 1 ) 1 1 ) ) 1 ) 1 1 ) ) 1 ) 1 1 ) ) 1 ) 1 1 ) ) 1 ) 1 1 ) ) 1 ) 1 1 ) ) 1 ) 1 1 ) ) 1 ) 1 1 ) ) 1 ) 1 1 ) ) 1 ) 1 1 ) ) 1 ) 1 1 ) ) 1 ) 1 1 ) ) 1 ) 1 1 ) 1 ) 1 1 1 ) 1 ) 1 ) 1 > ) 1 f ; n , 1 ) 2 ) ) 2 ) ) ~ { % ] e c ~ ~ } 0 l 0 l ~ } $ 6 ",
"o ~ @ @ @ @ p @ @ @ @ q r % % % & * = 7 ; ' > , ; ' > , > , > , > , > , > , > , > , > , > , > , > , > , > , > , > , > , > , > , > , > , > , > , > , > , > , > , > , > , > , > , > , > , > , > , > , > , > , > , > , > , > , > , > , > , > , > , > , > , > , > , > , > , > , > , > , > , > , > , > , > , > , ; ' ; ' ; ' > , ) > , s 7 > t u > ! > , ! > , ~ { % ] 6 @ @ @ @ @ p @ @ @ @ < j ",
"b @ # e p $ p e p < # [ r % % % q } - | ) 1 ) ) ) 1 1 ) 1 ) 1 ) 1 ) 1 ) 1 ) 1 ) 1 ) 1 ) 1 ) 1 ) 1 ) 1 ) 1 ) 1 ) 1 ) 1 ) 1 ) 1 ) 1 ) 1 ) 1 ) 1 ) 1 ) 1 ) 1 ) 1 ) 1 ) 1 ) 1 ) 1 ) 1 ) 1 ) 1 ) 1 ) 1 ) 1 ) 1 ) 1 ) 1 ) 1 ) 1 ) 1 ) 1 ) 1 ) 1 ) 1 ) 1 ) 1 ) 1 ) 1 ) 1 ) 1 ) 1 ) 1 ) 1 ) 1 ) 1 ) 1 ) 1 ) 1 ) 1 ) ) 1 ) 1 ) 1 1 ) , 1 ) 1 v ; w x ) 2 ) ) 2 ) ) ~ { % ] y @ p e # e # e p # p 6 z ",
"d @ e < < < < < $ < e A q % % % & * = 7 , > , ; , > , ; ' ; ' ; ' ; ' ; ' ; ' ; ' ; ' ; ' ; ' ; ' ; ' ; ' ; ' ; ' ; ' ; ' ; ' ; ' ; ' ; ' ; ' ; ' ; ' ; ' ; ' ; ' ; ' ; ' ; ' ; ' ; ' ; ' ; ' ; ' ; ' ; ' ; ' ; ' ; ' ; ' ; ' ; ' ; ' ; ' ; ' ; ' ; ' ; ' ; ' ; ' ; ' ; ' ; ' ; ' ; ' ; ' ; ' ; ' ; ' ; ' > , > , > , > , > 1 ' > B t n C D , ! > , ! > , ~ { % ] z e e < < < < < e < e y r ",
"^ E k F F F k G F k F & [ % % % q } - f ) 1 ) ) ) 1 ) ) 1 1 1 ) 1 ) 1 ) 1 ) 1 ) 1 ) 1 ) 1 ) 1 ) 1 ) 1 ) 1 ) 1 ) 1 ) 1 ) 1 ) 1 ) 1 ) 1 ) 1 ) 1 ) 1 ) 1 ) 1 ) 1 ) 1 ) 1 ) 1 ) 1 ) 1 ) 1 ) 1 ) 1 ) 1 ) 1 ) 1 ) 1 ) 1 ) 1 ) 1 ) 1 ) 1 ) 1 ) 1 ) 1 ) 1 ) 1 ) 1 ) 1 ) 1 ) 1 ) 1 ) 1 ) 1 ) 1 ) 1 ) 1 ) 1 ) 1 ) 1 1 ) 1 ) 1 ) 1 ) 1 ' 1 1 2 1 1 H x 1 2 ) ) 2 ) 1 ~ { % ] r F k F F F F F k F k z 8 ",
"~ I 6 y y y J 6 y 6 y K L % % % & 6 : 7 > > , ; ' ; ' > , > , > , > , > , > , > , > , > , > , > , > , > , > , > , > , > , > , > , > , > , > , > , > , > , > , > , > , > , > , > , > , > , > , > , > , > , > , > , > , > , > , > , > , > , > , > , > , > , > , > , > , > , > , > , > , > , > , > , > , > , > , > , ; ' > , > 1 > > M N D u B , ! > , ! > , ~ { % ] r I 6 y y y y y y y y r q ",
"i k y y O y y y y y y & [ % % % 8 } 7 | ) ) ) ) 1 ) 1 1 ) ) 1 ) 1 ) 1 ) 1 ) 1 ) 1 ) 1 ) 1 ) 1 ) 1 ) 1 ) 1 ) 1 ) 1 ) 1 ) 1 ) 1 ) 1 ) 1 ) 1 ) 1 ) 1 ) 1 ) 1 ) 1 ) 1 ) 1 ) 1 ) 1 ) 1 ) 1 ) 1 ) 1 ) 1 ) 1 ) 1 ) 1 ) 1 ) 1 ) 1 ) 1 ) 1 ) 1 ) 1 ) 1 ) 1 ) 1 ) 1 ) 1 ) 1 ) 1 ) 1 ) 1 ) 1 ) 1 ) 1 ) 1 ) 1 ) 1 ) 1 ) 1 ) 1 ) 1 ) 1 ) , 1 ) 1 ) ) ) ) ) ) ) 1 ) ) 1 ~ { % o P F y y O J y y y y y r [ ",
"~ 6 O j O j O m O J O Q A % % % & * = - ; , ; , > , > , ; ' > , ; ' > , > , > , > , > , > , > , > , > , > , > , > , > , > , > , > , > , > , > , > , > , > , > , > , > , > , > , > , > , > , > , > , > , > , > , > , > , > , > , > , > , > , > , > , > , > , > , > , > , > , > , > , > , > , > , > , > , ; ' ; ' > , ; ' > , > > , > > , ; , , ; , , > , , ~ { % A [ O J O j O j O O O J P [ ",
"g 6 J m m m m j m z z & [ % % % R k ~ ~ ^ ~ ~ ~ ~ ~ ~ ~ ~ ~ 0 ~ ~ ~ 0 ~ ~ ~ ~ ~ ~ ~ ~ ~ ~ ~ ~ ~ ~ ~ ~ ~ ~ ~ ~ ~ ~ ~ ~ ~ ~ ~ ~ ~ ~ ~ ~ ~ ~ ~ ~ ~ ~ ~ ~ ~ ~ ~ ~ ~ ~ ~ ~ ~ ~ ~ ~ ~ ~ ~ ~ ~ ~ ~ ~ ~ ~ ~ ~ ~ ~ ~ ~ ~ ~ ~ ~ ~ ~ ~ ~ ~ ~ ~ ~ ~ ~ ~ ~ ~ ~ ~ ~ ~ ~ ~ ~ ~ ~ ~ ~ ~ ~ ~ ~ ~ ~ ~ ~ ~ ~ ~ ~ ~ ~ S 0 ~ ~ ~ ~ 0 ~ ~ ~ ~ 0 ~ ^ 0 ~ ~ ~ ~ ~ S 0 ~ ~ ~ ~ 5 T } U % g r O y m m m m m j m z V W ",
"X F O O y O y O O y y & L 5 ' Y Y Z Z Z Z Z Z Z Z Z Z Z Z Z Z Z Z Z Z Z Z Z Z Z Z Z Z Z Z Z Z Z Z Z Z Z Z Z Z Z Z Z Z Z Z Z Z Z Z Z Z Z Z Z Z Z Z Z Z Z Z Z Z Z Z Z Z Z Z Z Z Z Z Z Z Z Z Z Z Z Z Z Z Z Z Z Z Z Z Z Z Z Z Z Z Z Z Z Z Z Z Z Z Z Z Z Z Z Z Z Z Z Z Z Z Z Z Z Z Z Z Z Z Z Z Z Z Z Z Z Z Z Z Z Z Z Z Z Z Z Z Z Z Z Z Z Z Z Z Z Z Z Z Z Z Z Z Z Y Y o r O O j O y O y O O y q [ ",
"~ 6 y z y z O j O y O Q W A A [ L A L A A A A W ] L W L A [ A L W L A ` A ] W ] A W ] A W ] A W ] A W ] A W ] A W ] A W ] A W ] A W ] A W ] A W ] A W ] A W ] A W ] A W ] A W ] A W ] A W ] A W ] A W ] A W ] A W ] A W ] A W ] A W ] A W ] A W ] A W ] A W ] A W ] A W ] A W ] A W ] A W ] A W A A [ A L W A L W L A [ A A A A W A A W A L W L ] A A A K A W A A L j O O y z y m y z z r L ",
"0 I O y O y y y O y y  ...+.+.+.+.+.+.+.+.+.@.+.+.@.+.@.+.@.+.@.+.@.+.+.+.+.+.+.+.@.+.+.@.+.+.@.+.+.@.+.+.@.+.+.@.+.+.@.+.+.@.+.+.@.+.+.@.+.+.@.+.+.@.+.+.@.+.+.@.+.+.@.+.+.@.+.+.@.+.+.@.+.+.@.+.+.@.+.+.@.+.+.@.+.+.@.+.+.@.+.+.@.+.+.@.+.+.@.+.+.@.+.+.@.+.+.@.+.+.@.+.+.@.+.+.@.+.+.@.+.+.@.+.+.+.+.@.+.+.+.+.@.+.@.+.@.+.+.@.+.+.@.+.+.@.+.+.+.+.+.+.+.+.+.@.+.O 6 y O y O y O J O r [ ",
"#.6 y y O J O O y O y y 6 y O 6 O y O y O y O O O y O O O O O y O O O O O y O O O O O y O O O O O y O O O O O y O O O O O y O O O O O y O O O O O y O O O O O y $.%.&.*...=.P O W %.%.%.=.=.P O A &.%.*...=.P y A %.%.%.=...P O y O O O O O y O O O O O y O O O O O y O O O O O y O O O O O y O O O O O y O O O O O y O O y O O O O y O O O O y O y O y O O O y O y O y O y J O y O y O r [ ",
"0 6 y O y O y y O y O y O 6 y O 6 O y y O y y y O y O y y y O y O y y y O y O y y y O y O y y y O y O y y y O y O y y y O y O y y y O y O y y y O y O y y y O y -.Z Z Z ;.;.y y -.Z Z Z o ;.y y -.Z Z Z ;.;.O y -.Z Z Z o ;.y y O y O y y y O y O y y y O y O y y y O y O y y y O y O y y y O y O y y y O y O y y y O y O y O y y O y O y y O y O y O y O y y O y O y y O y O y y O y O r q ",
"g z O j O j m m m j z z j z z y z j O z J z O m J m m m m m m m m m m O m O m O m O j O m O m O m O m O m O m O m O m O j O m O m O m O m O m O m O m O m O m O 3 &.%.>.=.,.P O W %.R *.....r O W %.R *.'.,.r O W %.R *...=.P O m O m O m O m O m O m O m y O O O O J O J O O O J O J O O O J O J z O m y m y m O m y m O J O O J O O J m O j O O J O O J O O m y m O m y m O m O j m r L K ",
"@ m m m m m m z r m r m r m r r m P r r r r r r r m r z r m r z r m r r r r r r r r r r r r r r r r r r r r r r r r r r r r r r r r r r r r r r r r r r r r r r ;.=.& & Q & q y O K & & & & q r O & & & & & q y O K & & 3 +.[ r r r r r r r r r r r r r r r r r r r r r r r r r r r r r r r P r r r r m r r m r r r r r r r r r r r r r r r r m r r r r r r r r r m r m r r r r r r P [ K { ",
"e 8 r P 8 V q [ L [ L [ [ L [ q [ [ q L q L q L V L [ [ L ` [ [ [ L ` q [ q [ L q L q L q [ L [ q [ q [ q [ q [ q L q L q L q [ L q [ q [ L q [ q [ q L q [ q L )...O m z m z m z z z O m z m m O m z m z m z m z m z O ( ..O [ [ q [ L q [ q L q [ q L q [ [ [ L [ L q L q L [ L [ L V [ q [ [ L q ` L [ L V L q L V L q [ L q L [ [ L q [ L [ [ L [ L [ V L q [ [ L ` [ q [ q L L K & @...",
"& ` L [ [ A A K A & A & A & A & A & A & & A & A & K A & K & K & A K & K & & A & K & K & A & K & A & Q A & A & & & A & K & A & K A & A & K A & A & A & A & A & & @  .r m r m r m r m r r m r m r r m r m r m r m r m r r p =.r K K Q & A & A & & A & A & A Q K K K A & A & & & A K A A & K & A & A & K & A K & A & & K & A & A & A & K A & K A K & A & A K & A & K A & K A & Q & & & { 9 +...",
"9 & & Q & Q 9 9 9 9  .9 9 9 9 9 9 9 9 9 9  .9 9 9 9 9 9 9 9 9 9 9 9 9 9 9 9 9 9 9 9 9 9 9 9 9 9 9 9 9 9 9 9 9 9 9 9 9 9 9 9 9 9 9 9 9 9 9 9 9 9 9 9 9 9 9 9 9 9 j g [ [ [ [ ` [ [ L [ q L [ [ ` q [ L [ L [ [ [ ` [ [ I & [ [ 9 @.9 9 9 9 9 9 9 9 9 9 9 9 9 9 9 9 9 9 9 9 9 9 9 9 9  .9 9 9 9 9 9 9 9 9 9 9 9 9 9 9 9 9 9 9 9 9 9 9 @.9 9 9 9 9 9 9 9 9 9 9 9 9 9 9 9 9  .9 9 9 9 @...+...,.",
"!.*.>.%.*.>.>.!.!.>.!.>.!.!.!.!.!.>.!.!.>.!.!.>.!.!.!.>.!.!.!.!.!.!.!.>.!.!.!.!.!.!.!.!.!.>.!.!.!.!.>.!.!.!.!.!.!.!.>.!.!.!.!.>.!.!.!.!.>.!.!.!.!.!.!.>.!.!.>.!.*.!.!.*.!.*.!.*.!.>.!.!.*.!.*.!.!.!.>.!.!.*.!.*.!.*.!.!.>.!.!.!.!.!.>.*.!.!.!.!.!.!.!.!.!.!.>.!.!.>.!.!.>.!.>.!.!.>.!.!.!.!.!.!.!.!.!.>.!.!.>.!.>.!.!.!.!.!.!.>.!.!.!.*.!.!.!.>.!.>.!.!.>.!.!.!.!.>.!.!.!.>.*.!.!.!.!.% % % ",
",.'.,.~.U ,.U U ,.U U ,.U ,.,.,.U ,.U ,.U U ,.U U ,.U U ,.,.,.,.,.,.U ,.U ,.,.U ,.U ,.U ,.U U ,.U ,.U ,.,.U ,.U ,.U U U ,.U ,.U U ,.U ,.U ,.,.,.,.U ,.U U ,.U U ,.U '.U ,.U ,.U ,.U ,.U '.U ,.U ,.U ,.U '.U ,.U ,.U ,.U U ,.,.,.,.U U U ,.,.U ,.U ,.U ,.U ,.U U ,.U ,.U U U U U U U ,.U ,.U ,.U ,.U ,.U U ,.U U U ,.,.,.,.U ,.U ,.,.U ,.U ,.U U U U U U U ,.U ,.U U ,.U ,.U U ,.U U U U {.U "};
