/* XPM */
static char * playlist_drawer256[] = {
"190 26 23 1",
" 	c None",
".	c #808080",
"+	c #555F55",
"@	c #000000",
"#	c #2A3F55",
"$	c #7F7F55",
"%	c #A0A0A4",
"&	c #D4BFAA",
"*	c #553F55",
"=	c #AABFAA",
"-	c #7F5F55",
";	c #2A3F00",
">	c #2A1F55",
",	c #557F55",
"'	c #AA9FAA",
")	c #2A5F55",
"!	c #2A1F00",
"~	c #553F00",
"{	c #FFFFFF",
"]	c #C0DCC0",
"^	c #2A0000",
"/	c #555F00",
"(	c #2A5F00",
".++++++++++++@@@#+$.%%%%%%%%%%%%%%%%%%%%%%%%%%%%%%%%%%%%%%%%%%%%%%%%%%%%%%%%%%%%%%%%%%%%%%%%%%%%%%%%%%%%%%%%%%%%%%%%%%%%%%%%%%%%%%%%%%%%%%%%%%%%%%%%%%%%%%%%%%&%%$%%%%%$$%%$%+#@#.++++++++++++",
"%..........++@@@*+%=&&&&&&&&&&&&&&&&&&&&&&&&&&&&&&&&&&&&&&&&&&&&&&&&&&&&&&&&&&&&&&&&&&&&&&&&&&&&&&&&&&&&&&&&&&&&&&&&&&&&&&&&&&&&&&&&&&&&&&&&&&&&&&&&&&&&&&&&&&%&&&$$&&.$$$.&&-;@#+...........+",
"%..+.-.+.-.*+@@@;*$.%%%%%%%%%%%%%%%%%%%%%%%%%%%%%%%%%%%%%%%%%%%%%%%%%%%%%%%%%%%%%%%%%%%%%%%%%%%%%%%%%%%%%%%%%%%%%%%%%%%%%%%%%%%%%%%%%%%%%%%%%%%%%%%%%%%%%%%%%%&%%%%%%%%$$%%%%+>@*+...-.+.-.-++",
"..+.+.+.+.+++@@@*+%=&&&&&&&&&&&&&&&&&&&&&&&&&&&&&&&&&&&&&&&&&&&&&&&&&&&&&&&&&&&&&&&&&&&&&&&&&&&&&&&&&&&&&&&&&&&&&&&&&&&&&&&&&&&&&&&&&&&&&&&&&&&&&&&&&&&&&&&&&&%&&&&&&&&&$&&&&+#@#+.++,-.+.+.++",
"%-+-++-+-+-*+@@@#*$.%%%%%%%%%%%%%%%%%%%%%%%%%%%%%%%%%%%%%%%%%%%%%%%%%%%%%%%%%%%%%%%%%%%%%%%%%%%%%%%%%%%%%%%%%%%%%%%%%%%%%%%%%%%%%%%%%%%%%%%%%%%%%%%%%%%%%%%%%%&%%%%%%%%$%%$%%-#@#+-.-+++-+++++",
"..++.++.+++**@@@*+%=&&&&&&&&&&&&&&&&&&&&&&&&&&&&&&&&&&&&&&&&&&&&&&&&&&&&&&&&&&&&&&&&&&&&&&&&&&&&&&&&&&&&&&&&&&&&&&&&&&&&&&&&&&&&&&&&&&&&&&&&&&&&&&&&&&&&&&&&&&%&&.$.$&&.&&.&&+;@*++++.+.++.-+*",
".++++++++++#+@@@;+$.%%%%%%%%%%%%%%%%%%%%%%%%%%%%%%%%%%%%%%%%%%%%%%%%%%%%%%%%%%%%%%%%%%%%%%%%%%%%%%%%%%%%%%%%%%%%%%%%%%%%%%%%%%%%%%%%%%%%%%%%%%%%%%%%%%%%%%%%%%&%%%%%$.%$%%$%%-#@#++++++++++++*",
".++++++++++*#@@@*+%=&&&&&&&&&&&&&&&&&&&&&&&&&&&&&&&&&&&&&&&&&&&&&&&&&&&&&&&&&&&&&&&&&&&&&&&&&&&&&&&&&&&&&&&&&&&&&&&&&&&&&&&&&&&&&&&&&&&&&&&&&&&&&&&&&&&&&&&&&&%&&&&.&.&.&&.&&+#@#*++++++++++*+",
"++++*++*+++;*@@@#*..%%%%%%%%%%%%%%%%%%%%%%%%%%%%%%%%%%%%%%%%%%%%%%%%%%%%%%%%%%%%%%%%%%%%%%%%%%%%%%%%%%%%%%%%%%%%%%%%%%%%%%%%%%%%%%%%%%%%%%%%%%%%%%%%%%%%%%%%%%&%%$.%%$%$%%$%%+#@#*+++*+*++++*#",
".+*+*+*+*+*##@@@*+%=&&&&&&&&&&&&&&&&&&&&&&&&&&&&&&&&&&&&&&&&&&&&&&&&&&&&&&&&&&&&&&&&&&&&&&&&&&&&&&&&&&&&&&&&&&&&&&&&&&&&&&&&&&&&&&&&&&&&&&&&&&&&&&&&&&&&&&&&&&%&&.&&&.&.&&.&&-;@##*+*+*+*+**+*",
"++*+*+*+*+*;*@@@;++.%%'%%%%%%%%%%%%%%%%%%%%%%%%%%%%%%%%%%%%%%%%%%%%%%%%%%%%%%%%%%%%%%%%%%%%%%%%%%''''''''''''''''''''''''''''''''''''''''''''''''''''''''''''%&%%%$.$$%$%%$%%+>@#*++*+*+*+*+##",
"++*)*)*)*+###@@@*+%=&&&&&&&&&&&&&&&&&&&&&&&&&&&&&&&&&&&&&&&&&&&&&&&&&&&&&&&&&&&&&&&&&&&&&&&&&&&&&&&&&&&&&&&&&&&&&&&&&&&&&&&&&&&&&&&&&&&&&&&&&&&&&&&&&&&&&&&&&&%&&&&&&&&&&&&&&+*@.*+#+#+#+#+**;",
"++**+***)*+!#@@@#+..%%%%%%%%%%%%%%%%%%%%%%%%%%%%%%%%%%%%%%%%%%%%%%%%%%%%%%%%%%%%%%%%%%%%%%%%%%%%%%%%%%%%%%%%%%%%%%%%%%%%%%%%%%%%%%%%%%%%%%%%%%%%%%%%%%%%%%%%%%%%%%%%%%%%%%%%%+#@#;*+***+*+#+#*",
"+*)+#*)+*#*#*!#@#*##>#>#>#>#*>#>############*>#>##*>#>##>###*###>#*##>*>##*>#>##>###*###>#*##>*>##*>#>##>###*###>#*##>*>##*>#>###>#>*>##*####>*####>###>#>#>#>*#*#*#>#>#>*#*#*#;+*)*)*)*#**#~#",
"++***+**#++#;#!>!!>!#!#!#!;>!;>;!>!!>!!>!!>!!#!;>!!#!;>!;>!!>!!>;!>!!#!;>!!#!;>!;>!!>!!>;!>!!#!;>!!#!;>!;>!!>!!>;!>!!#!;>!!#!;>!!#!;>;!>!!>!!#!!>!!#!!>;!#!;>;!>!>!!#!;>;!>!>!!>.#*+*)**+*)+*#",
"++)*)*)*+*#;####*##>#####>####>###>#>######>#>####>#>#>###>###>###>#*#>##>*#>####>#>####>#>#>#>######>##>##>####>#>#>#>##>*#>####>###>#>#>#>#>###>#>####>#>###>###>##>#>*>#>*##*#~+#*+*)*)**#;",
"+*+*+*+#++*>!!!>!>;!>!>!;>!!>;!>!;>;!>!!>!;>;!>!!#!;>;!>!;>!!#!!>;!>!;>!;>!;>!!>;!#!!>!;>;!#!;>!!>!!#!!#!!#!!>!;>;!#!;>!;>!;>!!>;!>!;>;!#!;>;!>!!#!;>!!#!;>!!>;!>!;>;!#!;>;!>!>!#>*+#+*+**+)*#",
"++*)*)*+*)*+++++++*+++++*++++*+++*+*+++*++*+*++++*+*+*+++*+++*+++*+++*++*++*+++*.@!@>;**#@!@>!*+*@!@!#***@!@>;**+*+*+*++*++*++++*+++*+*+*+*+*+++*+*+*++*+*+++*+*++*+*+*+*+*+++++*+)*+#+#+)**#*",
"+*)*+*+*)**)*#**#*)**#**)*#*#*)*#*)*)*#+#*)*)*#*#*)*)*)*#*)*#*)*#*)*#+#*)*#+#*)*{]=]..#+{&]=..+#{]=]..*){]=]..*)*)*)*)*#+#*)*#*#*)*#*)*)*)*)*)*#*)*)*)*#+#+#*#+#+#*)*)*)*)*)*#*#+#*+*+**+**+~#",
"++**)*#~*+#*+*+)*+*+#+*)**+*+***+****+**+****+*+*+***+**+***+***+***+**+*+**+**+.@^@>!*+#@@@>;#+#@^@>!)*#@^@>!)***+***+**+**+*+*+**+**+***+***+*+***+**+***+*+***+**+***+***+*+**+*#+#+)*)*###",
"+*)*~)*)#*/#*#**#;#**;**##;##)#;#)*);#)##(*)##;####(####;)##*(###);####;##)#;)##.>##;##**###;#*#*###;#**+##;.>;*)##;)*#);#)##*##*)#*)##*)##*)##*#)*##+##)*###*)##*)#*)#*#)#*##;+#;+*;*#~#*;*;#",
"+#*##*##~##~#;#;*#*;##;#;*#~*;**;*;#*~#~*#;*;**;*;**;*~#*~#~##~#~*#~*;**;*~#**;*.;****+#+*****~*+****#~)****.;*;*;**;#~#*#~*;#~#;*;#~#~#;*;#~#~#;*;#~#;*;#~#~#;*;#~#;*;#~#~#;*#;*#;##;*#~####!",
"#~#;*;#;##;##*;###;##~#*##;####;####;####;####;####;####;####;####;####;#####;##+;*#)#*;*#~)*#)*##(*#+#*;*)#+>*####;###;#;#;###;###;###;###;###;###;##*;###;##*;###;###;###;*#;##;##~##;#;>;!>",
">#;###!#!#>;>;>;!#!#!#>;!#>;>!#>;>;>>;>!#>;>;>#!#!#>;>;>#!#!#>;>;>#!#!#>;>!;>;>;*+#~#~###~##;*#;*;*#;*##*#;+#;#;!#!#>!#>!#>#!#!#!#!#!>;>#!#>;>;>;>;>;>;>;>;>;>;>;>!#>;>#!#!#>;>#!>#!#>;>#>;>>;",
"@@^@@@@@@@@@@@@@@@@@@@@@@@@@@@@@@@@@@@@@@@@@@@@@@@@@@@@@@@@@@@@@@@@@@@@@@@@@@@@@@@@@@@@@@@@@@@@@@@@@@@@@@@@@@@@@@@@@@@@@@@@@@@@@@@@@@@@@@@@@@@@@@@@@@@@@@@@@@@@@@@@@@@@@@@@@@@@@@@@@@@@@@@@@@@",
"!>!#!>!>!>!>!>!>!>!>!>!>!>!>!>!>!>!>!>!>!>!>!>!>!>!>!>!>!>!>!>!>!>!>!>!>!>!>!>!>!>!>!>!>;>!>!>!>!>!>!>!>!>!>!>!>!>!>!>!>!>!>!>!>!>!>!>!>!>!>!>!>!>!>!>!>!>!>!>!>!>!>!>!>!>!>!>!>!>!>!>!>!>!!>!"};
