/* XPM */
static char *repeat_buttons[] = {
/* width height num_colors chars_per_pixel */
"    13    39       70            2",
/* colors */
".. c #000000",
".# c #010101",
".a c #020202",
".b c #030303",
".c c #040404",
".d c #040405",
".e c #060606",
".f c #070707",
".g c #080808",
".h c #080908",
".i c #090908",
".j c #0a0a0a",
".k c #131313",
".l c #141413",
".m c #141414",
".n c #151514",
".o c #151515",
".p c #161816",
".q c #171717",
".r c #171818",
".s c #184766",
".t c #1a1a19",
".u c #1b1b1b",
".v c #202120",
".w c #202121",
".x c #212220",
".y c #252726",
".z c #262725",
".A c #2875a9",
".B c #2a2b29",
".C c #2b2d2b",
".D c #2d2d2d",
".E c #2f3131",
".F c #30302f",
".G c #333431",
".H c #373836",
".I c #383835",
".J c #393a39",
".K c #3e3f3f",
".L c #424342",
".M c #434645",
".N c #464747",
".O c #464946",
".P c #474745",
".Q c #474a4a",
".R c #484944",
".S c #4a4a4a",
".T c #4b504e",
".U c #4c4d4c",
".V c #525350",
".W c #535857",
".X c #555958",
".Y c #565652",
".Z c #575752",
".0 c #5a5e5d",
".1 c #5d5e59",
".2 c #5f605a",
".3 c #5f605d",
".4 c #60625d",
".5 c #646664",
".6 c #6b6c6c",
".7 c #707473",
".8 c #808080",
".9 c #808482",
"#. c #838685",
"## c #878988",
"#a c #8c8f8c",
"#b c #919493",
"#c c #b2d5ed",
"#d c #ffffff",
/* pixels */
".Z.R.I.x.l.i.#.j.t.G.Y.2.1",
".P.F.o.#...........#.z.V.3",
".H.n...................B.4",
".w.#...................#.N",
".k.....L#d#d#d#d#d.L...#.D",
".g...............L#d...#.m",
".#.........8......#d...#.d",
".h.......8#d.....L#d...a.q",
".p.#...8#d#d#d#d#d.L...a.J",
".C.a.#...8#d.........#.f.5",
".O.v.#.#...8.......#.c.S#a",
".T.M.y.b.#.....#.a.f.U##.9",
".W.X.0.Q.E.r.e.u.K.6#b#..7",
".Z.R.I.x.l.i.#.j.t.G.Y.2.1",
".P.F.o.#...........#.z.V.3",
".H.n...................B.4",
".w.#...................#.N",
".k.....s#c#c#c#c#c.s...#.D",
".g...............s#c...#.m",
".#.........A......#c...#.d",
".h.......A#c.....s#c...a.q",
".p.#...A#c#c#c#c#c.s...a.J",
".C.a.#...A#c.........#.f.5",
".O.v.#.#...A.......#.c.S#a",
".T.M.y.b.#.....#.a.f.U##.9",
".W.X.0.Q.E.r.e.u.K.6#b#..7",
".Z.R.I.x.l.i.#.j.t.G.Y.2.1",
".P.F.o.#...........#.z.V.3",
".H.n...................B.4",
".w.#...................#.N",
".k.....................#.D",
".g.......s#c#c#c#c#c.s.#.m",
".#.................s#c.#.d",
".h...........A......#c.a.q",
".p.#.......A#c.....s#c.a.J",
".C.a.#...A#c#c#c#c#c.s.f.5",
".O.v.#.#...A#c.........S#a",
".T.M.y.#.#...A.......###.9",
".W.X.0.Q.E.r.e.u.K.6#b#..7"
};
