/* XPM */
char *repeat_buttons256[] = {
/* width height num_colors chars_per_pixel */
"    13    39       12            1",
/* colors */
". c #000000",
"# c #808080",
"a c #a6caf0",
"b c #2a7faa",
"c c #553f55",
"d c #555f55",
"e c #7f5f55",
"f c #2a1f00",
"g c #2a1f55",
"h c #2a3f55",
"i c #a0a0a4",
"j c #ffffff",
/* pixels */
"dchff...fhddd",
"chf.......fdd",
"hf.........fd",
"f...........c",
"f..cjjjjjc..g",
"........cj..f",
".....#...j...",
"....#j..cj..f",
"f..#jjjjjc..h",
"g...#j......d",
"cf...#.....c#",
"dcf.......c##",
"dddchf.fhei##",
"dchff...fhddd",
"chf.......fdd",
"hf.........fd",
"f...........c",
"f..haaaaah..g",
"........ha..f",
".....b...a...",
"....ba..ha..f",
"f..baaaaah..h",
"g...ba......d",
"cf...b.....c#",
"dcf.......c##",
"dddchf.fhei##",
"dchff...fhddd",
"chf.......fdd",
"hf.........fd",
"f...........c",
"f...........g",
"....haaaaah.f",
".........ha..",
"......b...a.f",
"f....ba..ha.h",
"g...baaaaah.d",
"cf...ba....c#",
"dcf...b....##",
"dddchf.fhei##"
};
