/* XPM */
char *rightside[] = {
/* width height num_colors chars_per_pixel */
"    83    51      249            2",
/* colors */
".. c #040204",
".# c #7c827c",
".a c #344244",
".b c #5c625c",
".c c #c4c2c4",
".d c #1c221c",
".e c #6c726c",
".f c #9ca2ac",
".g c #4c524c",
".h c #8492a4",
".i c #2c322c",
".j c #5c6274",
".k c #74726c",
".l c #4c5264",
".m c #44423c",
".n c #84827c",
".o c #343a34",
".p c #444654",
".q c #747684",
".r c #0c120c",
".s c #94928c",
".t c #242a24",
".u c #545a54",
".v c #646a64",
".w c #848a9c",
".x c #e4e2e4",
".y c #5c6a7c",
".z c #acb2bc",
".A c #343a44",
".B c #141a14",
".C c #9496a4",
".D c #a4aab4",
".E c #545a64",
".F c #444a44",
".G c #848a84",
".H c #647284",
".I c #2c323c",
".J c #747a74",
".K c #748294",
".L c #5c564c",
".M c #242a34",
".N c #64625c",
".O c #54524c",
".P c #444e5c",
".Q c #747e8c",
".R c #6c6e74",
".S c #6c7a8c",
".T c #24221c",
".U c #f4f2f4",
".V c #949eac",
".W c #3c424c",
".X c #d4d2d4",
".Y c #34322c",
".Z c #3c3a34",
".0 c #2c2a24",
".1 c #6c6a64",
".2 c #3c3a44",
".3 c #5c5e64",
".4 c #4c4a44",
".5 c #6c7284",
".6 c #7c7a74",
".7 c #7c8a9c",
".8 c #0c0a04",
".9 c #a4a2a4",
"#. c #8c9aac",
"## c #646674",
"#a c #84828c",
"#b c #14120c",
"#c c #646a74",
"#d c #acaaac",
"#e c #8c8a84",
"#f c #7c8294",
"#g c #5c626c",
"#h c #8c929c",
"#i c #545664",
"#j c #44464c",
"#k c #9c9a94",
"#l c #54565c",
"#m c #4c4e54",
"#n c #7c7e84",
"#o c #24222c",
"#p c #5c5a5c",
"#q c #1c1a24",
"#r c #6c7694",
"#s c #646a84",
"#t c #3c423c",
"#u c #5c665c",
"#v c #4c525c",
"#w c #5c6674",
"#x c #74766c",
"#y c #44463c",
"#z c #84867c",
"#A c #4c4a54",
"#B c #747a94",
"#C c #848e9c",
"#D c #eceaec",
"#E c #343e44",
"#F c #949aa4",
"#G c #545e74",
"#H c #34363c",
"#I c #54564c",
"#J c #fcfafc",
"#K c #9c9eac",
"#L c #dcdadc",
"#M c #34362c",
"#N c #3c3e34",
"#O c #2c2e24",
"#P c #6c6e64",
"#Q c #4c4e44",
"#R c #6c7684",
"#S c #7c7e74",
"#T c #0c0e14",
"#U c #14161c",
"#V c #8c8e84",
"#W c #7c8694",
"#X c #8c96ac",
"#Y c #7c828c",
"#Z c #cccacc",
"#0 c #1c222c",
"#1 c #9ca6b4",
"#2 c #4c5654",
"#3 c #2c3634",
"#4 c #4c5664",
"#5 c #343e3c",
"#6 c #444a54",
"#7 c #747a8c",
"#8 c #bcbabc",
"#9 c #2c2e34",
"a. c #a4a6b4",
"a# c #6c6e84",
"aa c #5c5e74",
"ab c #4c4e64",
"ac c #7c7e94",
"ad c #949694",
"ae c #242e2c",
"af c #545e5c",
"ag c #646e6c",
"ah c #a4aebc",
"ai c #545e6c",
"aj c #444e4c",
"ak c #747e7c",
"al c #646664",
"am c #242624",
"an c #5c5e54",
"ao c #3c4654",
"ap c #3c3e44",
"aq c #1c1e1c",
"ar c #0c0e0c",
"as c #141614",
"at c #646e7c",
"au c #8c96a4",
"av c #3c4644",
"aw c #040604",
"ax c #c4c6c4",
"ay c #e4e6e4",
"az c #2c363c",
"aA c #f4f6f4",
"aB c #d4d6d4",
"aC c #a4a6a4",
"aD c #84868c",
"aE c #24262c",
"aF c #5c5e5c",
"aG c #1c1e24",
"aH c #646e84",
"aI c #eceeec",
"aJ c #fcfefc",
"aK c #dcdedc",
"aL c #7c8284",
"aM c #5c6264",
"aN c #1c2224",
"aO c #6c7274",
"aP c #9ca2b4",
"aQ c #4c5254",
"aR c #2c3234",
"aS c #5c627c",
"aT c #747274",
"aU c #444244",
"aV c #848284",
"aW c #343a3c",
"aX c #74768c",
"aY c #949294",
"aZ c #242a2c",
"a0 c #545a5c",
"a1 c #646a6c",
"a2 c #848aa4",
"a3 c #343a4c",
"a4 c #141a1c",
"a5 c #9496ac",
"a6 c #a4aabc",
"a7 c #545a6c",
"a8 c #444a4c",
"a9 c #848a8c",
"b. c #64728c",
"b# c #747a7c",
"ba c #74829c",
"bb c #646264",
"bc c #545254",
"bd c #444e64",
"be c #747e94",
"bf c #6c6e7c",
"bg c #6c7a94",
"bh c #242224",
"bi c #5c5a54",
"bj c #949eb4",
"bk c #3c4254",
"bl c #343234",
"bm c #3c3a3c",
"bn c #2c2a2c",
"bo c #6c6a6c",
"bp c #1c1a1c",
"bq c #5c5e6c",
"br c #4c4a4c",
"bs c #6c728c",
"bt c #7c7a7c",
"bu c #0c0a0c",
"bv c #64667c",
"bw c #141214",
"bx c #646a7c",
"by c #8c8a8c",
"bz c #7c829c",
"bA c #8c92a4",
"bB c #54566c",
"bC c #9c9a9c",
"bD c #4c4e5c",
"bE c #7c7e8c",
"bF c #3c4244",
"bG c #5c667c",
"bH c #747674",
"bI c #444644",
"bJ c #848684",
"bK c #848ea4",
"bL c #343e4c",
"bM c #949aac",
"bN c #343644",
"bO c #545654",
"bP c #9c9eb4",
"bQ c #343634",
"bR c #3c3e3c",
"bS c #2c2e2c",
"bT c #6c6e6c",
"bU c #4c4e4c",
"bV c #6c768c",
"bW c #7c7e7c",
"bX c #8c8e8c",
"bY c #7c869c",
"bZ c #4c566c",
"b0 c #444a5c",
"b1 c #2c2e3c",
"b2 c #3c3e4c",
/* pixels */
"....................................................................................................................awbpbSbUbHaC#L#JaJaJaJaJaJaJaJaJaJaJaJaJaJaJaJaJaJ",
"................................................................................................................................bpbObC.xaJaJaJaJaJaJaJaJaJaJaJaJaJaJaJ",
"b.bA.w.7bY.7bY.7bY.7bY.7bY.7bY.7bY.7bY.7bY.7bY.7bY.7bY.7bY.7bY.7bY.7bY.7bY.7bY.7bY.7bY.7bY.7bY.7bY.7bY.7bYbYbYbYbYbY.K#BaHa7.WaNaw.....iaVaBaJaJaJaJaJaJaJaJaJaJaJaJaJ",
".HbA.wa2bY.wbY.w.wbY.w.wbY.w.wbY.w.wbY.w.wbY.w.wbY.w.wbY.w.wbY.w.wbY.w.wbY.w.wbY.w.wbY.w.wbY.w.wbY.w.wbY.w.w.7.w.7.wbYbYbYbYbYbebGaoa4....bSbX#DaJaJaJaJaJaJaJaJaJaJaJ",
"bs#X.7bYbYbYa2bYbYa2a2bK#Xa5#XbMbM#X#XbAbKa2a2bYa2bYa2bAbA#XbMbM#Xa5#XbAbKa2a2bYbYa2a2.hbAa5#.a5bM#X#XbAbKa2a2bYa2bzbY.7bYbYbYbzbYbzbs#vaG....bU#8aJaJaJaJaJaJaJaJaJaJ",
"b.aua2a2bY.wbYbYa2bKbAbMbM.VbjbMbMbMa5#XbA.hbK.wa2bA#X#.bMbjbMbjbM#.a5#XbA.hbKa2bKbKbAbMbMbjbjbMbMbM#X#XbAbK.wbYbYbzbYbzbYbzbz.Kbz.Kbabe.H.p#T..bhbCaJaJaJaJaJaJaJaJaJ",
"bs#X.w.7bYbYbYa2bKbA#.bMbAbz.SaH#saHbVbe.wbAbKbK.h#Xa5bMbAbYbVaH#saHbV.K.wbKbK#C.h#XbM#.bK#fbVaH.y.ybsbebYa2.7bYbYbY#f.K#f.Kbebabebebebe#Bbg#G#9..awaV#JaJaJaJaJaJaJaJ",
"bsaubKbYa2bYa2#CbA#XbAbeaH#w.j.j#w#wbvat#s.Sa2bAa5bMaubeaH.j.j.j#w#wbv.y#saXbYbAau#XbA#BaH#Gaa#G.j.j#wbGbvb.#fbYbz#fbabzbebabebebebe#B#Bbg#BbgbxbL....bt#JaJaJaJaJaJaJ",
"bV#XbK.wbY.wa2bK#XbAbVbxaiab#6.W#6bD.EbG.5.5bVa2#.bKbVbGa7#v.p.W.p.P#i#waHaHbVbYbA.wbs.ja7.P#jao#jb0#4.jatbxaH#B.Kbebe.Kbe#Bbe#Bbg#r.SbVbVbVbsbV.H.p....bWaJaJaJaJaJaJ",
"bsaubKa2bY.7bKbA.wbVbx#i.paZ#Ubu..buaNb2bxbV#7bV#faH.j#i.WaEa4bu..buaNapbv#RbsbsbeaH#G#4.WaEa4bu..buaNb2bGa#aHaH.Sbe#B#Bbg#B#rbVbVbVbVbVbVbsb..Hbs.Hao..awbCaJaJaJaJaJ",
"bVbMbK.w.7a2.wa2bebxa7#E#q...............Ibxbea#bxai#4.Abp...............I.y#7#sbxbZ#v.Abp..............aR.HbVaHa#bVbgbVbVbVbVbVbVbsb.bsb..H.5aHaHb.bx.A..bh#8aJaJaJaJ",
"bVbMbAa2a2.7.wbaa##w#6#q........bW.........2bYbebxai.pbp..................bNbe.S.jai.Wbp..................bN#7bV#sb.bsbVbVbVb.bsaHaHaHaHaHaH#saH#s#saH#GaE..bc#DaJaJaJ",
"bVbjaubK.wa2bY#fbVbq.I........bWaJ.#........#g.waH#i#9......................bqbYbx#iae......................a7bebV.5bsbVbs.HaH.HaHaH#saH#sbx.ybGbx.ybxbx.law..byaJaJaJ",
"bVaP#XbKbK.7bYbz#Ra7bp......aVaJaJaJbW......apbAbV.la4......................apbKaHaba4......aJbr..braJ......#H.7#Bb.bsb..HaH#saHbv.ybxbG.ybGbGbG#wbGbGbGbG.A..bSaBaJaJ",
"bVaPbMbAbK.wbYbYbV.E#T..........aJ..........a4.V#7#ibu......................a4aubs#vbu......bUaJbUaJbU......#UbAbebV.HaHaHaHbGbGbGbG.j.j.j.j.j.j#G.j#G.j.jbZas..aVaJaJ",
"bV#1a5bK#Ca2bYbY#7ai............aJ............#1bY#4........................aw.Vbebd..........bUaJbU........awa5.KbsaHaHbx.ybvbG.j#G.j#G#Gaa#G#G#Gai.j#G#Gaaaz..bS.xaJ",
"bVaP#X.ha2.wbYbY#7.j#T..........aJ..........aqa6.w.jar......bWbWbWbWbW......aqaP.Ka7ar......braJbcaJbr......a4bM#f.HaHbxbGbG.j.j#Gaia7a7a7#4a7#ibBa7a7a7aiaiabar..bCaJ",
"bsaPaubK.w.7bYbYbe.5aE......bWaJaJaJbW....aw#A.Da2ataE......aJaJaJaJaJ......a8bPbz#w#0......aJbU..bUaJ......#jbM#faHbv.y.j.j#Ga7aibBbZ#4#4#4.l#4.l#4.lbZ#4#4bZ.M..bOaJ",
".HbMbK.wbYbzbYbz#W#B.P........aVaJaV......ar#Y#1.w#7#6....................ar#n#K.K.5.p....................awb#au#Bat.yaSaa#Ga7a7#4.l#vabab.PbDbd#v.l.l.l#4.l#ibL..bpaK",
"aHa5.7bzbe.Kbebe.S#fbVaW........bW....awar.3.zbjbY.KbVaz................ar.3ah#Xac.S.yaR..............awbu#p#1bYbx#Gaa#Gaia7#4.l.lbD.Pb0.Pb0#6b0b0.P.PbD.P.lbDb0bu..#d",
"bxbKbabebg#B#r#BbVbgbebs.Warawaw..awbuasbba.#1ac.SaHbVa#.Wbuawaw..awbuasaM.fbM#7.HaS.5bv#Ebuawaw..awbubw.3#FbAbfa7aia7bZa7#4.l.P.Pb0.pao.pao.pao.p.p.p#6b0#6b0.PaG..bW",
"bG.K#BbVbsb..5.H.Ha#bV.KbY#cbr#9aqbla0aDah#K.KaS#s#GaH#7.K##a8bSaqbla0#a.D#F#7a7.j#4bG.5#7#g#jbSaqaR#laL#1#ha##4.l#4.l#4.l.PbDb0#6aobk.Wb2.W.W.W.Waoaobkaob0ao.paZ..bO",
".jbgbsaHaHat#sbGbx.ybGbx.Q.wau.Va..Da.aPbAaHbZa7aiaibZ.jbV#W#hbM#K#1.f#F.wbGbD.l#4.lbda7atbE#CbA#K#K#K.C#W.jb0.P.PbDab#v.Pb0#6aobkb2apbLb2a3.Ab2b2apbL.Wb2.Wbkao.I..bl",
"a7aH.y#wbG.j.j.j#Gaaa7.l.laa.5bE#WbeaX#wbdb0bDbd.l#ibZb0bdaibx#7#Y.Q.5aab0.paob0b0bDbDao.p#4###R#7.qat.E.p.Wao.p.paob0b0.pao.Wb2ap.A.AbNbN#HbNazbNbNbN.A.A.A.Aap.I..aq",
".Paaa7#4.l.l.l.l.lbdbDbdb0aobkb2b2b2bLb2.Wbkao.p.Pb0b0#6.pbkb2bLa3.2.A.A.Aa3b2b2.Wbkbk.WbL.AbNbNaz.I.I.IbN#H.A.AbLb2#E.A.AbN.I.Ib1#9.Mae.Maeb1.M#9#9.I#9b1b1.I.I.I..aw",
"ao.lbDb0.Pb0.Pb0#6b0.Pb0#6b0.P.Pb0#6.pbkbk.Wao.p#6#6#6b0#6.pb0#6.paob2b2bL.2.AbLb2b2b2b2b2b2bLb2b2.A.AazbN.I.Ibl.I.Ib1bn.MaE#oaNaNaG#qaG#q#qaGaGaG#0aN#0#oaEaEaEaZ....",
"#e#F.sbXbXbybXbXbX.sad#k#Fad.saYbXbybX#eby#VbybXbXaYadadadadbXby.GbJaVaV.naL.naVbJbJ#ebXbXbJbJ.nbWbt.6btbH.6.q#xaTbTbTalal.NaF#pbibi#IbO#I.ObO#I#I#IbO.L.gbObcbibO..aw",
"#S.sbJ#z.n#z.n#z#e.sadad#e.nbT.Nan.b.1bH#z#e#V#ebX.sadad#e.6#PaF.LbialbT.J.n.n.n.n.G#e.G.n#PaF.O.4.ObO.NbT.k.kbT.1.1.N.Nan.L#I.O.g#Q.4#Q#Q.4.4#Q.4.4bI.4.4#Qbr.gaU..aq",
"bH.n.6bH.6bH.6bt.nbJ.n#P.NbO#IbO.La0bibiaF.1bt.nbJ#e#z.k#pbO.O.ObObc.O.ObO.NbTbH#S.nbH.NbU.4bI.4.4.F.4.4.F.O.b.NanbibObO#I.gbr.4.F#yaU#yaUbIaUbI#y#yaU.mbR#y.4.4.m..bl",
".k#SbH.kaT.kbH.6bW.Jal.L.g.mbRaWbR.mbrbOaFaF.bbH.n.J.N.Obr#tbmbQ.ZbRbI.ObO.ObO.vbH.1bc.4#t.ZblbSblbQbRbI#Q.4.4.L#Ibi#IbUbr.4.F#y.m.m#t.m#NbR#y.m.m.m#NbRbRbRaU.4.Y..bc",
"#PbH#P#P#P.e.kbH.k.NbO.4#H.Tas.8..awaq.YbO.NanbibTbO.ObIbQ.Tbwaw..bu.BbS#QbO#I#QaF.4#yaWbnbp.r.8..awasam.m.FbI.m.4br.F.4#y.m#t.mbR#Nbm#N#N.Z#N#N.Z.o.Z.Z.Z#N#t.4am..bH",
"bo.e.1bo.v.1bobT.NbObI.Yas..............am.OaFbc.ObI#tbSbw..............bh.F.ObIbI.obQam.r..............aqbRbI#tbRbI.m#tbR#N.obQbQ.obQbQ.o.o.obQblbQbQ#MbQ.ZbR#yar...9",
"al.1al.bbbalal.bbObr.obw..................bn.baFbUbIblas..................am.ObU.m.Zbn#b..................aq.4#tbQ.Z.o#NbQbmbQblblblbl#Mbl.YbQ#M.ibSbSbS#MbQbR.Z..as.X",
"aFalaFaFaFaFaF#pbc.maN......................bIbbbUbRaq......................bRbObRaR.B..........bW..........bl.4aWbQbQbQblbS.i.i.ibSbSbS.ibSbSbSbSbSbSbS.Y.o.m.t..bcaA",
"a0aF#p.ua0.ubObO.gaWbw....#taJaJaJaJaJaU....bSbobUbmbw........aJaJaJ........amaFbRbnar........bWaJ.#.........d.gbmbQbSbSbS#ObSbnae#ObS.t.ibSbSbS.0.0aZbn.i.Z.Zar..bXaA",
".uaF.ubObObObObObr.Zaw..............aUaJ....asbH.gbQaw........aUaUaU........bw.vbRbnaw......aVaJaVaJbW......ar#p#tbS.i.ibS.iaZ#O#O.tamaZbnbn#OaZ.0am.tbS.Y.obS..bnaB#J",
"aQ#lbcaQbcaQaQaQa8bQ..........bW......aJ......bW#mbQ....aJaJaJ.................R#5.t......bWaJaVbWaVaJbW......aMaUbSbSaZaZaZ.taEam#OaeaE#OaZam.0am.0.0bSbQ.Zas..aTaA#J",
"bUbOaQbUbUbUbUbU.4aWaw......bWaJ....aUaJ....as.#bc.oaw..#taUaU..............asaO.maZaw......................#bal#tbSaZbSaZ#Obn.taeam#OamaZ.0amaZ.tambn.ibQ.0..am#ZaAaJ",
"bU#I.gbU.g.g.gbUaj.mas....bWaJaJaJaJaJaU....bmbW.u#tas............aJaJaJ....bQ.kbF.iar....aJaJaJaJaJaJaJ....bS.vbRae#ObS#OaZaeam#OaZaE.0.t.0amamambnbSbQblaw...#.U#JaJ",
"bU#2bUbUbrbU.gbc.g.FbS......aVaJ..........awalbWa0.Fbn............aUaUaU..awaFbT.FbQ.d.......................ubb#t.i.iaeaZbS#O.iaZ.t.0aZamaEamamaZaZ.ibQaq..a8#L#JaJaJ",
"#Q.gaj.F#Qaj.gbcbO.gbI.d......bW...........FbXbHanaQ.Faq..................bIbJ.vbUaUbQ.B..................#t.Ja0#tbQ.ibSae.iaZbS.0bSaEam.tam.tbn#ObSbQ.0...d#daA#JaJaJ",
"a8aQ#Qa8a8bU.g#2bUaQ.gbIam............awbU.GbJbTafbObUavam............awbr.#b#aMbUa8bR#3aq............awaUbHbobU#3bSaRbS.i.i.i#9bSae#OaZaE.tbn.t#9#Mbn..awby.U#JaJaJaJ",
"a8.gajbrajbrbUaQ.gaQbOa0aFa8.iasawbpbRboadbJaObOaQa8bObOa0.FbSasawbpbR.vbXbWbTajbI#5.Fa8bU#taZbwawasbmaMbJaOafbRbSaR.iaRbQaRaR#3.ibnaZ.0aZbnaebSbQ#O....aT.UaAaJaJaJaJ",
"ajaQbUajajbUajbU.gbU#2aF.ba1.JaLa9bXbX.GaLaO.ubF.FbRaja0.ba1aObW.G.Ga9bJaka1bU.obR#3bRbUaQ.ba1bH.#bJaLbWaO#ubIaRaR#3bQ#3#HaRaR.i#9aZbSaZaZ#ObSbSam....bT#DaA#JaJaJaJaJ",
"bU#2bUajbUbUajbUajbU.F.gaF.vbTbH.Jb#b#bHalbU.o#tbIbF.Z.Fa0alagaObH.JbH.eaMbI#3bQ#5bQaR#tbUa0al.vbTbT.e.vbOaU#3bQbQaWaWaW.o#HaR#9.ibSaeaZbS#9aZaq..awaTayaA#JaJaJaJaJaJ",
"a8aQbUaja8ajaja8a8a8#j#5apa8#2.3alaM.ua8.o#H#5bRbFbFbFaWaWbI#2aFaM.3aQav#3aRbQaWaWbR#5aRaRbFaj#lafa0ajbRbS#3bQ#3bQbR#5aW.obQbQbQ.i#9bSbS.iam.8...TbJaIaA#JaJaJaJaJaJaJ",
"a8ajaja8a8a8.Fa8.FavavavbRaW#3.ibS#9aRbQazaWbR#E#tavbF#taWbQaRbSaeaeaRaRbQbQaWaW#5#5bRaWbQaRbSaZamaZaZaeaRbQ#3#5#5#5#5aWaW#3aR.i.iaebSamas....bIaCaIaA#J#JaJaJaJaJaJaJ",
"av#QaobIbIavbIaobIavbFbFbRaWaWaWaWaWbQbQ.oaWbRbFavbFbFbF#5aWaW.o#HbQbQbl#3.oaWbRbRapbR#5aWbQbQ#3#3blaR#3aR.oaWbRaWbR#N#H.oaRaR#9bSaNar....ambtaB.U#J#JaJaJaJaJaJaJaJaJ",
"bFa8avavavavavbFbFbFbFbF#5#5aWbQ#3#HazaWaW#5bFbFbFbFbF#t#EaWaWaz#3az#HazaWaW#E.abF.a#E#5aWaz#H#3aRaR#3bQ#H#5aW#5.A#5aW#3aRbSbh.r......ambT.caI.UaA#J#JaJaJaJaJaJaJaJaJ",
"................................................................................................................................bwbrbJ#ZaIaIaA#J#J#JaJaJaJaJaJaJaJaJaJ",
"....................................................................................................................awbw.taU.vaYaxay#D.U.U#J#J#JaJaJaJaJaJaJaJaJaJaJaJ"
};
