/* XPM */
char * rightside[] = {
"83 51 232 2",
"  	c None",
". 	c #000000",
"+ 	c #64728C",
"@ 	c #8C92A4",
"# 	c #848A9C",
"$ 	c #7C8A9C",
"% 	c #7C869C",
"& 	c #748294",
"* 	c #747A94",
"= 	c #646E84",
"- 	c #545A6C",
"; 	c #3C424C",
"> 	c #647284",
", 	c #848AA4",
"' 	c #747E94",
") 	c #5C667C",
"! 	c #3C4654",
"~ 	c #6C728C",
"{ 	c #8C96AC",
"] 	c #848EA4",
"^ 	c #9496AC",
"/ 	c #949AAC",
"( 	c #8492A4",
"_ 	c #8C9AAC",
": 	c #7C829C",
"< 	c #4C525C",
"[ 	c #8C96A4",
"} 	c #949EAC",
"| 	c #949EB4",
"1 	c #74829C",
"2 	c #444654",
"3 	c #6C7A8C",
"4 	c #646A84",
"5 	c #6C768C",
"6 	c #848E9C",
"7 	c #7C8294",
"8 	c #5C6A7C",
"9 	c #6C7A94",
"0 	c #545E74",
"a 	c #2C2E34",
"b 	c #5C6674",
"c 	c #5C6274",
"d 	c #64667C",
"e 	c #646E7C",
"f 	c #74768C",
"g 	c #5C5E74",
"h 	c #646A7C",
"i 	c #343E4C",
"j 	c #545E6C",
"k 	c #4C4E64",
"l 	c #444A54",
"m 	c #4C4E5C",
"n 	c #545A64",
"o 	c #6C7284",
"p 	c #444E5C",
"q 	c #545664",
"r 	c #44464C",
"s 	c #444A5C",
"t 	c #4C5664",
"u 	c #6C7694",
"v 	c #242A2C",
"w 	c #14161C",
"x 	c #0C0A0C",
"y 	c #040204",
"z 	c #1C2224",
"A 	c #3C3E4C",
"B 	c #747A8C",
"C 	c #24262C",
"D 	c #141A1C",
"E 	c #3C3E44",
"F 	c #6C7684",
"G 	c #6C6E84",
"H 	c #343E44",
"I 	c #1C1A24",
"J 	c #2C323C",
"K 	c #343A44",
"L 	c #1C1A1C",
"M 	c #4C566C",
"N 	c #2C3234",
"O 	c #7C7E7C",
"P 	c #3C3A44",
"Q 	c #343644",
"R 	c #5C5E6C",
"S 	c #FCFEFC",
"T 	c #7C827C",
"U 	c #5C626C",
"V 	c #242E2C",
"W 	c #4C5264",
"X 	c #9CA2B4",
"Y 	c #848284",
"Z 	c #4C4A4C",
"` 	c #34363C",
" .	c #0C0E14",
"..	c #4C4E4C",
"+.	c #9CA6B4",
"@.	c #040604",
"#.	c #444E64",
"$.	c #2C363C",
"%.	c #1C1E1C",
"&.	c #A4AABC",
"*.	c #0C0E0C",
"=.	c #545254",
"-.	c #54566C",
";.	c #4C4A54",
">.	c #A4AAB4",
",.	c #444A4C",
"'.	c #9C9EB4",
").	c #1C222C",
"!.	c #242A34",
"~.	c #7C8694",
"{.	c #7C828C",
"].	c #7C7E84",
"^.	c #9C9EAC",
"/.	c #747A7C",
"(.	c #5C627C",
"_.	c #343A3C",
":.	c #5C5E64",
"<.	c #ACB2BC",
"[.	c #A4AEBC",
"}.	c #7C7E94",
"|.	c #5C5A5C",
"1.	c #141614",
"2.	c #646264",
"3.	c #A4A6B4",
"4.	c #5C6264",
"5.	c #9CA2AC",
"6.	c #141214",
"7.	c #949AA4",
"8.	c #6C6E7C",
"9.	c #646A74",
"0.	c #343234",
"a.	c #545A5C",
"b.	c #84868C",
"c.	c #646674",
"d.	c #2C2E2C",
"e.	c #84828C",
"f.	c #54565C",
"g.	c #7C8284",
"h.	c #8C929C",
"i.	c #3C4254",
"j.	c #747E8C",
"k.	c #7C7E8C",
"l.	c #9496A4",
"m.	c #343A4C",
"n.	c #747684",
"o.	c #2C2E3C",
"p.	c #2C2A2C",
"q.	c #24222C",
"r.	c #1C1E24",
"s.	c #8C8A84",
"t.	c #94928C",
"u.	c #8C8E8C",
"v.	c #8C8A8C",
"w.	c #949694",
"x.	c #9C9A94",
"y.	c #949294",
"z.	c #8C8E84",
"A.	c #848A84",
"B.	c #848684",
"C.	c #84827C",
"D.	c #7C7A7C",
"E.	c #7C7A74",
"F.	c #747674",
"G.	c #74766C",
"H.	c #747274",
"I.	c #6C6E6C",
"J.	c #646664",
"K.	c #64625C",
"L.	c #5C5E5C",
"M.	c #5C5A54",
"N.	c #54564C",
"O.	c #545654",
"P.	c #54524C",
"Q.	c #5C564C",
"R.	c #4C524C",
"S.	c #7C7E74",
"T.	c #84867C",
"U.	c #5C5E54",
"V.	c #5C625C",
"W.	c #6C6A64",
"X.	c #6C6E64",
"Y.	c #747A74",
"Z.	c #4C4A44",
"`.	c #74726C",
" +	c #4C4E44",
".+	c #444644",
"++	c #444244",
"@+	c #444A44",
"#+	c #44463C",
"$+	c #44423C",
"%+	c #3C3E3C",
"&+	c #3C423C",
"*+	c #3C3A3C",
"=+	c #343634",
"-+	c #3C3A34",
";+	c #646A64",
">+	c #3C3E34",
",+	c #34322C",
"'+	c #6C726C",
")+	c #24221C",
"!+	c #0C0A04",
"~+	c #141A14",
"{+	c #0C120C",
"]+	c #242624",
"^+	c #343A34",
"/+	c #6C6A6C",
"(+	c #242224",
"_+	c #34362C",
":+	c #14120C",
"<+	c #2C322C",
"[+	c #242A24",
"}+	c #545A54",
"|+	c #1C221C",
"1+	c #2C2E24",
"2+	c #2C2A24",
"3+	c #4C5254",
"4+	c #4C4E54",
"5+	c #6C6E74",
"6+	c #343E3C",
"7+	c #6C7274",
"8+	c #444E4C",
"9+	c #3C4244",
"0+	c #4C5654",
"a+	c #545E5C",
"b+	c #3C4644",
"c+	c #2C3634",
"d+	c #646A6C",
"e+	c #848A8C",
"f+	c #747E7C",
"g+	c #5C665C",
"h+	c #646E6C",
"i+	c #344244",
". . . . . . . . . . . . . . . . . . . . . . . . . . . . . . . . . . . . . . . . . . . . . . . . . . . . . . . . . . . . . . . . . . . . . . . . . . . . . . . . . . . ",
". . . . . . . . . . . . . . . . . . . . . . . . . . . . . . . . . . . . . . . . . . . . . . . . . . . . . . . . . . . . . . . . . . . . . . . . . . . . . . . . . . . ",
"+ @ # $ % $ % $ % $ % $ % $ % $ % $ % $ % $ % $ % $ % $ % $ % $ % $ % $ % $ % $ % $ % $ % $ % $ % $ % $ % % % % % % & * = - ; . . . . . . . . . . . . . . . . . . . . ",
"> @ # , % # % # # % # # % # # % # # % # # % # # % # # % # # % # # % # # % # # % # # % # # % # # % # # % # # $ # $ # % % % % % ' ) ! . . . . . . . . . . . . . . . . . ",
"~ { $ % % % , % % , , ] { ^ { / / { { @ ] , , % , % , @ @ { / / { ^ { @ ] , , % % , , ( @ ^ _ ^ / { { @ ] , , % , : % $ % % % : % : ~ < . . . . . . . . . . . . . . . ",
"+ [ , , % # % % , ] @ / / } | / / / ^ { @ ( ] # , @ { _ / | / | / _ ^ { @ ( ] , ] ] @ / / | | / / / { { @ ] # % % : % : % : : & : & 1 ' > 2 . . . . . . . . . . . . . ",
"~ { # $ % % % , ] @ _ / @ : 3 = 4 = 5 ' # @ ] ] ( { ^ / @ % 5 = 4 = 5 & # ] ] 6 ( { / _ ] 7 5 = 8 8 ~ ' % , $ % % % 7 & 7 & ' 1 ' ' ' ' * 9 0 a . . . . . . . . . . . ",
"~ [ ] % , % , 6 @ { @ ' = b c c b b d e 4 3 , @ ^ / [ ' = c c c b b d 8 4 f % @ [ { @ * = 0 g 0 c c b ) d + 7 % : 7 1 : ' 1 ' ' ' ' * * 9 * 9 h i . . . . . . . . . . ",
"5 { ] # % # , ] { @ 5 h j k l ; l m n ) o o 5 , _ ] 5 ) - < 2 ; 2 p q b = = 5 % @ # ~ c - p r ! r s t c e h = * & ' ' & ' * ' * 9 u 3 5 5 5 ~ 5 > 2 . . . . . . . . . ",
"~ [ ] , % $ ] @ # 5 h q 2 v w x y x z A h 5 B 5 7 = c q ; C D x y x z E d F ~ ~ ' = 0 t ; C D x y x z A ) G = = 3 ' * * 9 * u 5 5 5 5 5 5 ~ + > ~ > ! . . . . . . . . ",
"5 / ] # $ , # , ' h - H I y y y y y y y J h ' G h j t K L y y y y y y y J 8 B 4 h M < K L y y y y y y y N > 5 = G 5 9 5 5 5 5 5 5 ~ + ~ + > o = = + h K . . . . . . . ",
"5 / @ , , $ # 1 G b l I y y y y O y y y y P % ' h j 2 L y y y y y y y y y Q ' 3 c j ; L y y y y y y y y y Q B 5 4 + ~ 5 5 5 + ~ = = = = = = 4 = 4 4 = 0 C . . . . . . ",
"5 | [ ] # , % 7 5 R J y y y y O S T y y y y U # = q a y y y y y y y y y y y R % h q V y y y y y y y y y y y - ' 5 o ~ 5 ~ > = > = = 4 = 4 h 8 ) h 8 h h W . . . . . . ",
"5 X { ] ] $ % : F - L y y y Y S S S O y y y E @ 5 W D y y y y y y y y y y y E ] = k D y y y S Z y Z S y y y ` $ * + ~ + > = 4 = d 8 h ) 8 ) ) ) b ) ) ) ) K . . . . . ",
"5 X / @ ] # % % 5 n  .y y y y y S y y y y y D } B q x y y y y y y y y y y y D [ ~ < x y y y ..S ..S ..y y y w @ ' 5 > = = = ) ) ) ) c c c c c c 0 c 0 c c M . . . . . ",
"5 +.^ ] 6 , % % B j y y y y y y S y y y y y y +.% t y y y y y y y y y y y y @.} ' #.y y y y y ..S ..y y y y @.^ & ~ = = h 8 d ) c 0 c 0 0 g 0 0 0 j c 0 0 g $.. . . . ",
"5 X { ( , # % % B c  .y y y y y S y y y y y %.&.# c *.y y y O O O O O y y y %.X & - *.y y y Z S =.S Z y y y D / 7 > = h ) ) c c 0 j - - - t - q -.- - - j j k . . . . ",
"~ X [ ] # $ % % ' o C y y y O S S S O y y @.;.>., e C y y y S S S S S y y y ,.'.: b ).y y y S ..y ..S y y y r / 7 = d 8 c c 0 - j -.M t t t W t W t W M t t M !.. . . ",
"> / ] # % : % : ~.* p y y y y Y S Y y y y *.{.+.# B l y y y y y y y y y y *.].^.& o 2 y y y y y y y y y y @./.[ * e 8 (.g 0 - - t W < k k p m #.< W W W t W q i . . . ",
"= ^ $ : ' & ' ' 3 7 5 _.y y y y O y y @.*.:.<.| % & 5 $.y y y y y y y y *.:.[.{ }.3 8 N y y y y y y y @.x |.+.% h 0 g 0 j - t W W m p s p s l s s p p m p W m s . . . ",
"h ] 1 ' 9 * u * 5 9 ' ~ ; *.@.@.y @.x 1.2.3.+.}.3 = 5 G ; x @.@.y @.x 1.4.5./ B > (.o d H x @.@.y @.x 6.:.7.@ 8.- j - M - t W p p s 2 ! 2 ! 2 ! 2 2 2 l s l s p . . . ",
") & * 5 ~ + o > > G 5 & % 9.Z a %.0.a.b.[.^.& (.4 0 = B & c.,.d.%.0.a.e.>.7.B - c t ) o B U r d.%.N f.g.+.h.G t W t W t W p m s l ! i.; A ; ; ; ; ! ! i.! s ! 2 v . . ",
"c 9 ~ = = e 4 ) h 8 ) h j.# [ } 3.>.3.X @ = M - j j M c 5 ~.h./ ^.+.5.7.# ) m W t W #.- e k.6 @ ^.^.^.l.~.c s p p m k < p s l ! i.A E i A m.K A A E i ; A ; i.! J . . ",
"- = 8 b ) c c c 0 g - W W g o k.~.' f b #.s m #.W q M s #.j h B {.j.o g s 2 ! s s m m ! 2 t c.F B n.e n 2 ; ! 2 2 ! s s 2 ! ; A E K K Q Q ` Q $.Q Q Q K K K K E J . . ",
"p g - t W W W W W #.m #.s ! i.A A A i A ; i.! 2 p s s l 2 i.A i m.P K K K m.A A ; i.i.; i K Q Q $.J J J Q ` K K i A H K K Q J J o.a !.V !.V o.!.a a J a o.o.J J J . . ",
"! W m s p s p s l s p s l s p p s l 2 i.i.; ! 2 l l l s l 2 s l 2 ! A A i P K i A A A A A A i A A K K $.Q J J 0.J J o.p.!.C q.z z r.I r.I I r.r.r.).z ).q.C C C v . . ",
"s.7.t.u.u.v.u.u.u.t.w.x.7.w.t.y.u.v.u.s.v.z.v.u.u.y.w.w.w.w.u.v.A.B.Y Y C.g.C.Y B.B.s.u.u.B.B.C.O D.E.D.F.E.n.G.H.I.I.J.J.K.L.|.M.M.N.O.N.P.O.N.N.N.O.Q.R.O.=.M.O.. . ",
"S.t.B.T.C.T.C.T.s.t.w.w.s.C.I.K.U.V.W.F.T.s.z.s.u.t.w.w.s.E.X.L.Q.M.J.I.Y.C.C.C.C.A.s.A.C.X.L.P.Z.P.O.K.I.`.`.I.W.W.K.K.U.Q.N.P.R. +Z. + +Z.Z. +Z.Z..+Z.Z. +Z R.++. . ",
"F.C.E.F.E.F.E.D.C.B.C.X.K.O.N.O.Q.a.M.M.L.W.D.C.B.s.T.`.|.O.P.P.O.=.P.P.O.K.I.F.S.C.F.K...Z..+Z.Z.@+Z.Z.@+P.V.K.U.M.O.O.N.R.Z Z.@+#+++#+++.+++.+#+#+++$+%+#+Z.Z.$+. . ",
"`.S.F.`.H.`.F.E.O Y.J.Q.R.$+%+_.%+$+Z O.L.L.V.F.C.Y.K.P.Z &+*+=+-+%+.+P.O.P.O.;+F.W.=.Z.&+-+0.d.0.=+%+.+ +Z.Z.Q.N.M.N...Z Z.@+#+$+$+&+$+>+%+#+$+$+$+>+%+%+%+++Z.,+. . ",
"X.F.X.X.X.'+`.F.`.K.O.Z.` )+1.!+y @.%.,+O.K.U.M.I.O.P..+=+)+6.@.y x ~+d. +O.N. +L.Z.#+_.p.L {+!+y @.1.]+$+@+.+$+Z.Z @+Z.#+$+&+$+%+>+*+>+>+-+>+>+-+^+-+-+-+>+&+Z.%.. . ",
"/+'+W./+;+W./+I.K.O..+,+1.y y y y y y y ]+P.L.=.P..+&+d.6.y y y y y y y (+@+P..+.+^+=+]+{+y y y y y y y %.%+.+&+%+.+$+&+%+>+^+=+=+^+=+=+^+^+^+=+0.=+=+_+=+-+%+#+. . . ",
"J.W.J.V.2.J.J.V.O.Z ^+6.y y y y y y y y y p.V.L....+0.1.y y y y y y y y y ]+P...$+-+p.:+y y y y y y y y y %.Z.&+=+-+^+>+=+*+=+0.0.0.0._+0.,+=+_+<+d.d.d._+=+%+-+. . . ",
"L.J.L.L.L.L.L.|.=.$+z y y y y y y y y y y y .+2...%+%.y y y y y y y y y y y %+O.%+N ~+y y y y y O y y y y y 0.Z._.=+=+=+0.d.<+<+<+d.d.d.<+d.d.d.d.d.d.d.,+^+$+[+. . . ",
"a.L.|.}+a.}+O.O.R._.6.y y &+S S S S S ++y y d./+..*+6.y y y y S S S y y y y ]+L.%+p.*.y y y y O S T y y y y |+R.*+=+d.d.d.1+d.p.V 1+d.[+<+d.d.d.2+2+v p.<+-+-+. . . . ",
"}+L.}+O.O.O.O.O.Z -+@.y y y y y y y ++S y y 1.F.R.=+@.y y y y ++++++y y y y 6.;+%+p.@.y y y Y S Y S O y y y *.|.&+d.<+<+d.<+v 1+1+[+]+v p.p.1+v 2+]+[+d.,+^+d.. . . . ",
"3+f.=.3+=.3+3+3+,.=+y y y y y O y y y S y y y O 4+=+y y S S S y y y y y y y y 5+6+[+y y y O S Y O Y S O y y y 4.++d.d.v v v [+C ]+1+V C 1+v ]+2+]+2+2+d.=+-+. . . . . ",
"..O.3+..........Z._.@.y y y O S y y ++S y y 1.T =.^+@.y &+++++y y y y y y y 1.7+$+v @.y y y y y y y y y y y :+J.&+d.v d.v 1+p.[+V ]+1+]+v 2+]+v [+]+p.<+=+2+. . . . . ",
"..N.R...R.R.R...8+$+1.y y O S S S S S ++y y *+O }+&+1.y y y y y y S S S y y =+`.9+<+*.y y S S S S S S S y y d.;+%+V 1+d.1+v V ]+1+v C 2+[+2+]+]+]+p.d.=+0.. . . . . . ",
"..0+....Z ..R.=.R.@+d.y y y Y S y y y y y @.J.O a.@+p.y y y y y y ++++++y @.L.I.@+=+|+y y y y y y y y y y y }+2.&+<+<+V v d.1+<+v [+2+v ]+C ]+]+v v <+=+. . . . . . . ",
" +R.8+@+ +8+R.=.O.R..+|+y y y O y y y y y @+u.F.U.3+@+%.y y y y y y y y y .+B.;+..++=+~+y y y y y y y y y &+Y.a.&+=+<+d.V <+v d.2+d.C ]+[+]+[+p.1+d.=+2+. . . . . . . ",
",.3+ +,.,...R.0+..3+R..+]+y y y y y y @...A.B.I.a+O...b+]+y y y y y y @.Z T /.4...,.%+c+%.y y y y y y @.++F./+..c+d.N d.<+<+<+a d.V 1+v C [+p.[+a _+p.. . . . . . . . ",
",.R.8+Z 8+Z ..3+R.3+O.a.L.,.<+1.@.L %+/+w.B.7+O.3+,.O.O.a.@+d.1.@.L %+;+u.O I.8+.+6+@+,...&+v 6.@.1.*+4.B.7+a+%+d.N <+N =+N N c+<+p.v 2+v p.V d.=+1+. . . . . . . . . ",
"8+3+..8+8+..8+..R...0+L.V.d+Y.g.e+u.u.A.g.7+}+9+@+%+8+a.V.d+7+O A.A.e+B.f+d+..^+%+c+%+..3+V.d+F.T B.g.O 7+g+.+N N c+=+c+` N N <+a v d.v v 1+d.d.%.. . . . . . . . . . ",
"..0+..8+....8+..8+..@+R.L.;+I.F.Y././.F.J...^+&+.+9+-+@+a.J.h+7+F.Y.F.'+4..+c+=+6+=+N &+..a.J.;+I.I.'+;+O.++c+=+=+_._._.^+` N a <+d.V v d.a v . . . . . . . . . . . . ",
",.3+..8+,.8+8+,.,.,.r 6+E ,.0+:.J.4.}+,.^+` 6+%+9+9+9+_._..+0+L.4.:.3+b+c+N =+_._.%+6+N N 9+8+f.a+a.8+%+d.c+=+c+=+%+6+_.^+=+=+=+<+a d.d.<+%.. . . . . . . . . . . . . ",
",.8+8+,.,.,.@+,.@+b+b+b+%+_.c+<+d.a N =+$._.%+H &+b+9+&+_.=+N d.V V N N =+=+_._.6+6+%+_.=+N d.v ]+v v V N =+c+6+6+6+6+_._.c+N <+<+V d.%.. . . . . . . . . . . . . . . ",
"b+ +! .+.+b+.+! .+b+9+9+%+_._._._._.=+=+^+_.%+9+b+9+9+9+6+_._.^+` =+=+0.c+^+_.%+%+E %+6+_.=+=+c+c+0.N c+N ^+_.%+_.%+>+` ^+N N a d.. . . . . . . . . . . . . . . . . . ",
"9+,.b+b+b+b+b+9+9+9+9+9+6+6+_.=+c+` $._._.6+9+9+9+9+9+&+H _._.$.c+$.` $._._.H i+9+i+H 6+_.$.` c+N N c+=+` 6+_.6+K 6+_.c+N d.. . . . . . . . . . . . . . . . . . . . . ",
". . . . . . . . . . . . . . . . . . . . . . . . . . . . . . . . . . . . . . . . . . . . . . . . . . . . . . . . . . . . . . . . . . . . . . . . . . . . . . . . . . . ",
". . . . . . . . . . . . . . . . . . . . . . . . . . . . . . . . . . . . . . . . . . . . . . . . . . . . . . . . . . . . . . . . . . . . . . . . . . . . . . . . . . . "};
