/* XPM */
char *rightside256[] = {
/* width height num_colors chars_per_pixel */
"    83    51       28            1",
/* colors */
". c #000000",
"# c #808080",
"a c #c0dcc0",
"b c #2a5f55",
"c c #551f00",
"d c #553f00",
"e c #553f55",
"f c #553faa",
"g c #555f55",
"h c #555faa",
"i c #557f55",
"j c #557faa",
"k c #7f5f55",
"l c #7f7f55",
"m c #7f7faa",
"n c #7f9faa",
"o c #aa9faa",
"p c #aabfaa",
"q c #d4dfff",
"r c #ffdfff",
"s c #2a0000",
"t c #2a1f00",
"u c #2a1f55",
"v c #2a3f00",
"w c #2a3f55",
"x c #fffbf0",
"y c #a0a0a4",
"z c #ffffff",
/* pixels */
"...........................................................tug#yazzzzzzzzzzzzzzzzzz",
"................................................................tgyqxzzzzzzzzzzzzzz",
"#nnmmmmmmmmmmmmmmmmmmmmmmmmmmmmmmmmmmmmmmmmmmmmmmmmmmmmmmmmm#gwu...v#azzzzzzzzzzzzz",
"#mm#n#n#n#n#n#n#n#n#n#n#n#n#n#n#n#n#n#n#n#n#n#n#n#n#n#n#n#m#mmm##wt..u#xzzzzzzzzzzz",
"hymmmmmmmmmnmynynynmnmmmmmmnmynynynmnmmmmmmnmynynynnmmmmmmnmm#mmmmjeu..epzzzzzzzzzz",
"#nm#n#m#nnyyynonymyymyn#nnyyynonymyymyn#nnyyynonymymyn#n#m##mm##m#m##wt.tyzzzzzzzzz",
"hynmmmnmmmnnmm##h#j#nmmnmynnmm##h#j#nmmnmmnnmm#h#h#m#mmmmmm#m#mj#m#j#mgu..#xzzzzzzz",
"#nmm#m#mnyym#ghggg#g##nmyymm#ghggg#gh#nmyymm#gggggggh###m##m#jm#j#j#j#j#w..#zzzzzzz",
"#mn#nmnnym#ggeeweegh#h#mnm#ggewewegh#g#mnm#ggeweweghih#j#mj#j##j###h#h##he..#zzzzzz",
"jymmm#mmm#hgwwt...uwg###m#ggwut...uwgm###hggwut...uwg#h###m##j##hj####h##je..yzzzzz",
"#ynnmnmn##gwt.......u#j#hggwt.......wg#h#gewt.......u##gh#j#j#h##h#h#h#ghg#w.tpzzzz",
"hymm#mm#hgwt....#....w#mggwu.........wj#ggwt.........u#j#h#h#h##h#hih#gh##hgu.exzzz",
"#nynmn#m#gw....#z#....gm#gu...........gmhgu...........gm##h###hg#g#h#ghihgg#e..#zzz",
"#ynmnmm#jgt...#zzz#...wnhgt...........wyggt...ze.gz...w#j##hgh#hghgghg#ggh#ghw.wazz",
"hyyyn#mm#g......z.....ty#g............tnje....gzeze...tm#hg#j#gg#gh#gghghgghggt.#zz",
"#onmmmnm#h......z......ymg.............ymg.....ezg.....nm##hgghhghggghgggghgggw.tqz",
"jynmn#m##g......z.....tomg....#####...tnmg....ezeze...tnm#hg#hggggghggghgggghge..yx",
"#ynmmnmmm#u...#zzz#...gonhw...zzzzz...eomhu...zg.gz...ey#hihgghghggegegegfggeghw.gz",
"hyn#m#m#m#g....#z#....mom#e...........#n#ie...........#nmg#ghgggegebebebebgeggew.tq",
"#nmm#m#j#j#w....#...tgpnm##w........tgon#mgw.........gymghghgggggebegewegeebebeg..o",
"gm#m#j####m#w......tgoom#h##w......tgoym#gjge......tgon#gggggehwebewwwewwweweebeu.#",
"h#m#j#h#h#h#m#ewtwgmpnmg#gh###ewtwgmon#ghg###gewtwgmon#wgegegbegweweweweewewbeewt.g",
"g#jghg#ghgg###nyoooyyhgghgggj#myyoyynhwegewb#m#nyyyymgweebebeeewewwwewwwwwwwewwew.w",
"ghg#ghghgghbeg##m#j#weebeggeeg###m#gweebebeewgg####geweebebeewwwwwewwwwwewwewwwww.t",
"eggegggeggeewwwwwwewwewewewbwwwwwwwwwwwewewwwwwwuuuwwwwwwwewwwwwtwtuttuttwtuvuvuv..",
"wggwewebewgwgegeewewewebebeeeeewewewewwwewewewewwwwtwuvuwuututtuttututtutututuutu..",
"#ymy#y#y#yyyyny#y######y#ynyyny##################l##l###kli#ggggggggggggggggggggg..",
"#y#########y##kgggl###y###y###kggggkl#####y##lggeegg#k#glggggggegeeeeweeeweeweege.t",
"###########lgggggggggl###y#lggggggggggl###lggeeeegeewgggggggegegewvewewdwdwdeveew.w",
"k#lglg####ggeewweeegggg##lggewwteweegegg#ggewvwvvwveeeegggegeewdweeveveweewwewegv.e",
"i#g#k#gl#ggewtt...tuggggkgeewtt...tveggegeevut....ttdbeeeeeeevewevwwewvevwdwveveu.#",
"gk#gggg#ggett.......tegggewtt.......tegeewvut.......twdwvbevwevwvwdwvvevwvuvevwe..y",
"g#gg#g#geewt.........wggewvt.........tgevwt..........tewevwevwwtwuwtwuwwtuvuvwev.ta",
"gggggggggwt...........egget...........wgevu.....#.....wewuvwuvuvuvtwtvtuvuvuuvet.gr",
"ggggggggee...ezzzzze..ulew.....zzz....tgwu.....#z#....tgevwtvtwtwtwtwuwtwtutvww..#x",
"gggegegegw........wz...#gw.....ewe....tgev....#z#z#....gvutwuwtuvtututtwttuvuev.tqz",
"egeggeggwv.....#...z...#ev..zzz........#wt...#z###z#...gewtuttwtuwtwvuvutwtwvws.#xx",
"gggegeegew....#z..ez..t#gw..ewe.......tgeu............tgwtwvuvuvttwtutututwtwt.uaxz",
"egegegwgeet..#zzzzxe..w#get......zzz..w#wv...zzzzzzz..wgevutwtutwututwttvutww..#rzz",
"gebebegegbu...#z......g#gwu......ewe..ggewu...........gkwuvwtuvwttuvuttwuuvwt.eaxzz",
"egeeegggeeet...#.....eylgget.........e#lewvt.........e#gwvutwvutwuvutwutvtwt.tpzzzz",
"wgbebeegggbet.......g##ggggwt.......g##ggewwt.......eigewvwtwtwuvtuvutvuwwt..mxxzzz",
"geegebebeegggewt.tegy##ggwgggewt.teg##gweveeewut.twg##gwtwuwtwwvuvutwtutwt..#xzzzzz",
"egbewgegebgggg##m#n##ggwewegggi##n###ggewwwbggg######gevwvwvwvutwutwtuvwt..kqxxzzzz",
"gegegebegeegg#g#####ggwewdwegg#####igewvwvveeggg#g#ggwwuwwdwwwvwtwtuvwtt..#qxxzzzzz",
"wgwgweebebwwwegggggewwvwewwwweegggeewvuwewwvwwggggewtwvwdwwwcwuvwtwtut..u#xxzzzzzzz",
"egewgebeweeevwuvuwtwvewdwwdevwvutuvwtwwvwvewuvututuvwtwwwwdwwvwuvuvut..eyqxxzzzzzzz",
"webdewwdbevwewvwwvwwuwwwwewwwwwwwwwtwwvewewwvwvwwwvwuwwdwdwwvwuvut...u#axxxzzzzzzzz",
"wewwwewewwwewvwevuwveveewdwevevwvwvwwdwwwwvewwuwtwuvwdwwwwwtwttt...ulpxxzxzzzzzzzzz",
"................................................................te#arxxzzzzzzzzzzzz",
"...........................................................tte#maqxxxqzxzzzzzzzzzzz"
};
