/* XPM */
char *shuffle_buttons[] = {
/* width height num_colors chars_per_pixel */
"    13    39       66            2",
/* colors */
".. c #000000",
".# c #010101",
".a c #020202",
".b c #030303",
".c c #040404",
".d c #060606",
".e c #060706",
".f c #070707",
".g c #080808",
".h c #0a0a09",
".i c #121212",
".j c #131312",
".k c #131313",
".l c #141514",
".m c #151615",
".n c #161616",
".o c #161717",
".p c #184766",
".q c #191917",
".r c #1a1b1a",
".s c #1e1f1f",
".t c #1f211f",
".u c #20201e",
".v c #222322",
".w c #242626",
".x c #252623",
".y c #272827",
".z c #2a2c2b",
".A c #2d2e2c",
".B c #2e2f2c",
".C c #2e302f",
".D c #333432",
".E c #353533",
".F c #353635",
".G c #3c3d3d",
".H c #3c3e3e",
".I c #404544",
".J c #414240",
".K c #424342",
".L c #454541",
".M c #454745",
".N c #454945",
".O c #464847",
".P c #474946",
".Q c #484a49",
".R c #4a4f4d",
".S c #4d4e48",
".T c #50504a",
".U c #505554",
".V c #51534f",
".W c #52534c",
".X c #52544f",
".Y c #525756",
".Z c #55564f",
".0 c #575c5a",
".1 c #5e5f5e",
".2 c #676a69",
".3 c #676c6a",
".4 c #777a79",
".5 c #7b7f7e",
".6 c #7f8281",
".7 c #828582",
".8 c #8b8e8d",
".9 c #b2d5ed",
"#. c #fefefe",
"## c #ffffff",
/* pixels */
".T.L.E.u.j.g.#.h.q.B.S.Z.W",
".J.A.l.#...........#.v.P.V",
".D.l...................x.X",
".s.#...................#.H",
".i........######.......#.y",
".g.........K.K.K.......#.k",
".#..#.####.............#.c",
".g...K.K.K.............a.n",
".m............######...a.F",
".z.#.#.........K.K.K.#.e.1",
".N.t.#.#...........#.c.M.7",
".R.I.w.b.#.....#.a.f.Q.6.4",
".U.Y.0.O.C.o.d.r.G.2.8.5.3",
".T.L.E.u.j.g.#.h.q.B.S.Z.W",
".J.A.l.#...........#.v.P.V",
".D.l...................x.X",
".s.#...................#.H",
".i.........9.9.9.......#.y",
".g.........p.p.p.......#.k",
".#...9.9.9.............#.c",
".g...p.p.p.............a.n",
".m.............9.9.9...a.F",
".z.#.#.........p.p.p.#.e.1",
".N.t.#.#...........#.c.M.7",
".R.I.w.b.#.....#.a.f.Q.6.4",
".U.Y.0.O.C.o.d.r.G.2.8.5.3",
".T.L.E.u.j.g.#.h.q.B.S.Z.W",
".J.A.l.#...........#.v.P.V",
".D.l...................x.X",
".s.#.l.................#.H",
".i...#.................#.y",
".g...........9.9.9.....#.k",
".#...........p.p.p.....#.c",
".g.....9.9.9...........a.n",
".m.....p.p.p...........a.F",
".z.#.............9.9.9.e.1",
".N.t.#.#.........p.p.p.M.7",
".R.I.w.b.#.....#.a.f.Q.6.4",
".U.Y.0.O.C.o.d.r.G.2.8.5.3"
};
