/* XPM */
char *shuffle_buttons256[] = {
/* width height num_colors chars_per_pixel */
"    13    39        9            1",
/* colors */
". c #000000",
"# c #808080",
"a c #a6caf0",
"b c #553f55",
"c c #555f55",
"d c #2a1f00",
"e c #2a1f55",
"f c #2a3f55",
"g c #ffffff",
/* pixels */
"cbfdd...debcc",
"bed.......dbc",
"fd.........dc",
"d...........f",
".....ggg....d",
".....bbb....d",
"..ggg........",
"..bbb.......d",
"d......ggg..f",
"e......bbb..c",
"bd.........b#",
"bbd.......b##",
"cccbfd.dfc##c",
"cbfdd...debcc",
"bed.......dbc",
"fd.........dc",
"d...........f",
".....aaa....d",
".....fff....d",
"..aaa........",
"..fff.......d",
"d......aaa..f",
"e......fff..c",
"bd.........b#",
"bbd.......b##",
"cccbfd.dfc##c",
"cbfdd...debcc",
"bed.......dbc",
"fd.........dc",
"d.d.........f",
"............d",
"......aaa...d",
"......fff....",
"...aaa......d",
"d..fff......f",
"e.......aaa.c",
"bd......fffb#",
"bbd.......b##",
"cccbfd.dfc##c"
};
