/* XPM */
static char *small_font256[] = {
/* width height num_colors chars_per_pixel */
"     8   1200       24            1",
/* colors */
". c #808080",
"# c #c0dcc0",
"a c #285c50",
"b c #503c00",
"c c #503c50",
"d c #505c50",
"e c #507c50",
"f c #785c50",
"g c #787c50",
"h c #787ca8",
"i c #789c50",
"j c #789ca8",
"k c #a89c50",
"l c #a89ca8",
"m c #a8bca8",
"n c #d0bca8",
"o c #d0dca8",
"p c #281c00",
"q c #281c50",
"r c #283c00",
"s c #283c50",
"t c #f8f8f0",
"u c #a0a0a0",
"v c #f8fcf8",
/* pixels */
"nnnnvvvv",
"uuuuvvvv",
"nnnnvvvv",
"uuuuvvvv",
"mnlnvvvv",
"nnnnvvvv",
"uuuuvvvv",
"nnnnvvvv",
"mnl#vvvv",
".p.vvvvv",
"nrnvvvvv",
"fpdvvvvv",
"urltvvvv",
"n.nvvvvv",
".p.vvvvv",
"n.nvvvvv",
"gu.#tvvv",
"pfp.vvvv",
"dndnvvvv",
".g..vvvv",
"mlnmtvvv",
"nnnnvvvv",
"uuuuvvvv",
"nnnnvvvv",
"mnmn#ttv",
"uld.flvv",
"ngdn.nvv",
"dcrcqgvv",
"gdcgdltv",
"ndud.ntv",
".cdc.utv",
"nnnnnnvv",
"mn.ln#vv",
"udpc.vvv",
"dndnltvv",
"pdcf.tvv",
"udcd.tvv",
"nndn.tvv",
"spprgvvv",
"nndnnvvv",
"u.fuu#t#",
"rdrd.s.l",
"cnnd.nnn",
"rfscddfl",
"udgffcec",
"nn.dgdnd",
"uucc.rps",
"nn..n...",
"m..uuun#",
"csdpuuvv",
"dfnsuntv",
"dprcduvv",
"c.fdckvv",
"sg.gdnvv",
"dpqrdrvv",
"nnnnnnvv",
".un###tv",
"p.vvvvvv",
"duvvtvvv",
"g.vvvtvv",
"mnvvvvtv",
"nnvvvtvv",
"uuvvvvtv",
"nnvvvtvv",
"mn#mttvv",
"u.pdvtvv",
"ndg.vtvv",
".p..vvtv",
".c.mvvtv",
"ucunvvtv",
".rduvvtv",
"u.cmvvvv",
"...gvvvv",
"dp.uvvvv",
".gdmvvvv",
"..p.vvvv",
"m.c.tvvv",
"nucuvvvv",
"udr.vvvv",
"mc.uvvvv",
"g.gutvvv",
"cdpcmvvv",
".csd#vvv",
"sdrblvvv",
"..g.nvvv",
"nnlmtvvv",
"uuul#vvv",
"nmnn#ttv",
"mmnl#ttv",
"lu..luvv",
"nm.gnmvv",
"uudcuuvv",
"gfdcd.vv",
"l.gd.mvv",
"..dcu.vv",
"#n..mnvv",
"mmml##vv",
"ullutttv",
"nnmnvvvv",
"uuuuvvvv",
"mmnmvvvv",
"nugmvvvv",
".cs.vvvv",
"mdglvvvv",
"ugmuvvvv",
"uuuuvvvv",
"nmnmvvvv",
"uuuuvvvv",
"gfeuvvvv",
"lllmvvvv",
"uuuuvvvv",
"nmnnvvvv",
"mnu#vvvv",
"ullvvvvv",
"n#nvvvvv",
"uuuvvvvv",
"mmmvvvvv",
"glnvvvvv",
"pduvvvvv",
"..mvvvvv",
"uun#tvvv",
"uu.p#tvv",
"nmdenvvv",
"u.pf#vvt",
"mdd.nvvv",
"ud.mvvvt",
"dr.lnvvv",
"d.umtvvt",
"...u#vvt",
"crdp.tvt",
"c..f.vvv",
"pg.ddvvv",
"sgugdvvv",
"cgld.vvv",
"dpqr.vvv",
"....uvvv",
"muuumvvv",
"drc.#vvv",
"dcdmtvvv",
"gcc.nvvv",
"ucdu#ttv",
"uddmtvtv",
"rpprnvvv",
".u..#vvv",
"u...nvvv",
"cscp.vvv",
"...d.vvv",
"...rfvvv",
"m.dduvvv",
"gc..mvvv",
"pprr.vvv",
".j..uvvv",
"u.guutvv",
"scdp.vvv",
"...d.vvv",
".gsbgvvv",
"mugdgvvv",
"umld.vvv",
"rpps.vvv",
".u..uvvv",
"uuuuuvvv",
"uugp.tvv",
"nucd.vvv",
".rdrfvvv",
"cacbdvvv",
"..ld.vvv",
"..gsfvvv",
"nml.jvvv",
"u...utvv",
"rsdd.tvv",
"cg..mtvv",
"ppsduvvv",
"...b.vvv",
"umuc.vvv",
"rpps.vvv",
"u...mvvv",
"uu..utvv",
".pcd.tvv",
"de..mvvv",
"pcrc.vvv",
"sf.fgvvv",
"dfmefvvv",
"drqp.vvv",
"u...jvvv",
"u.kuutvv",
"crcscvvv",
"...d.vvv",
"..gpgvvv",
"mucduvvv",
"mdd.nvvv",
".pd.uvvv",
"u..mnvvv",
"uu..mvvv",
"dpdcgvvv",
"cg...vvv",
"dpsbfvvv",
"cd.ddvvv",
"cgu.fvvv",
"dpprfvvv",
"..j.uvvv",
"m.guuvvv",
"csdp.vvv",
"r....vvv",
"pf.gctvv",
"gdfddvvv",
"l..d.vvv",
"grpc.vvv",
"uu..uvvv",
"uun#nvvv",
"uuvvvvvv",
"guvvvvvv",
"pdvvvvvv",
"..vvvvvv",
".mvvvvvv",
"pdvvvvvv",
"..vvvvvv",
"uutvvvvv",
"uuuvvvvv",
"..nvvvvv",
"cr.vvvvv",
"..uvvvvv",
"m.nvvvvv",
"cr.vvvvv",
"d.lvvvvv",
".uut#vvv",
"uuuulvvv",
"nmnlgvvv",
"ugsrfvvv",
"dcd..vvv",
"..gd.vvv",
"...gdvvv",
"n#luutvv",
"unlnu#vv",
"uuuuulvv",
"n#nmnmvv",
"dcddduvv",
"fdddflvv",
"gf.ggmvv",
".efd..vv",
"mmmmmnvv",
"mnmnl#vv",
"ullluvvv",
"d.mnnvvv",
"dcpduvvv",
"u.gcdvvv",
"gcd..vvv",
"cegguvvv",
"u.lmnvvv",
"mu..lvvv",
".sdcdtvv",
"m...gvvv",
"u..dcvvv",
"mldf.vvv",
"nu..#vvv",
"u.rflvvv",
"nmuumvvv",
"mmugu#t#",
"ucrccb.l",
"gd.dd.cm",
"p.rccfrg",
"c.qgd.df",
"d.dddfd.",
"dpddddd.",
"..dcd.lm",
"mu..uu##",
"uuppuutv",
"n.cd.mvv",
"usrdduvv",
".cdddnvv",
"dd..fltv",
"pd.gcgvv",
"..mm.uvv",
"u.uuumvv",
"pscp.utv",
"r..e.nvv",
"pddrglvv",
"sfgdd#tv",
"s.l.flvv",
"pqrrduvv",
"....unvv",
"uu..uuvv",
".pcdb.vv",
"dd...lvv",
"pd....vv",
"sglnmmvv",
"ddunumvv",
"gcprrlvv",
"u....lvv",
"u.ujluvv",
"pcrrdlvv",
"r.u.dmvv",
"pg..ddvv",
"s.muffvv",
"s.nmd.vv",
"ppspf.vv",
"....umvv",
"u...u#vv",
"pcbdgvvv",
"s...lvvv",
"psdcgvvv",
"r.f..vvv",
"s.mmnvvv",
"ppsp.vvv",
"....uvvv",
"u..umvvv",
"pcsbmvvv",
"r...#vvv",
"pddfnvvv",
"sfgf#vvv",
"s.umtvtv",
"pgul#vvv",
".umn#vtv",
"uuu.##tt",
".rcdcclv",
"dd....mv",
"pf....uv",
"sgu.dfuv",
"dclmgdmv",
"gcrpsd.v",
"u.....mv",
"uuuuuu#v",
"p.u.dutv",
"s.nmduvv",
"pcdcc.vv",
"sgggcutv",
"s.mlduvv",
"pgu.c.vv",
".unm.mvv",
"uu.nm#vv",
"spd.vvvv",
".r.mvvvv",
".p.uvvvv",
".sgmvvvv",
".s.nvvvv",
"ppruvvvv",
"...uvvvv",
"u..mtvvv",
"gcpd#tvv",
"u.cgtvvv",
"ugrd#tvv",
"m.cf#ttv",
"nuc.#tvv",
"pprf#vtv",
".j.u#vvt",
"ukl#ltvt",
"p.ldcvvv",
"s.gcutvv",
"pdpd.vvv",
"rcddmvvv",
"s..c.vvv",
"pgfectvv",
".um..vvv",
"uumnmvvv",
"p.lunvvv",
"sunmtvvv",
"peul#vvv",
"sgmn#tvv",
"s.nmttvv",
"ppsrlvvv",
"....#vvv",
"u.ulnntv",
"pr.usclv",
"sd.mdduv",
"pdrdcr.v",
"sgdcdduv",
"s...gdmv",
"pg.lfb.v",
".u#nu.mv",
"ujnuuu#v",
"ppl.duvv",
"sdglduvv",
"pdp.c.vv",
"sgfacutv",
"s.hdbuvv",
"pg.fc.vv",
".um..mvv",
"uuu.um#t",
".pcdb.lv",
"dd...dnv",
"pd..fr.v",
"sglm.ruv",
"ddmn.guv",
"gcprcduv",
"u....umv",
"u.uuu#nv",
"pcbp.vvv",
"s..e.vvv",
"pg.cdvvv",
"sddd.vvv",
"r..unvvv",
"pg.uuvvv",
".unnnvvv",
"uu.uut#v",
".pcdr.uv",
"dd...fmv",
"pd..dp.v",
"cemn.bjv",
"ddmn..uv",
"gcprcf.v",
"u...du#v",
"u.u..umv",
"pcrp.tvv",
"r.jf.vvv",
"p.gcdvvv",
"sddc.tvv",
"s..d.vvv",
"pg.grvvv",
".umu.vvv",
"u...u#vv",
"crdcduvv",
"s....mvv",
"rsdg.ltv",
".gffdnvv",
"glu.dlvv",
"sprpf.vv",
"....unvv",
"u..u.mvv",
"cdrrcutv",
"..dd.mvv",
".gcc.uvv",
"mucdlmvv",
"nuddnnvv",
"u.bcuuvv",
"nm..mmvv",
"unuulnvv",
"p.uud.vv",
"s.nmfuvv",
"pgu.b.vv",
"sgmud.vv",
"cenmduvv",
"dpspd.vv",
"....umvv",
"uuuuuuvv",
"rduuc.vv",
"fdunduvv",
"dp..c.vv",
".dcfdmtv",
"m.sc.nvv",
"ugrp.uvv",
"nu..unvv",
"uluuun##",
"rduedu.r",
"ddlddldd",
"dr.rc.pd",
".cdcdgqg",
"udcdgcdm",
".dpdgpd.",
"n...l..m",
"uuuuuu#n",
"cruudgvv",
".cf.flvv",
".dprdlvv",
"ugsc.mvv",
"ucg.dnvv",
"rcdgc.vv",
"..ll.uvv",
"uuunuuvv",
"crulr.vv",
".s...mvv",
"gcrrduvv",
"u.dc.nvv",
"nuddnmvv",
"u.cbulvv",
"nm..mnvv",
"uu.ku#vv",
"dbscp.vv",
"u..e.uvv",
"..fpfuvv",
"mgceulvv",
"gc.umnvv",
"ppprcuvv",
"..j..mvv",
"g.gu#nvv",
"rf..vvvv",
"c.mnvvvv",
"r.uuvvvv",
"c.mmvvvv",
"cunmvvvv",
"r.uuvvvv",
"c.nnvvvv",
"dg.mtvvv",
"sdlu#vvv",
"gdmmtvvv",
".pgunvvv",
"ufcu#vvv",
"mjd.tvvv",
"ugdcnvvv",
"nm.c#vtv",
"....#tvv",
"fdc.vvvv",
"uddmvvvv",
".dc.vvvv",
"ugcuvvvv",
"mgduvvvv",
".dc.vvvv",
"mgduvvvv",
".g.ut#vv",
"u.rp.lvv",
"m.d..nvv",
".pf.cuvv",
"gfu.guvv",
"mm#nmmvv",
"uuuuuuvv",
"nnnmnnvv",
"unu#lnvv",
"uulullvv",
"nn#nm#vv",
"uuuuuuvv",
"unununvv",
"nn#n#nvv",
"uuuuuuvv",
"nmnmnnvv",
"f..mu#vv",
"dc.vvvvv",
"u.mvvvvv",
"u.uvvvvv",
"mnlvvvvv",
"nmnvvvvv",
"uuuvvvvv",
"n#nvvvvv",
"unut#vvv",
"uuuulvvv",
".dddnvvv",
"fdgcevvv",
"fdddfvvv",
"sg.d.vvv",
"cprsdvvv",
".....vvv",
"guulmvvv",
"p.uultvv",
"sddgnvvv",
"pdfr.vvv",
"sg.gfvvv",
"s.md.vvv",
"pppr.vvv",
"..u.uvvv",
"uuuumvvv",
"uuuuuvvv",
"mgddnvvv",
"cr.dgvvv",
"sg.uuvvv",
"cdnnnvvv",
"drqrfvvv",
"....mvvv",
"mlu.uvvv",
"uuuddvvv",
"mgdc.vvv",
"ccecdtvv",
"r..gfvvv",
"s.md.vvv",
"dppsdvvv",
"..u.uvvv",
"muuuutvv",
"uuuuuvvv",
"mgddnvvv",
"csfddvvv",
"bdddgvvv",
"cd...vvv",
"drppdvvv",
"u.u.lvvv",
"u.g.mvvv",
"drfe#vvv",
"ccd.#tvv",
"srd.tvtv",
"cd.lnvvv",
"ddlmtvtv",
"bc.unvvv",
"..mntvvv",
"unun#tvv",
"uuuluvtv",
"mgdduvvv",
"csgcdvvv",
"b..gdvvv",
"celf.tvv",
"dpsrcvvv",
"...d.vvv",
"dgg.uvvv",
"p.uuutvv",
"sfdfnvvv",
"pcfr.vvv",
"sg.d.vvv",
"s.ud.vvv",
"pg.bfvvv",
".um.lvvv",
"uu###vvv",
"r.vtvtvv",
"dlvtvvtv",
"p.vvtvvv",
"sgvvvtvv",
"s.vvtvtv",
"pgvvvvvv",
".uvvvtvv",
"uu##ttvv",
"ugc.tvtv",
"udfmvtvv",
"gcr.vvtv",
"uec.vvvv",
"mfdlvvvv",
".dpgvvvv",
"mfdlvvvv",
"cg.utvvv",
"p.uu#vvv",
"s.ng#tvv",
"pgsp#vtv",
"sbc.nvvv",
"s.dd#vvv",
"pgdplvvv",
"....#vvv",
"gu##nvvv",
"p.vvvvvv",
"s.vvvvvt",
"pgvvtvvt",
"sgvvvtvv",
"s.vvtvtv",
"pgvvvvvv",
".uvvvtvv",
"uut#t#t#",
"uuuullul",
"g.df.d.n",
"pcerddp.",
"sg.df.s.",
"s.ud..s.",
"pg.cfgpg",
".um.uu.u",
"uunuun##",
"uuluuvvt",
".gdfnvvv",
"pc.r.vvv",
"sg.d.vvv",
"s.ud.vvv",
"pg.bfvvv",
".um.jvvv",
"uumuutvv",
"uulllvvv",
"mgdgnvvv",
"scfsgvvv",
"b.u.dvvv",
"ddmfgvvv",
"dpsp.vvv",
"....uvvv",
"mluuuvvv",
"uuuuuvvv",
".gdgnvvv",
"pdfr.vvv",
"sg.gfvvv",
"s.ld.vvv",
"prpr.vvv",
"s.u.uvvv",
"g.mumvvv",
"uuuuuvvv",
"mgdfuvvv",
"scdddvvv",
"b..ffvvv",
"celg.vvv",
"dpsrcvvv",
".....vvv",
"mlu.uvvv",
"uuuutvvv",
"guglvvvv",
"prsgvvvv",
"sg.uvvvv",
"s.nnvvvv",
"pguuvvvv",
".umnvvvv",
"uunmtvvv",
"uull#vvv",
"uddg#vvv",
"pddcnvvv",
"cdddnvvv",
"...dmvvv",
"rppsnvtv",
".u..nvvv",
"uuum#vvv",
"ucd.nvvv",
"udc.#vvt",
".rrdnvvv",
"ucd.#vvt",
"ldduttvt",
".dprnvvv",
"n...#vtv",
"unuunvvv",
"uuuulvvv",
".mn.uvvv",
"p.ucgvvv",
"sguc.vvv",
"s.ud.vvv",
"cprpfvvv",
"....uvvv",
"uuuuuvvv",
"uuuuuvvv",
"gunm.vvv",
"rcu.dtvv",
".cgdfvvv",
"udccuvvv",
".gpc.vvv",
"n...nvvv",
"unuumt#v",
"uuuuuulv",
".mn.m.uv",
"rd.pgp.v",
"ddcddc.v",
".cd.dguv",
"grcgce.v",
"l..u.unv",
"mmluun#v",
"uuullvvv",
"gunm.vvv",
"dp.cdtvv",
".gqd.vvv",
"mcdcutvv",
"rsgddtvv",
".....tvv",
"uunuuvvv",
"uuluuvvv",
".unmutvv",
"rd..bvvv",
"fc.sgvvv",
"u.scuvvv",
".gpd.vvv",
"m.c.nvvv",
"ng.unvvv",
"luuu#vvv",
".ggg#vvv",
"ddspnvvv",
"udcg#vvv",
"gd.l#vtt",
"ppprnvvv",
"..u.#vvt",
"uu..#vvt",
"uupd#vvt",
"nud.nvvv",
"ugp.#vvt",
"fdfjnvvv",
"..dmtvvt",
".gp.nvvv",
"mucutvvt",
"muefmvvt",
"u.q.#vvt",
"nuduttvt",
"u.pgnvvv",
"m.c.#vvt",
"nuclttvt",
"u.rgnvvv",
"n.cu#vvv",
".gfu#vtv",
"gdbu#vvt",
"u.cltvvt",
"ugp.nvvv",
"mudc#vvt",
"nmc.mtvv",
"ugr.#vtv",
"#.cutvtv",
".g.un#vt",
"uuluultv",
"mnnmnnvv",
".ddu..vv",
"cgdde.vv",
"..u..lvv",
".uu..uvv",
"nnnn#nvv",
"mnunn#vv",
"llulvvvv",
"nmn#vvvv",
"uuulvvvv",
"mnumvvvv",
"n#nnvvvv",
"uuuuvvvv",
"mnmnvvvv",
"mmu.#tvv",
".pcdcfvv",
"de...lvv",
"pf....vv",
"sgunmmvv",
"ddlmlmvv",
"gcprr.vv",
"u....mvv",
"uug..#vv",
"gcdbuvvv",
"d...uvvv",
"p..sfvvv",
"sguc.vvv",
"s.ud.vvv",
"cprsdtvv",
"....uvvv",
"uuufuvvv",
"u.cdjtvv",
"mgddnvvv",
"csfcdvvv",
"rdddgvvv",
"cd...vvv",
"frppdvvv",
"..l.uvvv",
"m.f.uvvv",
".cecuvvv",
".dcduvvv",
"dd.cfvvv",
"ddddgvvv",
"s..f.vvv",
"cprscvvv",
"....uvvv",
"uuu.uvvv",
"ucfs.vvv",
"gddduvvv",
"dddcgvvv",
"fdddfvvv",
"r..d.vvv",
"cprsdvvv",
".....vvv",
"u..uutvv",
"ugs.uvvv",
".dcdnvvv",
"ddgbdvvv",
"fdddfvvv",
"sg.d.vvv",
"cprscvvv",
"....uvvv",
"uu..uvvv",
"updr.vvv",
"uc.d.vvv",
".drs.vvv",
"gdfd.vvv",
"lddc.vvv",
"pcdddvvv",
"sg.d.tvv",
".dcd.vvv",
"csfd.vvv",
"r...utvv",
"pguuuvvv",
"ccgguvvv",
"...dutvv",
".bsc.vvv",
"m...nvvv",
"n.f.uvvv",
".ddcuvvv",
"ldddnvvv",
"rcfcdvvv",
"cdddgvvv",
"cd...vvv",
"drppdvvv",
"u.u.lvvv",
"uuu.uvvv",
".r.ruvvv",
"ldcdlvvv",
"ccgcgvvv",
"rdddgvvv",
"cd...vvv",
"drppdvvv",
"u.u.lvvv",
"u..uuvvv",
".dc.uvvv",
"mdddnvvv",
"ccgcdvvv",
"rdddgvvv",
"cd...vvv",
"drppdvvv",
"u.u.uvvv",
"uuuu#vvv",
"r.r.vvvv",
".f.lvvvv",
".p.uvvvv",
".sgmvvvv",
".s.nvvvv",
"gpelvvvv",
"u.unvvvv",
".g.mvvvv",
"rds.vvvv",
".f.mvvvv",
".pguvvvv",
".s.mvvvv",
".s.nvvvv",
"gpglvvvv",
"u.umvvvv",
"..u#vvvv",
"fs.vvvvv",
".dmvvvvv",
"dr.vvvvv",
"gqkvvvvv",
"fduvvvvv",
"dp.vvvvv",
"..uvvvvv",
"mun#t#tv",
"udsfdlvv",
"mu..unvv",
"u.pp.uvv",
"mdcdg#vv",
"uc..flvv",
"dpprsuvv",
"dd..guvv",
"..ff.uvv",
".cddduvv",
"mgdd.nvv",
".gpp.uvv",
"mfsd.mvv",
"udf.fnvv",
"fprqcutv",
"dd..duvv",
".....nvv",
"u.p.#vvv",
".g.g#vvv",
"pscslvvv",
"sffgmvvv",
"sgef#vvv",
"pd..#vtv",
"s.ml#ttv",
"cd.unvvv",
"cs.vvvtv",
".dlvvvvv",
"gg.vvvvv",
"mlmvvvvv",
"nnnvvvvv",
"uuuvvvvv",
"nmnvvvvv",
"mm.dd.f.",
"nld.d...",
"udpfcscd",
"mddddgge",
"gsf.c.u.",
"pdg.rpqr",
"..lm....",
"..uu....",
"ugddlvvv",
"udcdmvvv",
"scgcgvvv",
"b....vvv",
"cgugdvvv",
"dpspgvvv",
"....uvvv",
"u...uvvv",
"udufuvvv",
"udddnvvv",
"rcgcevvv",
"c....vvv",
"cdmfdvvv",
"dpspgvvv",
"....uvvv",
"u...lvvv",
"u.dulvvv",
"ldcdmvvv",
"sbgcgvvv",
"c....vvv",
"cgugdvvv",
"dpspgvvv",
"....uvvv",
"u...uvvv",
"ufdfuvvv",
"g...uvvv",
"pg.cgvvv",
"s.md.vvv",
"sgucgvvv",
"cpprfvvv",
"..u.jvvv",
"..g.utvv",
"uu.muvvv",
".fs.lvvv",
"....mvvv",
"p..dftvv",
"sgub.vvv",
"s.ld.vvv",
"cprsfvvv",
"....uvvv",
"uuu.uvvv",
"ucfskvvv",
"eg...vvv",
"sc.gcvvv",
"gc.cgvvv",
"ugsduvvv",
".dpc.vvv",
"n.c.nvvv",
"ue..mvvv",
"ur.ruvvv",
"udcdnvvv",
"rcgcevvv",
"cgu.dvvv",
"dfmfgvvv",
"dpsp.vvv",
"....uvvv",
"uuj.lvvv",
"gcfeutvv",
"d..gltvv",
"p.gcfvvv",
"sgudgvvv",
"s.ud.vvv",
"cpprfvvv",
"..u.jvvv",
"uuulutvv",
"u.d.uvvv",
"n.dfnvvv",
"dpsdfvvv",
"cgd.uvvv",
"cddunvvv",
"drpr.vvv",
".ud.jvvv",
"muf.utvv",
"ucrdfvvv",
"us..uvvv",
"gpg.uvvv",
"frdguvvv",
".d.lmvvv",
"pppsgvvv",
"..u.uvvv",
"ujuuuvvv",
"rcu.bvvv",
".c.g.vvv",
"gsbpgvvv",
".drd.vvv",
"u.c.uvvv",
".gpd.vvv",
"#u..nvvv",
"mnuuumvv",
"uludcfvv",
"mnucguvv",
"u.dpduvv",
"m.dr.uvv",
"nlddl#vv",
"u.pfulvv",
"dcd.nnvv",
"luuel#vv",
"u.cduvvv",
".dddmvvv",
"fdfrdvvv",
"fddcgtvv",
"sg.f.vvv",
"cprsdvvv",
"....uvvv",
"..umnvvv",
"sf.vvvvv",
"d.mvvvvv",
"rduvvvvv",
"cduvvvvv",
"dfmvvvvv",
"pduvvvvv",
"..mvvvvv",
"um.n#vvv",
"u.s.lvvv",
"mdcdnvvv",
"cbgcevvv",
"sgu.dvvv",
"ddmfgvvv",
"dpsp.vvv",
"....uvvv",
"mu..uvvv",
"u.r.uvvv",
"gu.guvvv",
"p..c.vvv",
"sgucgvvv",
"s.ud.vvv",
"cprrfvvv",
"....jvvv",
".f.glvvv",
"cedc.vvv",
"dfcdmvvv",
"psgr.vvv",
"sg.d.vvv",
"s.ud.vvv",
"pg.cfvvv",
".um.uvvv",
"u..uk#vv",
"dsdr.lvv",
"....unvv",
"pp..clvv",
"sdbucuvv",
"c.ddduvv",
"p.frc.vv",
"s..ddlvv",
"fg...ovv",
"ddcr#vvv",
".dcd#vvv",
"pd.pnvvv",
"dddcnvvv",
"....#vvv",
"u..u#vvv",
"nonntvtv",
"u.uu#tvv",
"pdcr#vtv",
"d..cnvvt",
"pdcr#vvt",
".gf.nvvv",
"mummtvvv",
"uuul#vvv",
"nnnn#vtv",
"mmulttvv",
"ulr.nvvv",
"nu.ltvvv",
"u.p.nvvv",
"fdgu#vvv",
"s.ln#vvv",
"cprq#vtv",
"....nvvt",
"uuuuntvv",
"uuuuljvv",
"nmnmnnvv",
"uuuuulvv",
"gffecuvv",
"l.ll.jtv",
"uuujdgvv",
"nnmnulvv",
"mmnlunvv",
"uuuuuuvv",
"nmnmnnvv",
"uuuuuuvv",
"ucgdfevv",
"ud.uuuvv",
".r.lllvv",
"l.unmnvv",
"mumnunt#",
"cr.lf.ll",
".dumemnm",
".pgfdcdu",
".dgcggcf",
"m.dhlde.",
"udcggpqb",
"mu.ul...",
"mumuuuuu",
"cr.uf.uu",
".dum.mnm",
"gp.dcg.u",
"udgcdddu",
"m.dgdcr.",
"udc.gdcg",
"nu.u...u",
"uu#n##n#",
"r.vvvvvv",
".uvvtvvt",
"p.vvvtvv",
"sgvvvvtv",
"s.vvvtvv",
"pgvvvvtv",
".uvvvtvv",
"uut#tvtv",
"uuullvvv",
"nmunmvvv",
"udcdfvvv",
"cdcd.vvv",
".gd..vvv",
".fdg.vvv",
"#mllnvvv",
"nlnmlvvv",
"uuuuuvvv",
"mmunnvvv",
"sfrduvvv",
"gsgs.vvv",
"d.c.uvvv",
"fgdguvvv",
"mllm#tvv",
"###n#tvv",
"vttvttvv",
"vvtvvttv",
"vvtvvvvv",
"vvvtvtvv",
"vvvvtvtv",
"vvvtvvvt",
"vvvvtvtv",
"vvvvvtvt",
"vvvvtvvt",
"vvvvvtvv",
"vvvvtvvt",
"vvvvvtvv",
"vvvvtvvt",
"vvvvvtvv",
"vvvvtvvt",
"vvvvvtvv",
"vvvvtvvt",
"vvvvvtvv",
"vvvvtvvt",
"vvvvvtvv",
"vvvvtvvt",
"vvvvvtvv",
"vvvvtvvt",
"vvvvvtvv",
"vvvvtvvt",
"vvvvvtvv",
"vvvvtvvt",
"vvvvvtvv",
"vvvvtvvt",
"vvvvvtvv",
"vvvvtvvt",
"vvvvvtvv",
"vvvvtvvt",
"vvvvvtvv",
"vvvvtvvt",
"vvvvvtvv",
"vvvvtvvt",
"vvvvvtvv",
"vvvvtvvt",
"vvvvvtvv",
"vvvvtvvt",
"vvvvvtvv",
"vvvvtvvt",
"vvvvvtvv",
"vvvvtvvt",
"vvvvvtvv",
"vvvvtvvt",
"vvvvvtvv",
"vvvvtvvt",
"vvvvvtvv",
"vvvvtvvt",
"vvvvvtvv",
"vvvvtvvt",
"vvvvvtvv",
"vvvvtvvt"
};
