/* XPM */
static char *stop_buttons256[] = {
/* width height num_colors chars_per_pixel */
"    20    60       46            1",
/* colors */
". c #000000",
"# c #808080",
"a c #c0dcc0",
"b c #a6caf0",
"c c #2a5f55",
"d c #2a7f55",
"e c #2a7faa",
"f c #553f55",
"g c #555f55",
"h c #557f55",
"i c #557faa",
"j c #559faa",
"k c #55bfaa",
"l c #55bfff",
"m c #55dfaa",
"n c #55dfff",
"o c #7f5f55",
"p c #7f7f55",
"q c #7f7faa",
"r c #7f9faa",
"s c #7fbfaa",
"t c #7fbfff",
"u c #7fdfaa",
"v c #7fdfff",
"w c #7fffff",
"x c #aa9faa",
"y c #aabfaa",
"z c #aadfaa",
"A c #aadfff",
"B c #aaffff",
"C c #d4bfaa",
"D c #d4dfaa",
"E c #d4dfff",
"F c #d4ffff",
"G c #ffdfaa",
"H c #ffdfff",
"I c #ccccff",
"J c #99ffff",
"K c #ccffff",
"L c #2a1f00",
"M c #2a1f55",
"N c #2a3f00",
"O c #2a3f55",
"P c #fffbf0",
"Q c #a0a0a4",
"R c #ffffff",
/* pixels */
"#fMLLMg#QQQQ#gOLfg#q",
"gMLM#yyyyCyyxxQgOfgq",
"MLO#QxxyCyCCyyQQpOg#",
"LL#yyCaCIaIaaCyxQpOg",
"LgQxyCaEGPGaCCyQQ#gO",
"MQyCaIP......EaCyQQL",
"gQQxCDELLLLMLGCyQ##g",
"#QxaaHP......REaCQQ#",
"#QyCaPPLLMLLLaDCQ#pp",
"QQyCaHP......RPayxQ#",
"#QQCaaaMLLLMLaCyQ#pp",
"QQxCaPR......PaCyQ##",
"p#QQCCaLLMLLLaCQ#ppg",
"gQQyaaH......aaCQQ#g",
"N###QxyCaCaCyQQ#pppO",
"OgQxxyyCaaCaCCQQQ#gg",
"gfp###QQQQQ###pppggx",
"#gf#QQQQQQQyQQ###gQy",
"p#gfgppppppppppgfQyx",
"###pfOg#Q####gOoyyx#",
"#OMLLLg##QQr#gLMOo#q",
"fNLM#rxyyyyxQQrgOO##",
"MMO#rQQyxyyyQQr##OO#",
"LL#QxyaIaIIabyyQroOg",
".grQyybaIaaIaxxr##gO",
"OQQybaE......EayQr#O",
"frrxyaELLLLLLabQr##f",
"#QxaaER......Eabyrq#",
"#rQxbIELLMLMLbaQq##g",
"rQQaaEP......FIaxrq#",
"#rrxyaILLLLLLbyrr##g",
"#QxyaEF......EbbQri#",
"g#rrxybLLMLMLyQr##gg",
"grQxbaI......byxrq#O",
"M###rQsxbyyyQrqi#ggO",
"OgrrQQyybybbyQQr#qgg",
"gOg##qqqrqq#qi#gggOx",
"pgf#qrrrQrQr##q#ifQy",
"##gOg#g##g#gigggfQyQ",
"g##pfOO###q##fOgQyQ#",
"#fML.OgjjrrjjcOLfg#q",
"gMLOjssysysyssrhOO##",
"MLOjrrssbsbsssrjjOO#",
"LNjsyyabbababbssr#Og",
".irrsbbbaBBAbussjjcO",
"Orsybaa......AbbsrrO",
"crssubBLLLLLLJvskjjc",
"rssabKF......Babssj#",
"jrrsbABLMLMLLJvmkjii",
"rssbaBK......BAbssjj",
"jrssubBLLLLLLwvnjjii",
"rrsybAK......Bbusrjj",
"ijrssbJLMLMLLvsljjid",
"crssbzA......vbsrjjc",
"O#jjsktuvvvvtkkjjehO",
"Odrrsssububusssjjjcg",
"gOijjjjjkjkjjjiiehfx",
"#gOjrrssrsrsjjjjicQy",
"p#gOdeiiiieiieicfQyQ",
"###pfOcjjjjjjcOgxyQ#"
};
