/* XPM */
char *stop_buttons[] = {
/* width height num_colors chars_per_pixel */
"    20    60      250            2",
/* colors */
".. c #040204",
".# c #44848c",
".a c #a4a393",
".b c #74c2c4",
".c c #54a2b4",
".d c #a4d2d4",
".e c #344240",
".f c #3c6367",
".g c #7c8273",
".h c #b4baa4",
".i c #d4d3c2",
".j c #7ca6a4",
".k c #646361",
".l c #849294",
".m c #bcbba9",
".n c #7ce2ec",
".o c #7cb3af",
".p c #4c4b4b",
".q c #8cc5c4",
".r c #a4ebec",
".s c #4c929c",
".t c #d4eef4",
".u c #6c7269",
".v c #a4b0b6",
".w c #1c2224",
".x c #61b2b9",
".y c #c4c7b2",
".z c #949483",
".A c #1c3334",
".B c #bcd4e0",
".C c #747667",
".D c #3c7880",
".E c #84857a",
".F c #a4aeac",
".G c #8cd3d2",
".H c #6ca4a4",
".I c #3c5458",
".J c #9ca28c",
".K c #a4ccca",
".L c #649492",
".M c #9cb2b9",
".N c #bccdd1",
".O c #dce1cf",
".P c #343532",
".Q c #546264",
".R c #4c5654",
".S c #ecebd9",
".T c #747d88",
".U c #5e8e94",
".V c #7cbab4",
".W c #74d6e4",
".X c #a4bac4",
".Y c #949494",
".Z c #448d99",
".0 c #a4a5a4",
".1 c #3c4444",
".2 c #84949e",
".3 c #94a5b0",
".4 c #b4bdc1",
".5 c #74838e",
".6 c #c4ebe9",
".7 c #5499a6",
".8 c #cccab9",
".9 c #b4b6b4",
"#. c #e4e3cf",
"## c #7cc2c4",
"#a c #5cadb9",
"#b c #a4e4e2",
"#c c #646a5c",
"#d c #747a71",
"#e c #848c99",
"#f c #6cacac",
"#g c #f4f6e4",
"#h c #849aa4",
"#i c #94abb7",
"#j c #bcc2ac",
"#k c #8cced4",
"#l c #a7b6b9",
"#m c #243a38",
"#n c #ccd4d4",
"#o c #5c5d58",
"#p c #acc2c8",
"#q c #548488",
"#r c #6cb5b7",
"#s c #848a7c",
"#t c #b4b6a2",
"#u c #343a41",
"#v c #54626c",
"#w c #8cbbb7",
"#x c #444b4f",
"#y c #7c8c96",
"#z c #a8aa9a",
"#A c #3c6c70",
"#B c #7cada9",
"#C c #bcbcb6",
"#D c #84fafc",
"#E c #64737c",
"#F c #242a2c",
"#G c #949a8a",
"#H c #9cd6d4",
"#I c #345b61",
"#J c #649b9f",
"#K c #acbcc1",
"#L c #646c79",
"#M c #448494",
"#N c #64a5aa",
"#O c #dcdad0",
"#P c #8cb6b4",
"#Q c #4c5259",
"#R c #9cc4c0",
"#S c #b0fafc",
"#T c #5c9599",
"#U c #c0dae0",
"#V c #4c7674",
"#W c #94d5d2",
"#X c #cccecc",
"#Y c #545e64",
"#Z c #949da3",
"#0 c #cccebc",
"#1 c #e4e5e1",
"#2 c #7c7c6f",
"#3 c #fcfae8",
"#4 c #9cabb0",
"#5 c #9ce4e8",
"#6 c #84b3ae",
"#7 c #d4fafc",
"#8 c #acb1b4",
"#9 c #141618",
"a. c #c0fafc",
"a# c #6cced4",
"aa c #2c4a4c",
"ab c #64bcc8",
"ac c #e4eaec",
"ad c #b4c8ce",
"ae c #d4e6e8",
"af c #5c6b75",
"ag c #6c7b83",
"ah c #b4dad9",
"ai c #b4eaec",
"aj c #b4dedc",
"ak c #94bdbc",
"al c #7ccac4",
"am c #9ceef4",
"an c #8ca2b0",
"ao c #c4ceb4",
"ap c #3c7e8c",
"aq c #2c3336",
"ar c #9cdcd8",
"as c #9ccacc",
"at c #e4fafc",
"au c #549eb0",
"av c #1c1e1c",
"aw c #94fafc",
"ax c #ccfafc",
"ay c #bfc6c1",
"az c #4c565c",
"aA c #f0fafc",
"aB c #a4dadc",
"aC c #acf2f4",
"aD c #abaaa8",
"aE c #79827f",
"aF c #98a2a4",
"aG c #b4c2c8",
"aH c #a4b6c8",
"aI c #ccdae4",
"aJ c #d4d4d0",
"aK c #4c4e5c",
"aL c #eceeec",
"aM c #5ca3ac",
"aN c #8c9387",
"aO c #94c4c2",
"aP c #447a8c",
"aQ c #acafa1",
"aR c #6c969c",
"aS c #c4ced0",
"aT c #7c7b7c",
"aU c #84bcbb",
"aV c #444449",
"aW c #6c6b60",
"aX c #74acad",
"aY c #8c9ca1",
"aZ c #2c3d3e",
"a0 c #3c3b38",
"a1 c #2c2b2c",
"a2 c #9c9c95",
"a3 c #5c9a9c",
"a4 c #b4e6e4",
"a5 c #fcfafa",
"a6 c #5c6259",
"a7 c #c4c2bc",
"a8 c #54524c",
"a9 c #447e8c",
"b. c #5c9ea4",
"b# c #4c8488",
"ba c #44666c",
"bb c #dcf2fc",
"bc c #24242c",
"bd c #c4d5df",
"be c #74a5a3",
"bf c #445254",
"bg c #54574c",
"bh c #7cdae0",
"bi c #4c8b95",
"bj c #8c969c",
"bk c #cce0e7",
"bl c #9ca6ac",
"bm c #7c858f",
"bn c #64aeb4",
"bo c #ace6e4",
"bp c #94cacc",
"bq c #74b3b4",
"br c #8c8e7e",
"bs c #5c6673",
"bt c #446c70",
"bu c #c4bebc",
"bv c #6c7684",
"bw c #9c9b8c",
"bx c #3c5c64",
"by c #6c9e9c",
"bz c #4c869c",
"bA c #ece6e4",
"bB c #74cdd7",
"bC c #344e50",
"bD c #dce2e4",
"bE c #84cccc",
"bF c #545a5f",
"bG c #a4a49c",
"bH c #74c6d4",
"bI c #acd6d4",
"bJ c #84e6ec",
"bK c #aceaec",
"bL c #a4b2c4",
"bM c #94968c",
"bN c #243634",
"bO c #747574",
"bP c #848684",
"bQ c #8cd6dc",
"bR c #64969c",
"bS c #bccddc",
"bT c #34363c",
"bU c #7cbec4",
"bV c #aca6a4",
"bW c #ccc8c4",
"bX c #94dcdc",
"bY c #84c4c4",
"bZ c #b4b4ac",
"b0 c #acbecc",
"b1 c #94d6dc",
"b2 c #9caebc",
"b3 c #dcf6fc",
/* pixels */
".TaKa1bc#9a1.k.EbwbGa2bw.E#o.PavaVbs.T#e",
"aKa1av#Fbr#zbZ.m.9#C#CbZbZaQbGaWa1aV#L.T",
"a1avaV.EbGbVbZ.9#Cbu.m#C#t#z.abM#2aVaKbv",
".wa1.EaQ.9#C.yaJaJaJ#OaJ#Xa7#CaQbG#2bTbs",
"#9aWa2bV.ma7#X#O#1.S.S.O.i.8bZbGbwbr.k#u",
"a1a2bZ#Cay#O#1............#.aJa7aQ.a.z.P",
"#obwbGbZbW#OaLavavavavavav.O.8#t.abr.Ea8",
"brbVbZa7aJ#1a5............#g#1#X#C#zbM.E",
"bra2bV.m.i.S#gavavavavavav.O.i.h.aaN.E.C",
"a2bG.9a7#OaL#g............#g.S.i.m.a.zbr",
"brbwbG.m#X.O.Savavavavavav#Oao#t.Jbr#2.C",
"bMbGbZ#CaJbAaA............#3#.#0#t.J.z#s",
".C.za2#z.m#0.Oavavavavavav.y.h#z.z.E.C#c",
"bga2bVbZa7aJ#.............#.#0.h#z.zbra8",
".P.EaN#G.aaQ.h.y.y.y.y#j#t#zbwbr.g.C.ua0",
".P#obw.aaD#t#C.8#0.i.i#0.y.h#z.J.zbrbg.k",
".ka0.C.Ebr.z#Gbw.J.Jbw#G.zbr.g#2.CaW.paD",
"#d#o.pbr#Gbw.a#z#zaQ#z.a.a#G.zbr.Ea8#G#C",
"bOaTa6a0.k#2#2.g.g#2.g#2.C.C.u#oa8#G#C.0",
".u#2bP#d.p#ubg.Ebrbrbrbr.Ebga0aW#8#C.0bP",
".TaK#Fbc#9a1bF.T.laYaY.l#d.R#F.waVbs.T#e",
"aKa1av#F.TaF#z.F#8#l#8#8#4blaF.Qa1aV#L.T",
"a1av#u.T#Z.3#4.v#l#K#l.M#4aY.2#e#E.1#xbv",
"bcbc.T#4.v.9ay#X#n#n#n#nay.4#8blaY#LbTbs",
"#9.QaYaF.v#Kad.B#UaIbd.Nad.X#4.2#y.TbF#u",
"#FaY.0#lay#nbD............bk.N#KblaY#yaq",
"#QbjaF#4#paSae#9avavavavav.N#K.3.2.5bv#x",
"bmaF.Fay#nbDaA............bbbkad.M#Z#y.T",
".5.lan.Madbdaeavavavavavavad#p#i#e.5#E#L",
"bja2.F.4#nacaA............b3bkadbLaY#y.5",
".5.laY#4#KbS#Uavavavavavav#pb0an#y.T#Ebs",
"#eaY.F#KaSaeat.............t.Bb0#4.2.5.T",
"#Lbm.l#Zb2#K.NavavavavavavbL.3#h.5bvaf#Y",
"bfbj#Z#4#K.N#U............bSb0b2bj#y.T#x",
"a1#d.5#ebjan#4.MbLaH.Mb2.3#h#yag#Ebsbsaq",
"#uaz.laYaF#4aHb0#p#paGb0aH.3aY.2bm.Tbf.k",
".k.P#Lagag.5#y#y.2#y#y#y.5ag#E#Lbs#v#x.0",
"#d#o.1.5#e.2bjaYan#ZaYbj.2#e.5.TagaV.Y.9",
"bOaT.k#ubF#E#E#E#L#E#E#Laf#vaf#Q#x.Y.9aF",
".u#2aEbO#x.P#x.Tbm.5.5.T.T#xbTbsaD.9bGbP",
".TaKa1bc#9bN#A#T.H#B.j.H.UbabNbcaVbsbv#e",
"aKa1av.A.L#6akakaOakaOak#w#PaX#VbNaV#L.T",
"a1avaa.L#B#6#P.qaO.q.qbYaU.oaXbybibCaKbv",
"bc.A.U#wak#R.KbIahajajah.dasak#6#B#qaZbs",
"#9#V.j#6#was#W#bbobK.r#bar.GbYbq#N#Tbt#u",
".A#B#w#R.Kah.6............a4#HbpaUaX.H#m",
".fbe#BaU#WaBaCavavavavavavambhbY.xaM.s#I",
"aR#6ak.Kah.6#7............#SbKb1bYbq.H.U",
".Lbe.obY#W.r#SavavavavavavawbJbB.xau.sb#",
"#B#Bakasaj.6ax............#S.rbXbYbq#JbR",
"#JbebqbY#W.raCavavavavavav#Dbha##a.7bi.#",
"be#B#waObIaia.............aCam.GbU#fb.#T",
"a9bybe.ValbXamavavavavavav.WbB.xau.s.#.D",
"bx.j#6aUas#H#5............#5.G##aX#N#T#I",
"#m.U.L#Nbq.bbBbh.W.n.n.WbHab.x.7.Z#MapaZ",
".PbtbeaX.oaUbY#kbQ#WbQ.GbE.b#rbnb..7.f.k",
".kaZb##T.7aMaM#a.x#a#aaM.c.7.Z.ZaP.D.IbG",
"#d#obC#J#N.HaXbq.obqbq#r#f#N#J.7.U.I.Y.9",
"bOaTa6#u#Abibibibzbibz#Ma9apaP.f.I.Y.9.a",
".u#2aE#d.p#mbx#TbRa3#T#T.U#I.e.kaDbZaFbP"
};
