/* XPM */
static char *save_pic[] = {
/* width height num_colors chars_per_pixel */
"    16    16        8            1",
/* colors */
". c #000000",
"# c #808000",
"a c #000080",
"b c #808080",
"c c #c0c0c0",
"d c #ff0000",
"e c #ffff00",
"f c #ffffff",
/* pixels */
"..............cc",
".#.cccccccc.c.cc",
".#.cccccccc...cc",
".#.cccccccc.#.cc",
".#.cccccccc.#.cc",
".#.cccccccc.#.cc",
".#.cccccccc.#.cc",
".##........##.cc",
".############.cc",
".##.........#.cc",
".##......cc.#.cc",
".##......cc.#.cc",
".##......cc.#.cc",
"c.............cc",
"cccccccccccccccc",
"cccccccccccccccc"
};
