/* XPM */
static char *toolbar[] = {
/* width height num_colors chars_per_pixel */
"   208    16        8            1",
/* colors */
". c #000000",
"# c #808000",
"a c #000080",
"b c #808080",
"c c #c0c0c0",
"d c #ff0000",
"e c #ffff00",
"f c #ffffff",
/* pixels */
"ccc........ccccccccccccccc...cccc..............ccccccc.ccc.cccccc......ccccccccccccccc....ccccccccccc.........ccccccc......cccccc.cccccccaaaaabcccccccccccccccccccccccccccccccccccccccccccccccccccccb....ccccccc",
"ccc.ffffff..ccccccccccccc.ccc.c.c.#.cccccccc.c.ccccccc.ccc.cccccc.ffff..cccccccccc.....ee.....cccccc.ffffffff.cccccc.eeeee..ccccc..cccccaaccbaabccccccccccccccccccccccccccccccccccccccccccccccccccb.cfcfc.bccccc",
"ccc.ffffff.f.ccccccccccccccccc..c.#.cccccccc...ccccccc.ccc.cccccc.ffff.f.cccccccc.b#b.e..e.#b#.ccccc.f.....f.cccccc.ee...ee..cccc...cccaabcccaaaccccccc.cccccccccccccc.....ccccccc...cccccc...cccbbfbbbbbcb.cccc",
"ccc.ffffff....cccc...cccccccc...c.#.cccccccc.#.ccccccc..c..cccccc.f..f.aaaaaacccc.#b.cccccc.#b.cccc.ffffffff.cccccc.e..cc.e..cccc....ccaabcccaaacccccc.e.ccccccccccccc.eee.ccccccc.dd.cccc.dd.ccc.fbbbbbbbc.cccc",
"ccc.fffffffff.ccc.fef.......ccccc.#.cccccccc.#.cccccccc.c.ccccccc.fffffaffffaaccc.b#........b#.cccc.f.....f....cccc.e..c.ee..cccc.....cbaaccbaabccccc.eee.cccccccccccc.eee.ccccccc.ddd.cc.ddd.ccc.fb...bbbc.cccc",
"ccc.fffffffff.ccc.efefefefe.ccccc.#.cccccccc.#.cccccccc...ccccccc.f....affffafacc.#b#b#b#b#b#b.ccc.ffffffff.c.c.cccc..c.ee..ccccc......cccccaabccccc.eeeee.ccccccccccc.eee.cccccccc.ddd..ddd.cccc.fcbbbbbbc.cccc",
"ccc.fffffffff.ccc.fefefefef.ccccc.#.cccccccc.#.ccccccccc.cccccccc.fffffaf..faaaac.b#b#baaaaaaa.cc..........c.c..cccccc.ee..cccccc.......cccaacccccc.eeeeeee.ccccc......eee......cccc.dddddd.ccccc.fbfbbbbcc.bbbc",
"ccc.fffffffff.ccc.efef..........c.##........##.cccccccca.accccccc.f....afffffffac.#b#b#afffffaac.cccccccccc.c.c.cccccc.e..ccccccc........caabccccc.eeeeeeeee.ccccc.eeeeeeeeeee.cccccc.dddd.cccccc.fbfcccbbbbbbbb",
"ccc.fffffffff.ccc.fef.#########.c.############.ccccccccacaaaccccc.fffffaf.....fac.b#b#bafffffafa.............cc.cccccc.e..ccccccc.....ccccaabcccc.eeeeeeeeeee.ccccc.eeeeeeeee.ccccccc.dddd.cccccc.cbfbcbbbbccccb",
"ccc.fffffffff.ccc.ef.#########.cc.##.........#.ccccccaaacaccacccc......afffffffac.#b#b#afaaafaaa.ccccccbbbcc.c.ccccccc.e..ccccccc..c..cccccccccc......eee......ccccc.eeeeeee.ccccccc.dddddd.ccccc.fbcbcbbbccbccc",
"ccc.fffffffff.ccc.f.#########.ccc.##......cc.#.cccccaccacaccaccccccccccaf.....fac.b#b#bafffffffa.cccccceeecc...cccccccc..cccccccc.ccc..cccaaacccccccc.eee.ccccccccccc.eeeee.ccccccc.ddd..ddd.cccc.cbcbbb.bcbcbcb",
"ccc.fffffffff.ccc..#########.cccc.##......cc.#.cccccaccacaccaccccccccccafffffffac.#b#b#afaaaaafa.............c.ccccccc.ee..cccccccccc..cccaaacccccccc.eee.cccccccccccc.eee.ccccccc.ddd.cc.ddd.ccc.cbcbbb.bcccbbb",
"ccc...........ccc...........ccccc.##......cc.#.cccccaccaccaacccccccccccaaaaaaaaacc.....afffffffac.ccccccccc.c.cccccccc.ee..ccccccccccc..ccccccccccccc.eee.ccccccccccccc.e.cccccccc.dd.cccc.dd.cccbbbbbbb.bccb.bb",
"cccccccccccccccccccccccccccccccccc.............ccccccaaccccccccccccccccccccccccccccccccaaaaaaaaacc...........cccccccccc...cccccccccccc..ccccccccccccc.....cccccccccccccc.ccccccccc...cccccc...cccc..bbbb.bccbbb.",
"cccccccccccccccccccccccccccccccccccccccccccccccccccccccccccccccccccccccccccccccccccccccccccccccccccccccccccccccccccccccccccccccccccccccccccccccccccccccccccccccccccccccccccccccccccccccccccccccccccb......bbbb..",
"ccccccccccccccccccccccccccccccccccccccccccccccccccccccccccccccccccccccccccccccccccccccccccccccccccccccccccccccccccccccccccccccccccccccccccccccccccccccccccccccccccccccccccccccccccccccccccccccccccccccccccb.b.bc"
};
