/* XPM */
static char *trash_pic[] = {
/* width height num_colors chars_per_pixel */
"    16    16        8            1",
/* colors */
". c #000000",
"# c #808000",
"a c #000080",
"b c #808080",
"c c #c0c0c0",
"d c #ff0000",
"e c #ffff00",
"f c #ffffff",
/* pixels */
"ccccb....ccccccc",
"ccb.cfcfc.bccccc",
"cbbfbbbbbcb.cccc",
"c.fbbbbbbbc.cccc",
"c.fb...bbbc.cccc",
"c.fcbbbbbbc.cccc",
"c.fbfbbbbcc.bbbc",
"c.fbfcccbbbbbbbb",
"c.cbfbcbbbbccccb",
"c.fbcbcbbbccbccc",
"c.cbcbbb.bcbcbcb",
"c.cbcbbb.bcccbbb",
"cbbbbbbb.bccb.bb",
"cc..bbbb.bccbbb.",
"cccb......bbbb..",
"ccccccccccb.b.bc"
};
